<?xml version="1.0" encoding="UTF-8"?>
<svg width="24px" height="24px" viewBox="0 0 24 24" version="1.1" xmlns="http://www.w3.org/2000/svg" xmlns:xlink="http://www.w3.org/1999/xlink">
    <!-- Generator: Sketch 50.2 (55047) - http://www.bohemiancoding.com/sketch -->
    <title>Icons/Alert-triangle</title>
    <desc>Created with Sketch.</desc>
    <defs>
        <path d="M9.87915829,3.44887293 C10.4258742,2.54753799 11.3983964,2 12.4470257,2 C13.495655,2 14.4681772,2.54753799 15.0148931,3.44887293 L23.4930162,17.6026836 C24.0260538,18.5257831 24.0292363,19.662404 23.5013765,20.5884739 C22.9735166,21.5145439 21.9938982,22.0909683 20.9170257,22.102744 L3.96603518,22.1026836 C2.9001532,22.0909683 1.92053484,21.5145439 1.39267496,20.5884739 C0.864815078,19.662404 0.867997619,18.5257831 1.40915829,17.5888729 L9.87915829,3.44887293 Z M3.13400947,18.6028044 C2.95633029,18.9105042 2.95526944,19.2893779 3.13122273,19.5980678 C3.30717603,19.9067578 3.63371548,20.0988993 3.97801894,20.102744 L20.9070284,20.1028044 C21.2623224,20.0988993 21.5888619,19.9067578 21.7648152,19.5980678 C21.9407684,19.2893779 21.9397076,18.9105042 21.7701515,18.6166151 L13.3030189,4.481372 C13.1217361,4.18251266 12.797562,4 12.4480189,4 C12.0992423,4 11.7757234,4.1817132 11.5942134,4.47940787 L3.13400947,18.6028044 Z M11.5240944,9.33447266 C11.5240944,8.78218791 11.9718096,8.33447266 12.5240944,8.33447266 C13.0763791,8.33447266 13.5240944,8.78218791 13.5240944,9.33447266 L13.5240944,13.3344727 C13.5240944,13.8867574 13.0763791,14.3344727 12.5240944,14.3344727 C11.9718096,14.3344727 11.5240944,13.8867574 11.5240944,13.3344727 L11.5240944,9.33447266 Z M11.8169876,17.0415794 C11.4264633,16.6510551 11.4264633,16.0178902 11.8169876,15.6273659 C12.2075119,15.2368416 12.8406769,15.2368416 13.2312012,15.6273659 C13.6217255,16.0178902 13.6217255,16.6510551 13.2312012,17.0415794 C12.8406769,17.4321037 12.2075119,17.4321037 11.8169876,17.0415794 Z" id="path-1"></path>
    </defs>
    <g id="Icons/Alert-triangle" stroke="none" stroke-width="1" fill="none" fill-rule="evenodd">
        <mask id="mask-2" fill="white">
            <use xlink:href="#path-1"></use>
        </mask>
        <g id="Combined-Shape" fill-rule="nonzero"></g>
        <g id="Color/Secondary/LightGrey/100%" mask="url(#mask-2)" fill="#CECECE">
            <rect id="Color/Secondary/LightGrey" x="0" y="0" width="24" height="24"></rect>
        </g>
    </g>
</svg>