<?xml version="1.0" encoding="UTF-8"?>
<svg width="24px" height="24px" viewBox="0 0 24 24" version="1.1" xmlns="http://www.w3.org/2000/svg" xmlns:xlink="http://www.w3.org/1999/xlink">
    <!-- Generator: Sketch 50.2 (55047) - http://www.bohemiancoding.com/sketch -->
    <title>Icons/Attachment</title>
    <desc>Created with Sketch.</desc>
    <defs>
        <path d="M0.68,5.42 C0.68,4.5799958 0.8833313,3.8100035 1.29,3.11 C1.6966687,2.4099965 2.2533298,1.8533354 2.96,1.44 C3.6666702,1.0266646 4.4333292,0.82 5.26,0.82 L14,0.82 C14.600003,0.82 15.1533308,0.9699985 15.66,1.27 C16.1666692,1.5700015 16.5699985,1.9799974 16.87,2.5 C17.1700015,3.0200026 17.32,3.579997 17.32,4.18 C17.32,4.780003 17.1700015,5.3333308 16.87,5.84 C16.5699985,6.3466692 16.1666692,6.7499985 15.66,7.05 C15.1533308,7.3500015 14.600003,7.5 14,7.5 L6.94,7.5 C6.5666648,7.5 6.2166683,7.4066676 5.89,7.22 C5.5633317,7.0333324 5.3033343,6.7800016 5.11,6.46 C4.9166657,6.1399984 4.82,5.7933352 4.82,5.42 C4.82,5.0466648 4.9166657,4.7000016 5.11,4.38 C5.3033343,4.0599984 5.5633317,3.8033343 5.89,3.61 C6.2166683,3.4166657 6.5666648,3.32 6.94,3.32 L12.34,3.32 C12.8039192,3.32 13.18,3.69608081 13.18,4.16 L13.18,4.16 C13.18,4.62391919 12.8039192,5 12.34,5 L6.86,5 C6.7133326,5 6.6100003,5.066666 6.55,5.2 C6.4899997,5.333334 6.4899997,5.4699993 6.55,5.61 C6.6100003,5.7500007 6.7133326,5.82 6.86,5.82 L14,5.82 C14.4533356,5.82 14.846665,5.6600016 15.18,5.34 C15.513335,5.0199984 15.68,4.6333356 15.68,4.18 C15.68,3.7266644 15.513335,3.333335 15.18,3 C14.846665,2.666665 14.4533356,2.5 14,2.5 L5.26,2.5 C4.726664,2.5 4.2366689,2.633332 3.79,2.9 C3.3433311,3.166668 2.986668,3.5233311 2.72,3.97 C2.453332,4.4166689 2.32,4.8999974 2.32,5.42 C2.32,5.9400026 2.453332,6.4233311 2.72,6.87 C2.986668,7.3166689 3.3433311,7.6699987 3.79,7.93 C4.2366689,8.1900013 4.726664,8.32 5.26,8.32 L12.34,8.32 C12.8039192,8.32 13.18,8.69608081 13.18,9.16 L13.18,9.16 C13.18,9.62391919 12.8039192,10 12.34,10 L5.26,10 C4.4333292,10 3.6666702,9.7966687 2.96,9.39 C2.2533298,8.9833313 1.6966687,8.4266702 1.29,7.72 C0.8833313,7.0133298 0.68,6.2466708 0.68,5.42 Z" id="path-1"></path>
    </defs>
    <g id="Icons/Attachment" stroke="none" stroke-width="1" fill="none" fill-rule="evenodd">
        <g id="🎨Color" transform="translate(12.000000, 12.000000) rotate(-45.000000) translate(-12.000000, -12.000000) translate(3.000000, 7.000000)">
            <mask id="mask-2" fill="white">
                <use xlink:href="#path-1"></use>
            </mask>
            <g id="Mask"></g>
            <g id="Color/Secondary/LightGrey/100%" mask="url(#mask-2)" fill="#CECECE">
                <g transform="translate(-3.000000, -7.000000)" id="Color/Secondary/LightGrey">
                    <rect x="0" y="0" width="24" height="24"></rect>
                </g>
            </g>
        </g>
    </g>
</svg>