<?xml version="1.0" encoding="UTF-8"?>
<svg width="24px" height="24px" viewBox="0 0 24 24" version="1.1" xmlns="http://www.w3.org/2000/svg" xmlns:xlink="http://www.w3.org/1999/xlink">
    <!-- Generator: Sketch 50.2 (55047) - http://www.bohemiancoding.com/sketch -->
    <title>Icons/Cart</title>
    <desc>Created with Sketch.</desc>
    <defs>
        <path d="M5.30591361,11.8944 C5.30591361,11.9541336 5.32647896,12.0063998 5.36761028,12.0512 C5.4087416,12.0960002 5.45672742,12.1184 5.51156918,12.1184 L15.5116453,12.1184 C16.0312348,12.1184 16.4524453,12.5396105 16.4524453,13.0592 L16.4524453,13.0592 C16.4524453,13.5787895 16.0312348,14 15.5116453,14 L5.14138916,14 C4.67523421,14 4.27763742,13.8133352 3.94858687,13.44 C3.61953632,13.0666648 3.45501351,12.6261359 3.45501351,12.1184 C3.45501351,11.8346652 3.52356468,11.5434682 3.66066908,11.2448 L4.81234025,8.9152 L1.72750676,1.8368 L0.9184,1.8368 C0.411181686,1.8368 6.21163285e-17,1.42561831 0,0.9184 L0,0.9184 C-6.21163285e-17,0.411181686 0.411181686,9.31744928e-17 0.9184,0 L2.81748126,0 L4.42159468,3.7184 C5.32648369,5.80907712 6.01199539,7.36959485 6.47815034,8.4 L13.5115707,8.4 C13.5435562,8.34027727 14.0988262,7.25014394 15.1773808,5.1296 C15.5276462,4.44606303 15.9478189,3.60865344 16.4378988,2.61737125 L16.4379099,2.61737672 C16.6313597,2.22608683 17.1053848,2.06570573 17.4966747,2.25915551 C17.5193553,2.27036855 17.5414843,2.2826642 17.5629854,2.296 L17.5629854,2.296 C17.9819638,2.55586668 18.1329231,3.09280352 17.9107471,3.53293017 L15.0128563,9.2736 C14.8620415,9.55733475 14.6529604,9.7887991 14.3856069,9.968 C14.1182533,10.1472009 13.8269108,10.2368 13.5115707,10.2368 L6.10797032,10.2368 L5.34704472,11.76 L5.30591361,11.8944 Z M13.5180723,15 C13.9277129,15 14.277107,15.1506009 14.5662651,15.4518072 C14.8554231,15.7530136 15,16.1084317 15,16.5180723 C15,16.9277129 14.8554231,17.277107 14.5662651,17.5662651 C14.277107,17.8554231 13.9277129,18 13.5180723,18 C13.1084317,18 12.7530136,17.8554231 12.4518072,17.5662651 C12.1506009,17.277107 12,16.9277129 12,16.5180723 C12,16.1084317 12.1506009,15.7530136 12.4518072,15.4518072 C12.7530136,15.1506009 13.1084317,15 13.5180723,15 Z M5.48192771,15 C5.89156831,15 6.24698645,15.1506009 6.54819277,15.4518072 C6.8493991,15.7530136 7,16.1084317 7,16.5180723 C7,16.9277129 6.8493991,17.277107 6.54819277,17.5662651 C6.24698645,17.8554231 5.89156831,18 5.48192771,18 C5.07228711,18 4.72289301,17.8554231 4.43373494,17.5662651 C4.14457687,17.277107 4,16.9277129 4,16.5180723 C4,16.1084317 4.14457687,15.7530136 4.43373494,15.4518072 C4.72289301,15.1506009 5.07228711,15 5.48192771,15 Z" id="path-1"></path>
    </defs>
    <g id="Icons/Cart" stroke="none" stroke-width="1" fill="none" fill-rule="evenodd">
        <g id="🎨Color" transform="translate(3.000000, 3.000000)">
            <mask id="mask-2" fill="white">
                <use xlink:href="#path-1"></use>
            </mask>
            <g id="Mask"></g>
            <g id="Color/Secondary/LightGrey/100%" mask="url(#mask-2)" fill="#CECECE">
                <g transform="translate(9.000000, 9.000000) rotate(-360.000000) translate(-9.000000, -9.000000) translate(-3.000000, -3.000000)" id="Color/Secondary/LightGrey">
                    <rect x="0" y="0" width="24" height="24"></rect>
                </g>
            </g>
        </g>
    </g>
</svg>