<?xml version="1.0" encoding="UTF-8"?>
<svg width="24px" height="24px" viewBox="0 0 24 24" version="1.1" xmlns="http://www.w3.org/2000/svg" xmlns:xlink="http://www.w3.org/1999/xlink">
    <!-- Generator: Sketch 50.2 (55047) - http://www.bohemiancoding.com/sketch -->
    <title>Icons/Eye</title>
    <desc>Created with Sketch.</desc>
    <defs>
        <path d="M2.08797734,12.127322 C2.20511742,11.8930418 2.42497272,11.502188 2.74527969,11.0062288 C3.27541708,10.1853709 3.90093859,9.36501482 4.621219,8.59671573 C6.71775645,6.36040911 9.18349796,5 12,5 C14.816502,5 17.2822436,6.36040911 19.378781,8.59671573 C20.0990614,9.36501482 20.7245829,10.1853709 21.2547203,11.0062288 C21.5750273,11.502188 21.7948826,11.8930418 21.9120227,12.127322 C22.0293258,12.3619282 22.0293258,12.6380718 21.9120227,12.872678 C21.7948826,13.1069582 21.5750273,13.497812 21.2547203,13.9937712 C20.7245829,14.8146291 20.0990614,15.6349852 19.378781,16.4032843 C17.2822436,18.6395909 14.816502,20 12,20 C9.18349796,20 6.71775645,18.6395909 4.621219,16.4032843 C3.90093859,15.6349852 3.27541708,14.8146291 2.74527969,13.9937712 C2.42497272,13.497812 2.20511742,13.1069582 2.08797734,12.872678 C1.97067422,12.6380718 1.97067422,12.3619282 2.08797734,12.127322 Z M4.02808517,13.0895621 C4.50706236,13.8312042 5.07294709,14.5733482 5.71985419,15.2633824 C7.52956674,17.1937424 9.59507522,18.3333333 11.8827399,18.3333333 C14.1704045,18.3333333 16.235913,17.1937424 18.0456255,15.2633824 C18.6925326,14.5733482 19.2584173,13.8312042 19.7373945,13.0895621 C19.8733422,12.8790626 19.993916,12.6813586 20.098813,12.5 C19.993916,12.3186414 19.8733422,12.1209374 19.7373945,11.9104379 C19.2584173,11.1687958 18.6925326,10.4266518 18.0456255,9.73661761 C16.235913,7.80625755 14.1704045,6.66666667 11.8827399,6.66666667 C9.59507522,6.66666667 7.52956674,7.80625755 5.71985419,9.73661761 C5.07294709,10.4266518 4.50706236,11.1687958 4.02808517,11.9104379 C3.89213755,12.1209374 3.7715637,12.3186414 3.66666667,12.5 C3.7715637,12.6813586 3.89213755,12.8790626 4.02808517,13.0895621 Z M12,15.8333333 C10.1590508,15.8333333 8.66666667,14.3409492 8.66666667,12.5 C8.66666667,10.6590508 10.1590508,9.16666667 12,9.16666667 C13.8409492,9.16666667 15.3333333,10.6590508 15.3333333,12.5 C15.3333333,14.3409492 13.8409492,15.8333333 12,15.8333333 Z M12,14.1666667 C12.9204746,14.1666667 13.6666667,13.4204746 13.6666667,12.5 C13.6666667,11.5795254 12.9204746,10.8333333 12,10.8333333 C11.0795254,10.8333333 10.3333333,11.5795254 10.3333333,12.5 C10.3333333,13.4204746 11.0795254,14.1666667 12,14.1666667 Z" id="path-1"></path>
    </defs>
    <g id="Icons/Eye" stroke="none" stroke-width="1" fill="none" fill-rule="evenodd">
        <mask id="mask-2" fill="white">
            <use xlink:href="#path-1"></use>
        </mask>
        <g id="Combined-Shape" fill-rule="nonzero"></g>
        <g id="Color/Secondary/LightGrey/100%" mask="url(#mask-2)" fill="#CECECE">
            <rect id="Color/Secondary/LightGrey" x="0" y="0" width="24" height="24"></rect>
        </g>
    </g>
</svg>