<?xml version="1.0" encoding="UTF-8"?>
<svg width="24px" height="24px" viewBox="0 0 24 24" version="1.1" xmlns="http://www.w3.org/2000/svg" xmlns:xlink="http://www.w3.org/1999/xlink">
    <!-- Generator: Sketch 50.2 (55047) - http://www.bohemiancoding.com/sketch -->
    <title>Icons/File</title>
    <desc>Created with Sketch.</desc>
    <defs>
        <path d="M11,3.41421356 L11,7 L14.5857864,7 L11,3.41421356 Z M16,9 L10,9 C9.44771525,9 9,8.55228475 9,8 L9,2 L3,2 C2.44771525,2 2,2.44771525 2,3 L2,19 C2,19.5522847 2.44771525,20 3,20 L15,20 C15.5522847,20 16,19.5522847 16,19 L16,9 Z M10,0 C10.2652165,0 10.5195704,0.10535684 10.7071068,0.292893219 L17.7071068,7.29289322 C17.8946432,7.4804296 18,7.73478351 18,8 L18,19 C18,20.6568542 16.6568542,22 15,22 L3,22 C1.34314575,22 0,20.6568542 0,19 L0,3 C0,1.34314575 1.34314575,0 3,0 L10,0 Z" id="path-1"></path>
    </defs>
    <g id="Icons/File" stroke="none" stroke-width="1" fill="none" fill-rule="evenodd">
        <g id="🎨Color" transform="translate(3.000000, 1.000000)">
            <mask id="mask-2" fill="white">
                <use xlink:href="#path-1"></use>
            </mask>
            <g id="Mask"></g>
            <g id="Color/Secondary/LightGrey/100%" mask="url(#mask-2)" fill="#CECECE">
                <g transform="translate(-3.000000, -1.000000)" id="Color/Secondary/LightGrey">
                    <rect x="0" y="0" width="24" height="24"></rect>
                </g>
            </g>
        </g>
    </g>
</svg>