<?xml version="1.0" encoding="UTF-8"?>
<svg width="24px" height="24px" viewBox="0 0 24 24" version="1.1" xmlns="http://www.w3.org/2000/svg" xmlns:xlink="http://www.w3.org/1999/xlink">
    <!-- Generator: Sketch 50.2 (55047) - http://www.bohemiancoding.com/sketch -->
    <title>Icons/Heart</title>
    <desc>Created with Sketch.</desc>
    <defs>
        <path d="M12.3385616,3.88305777 C13.5095651,2.6773866 15.0981167,2 16.7545545,2 C18.4109924,2 19.999544,2.6773866 21.1705475,3.88305777 C22.341782,5.08783498 23,6.72264823 23,8.42732469 C23,10.1320012 22.341782,11.7668144 21.1703881,12.9717557 L12.6789672,21.7104629 C12.3038421,22.0965124 11.6956441,22.0965124 11.320519,21.7104629 L2.82909808,12.9717557 C0.390300616,10.4619357 0.390300645,6.39271366 2.82909814,3.88289375 C5.26789564,1.37307383 9.22196762,1.3730738 11.6607652,3.88289369 L11.9997431,4.23174331 L12.3385616,3.88305777 Z M11.9997431,19.6134496 L18.7937378,12.6216009 L19.8120993,11.5735828 C20.6231746,10.7392791 21.0788641,9.60748533 21.0788641,8.42732469 C21.0788641,7.24716406 20.6231746,6.11537028 19.8120993,5.28106658 C19.0010857,4.44604303 17.9013192,3.97708307 16.7545545,3.97708307 C15.6077899,3.97708307 14.5080234,4.44604303 13.6971693,5.28090254 L12.6789672,6.32875657 C12.3038421,6.71480605 11.6956441,6.71480605 11.320519,6.32875657 L10.3023169,5.28090255 C8.61376965,3.54318162 5.87609365,3.54318164 4.1875464,5.2809026 C2.49899915,7.01862355 2.49899913,9.83602588 4.18754634,11.5737468 L11.9997431,19.6134496 Z" id="path-1"></path>
    </defs>
    <g id="Icons/Heart" stroke="none" stroke-width="1" fill="none" fill-rule="evenodd">
        <mask id="mask-2" fill="white">
            <use xlink:href="#path-1"></use>
        </mask>
        <g id="Shape" fill-rule="nonzero"></g>
        <g id="Color/Secondary/LightGrey/100%" mask="url(#mask-2)" fill="#CECECE">
            <rect id="Color/Secondary/LightGrey" x="0" y="0" width="24" height="24"></rect>
        </g>
    </g>
</svg>