<?xml version="1.0" encoding="UTF-8"?>
<svg width="24px" height="24px" viewBox="0 0 24 24" version="1.1" xmlns="http://www.w3.org/2000/svg" xmlns:xlink="http://www.w3.org/1999/xlink">
    <!-- Generator: Sketch 50.2 (55047) - http://www.bohemiancoding.com/sketch -->
    <title>Icons/Phone</title>
    <desc>Created with Sketch.</desc>
    <defs>
        <path d="M20.8892195,16.9200501 C20.9021222,16.3876414 20.5323086,15.9511752 20.038462,15.8814645 C19.0036241,15.7449799 17.9875477,15.4918648 17.0073586,15.1261024 C16.6419211,14.9887349 16.2299555,15.0765949 15.9563263,15.3471569 L14.6863263,16.6171569 C14.3680133,16.9354699 13.8762489,17.0018575 13.484925,16.7793446 C10.8249076,15.2668169 8.6224527,13.0643621 7.10992501,10.4043446 C6.88741213,10.0130208 6.95379973,9.52125635 7.27211274,9.20294334 L8.53816721,7.936911 C8.81267475,7.65931414 8.90053472,7.24734852 8.76232227,6.87965496 C8.39740486,5.90172195 8.14428976,4.88564559 8.00906117,3.86000169 C7.93881159,3.36298543 7.5109932,2.99506161 6.99921952,3.00005012 L4.00016125,3.00004968 C3.71945837,3.00031402 3.45179102,3.11854452 3.26254414,3.32586021 C3.07329725,3.53317589 2.97989785,3.81048584 3.00362825,4.07445055 C3.31528495,7.00925539 4.31387523,9.82937843 5.92323331,12.3137286 C7.37983427,14.6059943 9.32327537,16.5494354 11.6233207,18.0110305 C14.089092,19.6100743 16.8955667,20.6084378 19.7992278,20.9241091 C20.0796597,20.9494532 20.3577816,20.8553948 20.5652667,20.6650415 C20.7727517,20.4746883 20.8903707,20.2056817 20.8892195,19.9200501 L20.8892195,16.9200501 Z M22.8881192,19.9160401 C22.8915479,20.7607577 22.5386911,21.5677776 21.916236,22.1388374 C21.2937808,22.7098972 20.4594151,22.9920722 19.6001051,22.9142475 C16.367448,22.5629929 13.2622533,21.458364 10.5418059,19.6941128 C8.00172781,18.0800415 5.84818497,15.9264987 4.23884754,13.3937987 C2.46342782,10.6531787 1.358548,7.5328829 1.0121857,4.27009949 C0.936395512,3.43140799 1.21659371,2.59947812 1.78433437,1.97753107 C2.35207502,1.35558402 3.15507706,1.00089252 3.99812742,1.00009905 L6.98828577,1.00014748 C8.49408185,0.98532724 9.77753704,2.0890987 9.98954181,3.58934156 C10.1063032,4.47463648 10.322841,5.34388099 10.6341797,6.17823816 C11.0462822,7.27455071 10.7827023,8.51044756 9.9552342,9.34720583 L9.23814163,10.0642984 C10.4139976,11.9089472 11.9792846,13.4742334 13.8239339,14.6500886 L14.5449883,13.9290467 C15.3777789,13.1055241 16.6136758,12.8419442 17.7077323,13.2532018 C18.5443455,13.5653855 19.41359,13.7819233 20.3078197,13.8999041 C21.8116623,14.1120595 22.9189792,15.4142872 22.8881274,16.9312758 L22.8881192,19.9160401 Z" id="path-1"></path>
    </defs>
    <g id="Icons/Phone" stroke="none" stroke-width="1" fill="none" fill-rule="evenodd">
        <mask id="mask-2" fill="white">
            <use xlink:href="#path-1"></use>
        </mask>
        <g id="Shape" fill-rule="nonzero"></g>
        <g id="Color/Secondary/LightGrey/100%" mask="url(#mask-2)" fill="#CECECE">
            <rect id="Color/Secondary/LightGrey" x="0" y="0" width="24" height="24"></rect>
        </g>
    </g>
</svg>