<?xml version="1.0" encoding="UTF-8"?>
<svg width="24px" height="24px" viewBox="0 0 24 24" version="1.1" xmlns="http://www.w3.org/2000/svg" xmlns:xlink="http://www.w3.org/1999/xlink">
    <!-- Generator: Sketch 50.2 (55047) - http://www.bohemiancoding.com/sketch -->
    <title>Icons/Share-2</title>
    <desc>Created with Sketch.</desc>
    <defs>
        <path d="M9.77841136,10.6838208 C9.92197645,11.0960025 10,11.5388896 10,12 C10,12.1394877 9.99286018,12.2773077 9.97892605,12.4131147 L15.6845447,15.7379115 C16.3380115,15.2732373 17.1370967,15 18,15 C20.209139,15 22,16.790861 22,19 C22,21.209139 20.209139,23 18,23 C15.790861,23 14,21.209139 14,19 C14,18.3894984 14.1367696,17.810941 14.3813399,17.2932966 L9.26473368,14.311731 C8.5400383,15.3333243 7.34787438,16 6,16 C3.790861,16 2,14.209139 2,12 C2,9.790861 3.790861,8 6,8 C7.0239608,8 7.95805764,8.38475339 8.66560593,9.01757561 L14.3722411,5.6873105 C14.1333799,5.17462523 14,4.60288888 14,4 C14,1.790861 15.790861,0 18,0 C20.209139,0 22,1.790861 22,4 C22,6.209139 20.209139,8 18,8 C17.1286227,8 16.322323,7.72136974 15.665335,7.24834338 L9.77841136,10.6838208 Z M16.6948798,5.51551877 C17.0451665,5.81744818 17.5012646,6 18,6 C19.1045695,6 20,5.1045695 20,4 C20,2.8954305 19.1045695,2 18,2 C16.8954305,2 16,2.8954305 16,4 C16,4.4366723 16.1399449,4.84065873 16.3774317,5.16955628 C16.4992697,5.25117096 16.6049687,5.36096631 16.6838496,5.49613412 C16.6876063,5.5025714 16.6912829,5.50903334 16.6948798,5.51551877 Z M16.3962785,17.8047743 C16.1473663,18.1382167 16,18.5518987 16,19 C16,20.1045695 16.8954305,21 18,21 C19.1045695,21 20,20.1045695 20,19 C20,17.8954305 19.1045695,17 18,17 C17.5001133,17 17.0430609,17.1833956 16.6924556,17.4865741 C16.6156542,17.6173695 16.5136809,17.7242924 16.3962785,17.8047743 Z M6,14 C7.1045695,14 8,13.1045695 8,12 C8,10.8954305 7.1045695,10 6,10 C4.8954305,10 4,10.8954305 4,12 C4,13.1045695 4.8954305,14 6,14 Z" id="path-1"></path>
    </defs>
    <g id="Icons/Share-2" stroke="none" stroke-width="1" fill="none" fill-rule="evenodd">
        <mask id="mask-2" fill="white">
            <use xlink:href="#path-1"></use>
        </mask>
        <g id="Combined-Shape" fill-rule="nonzero"></g>
        <g id="Color/Secondary/LightGrey/100%" mask="url(#mask-2)" fill="#CECECE">
            <rect id="Color/Secondary/LightGrey" x="0" y="0" width="24" height="24"></rect>
        </g>
    </g>
</svg>