<?xml version="1.0" encoding="UTF-8"?>
<svg width="24px" height="24px" viewBox="0 0 24 24" version="1.1" xmlns="http://www.w3.org/2000/svg" xmlns:xlink="http://www.w3.org/1999/xlink">
    <!-- Generator: Sketch 50.2 (55047) - http://www.bohemiancoding.com/sketch -->
    <title>Icons/Star</title>
    <desc>Created with Sketch.</desc>
    <defs>
        <path d="M9.76524947,8.85031397 C9.61695872,9.17216497 9.33045851,9.39534957 8.99895444,9.4472603 L4,10.2300542 L7.61641083,14.0037047 C7.85674308,14.2544864 7.96644076,14.6159441 7.90972811,14.9701953 L7.05647112,20.2999992 L11.5257507,17.7819898 C11.8226413,17.6147204 12.1773587,17.6147204 12.4742493,17.7819898 L16.9435289,20.2999992 L16.0902719,14.9701953 C16.0335592,14.6159441 16.1432569,14.2544864 16.3835892,14.0037047 L20,10.2300542 L15.0010456,9.4472603 C14.6695415,9.39534957 14.3830413,9.17216497 14.2347505,8.85031397 L12,4 L9.76524947,8.85031397 Z M8.24682697,7.64165085 L11.104381,1.58330058 C11.4712164,0.805566474 12.5309603,0.805566474 12.8977957,1.58330058 L15.7553497,7.64165085 L22.1457165,8.61914281 C22.9656312,8.74455971 23.2924147,9.79927736 22.6988211,10.4043286 L18.0756101,15.1167786 L19.166697,21.7742578 C19.3068155,22.6292184 18.4492666,23.2811564 17.7156371,22.8774034 L12.0010883,19.7324016 L6.28653961,22.8774034 C5.55291004,23.2811564 4.69536119,22.6292184 4.83547972,21.7742578 L5.92656655,15.1167786 L1.30335554,10.4043286 C0.709762006,9.79927736 1.03654545,8.74455971 1.85646012,8.61914281 L8.24682697,7.64165085 Z" id="path-1"></path>
    </defs>
    <g id="Icons/Star" stroke="none" stroke-width="1" fill="none" fill-rule="evenodd">
        <mask id="mask-2" fill="white">
            <use xlink:href="#path-1"></use>
        </mask>
        <g id="Shape" fill-rule="nonzero"></g>
        <g id="Color/Secondary/LightGrey/100%" mask="url(#mask-2)" fill="#CECECE">
            <rect id="Color/Secondary/LightGrey" x="0" y="0" width="24" height="24"></rect>
        </g>
    </g>
</svg>