<?xml version="1.0" encoding="UTF-8"?>
<svg width="24px" height="24px" viewBox="0 0 24 24" version="1.1" xmlns="http://www.w3.org/2000/svg" xmlns:xlink="http://www.w3.org/1999/xlink">
    <!-- Generator: Sketch 50.2 (55047) - http://www.bohemiancoding.com/sketch -->
    <title>Icons/Zoom-in</title>
    <desc>Created with Sketch.</desc>
    <defs>
        <path d="M11.4970703,9.50708008 L13.4970703,9.50708008 C14.0493551,9.50708008 14.4970703,9.95479533 14.4970703,10.5070801 C14.4970703,11.0593648 14.0493551,11.5070801 13.4970703,11.5070801 L11.4970703,11.5070801 L11.4970703,13.5070801 C11.4970703,14.0593648 11.0493551,14.5070801 10.4970703,14.5070801 C9.94478556,14.5070801 9.49707031,14.0593648 9.49707031,13.5070801 L9.49707031,11.5070801 L7.49707031,11.5070801 C6.94478556,11.5070801 6.49707031,11.0593648 6.49707031,10.5070801 C6.49707031,9.95479533 6.94478556,9.50708008 7.49707031,9.50708008 L9.49707031,9.50708008 L9.49707031,7.50708008 C9.49707031,6.95479533 9.94478556,6.50708008 10.4970703,6.50708008 C11.0493551,6.50708008 11.4970703,6.95479533 11.4970703,7.50708008 L11.4970703,9.50708008 Z M17.5090214,15.3101095 L21.9071068,19.4928932 C22.2976311,19.8834175 22.2976311,20.5165825 21.9071068,20.9071068 C21.5165825,21.2976311 20.8834175,21.2976311 20.4928932,20.9071068 L16.1899021,16.8147622 C14.6833411,18.1731155 12.6882352,19 10.5,19 C5.80557963,19 2,15.1944204 2,10.5 C2,5.80557963 5.80557963,2 10.5,2 C15.1944204,2 19,5.80557963 19,10.5 C19,12.2854299 18.4495188,13.9422881 17.5090214,15.3101095 Z M10.5,17 C14.0898509,17 17,14.0898509 17,10.5 C17,6.91014913 14.0898509,4 10.5,4 C6.91014913,4 4,6.91014913 4,10.5 C4,14.0898509 6.91014913,17 10.5,17 Z" id="path-1"></path>
    </defs>
    <g id="Icons/Zoom-in" stroke="none" stroke-width="1" fill="none" fill-rule="evenodd">
        <mask id="mask-2" fill="white">
            <use xlink:href="#path-1"></use>
        </mask>
        <g id="Combined-Shape" fill-rule="nonzero"></g>
        <g id="Color/Secondary/LightGrey/100%" mask="url(#mask-2)" fill="#CECECE">
            <rect id="Color/Secondary/LightGrey" x="0" y="0" width="24" height="24"></rect>
        </g>
    </g>
</svg>