<?xml version="1.0" encoding="UTF-8"?>
<svg width="24px" height="24px" viewBox="0 0 24 24" version="1.1" xmlns="http://www.w3.org/2000/svg" xmlns:xlink="http://www.w3.org/1999/xlink">
    <!-- Generator: Sketch 50.2 (55047) - http://www.bohemiancoding.com/sketch -->
    <title>Icons/Zoom-out</title>
    <desc>Created with Sketch.</desc>
    <defs>
        <path d="M17.5090214,15.3101095 L21.9071068,19.4928932 C22.2976311,19.8834175 22.2976311,20.5165825 21.9071068,20.9071068 C21.5165825,21.2976311 20.8834175,21.2976311 20.4928932,20.9071068 L16.1899021,16.8147622 C14.6833411,18.1731155 12.6882352,19 10.5,19 C5.80557963,19 2,15.1944204 2,10.5 C2,5.80557963 5.80557963,2 10.5,2 C15.1944204,2 19,5.80557963 19,10.5 C19,12.2854299 18.4495188,13.9422881 17.5090214,15.3101095 Z M10.5,17 C14.0898509,17 17,14.0898509 17,10.5 C17,6.91014913 14.0898509,4 10.5,4 C6.91014913,4 4,6.91014913 4,10.5 C4,14.0898509 6.91014913,17 10.5,17 Z M7.44067383,11.5611572 C6.88838908,11.5611572 6.44067383,11.113442 6.44067383,10.5611572 C6.44067383,10.0088725 6.88838908,9.56115723 7.44067383,9.56115723 L13.4406738,9.56115723 C13.9929586,9.56115723 14.4406738,10.0088725 14.4406738,10.5611572 C14.4406738,11.113442 13.9929586,11.5611572 13.4406738,11.5611572 L7.44067383,11.5611572 Z" id="path-1"></path>
    </defs>
    <g id="Icons/Zoom-out" stroke="none" stroke-width="1" fill="none" fill-rule="evenodd">
        <mask id="mask-2" fill="white">
            <use xlink:href="#path-1"></use>
        </mask>
        <g id="Combined-Shape" fill-rule="nonzero"></g>
        <g id="Color/Secondary/LightGrey/100%" mask="url(#mask-2)" fill="#CECECE">
            <rect id="Color/Secondary/LightGrey" x="0" y="0" width="24" height="24"></rect>
        </g>
    </g>
</svg>