<?xml version="1.0" encoding="UTF-8"?>
<svg width="126px" height="126px" viewBox="0 0 126 126" version="1.1" xmlns="http://www.w3.org/2000/svg" xmlns:xlink="http://www.w3.org/1999/xlink">
    <!-- Generator: Sketch 50.2 (55047) - http://www.bohemiancoding.com/sketch -->
    <title>Assets/GP Pro logo</title>
    <desc>Created with Sketch.</desc>
    <defs></defs>
    <g id="Assets/GP-Pro-logo" stroke="none" stroke-width="1" fill="none" fill-rule="evenodd">
        <g id="GP-Pro-logo" fill-rule="nonzero">
            <path d="M62.9,125.800081 C97.6387108,125.855228 125.844772,97.7387108 125.9,63 C125.955228,28.2612892 97.8387108,0.055228475 63.1,1.73418137e-16 M63.1,-8.12235918e-05 C28.3612892,-0.055228475 0.155228475,28.0612892 0.1,62.8 C0.044771525,97.5387108 28.1612892,125.744772 62.9,125.8" id="Shape" fill="#FFFFFF"></path>
            <g id="Group" transform="translate(15.000000, 15.000000)">
                <g fill="#005293" id="Shape">
                    <g>
                        <path d="M63.7,36.1 C62.1192334,35.3188979 60.3586899,34.9736933 58.6,35.1 L50.1,35.1 L50.1,51.5 L55,51.5 L55,46.1 L58.4,46.1 C60.1895723,46.2050398 61.9770311,45.8612977 63.6,45.1 C65.4,44.1 66.2,42.7 66.2,40.2 C66.3042216,38.4454628 65.3074845,36.810814 63.7,36.1 M59.9,42.9 C59.1252603,43.1467594 58.3116423,43.2484616 57.5,43.2 L55.1,43.2 L55.1,38.3 L57.5,38.3 C58.3120114,38.2385343 59.1281036,38.3405458 59.9,38.6 C60.764955,38.9733851 61.2901754,39.8622197 61.2,40.8 C61.2581525,41.7054316 60.7363658,42.5483178 59.9,42.9"></path>
                        <path d="M47.7,50.7 C45.2670774,51.5929342 42.6913936,52.0335117 40.1,52 C32.8,52 29.6,48.3 29.6,43.5 C29.6,38.1 33.8,34.9 40.2,34.9 C42.7722861,34.9219545 45.317138,35.4309248 47.7,36.4 L47.7,40.3 L47.2,40.3 C45.4850111,38.8105398 43.2702426,38.0246542 41,38.1 C37.3,38.1 34.9,40.3 34.9,43.5 C34.9,46.4 36.4,49.2 41.1,49.1 C41.7071229,49.04882 42.3090957,48.9484912 42.9,48.8 L42.9,45.7 L39,45.7 L39,42.6 L47.8,42.6 L47.7,50.7 Z M47.9,70.9 L45,70.9 L45,74.8 L48.1,74.8 C49.6,74.8 50.3,74 50.3,72.8 C50.3,71.5 49.3,70.9 47.9,70.9 Z M33.5,70.9 L31.3,70.9 L31.3,75.1 L33.7,75.1 C34.3165533,75.153204 34.9271683,74.9454618 35.3833522,74.5272933 C35.839536,74.1091248 36.0994911,73.5188444 36.1,72.9 C35.9044763,71.6471743 34.7610625,70.7676252 33.5,70.9 Z M63,70.8 C61.8984795,70.8105268 60.8465729,71.2596133 60.0770852,72.0478689 C59.3075976,72.8361245 58.8839849,73.8985457 58.9,75 C58.8993533,77.2810981 60.7195484,79.1456882 63,79.2 C64.1015205,79.1894732 65.1534271,78.7403867 65.9229148,77.9521311 C66.6924024,77.1638755 67.1160151,76.1014543 67.1,75 C67.1560885,73.8873306 66.7455966,72.8016813 65.9673693,72.0044728 C65.189142,71.2072644 64.1136977,70.7707352 63,70.8 Z"></path>
                        <path d="M48.1,0.2 C21.7008738,0.144829473 0.255418391,21.5008046 0.20020935,47.8999307 C0.14500031,74.2990568 21.5009442,95.7445434 47.9000702,95.7997909 C74.2991962,95.8550385 95.7447139,74.4991259 95.8,48.1 C95.8719573,35.4088813 90.8759733,23.2138592 81.9206469,14.2209842 C72.9653205,5.22810922 60.7913087,0.181144052 48.1,0.2 Z M38.9,73 C38.9,76.1 36.5,77.7 33.3,77.7 L31.1,77.7 L31.1,81.8 L28.2,81.8 L28.2,68.1 L33.8,68.1 C35.1473661,67.9932414 36.4760408,68.4679802 37.450678,69.4043964 C38.4253152,70.3408125 38.9528001,71.6494427 38.9,73 Z M50.1,81.8 L47.2,77.4 L45,77.4 L45,81.8 L42.1,81.8 L42.1,68.1 L48.3,68.1 C49.7211122,67.9977649 51.1244513,68.4655446 52.2,69.4 C53.0155022,70.2203206 53.4506306,71.3444022 53.4,72.5 C53.4959182,74.3951634 52.3061998,76.1182038 50.5,76.7 L53.7,81.6 L50.3,81.6 L50.3,81.8 L50.1,81.8 Z M70.4,75 C70.4017546,76.9096821 69.623219,78.7371783 68.2448435,80.0589083 C66.866468,81.3806382 65.0079283,82.0818444 63.1,82 C61.2148402,82.0664111 59.3855165,81.353628 58.0422543,80.029285 C56.6989921,78.704942 55.9603341,76.8859121 56,75 C56,71.0235498 59.2235498,67.8 63.2,67.8 C67.1764502,67.8 70.4,71.0235498 70.4,75 Z M55.2,54.6 C54.0875301,54.5110112 52.9737103,54.7546593 52,55.3 C51.0603803,55.8262306 50.3481642,56.6808899 50,57.7 L48,61.8 L46,57.7 C45.7105773,56.6490424 44.9815378,55.774195 44,55.3 C43.0217571,54.7666978 41.9115622,54.5238427 40.8,54.6 L10.8,54.6 L48,17.1 L85.2,54.6 L55.2,54.6 Z"></path>
                    </g>
                    <g transform="translate(89.000000, 78.000000)">
                        <path d="M1.4,0.7 L0.2,0.7 L0.2,0.2 L2.9,0.2 L2.9,0.7 L1.8,0.7 L1.8,3.4 L1.1,3.4 L1.1,0.7 L1.4,0.7 Z M3.6,0.1 L4.3,0.1 L5.3,1.8 L6.3,0.1 L7,0.1 L7,3.5 L6.3,3.5 L6.3,1.1 L5.1,2.8 L4.1,1.1 L4.1,3.5 L3.4,3.5 L3.4,0.1 L3.6,0.1 Z"></path>
                    </g>
                </g>
                <g transform="translate(10.000000, 17.000000)" fill="#FFFFFF" id="Shape">
                    <path d="M43.4,55.7 C43.4228931,54.5491276 42.9918124,53.4355025 42.2,52.6 C41.1465033,51.6275664 39.7262575,51.1541512 38.3,51.3 L32.1,51.3 L32.1,65 L35,65 L35,60.6 L37.2,60.6 L40.1,65 L43.7,65 L40.5,60.1 C42.1,59.2 43.4,58 43.4,55.7 Z M40.3,55.8 C40.3028428,56.3669756 40.0649039,56.908514 39.6453707,57.2899078 C39.2258375,57.6713016 38.6641399,57.8567054 38.1,57.8 L35,57.8 L35,53.9 L37.9,53.9 C39.3,53.9 40.3,54.5 40.3,55.8 Z M53,50.9 C51.0990142,50.8435267 49.2550397,51.5531456 47.8823364,52.8694365 C46.509633,54.1857274 45.723303,55.9983183 45.7,57.9 C45.6998088,59.7739721 46.451018,61.5697736 47.7854807,62.885441 C49.1199434,64.2011085 50.9262191,64.926771 52.8,64.9 C54.7009858,64.9564733 56.5449603,64.2468544 57.9176636,62.9305635 C59.290367,61.6142726 60.076697,59.8016817 60.1,57.9 C60.4,54.1 57.2,50.9 53,50.9 Z M57.2,58.2 C57.2,60.4643675 55.3643675,62.3 53.1,62.3 C50.8356325,62.3 49,60.4643675 49,58.2 C48.9839849,57.0985457 49.4075976,56.0361245 50.1770852,55.2478689 C50.9465729,54.4596133 51.9984795,54.0105268 53.1,54 C55.5,53.8 57.2,55.7 57.2,58.2 Z M23.7,51.1 L18.1,51.1 L18.1,64.8 L21,64.8 L21,60.7 L23.2,60.7 C26.3,60.7 28.8,59 28.8,56 C28.9,53.1 26.9,51.1 23.7,51.1 Z M25.9,56 C25.915443,56.6239007 25.6602785,57.2239875 25.2002266,57.6457017 C24.7401747,58.067416 24.1202061,58.2695346 23.5,58.2 L21.1,58.2 L21.1,54 L23.3,54 C25,53.9 25.9,54.7 25.9,56 Z"></path>
                    <path d="M49.9,21.6 C49.1252603,21.3532406 48.3116423,21.2515384 47.5,21.3 L45.1,21.3 L45.1,26.2 L47.5,26.2 C48.3065275,26.1619024 49.1089109,26.0616045 49.9,25.9 C50.7521962,25.5122762 51.2714606,24.633521 51.2,23.7 C51.3022668,22.7840869 50.7654182,21.91687 49.9,21.6 Z"></path>
                    <path d="M38.1,0.1 L0.9,37.6 L30.7,37.6 C31.8124699,37.5110112 32.9262897,37.7546593 33.9,38.3 C34.8396197,38.8262306 35.5518358,39.6808899 35.9,40.7 L37.9,44.8 L39.9,40.7 C40.1894227,39.6490424 40.9184622,38.774195 41.9,38.3 C42.8782429,37.7666978 43.9884378,37.5238427 45.1,37.6 L74.9,37.6 L38.1,0.1 Z M37.7,33.7 C35.2670774,34.5929342 32.6913936,35.0335117 30.1,35 C22.8,35 19.6,31.3 19.6,26.5 C19.6,21.1 23.8,17.9 30.2,17.9 C32.7722861,17.9219545 35.317138,18.4309248 37.7,19.4 L37.7,23.3 L37.2,23.3 C35.4850111,21.8105398 33.2702426,21.0246542 31,21.1 C27.3,21.1 24.9,23.3 24.9,26.5 C24.9,29.4 26.4,32.2 31.1,32.1 C31.7071229,32.04882 32.3090957,31.9484912 32.9,31.8 L32.9,28.7 L29,28.7 L29,25.6 L37.8,25.6 L37.7,33.7 Z M53.7,28.1 C52.0770311,28.8612977 50.2895723,29.2050398 48.5,29.1 L45.1,29.1 L45.1,34.5 L40.2,34.5 L40.2,18.2 L48.7,18.2 C50.4580358,18.0841558 52.215888,18.4288327 53.8,19.2 C55.45656,19.9221587 56.4922716,21.5952312 56.4,23.4 C56.2,25.7 55.3,27.4 53.7,28.1 Z"></path>
                </g>
            </g>
        </g>
    </g>
</svg>