<?xml version="1.0" encoding="UTF-8"?>
<svg width="32px" height="32px" viewBox="0 0 32 32" version="1.1" xmlns="http://www.w3.org/2000/svg" xmlns:xlink="http://www.w3.org/1999/xlink">
    <!-- Generator: Sketch 50.2 (55047) - http://www.bohemiancoding.com/sketch -->
    <title>Assets/Instagram</title>
    <desc>Created with Sketch.</desc>
    <defs>
        <linearGradient x1="65.1969401%" y1="0%" x2="17.4021629%" y2="100%" id="linearGradient-1">
            <stop stop-color="#A438A7" offset="0%"></stop>
            <stop stop-color="#E1326E" offset="49.7493678%"></stop>
            <stop stop-color="#FCA94B" offset="100%"></stop>
        </linearGradient>
    </defs>
    <g id="Assets/Instagram" stroke="none" stroke-width="1" fill="none" fill-rule="evenodd">
        <path d="M16,1 C7.71572875,1 1,7.71572875 1,16 C1,24.2842712 7.71572875,31 16,31 C24.2842712,31 31,24.2842712 31,16 C31,7.71572875 24.2842712,1 16,1 Z M16,0 C24.836556,-1.623249e-15 32,7.163444 32,16 C32,24.836556 24.836556,32 16,32 C7.163444,32 1.082166e-15,24.836556 0,16 C-1.082166e-15,7.163444 7.163444,1.623249e-15 16,0 Z" id="Rectangle" fill="#CECECE" fill-rule="nonzero"></path>
        <path d="M16,8 C13.8273246,8 13.5548942,8.00915232 12.7016249,8.04814609 C11.8500739,8.08703466 11.2685337,8.22225047 10.759721,8.41998957 C10.2336207,8.62442634 9.78747167,8.89797886 9.34272527,9.34272527 C8.89797886,9.78747167 8.62442634,10.2336558 8.42002463,10.759721 C8.22218034,11.2686038 8.08696453,11.850144 8.04814609,12.70166 C8.00918738,13.5549292 8,13.8273246 8,16 C8,18.1727456 8.00918738,18.4451409 8.04814609,19.2984102 C8.08696453,20.1499261 8.22218034,20.7314663 8.42002463,21.2403491 C8.62442634,21.7664143 8.89797886,22.2125985 9.34272527,22.6573449 C9.78747167,23.1020913 10.2336207,23.3756438 10.759721,23.5800806 C11.2685337,23.7778197 11.8500739,23.9130355 12.7016249,23.951924 C13.5548942,23.9908477 13.8273246,24.0000701 16,24.0000701 C18.1726754,24.0000701 18.4451409,23.9908477 19.2984102,23.951924 C20.1499261,23.9130355 20.7314663,23.7778197 21.240314,23.5800806 C21.7664143,23.3756438 22.2125283,23.1020913 22.6572747,22.6573449 C23.1020211,22.2125985 23.3755737,21.7664143 23.5800104,21.2403491 C23.7778197,20.7314663 23.9130355,20.1499261 23.951889,19.2984102 C23.9908477,18.4451409 24,18.1727456 24,16 C24,13.8273246 23.9908477,13.5549292 23.951889,12.70166 C23.9130355,11.850144 23.7778197,11.2686038 23.5800104,10.759721 C23.3755737,10.2336558 23.1020211,9.78747167 22.6572747,9.34272527 C22.2125283,8.89797886 21.7664143,8.62442634 21.240314,8.41998957 C20.7314663,8.22225047 20.1499261,8.08703466 19.2984102,8.04814609 C18.4451409,8.00915232 18.1726754,8 16,8 M16,9.44143702 C18.1361012,9.44143702 18.3890698,9.44957241 19.2326959,9.48804019 C20.0126765,9.52363252 20.4362779,9.65400918 20.7181762,9.76352136 C21.0916327,9.90866095 21.3581369,10.0820289 21.6380365,10.3619635 C21.9180412,10.6419332 22.0914092,10.9084023 22.2364786,11.2818238 C22.3459908,11.5637221 22.4763675,11.9873586 22.5119598,12.7673041 C22.5504276,13.6109302 22.558598,13.8638988 22.558598,16 C22.558598,18.1361714 22.5504276,18.38914 22.5119598,19.2326959 C22.4763675,20.0127115 22.3459908,20.436348 22.2364786,20.7182463 C22.0914092,21.0916327 21.9180412,21.3581369 21.6380365,21.6381066 C21.3581369,21.9180412 21.0916327,22.0914092 20.7181762,22.2365137 C20.4362779,22.346061 20.0126765,22.4764376 19.2326959,22.5119598 C18.3892101,22.5504977 18.1362766,22.558598 16,22.558598 C13.8637234,22.558598 13.6107899,22.5504977 12.7673041,22.5119598 C11.9873586,22.4764376 11.5637221,22.346061 11.2818238,22.2365137 C10.9084023,22.0914092 10.6418981,21.9180412 10.3619635,21.6381066 C10.082064,21.3581369 9.90869601,21.0916327 9.76355643,20.7182463 C9.65400918,20.436348 9.52366759,20.0127115 9.48804019,19.2326959 C9.44960748,18.38914 9.44143702,18.1361714 9.44143702,16 C9.44143702,13.8638988 9.44960748,13.6109302 9.48804019,12.7673041 C9.52366759,11.9873586 9.65400918,11.5637221 9.76355643,11.2818238 C9.90869601,10.9084023 10.082064,10.6419332 10.3619635,10.3619635 C10.6418981,10.0820289 10.9084023,9.90866095 11.2818238,9.76352136 C11.5637221,9.65400918 11.9873586,9.52363252 12.7673041,9.48804019 C13.6109302,9.44957241 13.8638988,9.44143702 16,9.44143702 Z M16,18.66669 C17.4727863,18.66669 18.66669,17.4727863 18.66669,16 C18.66669,14.5272487 17.4727863,13.333345 16,13.333345 C14.5272487,13.333345 13.33331,14.5272487 13.33331,16 C13.33331,17.4727863 14.5272487,18.66669 16,18.66669 Z M16,11.891908 C18.2688273,11.891908 20.108092,13.7312077 20.108092,16 C20.108092,18.2688975 18.2688273,20.1081271 16,20.1081271 C13.7311727,20.1081271 11.891908,18.2688975 11.891908,16 C11.891908,13.7312077 13.7311727,11.891908 16,11.891908 Z M21.2304604,11.7295859 C21.2304604,12.2597539 20.8006522,12.6895971 20.2704492,12.6895971 C19.7402811,12.6895971 19.3104379,12.2597539 19.3104379,11.7295859 C19.3104379,11.1993828 19.7402811,10.7695747 20.2704492,10.7695747 C20.8006522,10.7695747 21.2304604,11.1993828 21.2304604,11.7295859 Z" id="Combined-Shape" fill="url(#linearGradient-1)"></path>
    </g>
</svg>