<?xml version="1.0" encoding="UTF-8"?>
<svg width="32px" height="32px" viewBox="0 0 32 32" version="1.1" xmlns="http://www.w3.org/2000/svg" xmlns:xlink="http://www.w3.org/1999/xlink">
    <!-- Generator: Sketch 50.2 (55047) - http://www.bohemiancoding.com/sketch -->
    <title>Assets/Pinterest</title>
    <desc>Created with Sketch.</desc>
    <defs></defs>
    <g id="Assets/Pinterest" stroke="none" stroke-width="1" fill="none" fill-rule="evenodd">
        <g id="Outline/Circle/LightGrey/100%" stroke="#CECECE">
            <rect id="Rectangle" x="0.5" y="0.5" width="31" height="31" rx="15.5"></rect>
        </g>
        <path d="M17.0021832,19.6046313 C16.0631024,19.5289755 15.6689458,19.0462965 14.9327226,18.5824659 C14.5277644,20.7851242 14.0330624,22.8969954 12.5677328,24 C12.1154295,20.6708289 13.2317773,18.1703641 13.750152,15.5159175 C12.8662399,13.9721718 13.856603,10.8657274 15.7211871,11.6314482 C18.01526,12.5728791 13.7343534,17.3698782 16.6080772,17.9691039 C19.6087447,18.5945081 20.8335626,12.5687953 18.9732688,10.6092829 C16.2846861,7.77975445 11.1477295,10.5448314 11.7792683,14.5957435 C11.9330646,15.5862329 12.9194907,15.8867096 12.1735763,17.2534887 C10.4528954,16.8579317 9.93946727,15.4502618 10.0055386,13.5735781 C10.1119896,10.5018987 12.6663098,8.35117856 15.228504,8.0537909 C18.4685223,7.67771069 21.50962,9.28747848 21.9295691,12.4491072 C22.4022138,16.0176021 20.4668137,19.8823851 17.0021832,19.6046313" id="Fill-1-Copy-3" fill="#C8232C"></path>
    </g>
</svg>