<?xml version="1.0" encoding="UTF-8"?>
<svg width="32px" height="32px" viewBox="0 0 32 32" version="1.1" xmlns="http://www.w3.org/2000/svg" xmlns:xlink="http://www.w3.org/1999/xlink">
    <!-- Generator: Sketch 50.2 (55047) - http://www.bohemiancoding.com/sketch -->
    <title>Assets/Twitter</title>
    <desc>Created with Sketch.</desc>
    <defs></defs>
    <g id="Assets/Twitter" stroke="none" stroke-width="1" fill="none" fill-rule="evenodd">
        <g id="Outline/Circle/LightGrey/100%" stroke="#CECECE">
            <rect id="Rectangle" x="0.5" y="0.5" width="31" height="31" rx="15.5"></rect>
        </g>
        <path d="M24.1122222,11.677544 C23.5235247,11.9385645 22.8909339,12.1150356 22.226857,12.1943189 C22.9046287,11.7881895 23.4251451,11.144971 23.670187,10.378644 C23.0359575,10.7547569 22.3334885,11.0278307 21.5857216,11.175046 C20.9869579,10.5372106 20.133847,10.1386293 19.1897305,10.1386293 C17.37676,10.1386293 15.9070355,11.6080907 15.9070355,13.4204303 C15.9070355,13.677706 15.9360636,13.9281359 15.992013,14.1683262 C13.2638956,14.0314674 10.8451385,12.7249024 9.2261181,10.7393683 C8.94356205,11.2240788 8.78168341,11.7878385 8.78168341,12.3892796 C8.78168341,13.5278577 9.36119254,14.5323856 10.2419855,15.1209543 C9.70391173,15.1039274 9.19773374,14.956244 8.75517184,14.7104366 C8.75493774,14.7241283 8.75487921,14.7378785 8.75487921,14.7516873 C8.75487921,16.3417997 9.88639097,17.6682587 11.3880699,17.9697692 C11.1125953,18.0447226 10.8226066,18.0848031 10.5232541,18.0848031 C10.3116882,18.0848031 10.1060918,18.0642655 9.90564552,18.0259403 C10.3233931,19.3298138 11.5356686,20.2786386 12.9720927,20.3052029 C11.8485988,21.1853936 10.4332435,21.710009 8.89527937,21.710009 C8.63033918,21.710009 8.3690275,21.6945034 8.1122222,21.6641944 C9.56497468,22.5953487 11.2903926,23.1386293 13.1441546,23.1386293 C19.1820638,23.1386293 22.4837793,18.1378731 22.4837793,13.8009901 C22.4837793,13.6586898 22.4805605,13.5171501 22.4742984,13.3764296 C23.1156093,12.9137195 23.6721183,12.335683 24.1122222,11.677544" id="Fill-1-Copy-2" fill="#0084FF" transform="translate(16.112222, 16.638629) rotate(1.000000) translate(-16.112222, -16.638629) "></path>
    </g>
</svg>