<?xml version="1.0" encoding="utf-8"?>
<!-- Generator: Adobe Illustrator 22.0.1, SVG Export Plug-In . SVG Version: 6.00 Build 0)  -->
<svg version="1.1" baseProfile="tiny" id="Layer_1" xmlns="http://www.w3.org/2000/svg" xmlns:xlink="http://www.w3.org/1999/xlink"
	 x="0px" y="0px" viewBox="0 0 60 36" xml:space="preserve">
<g id="Colors">
	<g id="GP---Measurements-and-Assets" transform="translate(-1111.000000, -757.000000)">
		<g id="Assets_x2F_AmericanExpress" transform="translate(1111.000000, 757.000000)">
			<g id="AmericanExpress">
				<rect id="Rectangle" fill="#0072CE" width="60" height="36"/>
				<g id="Group-3" transform="translate(0.000000, 7.000000)">
					<path id="EXPRESS" fill="#FFFFFF" d="M59.5,15.1h-3c-0.3,0-0.5,0-0.7,0.1c-0.2,0.1-0.2,0.3-0.2,0.5c0,0.3,0.1,0.4,0.4,0.5
						c0.2,0.1,0.4,0.1,0.6,0.1l0.9,0c0.9,0,1.5,0.2,1.9,0.6c0.1,0.1,0.1,0.1,0.2,0.2V15.1z M59.5,19.7c-0.4,0.6-1.2,0.9-2.3,0.9H54
						v-1.5h3.2c0.3,0,0.5,0,0.7-0.2c0.1-0.1,0.2-0.3,0.2-0.5c0-0.2-0.1-0.4-0.2-0.5c-0.1-0.1-0.3-0.2-0.6-0.2
						c-1.6-0.1-3.5,0-3.5-2.1c0-1,0.6-2.1,2.4-2.1h3.3v-1.4h-3.1c-0.9,0-1.6,0.2-2.1,0.6v-0.6h-4.5c-0.7,0-1.6,0.2-2,0.6v-0.6h-8.1
						v0.6c-0.6-0.5-1.7-0.6-2.2-0.6h-5.4v0.6c-0.5-0.5-1.6-0.6-2.3-0.6h-6l-1.4,1.5l-1.3-1.5h-9V22h8.8l1.4-1.5l1.3,1.5l5.4,0v-2.3
						h0.5c0.7,0,1.6,0,2.3-0.3V22h4.5v-2.5h0.2c0.3,0,0.3,0,0.3,0.3V22h13.6c0.9,0,1.8-0.2,2.3-0.6V22h4.3c0.9,0,1.8-0.1,2.4-0.4
						V19.7L59.5,19.7z M52.9,16.9c0.3,0.3,0.5,0.8,0.5,1.5c0,1.5-0.9,2.2-2.6,2.2h-3.2v-1.5h3.2c0.3,0,0.5,0,0.7-0.2
						c0.1-0.1,0.2-0.3,0.2-0.5c0-0.2-0.1-0.4-0.2-0.5c-0.1-0.1-0.3-0.2-0.6-0.2c-1.6-0.1-3.5,0-3.5-2.1c0-1,0.6-2.1,2.4-2.1H53v1.5
						h-3c-0.3,0-0.5,0-0.7,0.1c-0.2,0.1-0.2,0.3-0.2,0.5c0,0.3,0.2,0.4,0.4,0.5c0.2,0.1,0.4,0.1,0.6,0.1l0.9,0
						C51.9,16.4,52.5,16.6,52.9,16.9L52.9,16.9z M37.9,16.5c-0.2,0.1-0.5,0.1-0.8,0.1h-2v-1.6h2c0.3,0,0.6,0,0.8,0.1
						c0.2,0.1,0.3,0.3,0.3,0.6S38.1,16.4,37.9,16.5L37.9,16.5z M38.9,17.4c0.4,0.1,0.7,0.4,0.8,0.6c0.2,0.3,0.3,0.7,0.3,1.3v1.4
						h-1.7v-0.9c0-0.4,0-1-0.3-1.4c-0.2-0.2-0.6-0.3-1.2-0.3H35v2.5h-1.7v-6.9h3.8c0.8,0,1.5,0,2,0.3c0.5,0.3,0.9,0.7,0.9,1.5
						C40.1,16.6,39.3,17.2,38.9,17.4L38.9,17.4z M41,13.7h5.5v1.4h-3.9v1.3h3.8v1.4h-3.8v1.4l3.9,0v1.4H41V13.7L41,13.7z M29.8,16.9
						h-2.1v-1.8h2.2c0.6,0,1,0.2,1,0.8C30.8,16.6,30.4,16.9,29.8,16.9L29.8,16.9z M26,20l-2.6-2.8l2.6-2.7V20L26,20z M19.4,19.2
						h-4.1v-1.4h3.6v-1.4h-3.6v-1.3h4.2l1.8,2L19.4,19.2L19.4,19.2z M32.6,16c0,1.9-1.4,2.3-2.9,2.3h-2.1v2.3h-3.2l-2-2.3l-2.1,2.3
						h-6.6v-6.9h6.7l2,2.3l2.1-2.3h5.3C31.1,13.7,32.6,14,32.6,16L32.6,16z"/>
					<path id="AMERICAN" fill="#FFFFFF" d="M5.7,5.7L4.6,2.9L3.4,5.7H5.7z M30.8,4.6c-0.2,0.1-0.5,0.1-0.8,0.1h-2V3.2h2
						c0.3,0,0.6,0,0.8,0.1c0.2,0.1,0.3,0.3,0.3,0.6C31.1,4.2,31,4.5,30.8,4.6L30.8,4.6z M45.2,5.7L44,2.9l-1.1,2.8H45.2L45.2,5.7z
						 M18.3,8.7h-1.7l0-5.4l-2.4,5.4h-1.5l-2.4-5.4v5.4H6.9L6.3,7.1H2.8L2.2,8.7H0.4l3-6.9h2.5l2.8,6.6V1.7h2.7l2.2,4.7l2-4.7h2.8
						L18.3,8.7L18.3,8.7z M25.1,8.7h-5.6V1.7h5.6v1.4h-3.9v1.2H25v1.4h-3.8v1.4h3.9V8.7L25.1,8.7z M32.9,3.6c0,1.1-0.7,1.7-1.2,1.8
						c0.4,0.1,0.7,0.4,0.8,0.6c0.2,0.3,0.3,0.7,0.3,1.3v1.4h-1.7l0-0.9c0-0.4,0-1-0.3-1.4c-0.2-0.2-0.6-0.3-1.2-0.3h-1.8v2.5h-1.7
						V1.7h3.8c0.8,0,1.5,0,2,0.3C32.6,2.4,32.9,2.8,32.9,3.6L32.9,3.6z M35.6,8.7h-1.7V1.7h1.7V8.7L35.6,8.7z M55.3,8.7h-2.4
						l-3.1-5.2v5.2h-3.4l-0.6-1.5h-3.5l-0.6,1.5h-1.9c-0.8,0-1.8-0.2-2.4-0.8c-0.6-0.6-0.9-1.4-0.9-2.6c0-1,0.2-2,0.9-2.7
						c0.5-0.6,1.4-0.8,2.5-0.8h1.6v1.5h-1.6c-0.6,0-0.9,0.1-1.3,0.4c-0.3,0.3-0.5,0.8-0.5,1.6c0,0.7,0.1,1.3,0.5,1.6
						c0.3,0.3,0.7,0.4,1.2,0.4h0.7l2.3-5.5h2.5l2.8,6.6V1.7h2.5l2.9,4.8V1.7h1.7V8.7L55.3,8.7z M0.4,10h2.8l0.6-1.5h1.4L5.9,10h5.6
						V8.9L12,10h2.9l0.5-1.2V10h13.9l0-2.5h0.3c0.2,0,0.2,0,0.2,0.3V10H37V9.4c0.6,0.3,1.5,0.6,2.7,0.6h3l0.6-1.5h1.4l0.6,1.5h5.8
						V8.6l0.9,1.5h4.7V0.4h-4.6v1.1l-0.6-1.1h-4.7v1.1l-0.6-1.1h-6.4c-1.1,0-2,0.1-2.8,0.6V0.4h-4.4v0.6c-0.5-0.4-1.1-0.6-1.9-0.6
						H14.6l-1.1,2.5l-1.1-2.5H7.3v1.1L6.7,0.4H2.4L0.4,5L0.4,10L0.4,10z"/>
				</g>
			</g>
		</g>
	</g>
</g>
</svg>
