<?xml version="1.0" encoding="UTF-8"?>
<svg width="60px" height="36px" viewBox="0 0 60 36" version="1.1" xmlns="http://www.w3.org/2000/svg" xmlns:xlink="http://www.w3.org/1999/xlink">
    <!-- Generator: Sketch 51.2 (57519) - http://www.bohemiancoding.com/sketch -->
    <title>Assets/Diners Club</title>
    <desc>Created with Sketch.</desc>
    <defs></defs>
    <g id="Assets/Diners-Club" stroke="none" stroke-width="1" fill="none" fill-rule="evenodd">
        <g id="Diners-Club">
            <polygon id="Fill-1-Copy" fill="#1A1919" points="0 36 59.9967797 36 59.9967797 0 0 0"></polygon>
            <path d="M13.4827119,25.0237776 C17.2757627,25.0420827 20.7377966,21.9310657 20.7377966,18.1461505 C20.7377966,14.0075064 17.2757627,11.146659 13.4827119,11.1478454 L10.2181356,11.1478454 C6.37983051,11.146659 3.22033898,14.0081844 3.22033898,18.1461505 C3.22033898,21.9319132 6.37983051,25.0420827 10.2181356,25.0237776 L13.4827119,25.0237776" id="Fill-15-Copy" fill="#006095"></path>
            <path d="M11.6898305,21.9359806 L11.6898305,14.4203874 C13.2005085,14.9998789 14.2728814,16.4625908 14.2757627,18.1780145 C14.2728814,19.8936077 13.2005085,21.3553027 11.6898305,21.9359806 M6.22372881,18.1780145 C6.22694915,16.4636077 7.2979661,15.0019128 8.80779661,14.4207264 L8.80779661,21.9342857 C7.2979661,21.3536077 6.22694915,19.8927603 6.22372881,18.1780145 M10.2491525,11.8258111 C6.74152542,11.8269976 3.89915254,14.6698789 3.89830508,18.1780145 C3.89915254,21.6856416 6.74152542,24.5280145 10.2491525,24.5290315 C13.7574576,24.5280145 16.600339,21.6856416 16.600678,18.1780145 C16.600339,14.6698789 13.7574576,11.8269976 10.2491525,11.8258111" id="Fill-16-Copy" fill="#FFFFFE"></path>
            <path d="M23.9281356,19.7873366 C23.9281356,20.3490315 24.33,20.4146247 24.6876271,20.4146247 C26.2642373,20.4146247 26.7816949,19.2253027 26.7816949,18.137845 C26.7816949,16.7734383 25.9061017,15.7883535 24.4977966,15.7883535 C24.1981356,15.7883535 24.0601695,15.8097094 23.9281356,15.8175061 L23.9281356,19.7873366 Z M23.2128814,16.3641162 C23.2128814,15.7080145 22.8705085,15.7512349 22.5423729,15.7442857 L22.5423729,15.5546247 C22.8267797,15.568523 23.1184746,15.568523 23.4033898,15.568523 C23.7098305,15.568523 24.1257627,15.5546247 24.6662712,15.5546247 C26.5559322,15.5546247 27.5847458,16.8163196 27.5847458,18.1086925 C27.5847458,18.8314044 27.1616949,20.6483535 24.5783051,20.6483535 C24.2064407,20.6483535 23.8628814,20.6337772 23.52,20.6337772 C23.1918644,20.6337772 22.8705085,20.6410654 22.5423729,20.6483535 L22.5423729,20.4586925 C22.979661,20.4146247 23.1918644,20.4000484 23.2128814,19.9039467 L23.2128814,16.3641162 Z" id="Fill-17-Copy" fill="#FFFFFE"></path>
            <path d="M28.5774576,16.2707264 C28.3872881,16.2707264 28.219661,16.0954722 28.219661,15.9056416 C28.219661,15.7229298 28.3950847,15.5546247 28.5774576,15.5546247 C28.7666102,15.5546247 28.9350847,15.7086925 28.9350847,15.9056416 C28.9350847,16.1027603 28.7742373,16.2707264 28.5774576,16.2707264 M27.7966102,20.5398789 L27.9350847,20.5398789 C28.1391525,20.5398789 28.2852542,20.5398789 28.2852542,20.2983535 L28.2852542,18.3210654 C28.2852542,18.0002179 28.1759322,17.9556416 27.9055932,17.8105569 L27.9055932,17.6937772 C28.2488136,17.5908959 28.6576271,17.4529298 28.6864407,17.4308959 C28.7377966,17.4019128 28.7813559,17.3941162 28.8179661,17.3941162 C28.8538983,17.3941162 28.8691525,17.4380145 28.8691525,17.4968281 L28.8691525,20.2983535 C28.8691525,20.5398789 29.029661,20.5398789 29.2342373,20.5398789 L29.3579661,20.5398789 L29.3579661,20.7293705 C29.109661,20.7293705 28.8538983,20.7147942 28.5920339,20.7147942 C28.329322,20.7147942 28.0664407,20.7220823 27.7966102,20.7293705 L27.7966102,20.5398789" id="Fill-18-Copy" fill="#FFFFFE"></path>
            <path d="M29.9732203,18.3897094 C29.9732203,18.1198789 29.8927119,18.0471671 29.5505085,17.908523 L29.5505085,17.7698789 C29.8635593,17.667845 30.1625424,17.5727603 30.5130508,17.4190315 C30.5352542,17.4190315 30.5564407,17.4341162 30.5564407,17.4920823 L30.5564407,17.9666586 C30.9728814,17.667845 31.3308475,17.4190315 31.820339,17.4190315 C32.44,17.4190315 32.6588136,17.8717433 32.6588136,18.4410654 L32.6588136,20.3234383 C32.6588136,20.5647942 32.8194915,20.5647942 33.0237288,20.5647942 L33.1554237,20.5647942 L33.1554237,20.7544552 C32.8991525,20.7544552 32.6440678,20.7398789 32.3818644,20.7398789 C32.1186441,20.7398789 31.8557627,20.7471671 31.5932203,20.7544552 L31.5932203,20.5647942 L31.7247458,20.5647942 C31.929322,20.5647942 32.0745763,20.5647942 32.0745763,20.3234383 L32.0745763,18.4339467 C32.0745763,18.0175061 31.820339,17.8136077 31.4038983,17.8136077 C31.170339,17.8136077 30.7981356,18.0032688 30.5564407,18.1637772 L30.5564407,20.3234383 C30.5564407,20.5647942 30.7176271,20.5647942 30.9222034,20.5647942 L31.0533898,20.5647942 L31.0533898,20.7544552 C30.7981356,20.7544552 30.5422034,20.7398789 30.279322,20.7398789 C30.0172881,20.7398789 29.7540678,20.7471671 29.4915254,20.7544552 L29.4915254,20.5647942 L29.6232203,20.5647942 C29.8274576,20.5647942 29.9732203,20.5647942 29.9732203,20.3234383 L29.9732203,18.3897094" id="Fill-19-Copy" fill="#FFFFFE"></path>
            <path d="M35.0964407,18.5064891 C35.2788136,18.5064891 35.3,18.4115738 35.3,18.3241162 C35.3,17.9522518 35.0738983,17.6527603 34.6650847,17.6527603 C34.2201695,17.6527603 33.9135593,17.9803874 33.8262712,18.5064891 L35.0964407,18.5064891 Z M33.8047458,18.7402179 C33.7894915,18.8063196 33.7894915,18.9153027 33.8047458,19.1636077 C33.8474576,19.8566586 34.2935593,20.4259806 34.8766102,20.4259806 C35.2788136,20.4259806 35.5928814,20.2068281 35.8623729,19.9369976 L35.9644068,20.039201 C35.6283051,20.4844552 35.2125424,20.8639467 34.6147458,20.8639467 C33.4537288,20.8639467 33.220339,19.7397094 33.220339,19.2727603 C33.220339,17.8424213 34.1837288,17.4190315 34.6942373,17.4190315 C35.2857627,17.4190315 35.9210169,17.7912349 35.9276271,18.5646247 C35.9276271,18.6090315 35.9276271,18.6522518 35.9210169,18.6963196 L35.8547458,18.7402179 L33.8047458,18.7402179 Z" id="Fill-20-Copy" fill="#FFFFFE"></path>
            <path d="M36.1016949,20.5646247 L36.2989831,20.5646247 C36.5025424,20.5646247 36.6486441,20.5646247 36.6486441,20.3232688 L36.6486441,18.2732688 C36.6486441,18.0471671 36.3788136,18.0030993 36.2691525,17.9444552 L36.2691525,17.8354722 C36.8018644,17.608862 37.0938983,17.4190315 37.160678,17.4190315 C37.2033898,17.4190315 37.2252542,17.4408959 37.2252542,17.5142857 L37.2252542,18.1708959 L37.2408475,18.1708959 C37.4225424,17.8861501 37.7294915,17.4190315 38.1744068,17.4190315 C38.3571186,17.4190315 38.5901695,17.5429298 38.5901695,17.8058111 C38.5901695,18.0030993 38.4520339,18.178523 38.2474576,18.178523 C38.020678,18.178523 38.020678,18.0030993 37.7655932,18.0030993 C37.6413559,18.0030993 37.2328814,18.1708959 37.2328814,18.6090315 L37.2328814,20.3232688 C37.2328814,20.5646247 37.3784746,20.5646247 37.5827119,20.5646247 L37.9913559,20.5646247 L37.9913559,20.7542857 C37.59,20.7469976 37.2845763,20.7397094 36.970339,20.7397094 C36.6711864,20.7397094 36.3645763,20.7469976 36.1016949,20.7542857 L36.1016949,20.5646247" id="Fill-21-Copy" fill="#FFFFFE"></path>
            <path d="M38.9449153,19.7397094 C39.04,20.2214044 39.3316949,20.6302179 39.8649153,20.6302179 C40.2945763,20.6302179 40.4550847,20.3675061 40.4550847,20.1122518 C40.4550847,19.2510654 38.8649153,19.528184 38.8649153,18.3534383 C38.8649153,17.9444552 39.1935593,17.4190315 39.9961017,17.4190315 C40.2291525,17.4190315 40.5428814,17.4849637 40.8276271,17.6308959 L40.8788136,18.3747942 L40.7110169,18.3747942 C40.6383051,17.9154722 40.3827119,17.6525908 39.9155932,17.6525908 C39.6232203,17.6525908 39.3462712,17.8205569 39.3462712,18.1342857 C39.3462712,18.9886925 41.0394915,18.7253027 41.0394915,19.8710654 C41.0394915,20.3525908 40.6528814,20.8639467 39.7842373,20.8639467 C39.4922034,20.8639467 39.1488136,20.7615738 38.8940678,20.6159806 L38.8135593,19.7764891 L38.9449153,19.7397094" id="Fill-22-Copy" fill="#FFFFFE"></path>
            <path d="M47.6113559,16.9851332 L47.4291525,16.9851332 C47.2901695,16.1317433 46.6844068,15.788523 45.8677966,15.788523 C45.0277966,15.788523 43.8089831,16.3502179 43.8089831,18.1015738 C43.8089831,19.5763196 44.860678,20.6342857 45.9838983,20.6342857 C46.7062712,20.6342857 47.3050847,20.138184 47.4510169,19.3714044 L47.6189831,19.4153027 L47.4510169,20.4805569 C47.1445763,20.6710654 46.32,20.8680145 45.8379661,20.8680145 C44.1308475,20.8680145 43.0508475,19.7659806 43.0508475,18.1237772 C43.0508475,16.6276755 44.3859322,15.5546247 45.8164407,15.5546247 C46.4072881,15.5546247 46.9767797,15.7447942 47.5384746,15.9420823 L47.6113559,16.9851332" id="Fill-23-Copy" fill="#FFFFFE"></path>
            <path d="M47.7966102,20.4320823 L47.9347458,20.4320823 C48.139661,20.4320823 48.2855932,20.4320823 48.2855932,20.1907264 L48.2855932,16.1266586 C48.2855932,15.6519128 48.1764407,15.6373366 47.8989831,15.5571671 L47.8989831,15.4403874 C48.190678,15.3456416 48.4971186,15.2142857 48.6505085,15.1263196 C48.7301695,15.0827603 48.7888136,15.0461501 48.810678,15.0461501 C48.8547458,15.0461501 48.8694915,15.0900484 48.8694915,15.148523 L48.8694915,20.1907264 C48.8694915,20.4320823 49.0301695,20.4320823 49.2344068,20.4320823 L49.3577966,20.4320823 L49.3577966,20.6217433 C49.1105085,20.6217433 48.8547458,20.6071671 48.5922034,20.6071671 C48.329661,20.6071671 48.0667797,20.6144552 47.7966102,20.6217433 L47.7966102,20.4320823" id="Fill-24-Copy" fill="#FFFFFE"></path>
            <path d="M52.4454237,20.2425908 C52.4454237,20.3744552 52.5255932,20.3814044 52.649322,20.3814044 C52.7371186,20.3814044 52.8462712,20.3744552 52.9416949,20.3744552 L52.9416949,20.5283535 C52.6271186,20.5568281 52.0289831,20.7102179 51.890339,20.7539467 L51.8535593,20.7319128 L51.8535593,20.1410654 C51.4162712,20.4986925 51.0801695,20.7539467 50.5615254,20.7539467 C50.1674576,20.7539467 49.7589831,20.4986925 49.7589831,19.8859806 L49.7589831,18.0171671 C49.7589831,17.8273366 49.7301695,17.6447942 49.3220339,17.608523 L49.3220339,17.4697094 C49.5849153,17.4625908 50.1674576,17.4190315 50.2628814,17.4190315 C50.3437288,17.4190315 50.3437288,17.4697094 50.3437288,17.6305569 L50.3437288,19.5127603 C50.3437288,19.7320823 50.3437288,20.35954 50.9783051,20.35954 C51.2262712,20.35954 51.5545763,20.1698789 51.8608475,19.9149637 L51.8608475,17.9512349 C51.8608475,17.8054722 51.5105085,17.7254722 51.2486441,17.6524213 L51.2486441,17.5208959 C51.9045763,17.4769976 52.3140678,17.4190315 52.3864407,17.4190315 C52.4454237,17.4190315 52.4454237,17.4697094 52.4454237,17.5503874 L52.4454237,20.2425908" id="Fill-25-Copy" fill="#FFFFFE"></path>
            <path d="M54.0213559,19.7968281 C54.0213559,20.0742857 54.2842373,20.5417433 54.7732203,20.5417433 C55.5540678,20.5417433 55.8822034,19.7749637 55.8822034,19.1253027 C55.8822034,18.3373366 55.2844068,17.6808959 54.7149153,17.6808959 C54.4440678,17.6808959 54.2183051,17.8563196 54.0213559,18.0241162 L54.0213559,19.7968281 Z M54.0213559,17.8119128 C54.3130508,17.5639467 54.7076271,17.2863196 55.1088136,17.2863196 C55.9555932,17.2863196 56.4661017,18.0241162 56.4661017,18.819201 C56.4661017,19.7749637 55.7655932,20.7314044 54.7215254,20.7314044 C54.1820339,20.7314044 53.8972881,20.5559806 53.7071186,20.4761501 L53.4888136,20.6432688 L53.3357627,20.5634383 C53.400678,20.1329298 53.4377966,19.70954 53.4377966,19.2644552 L53.4377966,16.1266586 C53.4377966,15.6519128 53.3279661,15.6373366 53.0508475,15.5571671 L53.0508475,15.4403874 C53.3430508,15.3456416 53.649322,15.2142857 53.8025424,15.1263196 C53.8827119,15.0827603 53.9410169,15.0461501 53.9635593,15.0461501 C54.0071186,15.0461501 54.0213559,15.0898789 54.0213559,15.148523 L54.0213559,17.8119128 Z" id="Fill-26-Copy" fill="#FFFFFE"></path>
            <path d="M56.3274576,17.0436077 L56.3830508,17.0436077 C56.4437288,17.0436077 56.4723729,16.9976755 56.4723729,16.9237772 C56.4723729,16.848523 56.4284746,16.8224213 56.3801695,16.8224213 L56.3274576,16.8224213 L56.3274576,17.0436077 Z M56.1688136,17.2917433 L56.1688136,17.2683535 C56.2269492,17.2603874 56.2374576,17.2622518 56.2374576,17.2261501 L56.2374576,16.8780145 C56.2374576,16.829201 56.2320339,16.8124213 56.1708475,16.8151332 L56.1708475,16.7912349 L56.4118644,16.7912349 C56.4947458,16.7912349 56.5708475,16.8303874 56.5708475,16.9156416 C56.5708475,16.9858111 56.5244068,17.0375061 56.459661,17.057845 L56.5367797,17.1654722 C56.5728814,17.2142857 56.6137288,17.2603874 56.640678,17.2763196 L56.640678,17.2917433 L56.5486441,17.2917433 C56.5045763,17.2917433 56.4662712,17.198862 56.3798305,17.0749637 L56.3274576,17.0749637 L56.3274576,17.2312349 C56.3274576,17.2622518 56.3383051,17.2603874 56.3964407,17.2683535 L56.3964407,17.2917433 L56.1688136,17.2917433 Z M56.4030508,17.4247942 C56.6137288,17.4247942 56.7750847,17.2456416 56.7750847,17.0436077 C56.7750847,16.8407264 56.6157627,16.6597094 56.4030508,16.6597094 C56.1915254,16.6597094 56.0301695,16.8407264 56.0301695,17.0436077 C56.0301695,17.2456416 56.1915254,17.4247942 56.4030508,17.4247942 Z M56.4030508,16.5715738 C56.6723729,16.5715738 56.8733898,16.778862 56.8733898,17.0436077 C56.8733898,17.3073366 56.6723729,17.5125908 56.4030508,17.5125908 C56.1342373,17.5125908 55.9322034,17.3073366 55.9322034,17.0436077 C55.9322034,16.778862 56.1342373,16.5715738 56.4030508,16.5715738 Z" id="Fill-27-Copy" fill="#FFFFFE"></path>
        </g>
    </g>
</svg>