<?xml version="1.0" encoding="utf-8"?>
<!-- Generator: Adobe Illustrator 22.0.1, SVG Export Plug-In . SVG Version: 6.00 Build 0)  -->
<svg version="1.1" baseProfile="tiny" id="Layer_1" xmlns="http://www.w3.org/2000/svg" xmlns:xlink="http://www.w3.org/1999/xlink"
	 x="0px" y="0px" viewBox="0 0 60 36" xml:space="preserve">
<g id="Colors">
	<g id="GP---Measurements-and-Assets" transform="translate(-988.000000, -757.000000)">
		<g id="Assets_x2F_Discover" transform="translate(988.000000, 757.000000)">
			<g id="Discover">
				<g id="Rectangle">
					<rect x="0.5" y="0.5" fill="none" stroke="#E6772F" width="59" height="35"/>
					<g id="Mask">
						<path id="path-3_1_" fill="#E6772F" d="M14.5,36H56c2.2,0,4-1.8,4-4V20.2C60,20.2,43.9,31.1,14.5,36z"/>
					</g>
				</g>
				<path id="Fill-13" fill="#1A1919" d="M11,17.9c-0.5,0.4-1,0.6-1.9,0.6H8.7v-4.6H9c0.9,0,1.5,0.2,1.9,0.6
					c0.5,0.4,0.8,1.1,0.8,1.7C11.8,16.8,11.5,17.5,11,17.9L11,17.9z M9.3,12.7H7.2v7h2.1c1.1,0,1.9-0.3,2.6-0.8
					c0.8-0.7,1.3-1.6,1.3-2.7C13.2,14.1,11.6,12.7,9.3,12.7L9.3,12.7z"/>
				<polygon id="Fill-14" fill="#1A1919" points="13.9,12.7 15.3,12.7 15.3,19.6 13.9,19.6 				"/>
				<path id="Fill-15" fill="#1A1919" d="M18.7,15.3c-0.9-0.3-1.1-0.5-1.1-0.9c0-0.4,0.4-0.8,1.1-0.8c0.4,0,0.8,0.2,1.1,0.6l0.7-0.9
					c-0.6-0.5-1.3-0.8-2.1-0.8c-1.3,0-2.3,0.9-2.3,2c0,1,0.5,1.4,1.8,1.9c0.6,0.2,0.8,0.3,1,0.4c0.3,0.2,0.4,0.4,0.4,0.7
					c0,0.6-0.5,1-1.1,1c-0.7,0-1.2-0.3-1.5-0.9l-0.9,0.8c0.7,0.9,1.4,1.3,2.5,1.3c1.5,0,2.5-0.9,2.5-2.3
					C20.8,16.4,20.4,15.9,18.7,15.3"/>
				<path id="Fill-16" fill="#1A1919" d="M21.3,16.2c0,2,1.7,3.6,3.8,3.6c0.6,0,1.1-0.1,1.8-0.4v-1.6c-0.6,0.5-1.1,0.8-1.7,0.8
					c-1.4,0-2.4-1-2.4-2.4c0-1.3,1-2.4,2.4-2.4c0.7,0,1.2,0.2,1.8,0.8v-1.6c-0.6-0.3-1.1-0.4-1.7-0.4C23,12.5,21.3,14.1,21.3,16.2"
					/>
				<polyline id="Fill-17" fill="#1A1919" points="38.4,17.3 36.4,12.7 34.9,12.7 38,19.8 38.7,19.8 41.9,12.7 40.3,12.7 38.4,17.3 
									"/>
				<polyline id="Fill-18" fill="#1A1919" points="42.5,19.6 46.5,19.6 46.5,18.4 43.9,18.4 43.9,16.6 46.4,16.6 46.4,15.4 
					43.9,15.4 43.9,13.9 46.5,13.9 46.5,12.7 42.5,12.7 42.5,19.6 				"/>
				<path id="Fill-19" fill="#1A1919" d="M49.3,15.9h-0.4v-2.1h0.4c0.9,0,1.4,0.4,1.4,1C50.7,15.5,50.2,15.9,49.3,15.9L49.3,15.9z
					 M52.1,14.7c0-1.3-0.9-2.1-2.6-2.1h-2.1v7h1.4v-2.8h0.2l2,2.8h1.7l-2.3-2.9C51.5,16.5,52.1,15.8,52.1,14.7L52.1,14.7z"/>
				<path id="Fill-20" fill="#E6772F" d="M35.1,16.2c0,2-1.7,3.6-3.8,3.6c-2.1,0-3.8-1.6-3.8-3.6c0-2,1.7-3.6,3.8-3.6
					C33.4,12.5,35.1,14.2,35.1,16.2"/>
			</g>
		</g>
	</g>
</g>
</svg>
