<?xml version="1.0" encoding="UTF-8"?>
<svg width="60px" height="36px" viewBox="0 0 60 36" version="1.1" xmlns="http://www.w3.org/2000/svg" xmlns:xlink="http://www.w3.org/1999/xlink">
    <!-- Generator: Sketch 51.2 (57519) - http://www.bohemiancoding.com/sketch -->
    <title>Assets/JCB</title>
    <desc>Created with Sketch.</desc>
    <defs></defs>
    <g id="Assets/JCB" stroke="none" stroke-width="1" fill="none" fill-rule="evenodd">
        <g id="JCB" transform="translate(10.000000, 3.000000)" fill-rule="nonzero">
            <g id="jcb-copy">
                <path d="M5.48491648,0 C2.38755188,0 0,2.07390524 0,5.68651437 L0,15.9891404 C0.258113717,17.2602436 1.5486823,18.196846 2.96830774,18.196846 C4.58151847,18.196846 5.7430302,16.9926429 5.7430302,15.5208392 L5.7430302,10.302626 L10.1309634,10.302626 L10.1309634,15.453939 C10.1309634,18.3306463 6.58189978,19.80245 4.00076261,19.80245 C2.51660874,19.80245 1.0969833,19.3341488 0.0645284292,18.5313468 L0.0645284292,29.9043755 L7.03359878,29.9043755 C9.48567909,29.9043755 12.32493,27.4959695 12.32493,24.4185617 L12.32493,0 L5.48491648,0 Z" id="Shape" fill="#1174CE"></path>
                <path d="M0,5.68651437 L0,15.9891404 C0.258113717,17.2602436 1.5486823,18.196846 2.96830774,18.196846 C4.58151847,18.196846 5.7430302,16.9926429 5.7430302,15.5208392 L5.7430302,10.302626 L10.1309634,10.302626 L10.1309634,15.453939 C10.1309634,18.3306463 6.58189978,19.80245 4.00076261,19.80245 C2.51660874,19.80245 1.0969833,19.3341488 0.0645284292,18.5313468 L0.0645284292,29.9043755 L7.03359878,29.9043755 C9.48567909,29.9043755 12.32493,27.4959695 12.32493,24.4185617 L12.32493,0" id="Shape" fill="#0F549D"></path>
                <path d="M10.1299438,10.305542 L10.1299438,15.4533796 C10.1299438,18.3281461 6.59463499,19.7989569 4.02350127,19.7989569 C2.54509938,19.7989569 1.08936657,19.3309716 0.0609130859,18.5287112 L0.0609130859,29.8940671 L7.04458339,29.8940671 C9.48716042,29.8940671 12.3154075,27.4872858 12.3154075,24.4119542" id="Shape" fill="#02375E"></path>
                <path d="M29.9159664,18.0817154 L32.9251701,18.0817154 C33.6934774,18.0817154 34.3977591,17.3333501 34.3977591,16.5169516 C34.3977591,15.7005531 33.6934774,14.9521878 32.9251701,14.9521878 L29.9159664,14.9521878 L29.9159664,18.0817154 Z" id="Shape" fill="#146643"></path>
                <path d="M33.3150523,0 C30.1654135,0 27.8513932,2.07390524 27.8513932,5.6196142 L27.8513932,10.302626 L35.9504644,10.302626 C37.1074746,10.302626 38.0716497,11.3061286 38.0716497,12.5103316 C38.0716497,13.7145346 37.1074746,14.7180372 35.9504644,14.7180372 C37.2360313,14.7180372 38.2644847,15.6546395 38.2644847,16.8588426 C38.2644847,18.0630456 37.3003096,18.999648 35.9504644,18.999648 L27.7871148,18.999648 L27.7871148,29.9043755 L34.7291759,29.9043755 C37.1717529,29.9043755 40,27.4959695 40,24.4185617 L40,0 L33.3150523,0 Z" id="Shape" fill="#1BCC38"></path>
                <path d="M27.8515015,5.68651437 L27.8515015,10.302626 L35.8861861,10.302626 C37.0431962,10.302626 38.0073714,11.3061286 38.0073714,12.5103316 C38.0073714,13.7145346 37.0431962,14.7180372 35.8861861,14.7180372 C37.1717529,14.7180372 38.2002064,15.6546395 38.2002064,16.8588426 C38.2002064,18.0630456 37.2360313,18.999648 35.8861861,18.999648 L27.7871148,18.999648 L27.7871148,29.9043755 L34.7291759,29.9043755 C37.1717529,29.9043755 40,27.4959695 40,24.4185617 L40,0 L27.8515015,5.68651437 Z" id="Shape" fill="#329947"></path>
                <g id="Group" transform="translate(27.787115, 11.243118)" fill="#146643">
                    <path d="M10.2202565,1.31628513 C10.2202565,2.51593741 9.24227081,3.45976292 8.08526064,3.45976292 C9.3708275,3.45976292 10.4130916,4.44871052 10.4130916,5.64836279 C10.4130916,6.84801507 9.44891641,7.72941624 8.09907121,7.72941624 L0,7.72941624 L-9.09494702e-13,18.6668552 L6.94206103,18.6668552 C9.38463807,18.6668552 12.2128852,16.2452912 12.2128852,13.1795132" id="Shape"></path>
                    <path d="M6.55639098,1.58287453 C6.55639098,0.783106346 5.84932921,0.0499855114 5.07798909,0.0499855114 L2.12118532,0.0499855114 L2.12118532,3.0491162 L5.14226743,3.0491162 C5.91360755,3.0491162 6.55639098,2.38264271 6.55639098,1.58287453 Z" id="Shape"></path>
                </g>
                <path d="M19.2451718,0 C16.095533,0 13.7815126,2.07390524 13.7815126,5.6196142 L13.7815126,11.3730287 C14.5528527,10.704027 15.5170279,10.2357259 16.5454814,10.2357259 L23.8732124,10.2357259 L23.8732124,11.8413299 C22.1376972,11.4399289 20.4664603,11.2392284 19.6308418,11.2392284 C17.8310482,11.2392284 16.3526463,12.7779323 16.3526463,14.651137 C16.3526463,16.5243417 17.8310482,18.0630456 19.6308418,18.0630456 C20.4664603,18.0630456 22.1376972,17.9292453 23.8732124,17.5278443 L23.8732124,18.999648 L16.5454814,18.999648 C15.5170279,18.999648 14.4885744,18.598247 13.7815126,17.8623451 L13.7815126,29.9043755 L20.7235736,29.9043755 C23.1661507,29.9043755 25.9943978,27.4959695 25.9943978,24.4185617 L25.9943978,0 L19.2451718,0 Z" id="Shape" fill="#E20E37"></path>
                <path d="M13.7815126,5.68651437 L13.7815126,11.4399289 C14.5528527,10.7709272 15.5170279,10.302626 16.5454814,10.302626 L23.8732124,10.302626 L23.8732124,11.9082301 C22.1376972,11.5068291 20.4664603,11.3061286 19.6308418,11.3061286 C17.8310482,11.3061286 16.3526463,12.8448324 16.3526463,14.7180372 C16.3526463,16.5912419 17.8310482,18.1299458 19.6308418,18.1299458 C20.4664603,18.1299458 22.1376972,17.9961455 23.8732124,17.5947444 L23.8732124,18.999648 L16.5454814,18.999648 C15.5170279,18.999648 14.4885744,18.598247 13.7815126,17.8623451 L13.7815126,29.9043755 L20.7235736,29.9043755 C23.1661507,29.9043755 25.9943978,27.4959695 25.9943978,24.4185617 L25.9943978,0" id="Shape" fill="#B41F36"></path>
                <path d="M23.8732124,10.3158505 L23.87323,11.8426011 C22.1377147,11.4414709 20.4664778,11.2409058 19.6308594,11.2409058 C17.8310658,11.2409058 16.3175049,12.7771606 16.3526463,14.7282827 C16.3877878,16.6794048 17.8310482,18.1378895 19.6308418,18.1378895 C20.4664603,18.1378895 22.1376972,18.0041794 23.8732124,17.6030492 L23.8732124,19.0070049 L16.5454814,19.0070049 C15.5170279,19.0070049 14.4885744,18.6058747 13.7815126,17.8704694 L13.7815126,29.9043755 L20.7235736,29.9043755 C23.1661507,29.9043755 25.9943978,27.4975943 25.9943978,24.4222627" id="Shape" fill="#720A1E"></path>
            </g>
        </g>
        <path d="M0.108,35.892 L59.892,35.892 L59.892,0.108 L0.108,0.108 L0.108,35.892 Z" id="Stroke-8" stroke="#CECECE" stroke-width="0.216"></path>
    </g>
</svg>