<?xml version="1.0" encoding="utf-8"?>
<!-- Generator: Adobe Illustrator 22.0.1, SVG Export Plug-In . SVG Version: 6.00 Build 0)  -->
<svg version="1.1" baseProfile="tiny" id="Layer_1" xmlns="http://www.w3.org/2000/svg" xmlns:xlink="http://www.w3.org/1999/xlink"
	 x="0px" y="0px" viewBox="0 0 60 36" xml:space="preserve">
<g id="Assets_x2F_Maestro">
	<g id="Maestro" transform="translate(6.000000, 3.000000)">
		<path id="Fill-2" fill="#0092C7" d="M23.9,25.8c2.9-2.7,4.7-6.6,4.7-11c0-4.4-1.8-8.3-4.7-11C21.3,1.5,18,0,14.3,0
			C6.4,0,0,6.6,0,14.8C0,23,6.4,29.7,14.3,29.7C18,29.7,21.3,28.2,23.9,25.8"/>
		<path id="Fill-3" fill="#D82332" d="M33.5,0c-3.7,0-7.1,1.5-9.6,3.8c-0.5,0.5-1,1-1.4,1.6h2.9c0.4,0.5,0.8,1,1.1,1.6h-5.1
			c-0.3,0.5-0.6,1-0.8,1.6h6.7c0.2,0.5,0.4,1,0.6,1.6h-7.9c-0.2,0.5-0.3,1-0.4,1.6h8.8c0.2,1,0.3,2.1,0.3,3.1c0,1.6-0.3,3.2-0.7,4.7
			h-7.9c0.2,0.5,0.4,1.1,0.6,1.6h6.7c-0.2,0.5-0.5,1.1-0.8,1.6h-5.1c0.3,0.5,0.7,1.1,1.1,1.6h2.9c-0.4,0.6-0.9,1.1-1.4,1.6
			c2.5,2.4,5.9,3.8,9.6,3.8c7.9,0,14.3-6.6,14.3-14.8C47.8,6.6,41.4,0,33.5,0"/>
		<path id="Fill-4" fill="#D82332" d="M45.9,23.1c0-0.3,0.2-0.5,0.5-0.5c0.3,0,0.5,0.2,0.5,0.5c0,0.3-0.2,0.5-0.5,0.5
			C46.1,23.6,45.9,23.4,45.9,23.1z M46.3,23.5c0.2,0,0.4-0.2,0.4-0.4c0-0.2-0.2-0.4-0.4-0.4c-0.2,0-0.4,0.2-0.4,0.4
			C46,23.3,46.1,23.5,46.3,23.5z M46.3,23.3L46.3,23.3l-0.1-0.4h0.2c0,0,0.1,0,0.1,0c0,0,0.1,0.1,0.1,0.1c0,0,0,0.1-0.1,0.1l0.1,0.2
			h-0.1l-0.1-0.2h-0.1V23.3v-0.2h0.1c0,0,0,0,0.1,0c0,0,0,0,0,0c0,0,0,0,0,0c0,0,0,0-0.1,0h-0.1V23.3z"/>
		<path id="Fill-5" fill="#FFFFFE" d="M42.8,18.1c0-0.3,0.2-0.5,0.5-0.5c0.3,0,0.5,0.2,0.5,0.5c0,0.3-0.2,0.5-0.5,0.5
			C43,18.5,42.8,18.3,42.8,18.1z M43.3,18.4c0.2,0,0.4-0.2,0.4-0.4c0-0.2-0.2-0.4-0.4-0.4c-0.2,0-0.4,0.2-0.4,0.4
			C43,18.3,43.1,18.4,43.3,18.4z M43.2,18.3L43.2,18.3l-0.1-0.4h0.2c0,0,0.1,0,0.1,0c0,0,0.1,0.1,0.1,0.1c0,0,0,0.1-0.1,0.1l0.1,0.2
			h-0.1l-0.1-0.2h-0.1V18.3V18h0.1c0,0,0,0,0.1,0c0,0,0,0,0,0c0,0,0,0,0,0c0,0,0,0-0.1,0h-0.1V18.3z"/>
		<polyline id="Fill-6" fill="#FFFFFE" points="12.5,18.5 10.7,18.5 11.8,12.8 9.3,18.5 7.7,18.5 7.4,12.8 6.4,18.5 4.8,18.5 
			6.1,11 8.9,11 9.1,15.7 11,11 13.9,11 12.5,18.5 		"/>
		<path id="Fill-7" fill="#FFFFFE" d="M32.4,18.5c-0.5,0.1-0.9,0.2-1.3,0.2c-0.9,0-1.4-0.5-1.4-1.3c0-0.2,0-0.4,0.1-0.5l0.1-0.6
			l0.1-0.5l0.8-4.7h1.8l-0.3,1.4h0.9l-0.2,1.5H32l-0.5,2.6c0,0.1,0,0.2,0,0.3c0,0.3,0.2,0.5,0.6,0.5c0.2,0,0.4,0,0.5-0.1L32.4,18.5"
			/>
		<path id="Fill-8" fill="#FFFFFE" d="M37.6,12.5c-0.1-0.1-0.2-0.1-0.2-0.1c-0.1,0-0.1,0-0.2,0c-0.1,0-0.1,0-0.2,0
			c-0.6,0-1,0.3-1.5,1l0.2-0.9H34L33,18.5h1.8c0.6-3.7,0.9-4.4,1.8-4.4c0.1,0,0.1,0,0.2,0l0.2,0L37.6,12.5"/>
		<path id="Fill-9" fill="#FFFFFE" d="M25.3,14.3c0,0.8,0.4,1.3,1.4,1.7c0.7,0.3,0.8,0.4,0.8,0.7c0,0.4-0.3,0.6-1,0.6
			c-0.5,0-1-0.1-1.6-0.2l-0.2,1.4l0.1,0l0.3,0.1c0.1,0,0.3,0,0.5,0.1c0.4,0,0.8,0.1,1,0.1c1.9,0,2.8-0.6,2.8-2
			c0-0.8-0.4-1.3-1.3-1.7c-0.8-0.3-0.8-0.4-0.8-0.7c0-0.3,0.3-0.5,0.9-0.5c0.4,0,0.8,0,1.3,0.1l0.3-1.4c-0.5-0.1-1.2-0.1-1.6-0.1
			C26,12.3,25.3,13.2,25.3,14.3"/>
		<path id="Fill-10" fill="#FFFFFE" d="M18.3,18.5h-1.5l0-0.6c-0.5,0.5-1.1,0.7-1.9,0.7c-1,0-1.6-0.7-1.6-1.7c0-1.5,1.1-2.4,3.1-2.4
			c0.2,0,0.5,0,0.7,0c0.1-0.2,0.1-0.3,0.1-0.4c0-0.4-0.3-0.6-1.1-0.6c-0.5,0-1.1,0.1-1.5,0.2l-0.2,0.1l-0.2,0l0.2-1.4
			c0.9-0.2,1.5-0.3,2.1-0.3c1.5,0,2.3,0.6,2.3,1.8c0,0.3,0,0.5-0.1,1.2l-0.4,2.2l-0.1,0.4l0,0.3l0,0.2L18.3,18.5z M17,15.8
			c-0.2,0-0.3,0-0.4,0c-1,0-1.5,0.3-1.5,0.9c0,0.4,0.2,0.6,0.6,0.6C16.4,17.3,17,16.7,17,15.8z"/>
		<path id="Fill-11" fill="#FFFFFE" d="M24.1,18.4c-0.6,0.2-1.2,0.2-1.8,0.2c-2,0-3-0.9-3-2.7c0-2.1,1.3-3.6,3.1-3.6
			c1.5,0,2.4,0.9,2.4,2.2c0,0.5-0.1,0.9-0.2,1.5H21c0,0.1,0,0.1,0,0.2c0,0.7,0.5,1.1,1.6,1.1c0.6,0,1.2-0.1,1.8-0.4L24.1,18.4z
			 M23.2,14.8c0-0.1,0-0.2,0-0.3c0-0.5-0.3-0.8-0.8-0.8c-0.6,0-1,0.4-1.1,1.1L23.2,14.8z"/>
		<path id="Fill-12" fill="#FFFFFE" d="M43.1,15.8c-0.3,2-1.6,2.9-3.5,2.9c-2,0-2.8-1.3-2.8-2.8c0-2.2,1.4-3.6,3.5-3.6
			c1.8,0,2.8,1.2,2.8,2.8C43.2,15.4,43.2,15.4,43.1,15.8z M41.3,15c0-0.6-0.3-1.2-1-1.2c-0.9,0-1.5,1.1-1.5,2.1c0,0.8,0.4,1.4,1,1.4
			c0.4,0,1.2-0.5,1.4-1.5C41.3,15.5,41.3,15.2,41.3,15z"/>
	</g>
	<polygon id="Stroke-8" fill="none" stroke="#CECECE" stroke-width="0.216" points="0,35.8 60,35.8 60,0 0,0 	"/>
</g>
</svg>
