<?xml version="1.0" encoding="utf-8"?>
<!-- Generator: Adobe Illustrator 22.0.1, SVG Export Plug-In . SVG Version: 6.00 Build 0)  -->
<svg version="1.1" baseProfile="tiny" id="Layer_1" xmlns="http://www.w3.org/2000/svg" xmlns:xlink="http://www.w3.org/1999/xlink"
	 x="0px" y="0px" viewBox="0 0 60 36" xml:space="preserve">
<title>Assets/MasterCard</title>
<desc>Created with Sketch.</desc>
<g id="Colors">
	<g id="GP---Measurements-and-Assets" transform="translate(-876.000000, -759.000000)">
		<g id="Assets_x2F_Master-Card" transform="translate(876.000000, 759.000000)">
			<g id="Master-Card">
				<rect id="Rectangle" fill="#000066" width="60" height="36"/>
				<g id="Group-2" transform="translate(5.000000, 3.000000)">
					<path id="Fill-333" fill="#CC0000" d="M29.6,15.5c0,8.2-6.6,14.8-14.8,14.8c-8.2,0-14.8-6.6-14.8-14.8
						c0-8.2,6.6-14.8,14.8-14.8C23,0.7,29.6,7.4,29.6,15.5"/>
					<path id="Fill-334" fill="#FF9900" d="M34.7,0.7c-3.8,0-7.3,1.4-9.9,3.8c-0.5,0.5-1,1-1.5,1.6h3c0.4,0.5,0.8,1,1.1,1.6h-5.2
						c-0.3,0.5-0.6,1-0.9,1.6h6.9c0.2,0.5,0.4,1,0.6,1.6h-8.2c-0.2,0.5-0.3,1-0.4,1.6h9.1c0.2,1,0.3,2.1,0.3,3.1
						c0,1.6-0.3,3.2-0.8,4.7h-8.2c0.2,0.5,0.4,1.1,0.6,1.6h6.9c-0.3,0.5-0.5,1.1-0.9,1.6h-5.2c0.3,0.5,0.7,1.1,1.1,1.6h3
						c-0.5,0.6-1,1.1-1.5,1.6c2.6,2.4,6.1,3.8,9.9,3.8c8.2,0,14.8-6.6,14.8-14.8C49.5,7.4,42.9,0.7,34.7,0.7"/>
					<path id="Fill-336" fill="#000066" d="M11.4,17.1c-0.2,0-0.2,0-0.4,0c-0.9,0-1.4,0.3-1.4,0.9c0,0.4,0.2,0.6,0.6,0.6
						C10.9,18.7,11.4,18,11.4,17.1L11.4,17.1z M12.6,19.9h-1.3l0-0.6c-0.4,0.5-0.9,0.7-1.7,0.7c-0.9,0-1.5-0.7-1.5-1.7
						c0-1.5,1-2.4,2.8-2.4c0.2,0,0.4,0,0.7,0c0-0.2,0.1-0.3,0.1-0.4c0-0.4-0.3-0.6-1-0.6c-0.8,0-1.4,0.2-1.7,0.3
						c0-0.1,0.2-1.4,0.2-1.4c0.8-0.2,1.3-0.3,1.9-0.3c1.4,0,2.1,0.6,2.1,1.8c0,0.3,0,0.7-0.1,1.2C12.9,17.5,12.6,19.4,12.6,19.9
						L12.6,19.9z"/>
					<polyline id="Fill-337" fill="#000066" points="7.5,19.9 5.8,19.9 6.8,14.1 4.7,19.9 3.6,19.9 3.5,14.1 2.5,19.9 1,19.9 
						2.3,12.4 4.6,12.4 4.7,16.6 6.1,12.4 8.7,12.4 7.5,19.9 					"/>
					<path id="Fill-338" fill="#000066" d="M36.7,17.1c-0.2,0-0.2,0-0.4,0c-0.9,0-1.4,0.3-1.4,0.9c0,0.4,0.2,0.6,0.6,0.6
						C36.2,18.7,36.7,18,36.7,17.1L36.7,17.1z M37.9,19.9h-1.3l0-0.6c-0.4,0.5-0.9,0.7-1.7,0.7c-0.9,0-1.5-0.7-1.5-1.7
						c0-1.5,1-2.4,2.8-2.4c0.2,0,0.4,0,0.7,0c0-0.2,0.1-0.3,0.1-0.4c0-0.4-0.3-0.6-1-0.6c-0.8,0-1.4,0.2-1.7,0.3
						c0-0.1,0.2-1.4,0.2-1.4c0.8-0.2,1.3-0.3,1.9-0.3c1.4,0,2.1,0.6,2.1,1.8c0,0.3,0,0.7-0.1,1.2C38.2,17.5,37.9,19.4,37.9,19.9
						L37.9,19.9z"/>
					<path id="Fill-339" fill="#000066" d="M19.7,19.8c-0.4,0.1-0.8,0.2-1.2,0.2c-0.8,0-1.3-0.5-1.3-1.3c0-0.3,0.1-1,0.2-1.6
						c0.1-0.6,0.7-4.2,0.7-4.2h1.6l-0.2,0.9h1l-0.2,1.5h-1c-0.2,1.2-0.4,2.6-0.5,2.8c0,0.3,0.2,0.5,0.5,0.5c0.2,0,0.3,0,0.4-0.1
						L19.7,19.8"/>
					<path id="Fill-340" fill="#000066" d="M24.6,19.7C24.1,19.9,23.5,20,23,20c-1.8,0-2.7-0.9-2.7-2.7c0-2.1,1.2-3.6,2.8-3.6
						c1.3,0,2.2,0.9,2.2,2.2c0,0.4-0.1,0.9-0.2,1.5h-3.2c-0.1,0.9,0.5,1.3,1.4,1.3c0.6,0,1.1-0.1,1.7-0.4L24.6,19.7L24.6,19.7z
						 M23.7,16.1c0-0.1,0.2-1.1-0.7-1.1c-0.5,0-0.9,0.4-1,1.1H23.7L23.7,16.1z"/>
					<path id="Fill-341" fill="#000066" d="M13.5,15.7c0,0.8,0.4,1.3,1.2,1.7c0.6,0.3,0.8,0.4,0.8,0.7c0,0.4-0.3,0.6-0.9,0.6
						c-0.5,0-0.9-0.1-1.4-0.2c0,0-0.2,1.3-0.2,1.4c0.4,0.1,0.7,0.2,1.7,0.2c1.7,0,2.5-0.6,2.5-2c0-0.8-0.3-1.3-1.1-1.7
						c-0.7-0.3-0.8-0.4-0.8-0.7c0-0.3,0.3-0.5,0.8-0.5c0.3,0,0.7,0,1.2,0.1l0.2-1.4c-0.4-0.1-1-0.1-1.4-0.1
						C14.2,13.6,13.5,14.6,13.5,15.7"/>
					<path id="Fill-342" fill="#000066" d="M32.4,13.8c0.4,0,0.9,0.1,1.4,0.4l0.3-1.6c-0.2-0.1-1.1-0.6-1.8-0.6
						c-1.1,0-2,0.5-2.6,1.4c-0.9-0.3-1.3,0.3-1.8,0.9l-0.4,0.1c0-0.2,0.1-0.4,0.1-0.6h-1.5c-0.2,1.9-0.6,3.8-0.8,5.7l-0.1,0.4h1.6
						c0.3-1.7,0.4-2.9,0.5-3.6l0.6-0.3c0.1-0.3,0.4-0.4,0.9-0.4c-0.1,0.4-0.1,0.8-0.1,1.2c0,2,1.1,3.2,2.8,3.2
						c0.4,0,0.8-0.1,1.4-0.2l0.3-1.7c-0.5,0.3-1,0.4-1.4,0.4c-0.9,0-1.5-0.7-1.5-1.8C30.4,14.9,31.2,13.8,32.4,13.8"/>
					<path id="Fill-343" fill="#000066" d="M46,12.4l-0.4,2.2c-0.4-0.6-0.9-1-1.5-1c-0.8,0-1.5,0.6-2,1.5c-0.7-0.1-1.4-0.4-1.4-0.4
						l0,0c0.1-0.5,0.1-0.8,0.1-0.9h-1.5c-0.2,1.9-0.6,3.8-0.8,5.7l-0.1,0.4H40c0.2-1.4,0.4-2.6,0.5-3.5c0.5-0.5,0.8-0.9,1.4-0.9
						c-0.2,0.6-0.4,1.3-0.4,2c0,1.5,0.8,2.5,1.9,2.5c0.6,0,1-0.2,1.5-0.7l-0.1,0.6h1.5l1.2-7.5H46L46,12.4z M44,18.4
						c-0.5,0-0.8-0.4-0.8-1.2c0-1.2,0.5-2,1.2-2c0.6,0,0.9,0.4,0.9,1.2C45.3,17.6,44.7,18.4,44,18.4L44,18.4z"/>
					<polyline id="Fill-344" fill="#FFFFFF" points="7.9,19.4 6.3,19.4 7.2,13.6 5.2,19.4 4.1,19.4 3.9,13.7 3,19.4 1.5,19.4 
						2.7,11.9 5,11.9 5.1,16.6 6.7,11.9 9.2,11.9 7.9,19.4 					"/>
					<path id="Fill-345" fill="#FFFFFF" d="M11.9,16.7c-0.2,0-0.2,0-0.4,0c-0.9,0-1.4,0.3-1.4,0.9c0,0.4,0.2,0.6,0.6,0.6
						C11.4,18.2,11.8,17.6,11.9,16.7L11.9,16.7z M13,19.4h-1.3l0-0.6c-0.4,0.5-0.9,0.7-1.7,0.7c-0.9,0-1.5-0.7-1.5-1.7
						c0-1.5,1-2.4,2.8-2.4c0.2,0,0.4,0,0.7,0c0-0.2,0.1-0.3,0.1-0.4c0-0.4-0.3-0.6-1-0.6c-0.8,0-1.4,0.2-1.7,0.3
						c0-0.1,0.2-1.4,0.2-1.4c0.8-0.2,1.3-0.3,1.9-0.3c1.4,0,2.1,0.6,2.1,1.8c0,0.3,0,0.7-0.1,1.2C13.4,17.1,13.1,18.9,13,19.4
						L13,19.4z"/>
					<path id="Fill-346" fill="#FFFFFF" d="M34.6,12.1l-0.3,1.6c-0.6-0.3-1-0.4-1.4-0.4c-1.2,0-2,1.2-2,2.8c0,1.1,0.6,1.8,1.5,1.8
						c0.4,0,0.8-0.1,1.4-0.4l-0.3,1.7c-0.6,0.2-1,0.2-1.4,0.2c-1.7,0-2.8-1.2-2.8-3.2c0-2.7,1.5-4.6,3.6-4.6
						C33.5,11.7,34.3,12,34.6,12.1"/>
					<path id="Fill-347" fill="#FFFFFF" d="M37.2,16.7c-0.2,0-0.2,0-0.4,0c-0.9,0-1.4,0.3-1.4,0.9c0,0.4,0.2,0.6,0.6,0.6
						C36.7,18.2,37.1,17.6,37.2,16.7L37.2,16.7z M38.3,19.4H37l0-0.6c-0.4,0.5-0.9,0.7-1.7,0.7c-0.9,0-1.5-0.7-1.5-1.7
						c0-1.5,1-2.4,2.8-2.4c0.2,0,0.4,0,0.7,0c0-0.2,0.1-0.3,0.1-0.4c0-0.4-0.3-0.6-1-0.6c-0.8,0-1.4,0.2-1.7,0.3
						c0-0.1,0.2-1.4,0.2-1.4c0.8-0.2,1.3-0.3,1.9-0.3c1.4,0,2.1,0.6,2.1,1.8c0,0.3,0,0.7-0.1,1.2C38.7,17.1,38.4,18.9,38.3,19.4
						L38.3,19.4z"/>
					<path id="Fill-348" fill="#FFFFFF" d="M20.2,19.3c-0.4,0.1-0.8,0.2-1.2,0.2c-0.8,0-1.3-0.5-1.3-1.3c0-0.3,0.1-1,0.2-1.6
						c0.1-0.6,0.7-4.2,0.7-4.2h1.6l-0.2,0.9h0.8l-0.2,1.5h-0.8c-0.2,1.2-0.4,2.6-0.5,2.8c0,0.3,0.2,0.5,0.5,0.5c0.2,0,0.3,0,0.4-0.1
						L20.2,19.3"/>
					<path id="Fill-349" fill="#FFFFFF" d="M25.1,19.3c-0.5,0.2-1.1,0.2-1.6,0.2c-1.8,0-2.7-0.9-2.7-2.7c0-2.1,1.2-3.6,2.8-3.6
						c1.3,0,2.2,0.9,2.2,2.2c0,0.4-0.1,0.9-0.2,1.5h-3.2c-0.1,0.9,0.5,1.3,1.4,1.3c0.6,0,1.1-0.1,1.7-0.4L25.1,19.3L25.1,19.3z
						 M24.2,15.7c0-0.1,0.2-1.1-0.7-1.1c-0.5,0-0.9,0.4-1,1.1H24.2L24.2,15.7z"/>
					<path id="Fill-350" fill="#FFFFFF" d="M14,15.2c0,0.8,0.4,1.3,1.2,1.7c0.6,0.3,0.8,0.4,0.8,0.7c0,0.4-0.3,0.6-0.9,0.6
						c-0.5,0-0.9-0.1-1.4-0.2c0,0-0.2,1.3-0.2,1.4c0.4,0.1,0.7,0.2,1.7,0.2c1.7,0,2.5-0.6,2.5-2c0-0.8-0.3-1.3-1.1-1.7
						c-0.7-0.3-0.8-0.4-0.8-0.7c0-0.3,0.3-0.5,0.8-0.5c0.3,0,0.7,0,1.2,0.1l0.2-1.4c-0.4-0.1-1-0.1-1.4-0.1
						C14.6,13.2,14,14.1,14,15.2"/>
					<path id="Fill-351" fill="#FFFFFF" d="M46.8,19.4h-1.5l0.1-0.6c-0.4,0.5-0.9,0.7-1.5,0.7c-1.2,0-1.9-1-1.9-2.5
						c0-2,1.2-3.7,2.6-3.7c0.6,0,1.1,0.3,1.5,0.8l0.4-2.2H48L46.8,19.4L46.8,19.4z M44.4,18c0.7,0,1.3-0.8,1.3-2.1
						c0-0.8-0.3-1.2-0.9-1.2c-0.7,0-1.2,0.8-1.2,2C43.6,17.6,43.9,18,44.4,18L44.4,18z"/>
					<path id="Fill-352" fill="#FFFFFF" d="M39.8,13.3c-0.2,1.9-0.6,3.8-0.8,5.7l-0.1,0.4h1.6c0.6-3.7,0.7-4.5,1.6-4.4
						c0.1-0.8,0.4-1.4,0.6-1.8c-0.7-0.1-1,0.2-1.5,1c0-0.3,0.1-0.6,0.1-0.9H39.8"/>
					<path id="Fill-353" fill="#FFFFFF" d="M26.6,13.3c-0.2,1.9-0.6,3.8-0.8,5.7l-0.1,0.4h1.6c0.6-3.7,0.7-4.5,1.6-4.4
						c0.1-0.8,0.4-1.4,0.6-1.8c-0.7-0.1-1,0.2-1.5,1c0-0.3,0.1-0.6,0.1-0.9H26.6"/>
				</g>
			</g>
		</g>
	</g>
</g>
</svg>
