<?xml version="1.0" encoding="utf-8"?>
<!-- Generator: Adobe Illustrator 22.0.1, SVG Export Plug-In . SVG Version: 6.00 Build 0)  -->
<svg version="1.1" baseProfile="tiny" id="Layer_1" xmlns="http://www.w3.org/2000/svg" xmlns:xlink="http://www.w3.org/1999/xlink"
	 x="0px" y="0px" viewBox="0 0 60 36" xml:space="preserve">
<g id="Colors">
	<g id="GP---Measurements-and-Assets" transform="translate(-774.000000, -771.000000)">
		<g id="Assets_x2F_Visa" transform="translate(774.000000, 771.000000)">
			<g id="Visa">
				<rect id="Rectangle" fill="#26337A" width="60" height="36"/>
				<g id="Group" transform="translate(5.000000, 10.000000)">
					<polyline id="Fill-3" fill="#FFFFFE" points="17.6,16 20.1,0.4 24.2,0.4 21.6,16 17.6,16 					"/>
					<path id="Fill-4" fill="#FFFFFE" d="M36.3,0.8c-0.8-0.3-2-0.7-3.6-0.7c-4,0-6.8,2.1-6.8,5.2c0,2.2,2,3.5,3.5,4.2
						c1.6,0.8,2.1,1.3,2.1,1.9c0,1-1.3,1.5-2.4,1.5c-1.6,0-2.5-0.2-3.8-0.8l-0.5-0.2l-0.6,3.5c0.9,0.4,2.7,0.8,4.5,0.8
						c4.2,0,7-2.1,7-5.3c0-1.8-1.1-3.1-3.4-4.2C30.9,5.9,30,5.5,30,4.7c0-0.6,0.7-1.3,2.3-1.3c1.3,0,2.3,0.3,3,0.6l0.4,0.2L36.3,0.8
						"/>
					<path id="Fill-5" fill="#FFFFFE" d="M41.6,10.5c0.3-0.9,1.6-4.4,1.6-4.4c0,0,0.3-0.9,0.5-1.5L44,6c0,0,0.8,3.7,0.9,4.5H41.6
						L41.6,10.5z M46.6,0.4h-3.1c-1,0-1.7,0.3-2.1,1.3l-6,14.3h4.2c0,0,0.7-1.9,0.8-2.4c0.5,0,4.6,0,5.2,0c0.1,0.5,0.5,2.3,0.5,2.3
						h3.7L46.6,0.4L46.6,0.4z"/>
					<path id="Fill-6" fill="#FFFFFE" d="M14.2,0.4l-3.9,10.7L9.9,8.9c-0.7-2.5-3-5.2-5.6-6.6L7.9,16l4.3,0l6.3-15.6H14.2"/>
					<path id="Fill-7" fill="#EC982D" d="M6.6,0.4H0.1L0.1,0.7C5.1,2,8.5,5.1,9.9,8.9L8.5,1.7C8.2,0.7,7.5,0.4,6.6,0.4"/>
				</g>
			</g>
		</g>
	</g>
</g>
</svg>
