<?xml version="1.0" encoding="UTF-8"?>
<svg width="24px" height="24px" viewBox="0 0 24 24" version="1.1" xmlns="http://www.w3.org/2000/svg" xmlns:xlink="http://www.w3.org/1999/xlink">
    <!-- Generator: Sketch 50.2 (55047) - http://www.bohemiancoding.com/sketch -->
    <title>Icons/Checkbox</title>
    <desc>Created with Sketch.</desc>
    <defs>
        <path d="M1,0 L17,0 C17.5522847,-1.01453063e-16 18,0.44771525 18,1 L18,17 C18,17.5522847 17.5522847,18 17,18 L1,18 C0.44771525,18 6.76353751e-17,17.5522847 0,17 L0,1 C-6.76353751e-17,0.44771525 0.44771525,1.01453063e-16 1,0 Z M7.60632324,10.6520873 L5.37458733,8.4221631 C4.99447931,8.04236366 4.37820246,8.04236366 3.99809444,8.4221631 C3.61798643,8.80196254 3.61798643,9.41773909 3.99809444,9.79753853 L6.9180768,12.7151504 C7.29818481,13.0949499 7.91446167,13.0949499 8.29456968,12.7151504 L14.4279324,6.66022501 C14.8080404,6.28042557 14.8080404,5.66464902 14.4279324,5.28484958 C14.0478244,4.90505014 13.4315475,4.90505014 13.0514395,5.28484958 L7.60632324,10.6520873 Z" id="path-1"></path>
    </defs>
    <g id="Icons/Checkbox" stroke="none" stroke-width="1" fill="none" fill-rule="evenodd">
        <mask id="mask-2" fill="white">
            <use xlink:href="#path-1"></use>
        </mask>
        <g id="Combined-Shape" fill-rule="nonzero"></g>
        <g id="Color/Secondary/Blue" mask="url(#mask-2)" fill="#167BB4">
            <rect x="0" y="0" width="18" height="18"></rect>
        </g>
    </g>
</svg>