<?xml version="1.0" encoding="UTF-8"?>
<svg width="96px" height="18px" viewBox="0 0 96 18" version="1.1" xmlns="http://www.w3.org/2000/svg" xmlns:xlink="http://www.w3.org/1999/xlink">
    <!-- Generator: Sketch 55.2 (78181) - https://sketchapp.com -->
    <title>Group 19</title>
    <desc>Created with Sketch.</desc>
    <defs>
        <polygon id="path-1" points="0 0.22727574 2.21527101 0.22727574 2.21527101 16.5870391 0 16.5870391"></polygon>
        <polygon id="path-3" points="0.340942012 0.397633136 14.3717112 0.397633136 14.3717112 17.1549728 0.340942012 17.1549728"></polygon>
        <polygon id="path-5" points="7.10542736e-15 0.397633136 13.9739645 0.397633136 13.9739645 17.1549728 7.10542736e-15 17.1549728"></polygon>
        <polygon id="path-7" points="0.17064142 0.397689941 17.4387124 0.397689941 17.4387124 17.6094675 0.17064142 17.6094675"></polygon>
    </defs>
    <g id="Colors" stroke="none" stroke-width="1" fill="none" fill-rule="evenodd">
        <g id="Navigation/Desktop/Header/Primary-B2C" transform="translate(-40.000000, -19.000000)">
            <g id="Group-19" transform="translate(40.000000, 19.000000)">
                <g id="Group-3" transform="translate(0.000000, 0.738462)">
                    <mask id="mask-2" fill="white">
                        <use xlink:href="#path-1"></use>
                    </mask>
                    <g id="Clip-2"></g>
                    <path d="M2.21527101,1.30656568 L2.21527101,15.5077491 C2.21527101,16.0757964 1.76083314,16.5870391 1.13598107,16.5870391 L1.07917633,16.5870391 C0.511128994,16.5870391 -0.000113609467,16.1326012 -0.000113609467,15.5077491 L-0.000113609467,1.30656568 C-0.000113609467,0.738518343 0.45432426,0.22727574 1.07917633,0.22727574 L1.13598107,0.22727574 C1.76083314,0.22727574 2.21527101,0.738518343 2.21527101,1.30656568" id="Fill-1" fill="#39BCB3" mask="url(#mask-2)"></path>
                </g>
                <g id="Group-6" transform="translate(5.112426, 0.170414)">
                    <mask id="mask-4" fill="white">
                        <use xlink:href="#path-3"></use>
                    </mask>
                    <g id="Clip-5"></g>
                    <path d="M14.3717112,7.15733964 L14.3717112,16.0756828 C14.3717112,16.6437302 13.9172734,17.1549728 13.2924213,17.1549728 L13.2356166,17.1549728 C12.6675692,17.1549728 12.1563266,16.7005349 12.1563266,16.0756828 L12.1563266,7.27094911 C12.1563266,3.91946982 9.60011361,2.44254675 7.27111953,2.44254675 C4.14685917,2.44254675 2.66993609,3.86266509 2.66993609,6.64609704 L2.66993609,16.0756828 C2.66993609,16.6437302 2.21549822,17.1549728 1.59064615,17.1549728 L1.47703669,17.1549728 C0.908989349,17.1549728 0.397746746,16.7005349 0.397746746,16.0756828 L0.340942012,1.81769467 C0.340942012,1.24964734 0.795379882,0.795209467 1.42023195,0.795209467 L1.53384142,0.795209467 C2.04508402,0.795209467 2.55632663,1.1928426 2.55632663,1.81769467 L2.55632663,1.93130414 C2.55632663,2.10171834 2.72674083,2.15852308 2.8403503,2.04491361 C3.97644497,0.738404734 5.85100118,0.397576331 7.21431479,0.397576331 C10.3953799,0.397576331 14.3717112,1.87449941 14.3717112,7.15733964" id="Fill-4" fill="#39BCB3" mask="url(#mask-4)"></path>
                </g>
                <g id="Group-9" transform="translate(22.721893, 0.170414)">
                    <mask id="mask-6" fill="white">
                        <use xlink:href="#path-5"></use>
                    </mask>
                    <g id="Clip-8"></g>
                    <path d="M13.9739645,7.15733964 L13.9739645,16.0756828 C13.9739645,16.6437302 13.5195266,17.1549728 12.8946746,17.1549728 L12.8378698,17.1549728 C12.2698225,17.1549728 11.7585799,16.7005349 11.7585799,16.0756828 L11.7585799,7.27094911 C11.7585799,3.91946982 9.20236686,2.44254675 6.87337278,2.44254675 C3.74911243,2.44254675 2.27218935,3.86266509 2.27218935,6.64609704 L2.27218935,16.0756828 C2.27218935,16.6437302 1.81775148,17.1549728 1.19289941,17.1549728 L1.07928994,17.1549728 C0.511242604,17.1549728 7.10542736e-15,16.7005349 7.10542736e-15,16.0756828 L0.0568047337,1.81769467 C0.0568047337,1.24964734 0.511242604,0.795209467 1.13609467,0.795209467 L1.24970414,0.795209467 C1.76094675,0.795209467 2.27218935,1.1928426 2.27218935,1.81769467 L2.27218935,1.93130414 C2.27218935,2.10171834 2.44260355,2.15852308 2.55621302,2.04491361 C3.69230769,0.738404734 5.56686391,0.397576331 6.93017751,0.397576331 C9.99763314,0.397576331 13.9739645,1.87449941 13.9739645,7.15733964" id="Fill-7" fill="#39BCB3" mask="url(#mask-6)"></path>
                </g>
                <path d="M54.1916024,9.14561893 C54.1916024,5.62372544 51.3513657,2.61307456 47.7726675,2.61307456 C44.250774,2.61307456 41.3537325,5.62372544 41.3537325,9.14561893 C41.3537325,12.6675124 44.250774,15.6781633 47.7726675,15.6781633 C51.3513657,15.6781633 54.1916024,12.6675124 54.1916024,9.14561893 M56.406987,9.14561893 C56.406987,13.8604118 52.5442651,17.7231337 47.7726675,17.7231337 C43.0578746,17.7231337 39.1951527,13.8604118 39.1951527,9.14561893 C39.1951527,4.43082604 43.0578746,0.568104142 47.7726675,0.568104142 C52.5442651,0.568104142 56.406987,4.43082604 56.406987,9.14561893" id="Fill-10" fill="#39BCB3"></path>
                <path d="M71.9147929,2.04502722 C71.6307692,2.66987929 64.8142012,17.3255006 64.8142012,17.3255006 C64.5869822,17.8935479 64.1893491,17.8935479 63.9053254,17.3255006 C63.9053254,17.3255006 57.1455621,2.61307456 56.8615385,2.15863669 C56.5775148,1.53378462 56.8047337,0.965737278 57.6,0.965737278 L57.8272189,0.965737278 C58.7360947,0.965737278 58.9633136,1.24976095 59.304142,1.93141775 C59.304142,1.93141775 63.4508876,11.701832 63.791716,12.3834888 C63.9053254,12.6107077 64.1893491,13.2355598 64.1893491,13.405974 C64.3029586,13.8604118 64.416568,13.9172166 64.5869822,13.405974 C64.643787,13.2355598 64.8142012,12.6675124 64.9278107,12.4402935 C65.2686391,11.701832 69.4721893,1.93141775 69.4721893,1.93141775 C69.8698225,1.13615148 70.0970414,0.965737278 70.9491124,0.965737278 L71.1763314,0.965737278 C71.6307692,0.965737278 72.1988166,1.42017515 71.9147929,2.04502722" id="Fill-12" fill="#39BCB3"></path>
                <path d="M76.0048473,2.04502722 L76.0048473,16.2462107 C76.0048473,16.814258 75.5504095,17.3255006 74.9255574,17.3255006 L74.8687527,17.3255006 C74.3007053,17.3255006 73.7894627,16.8710627 73.7894627,16.2462107 L73.7894627,2.04502722 C73.7894627,1.47697988 74.2433325,0.965737278 74.8687527,0.965737278 L74.9255574,0.965737278 C75.5504095,0.965737278 76.0048473,1.47697988 76.0048473,2.04502722" id="Fill-14" fill="#39BCB3"></path>
                <g id="Group-18" transform="translate(78.390533, 0.170414)">
                    <mask id="mask-8" fill="white">
                        <use xlink:href="#path-7"></use>
                    </mask>
                    <g id="Clip-17"></g>
                    <path d="M8.80496095,15.5077491 C12.3262864,15.5077491 15.1665231,12.553903 15.1665231,8.97520473 C15.1665231,5.39650651 12.2700497,2.38585562 8.74758817,2.38585562 C5.16945799,2.38585562 2.3292213,5.39650651 2.3292213,8.97520473 C2.27241657,12.553903 5.22569467,15.5077491 8.80496095,15.5077491 M8.74758817,0.397689941 C11.0771503,0.397689941 13.4623811,1.36337041 14.769458,3.01070769 C14.8824994,3.18112189 15.2238959,3.29473136 15.2238959,2.84029349 L15.2238959,1.87461302 C15.2238959,1.30656568 15.6783337,0.795323077 16.3026178,0.795323077 L16.3599905,0.795323077 C16.9280379,0.795323077 17.4387124,1.24976095 17.4387124,1.87461302 L17.4387124,16.1326012 C17.4387124,16.7006485 16.9842746,17.2118911 16.3599905,17.2118911 L16.3026178,17.2118911 C15.7345704,17.2118911 15.2238959,16.7574533 15.2238959,16.1326012 L15.2238959,15.110116 C15.2238959,14.7124828 14.9961089,14.7692876 14.9398722,14.882897 C13.4623811,16.6438438 11.2475645,17.6095243 8.86176568,17.6095243 C4.0896,17.6095243 0.17064142,13.8036071 0.17064142,9.03200947 C0.17064142,4.26041183 3.97655858,0.397689941 8.74758817,0.397689941" id="Fill-16" fill="#39BCB3" mask="url(#mask-8)"></path>
                </g>
            </g>
        </g>
    </g>
</svg>