<?xml version="1.0" encoding="UTF-8"?>
<svg width="32px" height="32px" viewBox="0 0 32 32" version="1.1" xmlns="http://www.w3.org/2000/svg" xmlns:xlink="http://www.w3.org/1999/xlink">
    <!-- Generator: Sketch 53.2 (72643) - https://sketchapp.com -->
    <title>Instagram</title>
    <desc>Created with Sketch.</desc>
    <defs>
        <path d="M8,0 C5.82732457,0 5.55489417,0.00915231504 4.70162489,0.0481460864 C3.85007386,0.0870346587 3.26853366,0.22225047 2.75972105,0.419989568 C2.23362073,0.624426337 1.78747167,0.897978864 1.34272527,1.34272527 C0.897978864,1.78747167 0.624426337,2.2336558 0.420024634,2.75972105 C0.222180337,3.26860379 0.086964526,3.85014399 0.0481460864,4.70165995 C0.00918738138,5.55492923 0,5.82732457 0,8 C0,10.1727456 0.00918738138,10.4451409 0.0481460864,11.2984102 C0.086964526,12.1499261 0.222180337,12.7314663 0.420024634,13.2403491 C0.624426337,13.7664143 0.897978864,14.2125985 1.34272527,14.6573449 C1.78747167,15.1020913 2.23362073,15.3756438 2.75972105,15.5800806 C3.26853366,15.7778197 3.85007386,15.9130355 4.70162489,15.951924 C5.55489417,15.9908477 5.82732457,16.0000701 8,16.0000701 C10.1726754,16.0000701 10.4451409,15.9908477 11.2984102,15.951924 C12.1499261,15.9130355 12.7314663,15.7778197 13.240314,15.5800806 C13.7664143,15.3756438 14.2125283,15.1020913 14.6572747,14.6573449 C15.1020211,14.2125985 15.3755737,13.7664143 15.5800104,13.2403491 C15.7778197,12.7314663 15.9130355,12.1499261 15.951889,11.2984102 C15.9908477,10.4451409 16,10.1727456 16,8 C16,5.82732457 15.9908477,5.55492923 15.951889,4.70165995 C15.9130355,3.85014399 15.7778197,3.26860379 15.5800104,2.75972105 C15.3755737,2.2336558 15.1020211,1.78747167 14.6572747,1.34272527 C14.2125283,0.897978864 13.7664143,0.624426337 13.240314,0.419989568 C12.7314663,0.22225047 12.1499261,0.0870346587 11.2984102,0.0481460864 C10.4451409,0.00915231504 10.1726754,0 8,0 M8,1.44143702 C10.1361012,1.44143702 10.3890698,1.44957241 11.2326959,1.48804019 C12.0126765,1.52363252 12.4362779,1.65400918 12.7181762,1.76352136 C13.0916327,1.90866095 13.3581369,2.08202894 13.6380365,2.36196354 C13.9180412,2.64193321 14.0914092,2.90840233 14.2364786,3.2818238 C14.3459908,3.56372212 14.4763675,3.98735858 14.5119598,4.76730414 C14.5504276,5.61093018 14.558598,5.86389876 14.558598,8 C14.558598,10.1361714 14.5504276,10.38914 14.5119598,11.2326959 C14.4763675,12.0127115 14.3459908,12.436348 14.2364786,12.7182463 C14.0914092,13.0916327 13.9180412,13.3581369 13.6380365,13.6381066 C13.3581369,13.9180412 13.0916327,14.0914092 12.7181762,14.2365137 C12.4362779,14.346061 12.0126765,14.4764376 11.2326959,14.5119598 C10.3892101,14.5504977 10.1362766,14.558598 8,14.558598 C5.86372343,14.558598 5.61078991,14.5504977 4.76730414,14.5119598 C3.98735858,14.4764376 3.56372212,14.346061 3.2818238,14.2365137 C2.90840233,14.0914092 2.64189814,13.9180412 2.36196354,13.6381066 C2.082064,13.3581369 1.90869601,13.0916327 1.76355643,12.7182463 C1.65400918,12.436348 1.52366759,12.0127115 1.48804019,11.2326959 C1.44960748,10.38914 1.44143702,10.1361714 1.44143702,8 C1.44143702,5.86389876 1.44960748,5.61093018 1.48804019,4.76730414 C1.52366759,3.98735858 1.65400918,3.56372212 1.76355643,3.2818238 C1.90869601,2.90840233 2.082064,2.64193321 2.36196354,2.36196354 C2.64189814,2.08202894 2.90840233,1.90866095 3.2818238,1.76352136 C3.56372212,1.65400918 3.98735858,1.52363252 4.76730414,1.48804019 C5.61093018,1.44957241 5.86389876,1.44143702 8,1.44143702 Z M8,10.66669 C9.47278633,10.66669 10.66669,9.47278633 10.66669,8 C10.66669,6.52724874 9.47278633,5.33334502 8,5.33334502 C6.52724874,5.33334502 5.33330996,6.52724874 5.33330996,8 C5.33330996,9.47278633 6.52724874,10.66669 8,10.66669 Z M8,3.891908 C10.2688273,3.891908 12.108092,5.73120773 12.108092,8 C12.108092,10.2688975 10.2688273,12.1081271 8,12.1081271 C5.73117266,12.1081271 3.891908,10.2688975 3.891908,8 C3.891908,5.73120773 5.73117266,3.891908 8,3.891908 Z M13.2304604,3.72958591 C13.2304604,4.25975392 12.8006522,4.68959713 12.2704492,4.68959713 C11.7402811,4.68959713 11.3104379,4.25975392 11.3104379,3.72958591 C11.3104379,3.19938283 11.7402811,2.76957469 12.2704492,2.76957469 C12.8006522,2.76957469 13.2304604,3.19938283 13.2304604,3.72958591 Z" id="path-1"></path>
    </defs>
    <g id="Instagram" stroke="none" stroke-width="1" fill="none" fill-rule="evenodd">
        <g id="Assets/Instagram">
            <g id="Outline/Circle/Light-Warm-Grey" stroke="#DCD8D5">
                <rect id="Rectangle" x="0.5" y="0.5" width="31" height="31" rx="15.5"></rect>
            </g>
            <g id="🎨Color" fill-rule="evenodd" transform="translate(8.000000, 8.000000)">
                <mask id="mask-2" fill="white">
                    <use xlink:href="#path-1"></use>
                </mask>
                <use id="Mask" fill="#37302C" xlink:href="#path-1"></use>
                <g id="Color/Secondary/Medium-Warm-Grey" mask="url(#mask-2)" fill="#534843">
                    <g transform="translate(-8.000000, -8.000000)">
                        <rect x="0" y="0" width="24" height="24"></rect>
                    </g>
                </g>
            </g>
        </g>
    </g>
</svg>