<?xml version="1.0" encoding="utf-8"?>
<!-- Generator: Adobe Illustrator 22.1.0, SVG Export Plug-In . SVG Version: 6.00 Build 0)  -->
<svg version="1.1" id="Layer_1" xmlns="http://www.w3.org/2000/svg" xmlns:xlink="http://www.w3.org/1999/xlink" x="0px" y="0px"
	 viewBox="0 0 354.3 354.3" style="enable-background:new 0 0 354.3 354.3;" xml:space="preserve">
<style type="text/css">
	.st0{fill:#FFFFFF;}
	.st1{fill:#005C97;}
</style>
<g id="XMLID_1_">
	<g id="XMLID_23_">
		<g id="XMLID_30_">
			<path id="XMLID_41_" class="st0" d="M222.3,144c-3.9-2.2-8.9-2.8-14.7-2.8h-24.4v47.2h14.2V173h9.8c5.5,0,10.8-0.7,14.9-3
				c4.9-2.8,7.5-7.2,7.5-13.9C229.8,150.2,227.3,146.8,222.3,144 M211.3,162.9c-1.8,0.9-4.5,1.2-6.9,1.2h-7v-14h7
				c2.4,0,5.1,0.1,6.9,0.9c2,0.9,3.8,2.4,3.8,5.9C215.2,160.3,213.3,162,211.3,162.9"/>
			<path id="XMLID_40_" class="st0" d="M176.5,185.7c-5,1.7-12.4,3.7-22,3.7c-20.9,0-30-10.7-30-24.3c0-15.6,12.4-25,30.5-25
				c9.4,0,15.2,1.6,21.3,4.2v11.1h-1.6c-4.4-3.4-9.5-6.4-18-6.4c-10.7,0-17.4,5.9-17.4,15.5c0,8.4,4.2,16.3,17.8,15.8
				c1.4,0,3.6-0.3,5.1-0.8v-8.7h-11.2v-8.9h25.4V185.7z"/>
			<path id="XMLID_39_" class="st0" d="M177.1,243.8h-8.6v11.3h8.7c4.2,0,6.6-2.2,6.6-5.6v-0.1C183.8,245.7,181.3,243.8,177.1,243.8
				"/>
			<path id="XMLID_38_" class="st0" d="M135.5,243.8h-6.7v12h6.8c4.3,0,6.8-2.6,6.8-5.9v-0.1C142.5,245.9,139.8,243.8,135.5,243.8"
				/>
			<path id="XMLID_37_" class="st0" d="M220.6,243.3c-7,0-11.8,5.5-11.8,12.2v0.1c0,6.7,4.9,12.3,11.9,12.3c7,0,11.8-5.5,11.8-12.2
				v-0.1C232.4,248.9,227.5,243.3,220.6,243.3"/>
			<path id="XMLID_31_" class="st0" d="M177.1,40.5c-75.9,0-137.4,61.5-137.4,137.4c0,75.8,61.5,137.3,137.4,137.3
				c75.9,0,137.3-61.5,137.3-137.3C314.5,102,253,40.5,177.1,40.5 M151.2,249.7c0,9.1-7.1,13.8-15.9,13.8h-6.6v11.8h-8.6V236h16
				c9.4,0,15,5.5,15,13.6V249.7z M183.7,275.3l-8.4-12.6h-6.8v12.6h-8.6V236h17.9c5,0,8.9,1.4,11.4,4c2.2,2.2,3.4,5.3,3.4,9v0.1
				c0,6.3-3.4,10.3-8.4,12.2l9.6,14H183.7z M241.5,255.7c0,11.2-8.8,20.3-20.9,20.3c-12.1,0-20.8-9-20.8-20.2v-0.1
				c0-11.2,8.8-20.3,20.9-20.3c12.1,0,20.8,9,20.8,20.2V255.7z M198,197c-4.2,0-6.8,0.4-9.3,1.8c-2.9,1.6-4.2,3.7-5.8,7l-5.7,11.7
				l-5.7-11.7c-1.6-3.3-3-5.4-5.8-7c-2.5-1.4-5.1-1.8-9.3-1.8H70.5L177.1,89.4L283.8,197H198z"/>
		</g>
		<g id="XMLID_24_">
			<g id="XMLID_25_">
				<path id="XMLID_28_" class="st0" d="M299.3,266.1h-3.1v-1.6h7.9v1.6h-3.1v8.1h-1.7V266.1z"/>
				<path id="XMLID_26_" class="st0" d="M305.9,264.6h1.8l3,4.6l3-4.6h1.8v9.7h-1.7v-7l-3.1,4.6h-0.1l-3-4.6v6.9h-1.7V264.6z"/>
			</g>
		</g>
	</g>
	<g id="XMLID_44_">
		<path id="XMLID_47_" class="st1" d="M192.6,249.1V249c0-3.7-1.2-6.8-3.4-9c-2.6-2.6-6.4-4-11.4-4h-17.9v39.3h8.6v-12.6h6.8
			l8.4,12.6h10.1l-9.6-14C189.2,259.4,192.6,255.4,192.6,249.1z M183.8,249.5c0,3.3-2.4,5.6-6.6,5.6h-8.7v-11.3h8.6
			c4.2,0,6.8,1.9,6.8,5.6V249.5z"/>
		<path id="XMLID_50_" class="st1" d="M220.7,235.4c-12.1,0-20.9,9.1-20.9,20.3v0.1c0,11.2,8.7,20.2,20.8,20.2
			c12.1,0,20.9-9.1,20.9-20.3v-0.1C241.5,244.4,232.8,235.4,220.7,235.4z M232.4,255.8c0,6.7-4.8,12.2-11.8,12.2
			c-7,0-11.9-5.6-11.9-12.3v-0.1c0-6.7,4.8-12.2,11.8-12.2c7,0,11.9,5.6,11.9,12.3V255.8z"/>
		<path id="XMLID_53_" class="st1" d="M136.2,236h-16v39.3h8.6v-11.8h6.6c8.8,0,15.9-4.7,15.9-13.8v-0.1
			C151.2,241.6,145.6,236,136.2,236z M142.5,249.9c0,3.4-2.5,5.9-6.8,5.9h-6.8v-12h6.7c4.3,0,7,2.1,7,5.9V249.9z"/>
		<path id="XMLID_54_" class="st1" d="M211.3,151c-1.8-0.8-4.5-0.9-6.9-0.9h-7v14h7c2.4,0,5.1-0.3,6.9-1.2c2-0.9,3.8-2.6,3.8-6.1
			C215.2,153.4,213.3,151.9,211.3,151z"/>
		<path id="XMLID_62_" class="st1" d="M177.1,89.4L70.5,197h85.8c4.2,0,6.8,0.4,9.3,1.8c2.9,1.6,4.2,3.7,5.8,7l5.7,11.7l5.7-11.7
			c1.6-3.3,3-5.4,5.8-7c2.5-1.4,5.1-1.8,9.3-1.8h85.8L177.1,89.4z M176.5,185.7c-5,1.7-12.4,3.7-22,3.7c-20.9,0-30-10.7-30-24.3
			c0-15.6,12.4-25,30.5-25c9.4,0,15.2,1.6,21.3,4.2v11.1h-1.6c-4.4-3.4-9.5-6.4-18-6.4c-10.7,0-17.4,5.9-17.4,15.5
			c0,8.4,4.2,16.3,17.8,15.8c1.4,0,3.6-0.3,5.1-0.8v-8.7h-11.2v-8.9h25.4V185.7z M222.2,170c-4.2,2.4-9.4,3-14.9,3h-9.8v15.4h-14.2
			v-47.2h24.4c5.8,0,10.8,0.6,14.7,2.8c4.9,2.8,7.4,6.2,7.4,12.1C229.8,162.8,227.2,167.2,222.2,170z"/>
	</g>
</g>
</svg>
