<?xml version="1.0" encoding="utf-8"?>
<!-- Generator: Adobe Illustrator 23.0.3, SVG Export Plug-In . SVG Version: 6.00 Build 0)  -->
<svg version="1.1" id="Layer_1" xmlns="http://www.w3.org/2000/svg" xmlns:xlink="http://www.w3.org/1999/xlink" x="0px" y="0px"
	 viewBox="0 0 720 432" style="enable-background:new 0 0 720 432;" xml:space="preserve">
<style type="text/css">
	.st0{fill:url(#SVGID_1_);}
	.st1{fill:#00AEEF;}
	.st2{fill:url(#SVGID_2_);}
	.st3{fill:#002169;}
	.st4{fill:#FFFFFF;}
</style>
<g>
	
		<linearGradient id="SVGID_1_" gradientUnits="userSpaceOnUse" x1="814.3258" y1="976.1863" x2="870.857" y2="976.1863" gradientTransform="matrix(1 -6.661544e-05 6.661544e-05 1 -648.295 -847.1675)">
		<stop  offset="0" style="stop-color:#0A1A5C"/>
		<stop  offset="1" style="stop-color:#21409A"/>
	</linearGradient>
	<path class="st0" d="M196.96,163.22c-0.09-1.81-0.2-4.18-0.3-6.65c-0.23-5.33-0.47-10.84-0.72-13.45l-1.08-11.37l-8.52,7.6
		c-0.63,0.56-1.38,1.26-2.19,2.02c0.71-0.76,1.32-1.41,1.75-1.88l7.76-8.43l-11.39-1.24c-3.04-0.33-9.32-0.63-14.37-0.87
		c-0.64-0.03-1.25-0.06-1.81-0.09c0.54-0.03,1.12-0.05,1.73-0.08c4.77-0.22,11.3-0.53,14.34-0.86l11.3-1.23l-7.64-8.41
		c-0.64-0.71-1.5-1.61-2.45-2.6c1.05,0.98,2.06,1.89,2.86,2.61l8.59,7.65l1.02-11.46c0.24-2.71,0.49-7.59,0.75-12.76
		c0.12-2.43,0.24-4.86,0.36-7.01c0.12,2.08,0.24,4.46,0.36,6.86c0.25,4.99,0.51,10.15,0.76,12.95l1.01,11.45l8.59-7.63
		c0.75-0.67,1.5-1.34,2.23-2.02c-0.61,0.65-1.2,1.29-1.77,1.92l-7.71,8.44l11.37,1.21c3.66,0.39,7.56,0.73,10.84,0.95
		c-3.35,0.23-7.3,0.58-10.97,0.97l-11.22,1.21l7.53,8.4c0.5,0.56,1.01,1.12,1.51,1.67c-0.62-0.57-1.24-1.15-1.87-1.72l-8.55-7.72
		l-1.09,11.47c-0.25,2.61-0.49,8.15-0.72,13.52C197.16,159.1,197.06,161.43,196.96,163.22z"/>
	<g>
		<g>
			<path class="st1" d="M608.24,212.14l-4.4-7.03c-0.62-0.99-3.5-5.34-8.38-8.9c6.57-3.18,10.08-10.57,8.08-17.75
				c-0.26-0.95-0.43-1.49-0.61-2.07c-0.06-0.2-0.12-0.39-0.2-0.65c-5.79-20.04-21.09-32.49-39.92-32.49c-4.3,0-8.74,0.65-13.21,1.93
				c-11.88,3.41-21.22,10.17-27.16,19.61l-0.01-59.32c0-1.06-0.86-1.93-1.93-1.93l-40.77-0.07c-0.51,0-1,0.2-1.36,0.56
				c-0.36,0.36-0.57,0.85-0.57,1.36l0.01,39.89l-25.69,0.01c-0.83,0-1.56,0.53-1.83,1.32l-2.09,6.24l0-36.99
				c0-1.06-0.86-1.93-1.93-1.93l-40.78-0.07c-0.51,0-1,0.2-1.36,0.56c-0.36,0.36-0.57,0.85-0.57,1.36l0,28.3
				c-0.51-0.03-1-0.05-1.49-0.05c-3.84,0-7.74,0.74-11.41,2.14c-0.33-0.57-0.95-0.96-1.67-0.96l-39.84-0.07c-0.51,0-1,0.2-1.36,0.56
				c-0.36,0.36-0.57,0.85-0.57,1.36l0,6.91c-0.09-0.08-0.18-0.16-0.26-0.24c-7.4-6.7-17.8-10.25-30.08-10.27
				c-17,0-30.03,7.61-33.62,9.94l-5.62,3.65c-7.6-8.84-18.4-13.7-30.62-13.72c-4.05,0-7.95,0.55-11.59,1.63
				c-0.13-0.03-0.26-0.04-0.39-0.04l-17.66-0.06c-0.13-0.84-0.52-1.62-1.16-2.2c-0.03-0.03-0.06-0.05-0.08-0.08
				c-1.63-1.68-3.52-3.71-5.33-5.73c-0.48-0.54-0.62-1.3-0.36-1.98c0.26-0.68,0.87-1.15,1.59-1.23c4.36-0.47,9.12-0.88,12.76-1.08
				c0.03,0,0.24,0,0.24,0l0.08-0.01c1.96-0.13,3.5-1.76,3.5-3.71c0-1.44-0.83-2.76-2.12-3.36c-0.49-0.24-1.04-0.36-1.59-0.37
				c-0.03,0-0.07,0-0.1,0c-3.49-0.2-8.33-0.6-12.64-1.06c-0.72-0.08-1.34-0.55-1.6-1.23c-0.26-0.68-0.11-1.45,0.38-1.98
				c1.89-2.07,4.02-4.33,6.15-6.51c1.42-1.47,1.38-3.82-0.08-5.25c-0.69-0.68-1.61-1.05-2.6-1.05c-0.92,0-1.79,0.33-2.44,0.9
				l-0.13,0.12l-0.08,0.08c-1.77,1.81-4.21,4.11-6.68,6.3c-0.36,0.32-0.82,0.49-1.28,0.49c-0.24,0-0.48-0.05-0.71-0.14
				c-0.68-0.27-1.14-0.9-1.21-1.62c-0.24-2.72-0.5-7.85-0.75-12.81c-0.15-2.93-0.29-5.82-0.43-8.18c0-0.03,0-0.05,0-0.08
				c-0.06-3.12-1.27-4.65-3.7-4.68l-0.15,0c-1.64,0-3.62,0.8-3.7,4.64c0,0.02,0,0.05,0,0.07c-0.14,2.45-0.29,5.41-0.44,8.37
				c-0.25,4.9-0.5,9.98-0.74,12.61c-0.01,0.13-0.05,0.24-0.08,0.36c-2.41-1.45-5.28-2.9-8.62-4.18c-1.16-1.1-2.22-2.13-2.96-2.89
				c-0.69-0.7-1.66-1.1-2.65-1.1c-0.98,0-1.9,0.37-2.6,1.05c-0.13,0.12-0.23,0.26-0.33,0.4c-4.19-0.91-8.87-1.48-14.07-1.49h-0.1
				c-12.99,0-24.87,3.67-33.46,10.32c-9.89,7.66-15.11,18.52-15.11,31.39c0,12.21,4.94,22.47,14.68,30.51
				c3.77,3.11,7.94,5.63,12.1,7.76c-0.33-0.01-0.65-0.02-0.98-0.02c-16.76,0-25.58,16.98-26.53,18.91l-3.31,6.75
				c-0.37,0.76-0.21,1.67,0.41,2.25l5.46,5.17c4.31,4.08,20.35,17.41,45.6,17.46l0.17,0c14.07,0,26.18-4.38,35.04-12.68l0.01,42.18
				c0,1.06,0.86,1.93,1.92,1.93l40.77-0.11c0.51,0,1-0.2,1.36-0.56c0.36-0.36,0.57-0.85,0.57-1.36l0-29.87
				c2.24,0.41,4.53,0.62,6.84,0.62c12.03,0,22.97-4.72,30.8-13.29c0.5-0.54,0.99-1.11,1.47-1.71c6.1,9.5,16.72,15.09,29.05,15.1
				c3.87,0,7.57-0.53,11-1.58l30.57,0.05c0.06,0.01,0.11,0.01,0.17,0.01l40.78,0.08c0.51,0,1-0.2,1.36-0.56s0.57-0.85,0.57-1.36
				l0-34.93c0-2.54,0.23-4.63,0.68-6.03c0.78-2.41,1.95-4.58,7.54-4.58c0.67,0,1.32,0.04,1.93,0.11l1.55,0.18l0.01,45.29
				c0,1.06,0.86,1.93,1.93,1.93l40.77,0.06c0.51,0,1-0.2,1.36-0.56c0.36-0.36,0.57-0.85,0.57-1.36l0-6.77
				c6.31,11.14,10.71,18.2,13.1,21.02c9.96,11.77,20.24,19.13,40.63,19.51c0,0,10.43,0.19,10.44,0.19c0.5,0,0.99-0.2,1.35-0.55
				c0.37-0.36,0.58-0.86,0.58-1.38l0-29.3c2.6-0.01,5.26-0.17,7.06-0.31l9.44-0.72c1.01-0.08,1.78-0.91,1.78-1.92l0-7.39
				c8.17,6.88,18.56,10.63,29.71,10.63c4.95,0,10.06-0.75,15.17-2.21c9.3-2.67,17.31-7.33,24.48-14.25l5.97-5.76
				C608.6,213.92,608.73,212.91,608.24,212.14z"/>
		</g>
		<g>
			
				<linearGradient id="SVGID_2_" gradientUnits="userSpaceOnUse" x1="1006.3838" y1="1115.4553" x2="1006.3838" y2="935.6605" gradientTransform="matrix(1 -6.661544e-05 6.661544e-05 1 -648.295 -847.1675)">
				<stop  offset="0.2141" style="stop-color:#002169"/>
				<stop  offset="0.9743" style="stop-color:#002169;stop-opacity:0.1"/>
			</linearGradient>
			<path class="st2" d="M608.24,212.14l-4.4-7.03c-0.62-0.99-3.5-5.34-8.38-8.9c6.57-3.18,10.08-10.57,8.08-17.75
				c-0.26-0.95-0.43-1.49-0.61-2.07c-0.06-0.2-0.12-0.39-0.2-0.65c-5.79-20.04-21.09-32.49-39.92-32.49c-4.3,0-8.74,0.65-13.21,1.93
				c-11.88,3.41-21.22,10.17-27.16,19.61l-0.01-59.32c0-1.06-0.86-1.93-1.93-1.93l-40.77-0.07c-0.51,0-1,0.2-1.36,0.56
				c-0.36,0.36-0.57,0.85-0.57,1.36l0.01,39.89l-25.69,0.01c-0.83,0-1.56,0.53-1.83,1.32l-2.09,6.24l0-36.99
				c0-1.06-0.86-1.93-1.93-1.93l-40.78-0.07c-0.51,0-1,0.2-1.36,0.56c-0.36,0.36-0.57,0.85-0.57,1.36l0,28.3
				c-0.51-0.03-1-0.05-1.49-0.05c-3.84,0-7.74,0.74-11.41,2.14c-0.33-0.57-0.95-0.96-1.67-0.96l-39.84-0.07c-0.51,0-1,0.2-1.36,0.56
				c-0.36,0.36-0.57,0.85-0.57,1.36l0,6.91c-0.09-0.08-0.18-0.16-0.26-0.24c-7.4-6.7-17.8-10.25-30.08-10.27
				c-17,0-30.03,7.61-33.62,9.94l-5.62,3.65c-7.6-8.84-18.4-13.7-30.62-13.72c-4.05,0-7.95,0.55-11.59,1.63
				c-0.13-0.03-0.26-0.04-0.39-0.04l-17.66-0.06c-0.13-0.84-0.52-1.62-1.16-2.2c-0.03-0.03-0.06-0.05-0.08-0.08
				c-1.63-1.68-3.52-3.71-5.33-5.73c-0.48-0.54-0.62-1.3-0.36-1.98c0.26-0.68,0.87-1.15,1.59-1.23c4.36-0.47,9.12-0.88,12.76-1.08
				c0.03,0,0.24,0,0.24,0l0.08-0.01c1.96-0.13,3.5-1.76,3.5-3.71c0-1.44-0.83-2.76-2.12-3.36c-0.49-0.24-1.04-0.36-1.59-0.37
				c-0.03,0-0.07,0-0.1,0c-3.49-0.2-8.33-0.6-12.64-1.06c-0.72-0.08-1.34-0.55-1.6-1.23c-0.26-0.68-0.11-1.45,0.38-1.98
				c1.89-2.07,4.02-4.33,6.15-6.51c1.42-1.47,1.38-3.82-0.08-5.25c-0.69-0.68-1.61-1.05-2.6-1.05c-0.92,0-1.79,0.33-2.44,0.9
				l-0.13,0.12l-0.08,0.08c-1.77,1.81-4.21,4.11-6.68,6.3c-0.36,0.32-0.82,0.49-1.28,0.49c-0.24,0-0.48-0.05-0.71-0.14
				c-0.68-0.27-1.14-0.9-1.21-1.62c-0.24-2.72-0.5-7.85-0.75-12.81c-0.15-2.93-0.29-5.82-0.43-8.18c0-0.03,0-0.05,0-0.08
				c-0.06-3.12-1.27-4.65-3.7-4.68l-0.15,0c-1.64,0-3.62,0.8-3.7,4.64c0,0.02,0,0.05,0,0.07c-0.14,2.45-0.29,5.41-0.44,8.37
				c-0.25,4.9-0.5,9.98-0.74,12.61c-0.01,0.13-0.05,0.24-0.08,0.36c-2.41-1.45-5.28-2.9-8.62-4.18c-1.16-1.1-2.22-2.13-2.96-2.89
				c-0.69-0.7-1.66-1.1-2.65-1.1c-0.98,0-1.9,0.37-2.6,1.05c-0.13,0.12-0.23,0.26-0.33,0.4c-4.19-0.91-8.87-1.48-14.07-1.49h-0.1
				c-12.99,0-24.87,3.67-33.46,10.32c-9.89,7.66-15.11,18.52-15.11,31.39c0,12.21,4.94,22.47,14.68,30.51
				c3.77,3.11,7.94,5.63,12.1,7.76c-0.33-0.01-0.65-0.02-0.98-0.02c-16.76,0-25.58,16.98-26.53,18.91l-3.31,6.75
				c-0.37,0.76-0.21,1.67,0.41,2.25l5.46,5.17c4.31,4.08,20.35,17.41,45.6,17.46l0.17,0c14.07,0,26.18-4.38,35.04-12.68l0.01,42.18
				c0,1.06,0.86,1.93,1.92,1.93l40.77-0.11c0.51,0,1-0.2,1.36-0.56c0.36-0.36,0.57-0.85,0.57-1.36l0-29.87
				c2.24,0.41,4.53,0.62,6.84,0.62c12.03,0,22.97-4.72,30.8-13.29c0.5-0.54,0.99-1.11,1.47-1.71c6.1,9.5,16.72,15.09,29.05,15.1
				c3.87,0,7.57-0.53,11-1.58l30.57,0.05c0.06,0.01,0.11,0.01,0.17,0.01l40.78,0.08c0.51,0,1-0.2,1.36-0.56s0.57-0.85,0.57-1.36
				l0-34.93c0-2.54,0.23-4.63,0.68-6.03c0.78-2.41,1.95-4.58,7.54-4.58c0.67,0,1.32,0.04,1.93,0.11l1.55,0.18l0.01,45.29
				c0,1.06,0.86,1.93,1.93,1.93l40.77,0.06c0.51,0,1-0.2,1.36-0.56c0.36-0.36,0.57-0.85,0.57-1.36l0-6.77
				c6.31,11.14,10.71,18.2,13.1,21.02c9.96,11.77,20.24,19.13,40.63,19.51c0,0,10.43,0.19,10.44,0.19c0.5,0,0.99-0.2,1.35-0.55
				c0.37-0.36,0.58-0.86,0.58-1.38l0-29.3c2.6-0.01,5.26-0.17,7.06-0.31l9.44-0.72c1.01-0.08,1.78-0.91,1.78-1.92l0-7.39
				c8.17,6.88,18.56,10.63,29.71,10.63c4.95,0,10.06-0.75,15.17-2.21c9.3-2.67,17.31-7.33,24.48-14.25l5.97-5.76
				C608.6,213.92,608.73,212.91,608.24,212.14z"/>
		</g>
	</g>
	<g>
		<path class="st3" d="M502.11,258.85c-17.2-0.31-25.55-6.26-34.17-16.44c-4.91-5.8-20.49-34.63-25.15-43.34
			c-1.08,0.31-2.17,0.58-3.25,0.81l0,27.12l-27.27-0.04l-0.02-104.42l27.27,0.05l0.01,52.02c7.62-3.17,13.87-9.97,16.66-18.27
			l0.79-2.37l25.4-0.01l-0.94,4.22c-2.44,11.04-8.4,21.22-16.84,28.84c7.49,13.04,19.89,34.37,22.51,37.92
			c4.41,5.96,8.36,9.61,15.52,10.57l3.01,0.41l0,22.99L502.11,258.85z"/>
		<path class="st3" d="M562.31,228.09c-17.14,0-31.35-10.81-36.18-27.54c-3.02-10.43-2.08-20.88,2.64-29.42
			c4.7-8.5,12.73-14.59,23.23-17.61c3.69-1.06,7.33-1.6,10.82-1.6c15.03,0,26.84,9.8,31.58,26.22c0.09,0.32,0.17,0.58,0.25,0.83
			c0.15,0.5,0.3,0.97,0.53,1.81c0.96,3.44-0.96,6.87-4.45,7.98c-0.97,0.31-23.46,6.82-35.37,10.26c2.35,2.96,5.72,4.43,10.63,4.68
			c0.33,0.02,0.66,0.03,0.99,0.03c1.84,0,4-0.42,8.56-2.5c1.85-0.84,3.76-1.27,5.69-1.27c9.04,0,14.99,9.35,15.24,9.75l1.5,2.39
			l-2.03,1.96c-6.13,5.91-12.96,9.88-20.86,12.15C570.76,227.46,566.46,228.09,562.31,228.09L562.31,228.09z M559.36,174.08
			c-0.63,0-1.27,0.09-1.91,0.28c-4.42,1.27-5.97,4.6-6.34,7.82l14.47-4.16C564.24,175.6,561.91,174.08,559.36,174.08z"/>
		<path class="st3" d="M513.99,227.8c-12.79-0.02-27.48-3.24-27.48-28.2l-0.02-87.45l27.27,0.04l0.01,84.37c0,6.3,2,6.76,5.28,6.77
			c0.45,0,0.87-0.01,1.25-0.03l3.62-0.16l0,24.13l-3.21,0.24c-1.71,0.13-4.26,0.29-6.67,0.29L513.99,227.8z"/>
		<path class="st3" d="M355.93,226.86l0-73.03l26.34,0.04l0,9.32c4.71-6.48,12.01-10.49,19.82-10.49c0.53,0,1.1,0.03,1.69,0.1
			l3.08,0.34l0,26.9l-3.86-0.44c-0.93-0.1-1.9-0.16-2.9-0.16c-8.21,0-13.53,3.56-15.81,10.58c-0.74,2.35-1.11,5.21-1.1,8.72l0,28.16
			L355.93,226.86z"/>
		<path class="st3" d="M307.38,228.37c-14.76-0.02-25.47-10.24-25.48-24.31c0-9.58,5.8-16.51,17.25-20.59
			c8.82-3.14,18.82-3.69,23.62-3.75c-0.23-2.45-1.67-4.7-8.06-4.71c-3.03,0-6.31,0.78-9.41,1.58c-1.11,0.29-2.24,0.43-3.34,0.43
			c-10.02,0-15.05-11.57-15.25-12.07l-1.14-2.68l2.44-1.59c3.08-2,14.28-8.54,28.89-8.54c10.09,0.02,18.48,2.79,24.26,8.02
			c5.84,5.28,8.92,12.96,8.93,22.19l0.01,44.48l-25.27-0.04l0-4.68c-3.28,3.01-8.81,6.26-17.39,6.26H307.38z M322.96,197.1
			c-3.81,0-7.3,0.58-9.82,1.63c-3.83,1.59-3.83,3.54-3.83,4.18c0,2.48,1.47,3.69,4.49,3.69c2.2,0,4.53-1.2,6.39-3.28
			c1.65-1.85,2.7-4.13,2.87-6.21H322.96z"/>
		<path class="st3" d="M203.34,259.56l-0.02-106l25,0.04l0,4.79c3.55-2.95,9.61-6.36,18.73-6.36c19.83,0.03,33.15,15.4,33.16,38.24
			c0,11.07-3.35,20.59-9.7,27.53c-6.17,6.75-14.83,10.47-24.4,10.47c-7-0.01-12.32-2.46-15.52-4.48l0.01,35.81L203.34,259.56z
			 M243.19,175.69c-3.08,0-5.85,1.19-7.81,3.35c-2.36,2.59-3.6,6.59-3.6,11.55c0,6.93,3.58,14.4,11.44,14.4
			c3.07,0,5.89-1.26,7.92-3.56c2.3-2.6,3.51-6.33,3.51-10.8c0-8.92-4.6-14.93-11.44-14.94H243.19z"/>
		<path class="st3" d="M159.49,228.13c-22.08-0.04-35.96-11.55-39.68-15.08l-1.85-1.76l1.13-2.29c0.28-0.57,7.03-14.06,18.74-14.06
			c2.19,0,4.4,0.48,6.58,1.43c4.52,1.98,10.37,4.24,15.61,4.24c4.14,0,8.97-1.9,8.97-7.24c0-3.51-6.75-6.32-14.57-9.58
			c-14.23-5.93-33.71-14.06-33.71-35.79c0-10.09,4.06-18.57,11.75-24.53c7.08-5.48,17.07-8.51,28.15-8.51l0.1,0
			c20.08,0.03,30.9,9.42,33.74,12.29l2.24,2.27l-17.16,20.08l-2.65-2.43c-1.87-1.72-7.23-5.72-16.47-5.74
			c-2.58,0-4.94,0.58-6.63,1.63c-1.83,1.14-2.68,2.62-2.68,4.68c0,3.82,6.85,6.52,14.78,9.65c14.14,5.59,33.5,13.23,33.5,35.42
			c0,9.6-3.71,18.4-10.45,24.8c-7.24,6.87-17.37,10.5-29.29,10.5L159.49,228.13z"/>
	</g>
	<g>
		<path class="st1" d="M485.57,226.09c-2.77-3.75-15.99-26.53-23.42-39.47c8.76-7.45,14.94-17.7,17.41-28.85l0.42-1.88l-21.61,0
			l-0.35,1.05c-3.28,9.79-11.11,17.6-20.41,20.4l-0.01-52.83l-23.42-0.04l0.02,100.56l23.42,0.04l0-26.76l0.1-0.02
			c1.99-0.37,4.04-0.88,6.04-1.51c2.25,4.21,20.47,38.26,25.66,44.39c8.26,9.75,16.26,15.46,32.73,15.76l1.57,0.03l0-19.34
			l-1.34-0.18C494.58,236.37,490.17,232.31,485.57,226.09z"/>
		<path class="st1" d="M594.85,210.74c-0.23-0.36-5.63-8.84-13.61-8.84c-1.65,0-3.29,0.37-4.89,1.1c-4.87,2.22-7.26,2.67-9.36,2.67
			c-0.37,0-0.73-0.01-1.09-0.03c-6.59-0.34-10.9-2.8-13.56-7.74c3.02-0.87,36.67-10.6,37.82-10.97c2.52-0.8,3.86-3.17,3.17-5.63
			c-0.23-0.82-0.37-1.28-0.51-1.73c-0.09-0.28-0.17-0.55-0.27-0.9c-4.49-15.55-15.61-24.83-29.73-24.83
			c-3.31,0-6.77,0.51-10.28,1.52c-10,2.87-17.63,8.64-22.07,16.69c-4.47,8.09-5.35,18.02-2.48,27.96
			c4.59,15.88,18.07,26.15,34.33,26.15h0c3.97,0,8.08-0.61,12.24-1.8c7.59-2.18,14.15-6.01,20.05-11.69l0.9-0.87L594.85,210.74z
			 M559.36,172.15c4.01,0,7.54,2.85,8.83,7.12l-19.09,5.49c-0.26-6.38,2.51-10.74,7.82-12.26
			C557.73,172.26,558.55,172.15,559.36,172.15z"/>
		<path class="st1" d="M520.39,205.23c-0.4,0.02-0.86,0.03-1.34,0.03c-4.45-0.01-7.2-1.47-7.21-8.7l-0.01-82.44l-23.42-0.04
			l0.01,85.52c0,23.12,12.92,26.25,25.55,26.27h0.07c2.35,0,4.85-0.15,6.53-0.28l1.42-0.11l0-20.32L520.39,205.23z"/>
		<path class="st1" d="M403.57,154.72c-0.52-0.06-1.02-0.09-1.48-0.09c-9.52,0-18.35,6.68-21.75,16.35l0-15.19l-22.48-0.04l0,69.18
			l23.42,0.04l0-26.23c0-3.72,0.39-6.77,1.2-9.32c3.2-9.84,11.36-11.91,17.64-11.91c1.06,0,2.11,0.06,3.11,0.17l1.72,0.19l0-23.01
			L403.57,154.72z"/>
		<path class="st1" d="M316.91,154.08c-14.08,0-24.87,6.3-27.84,8.23l-1.09,0.71l0.51,1.19c0.19,0.44,4.73,10.89,13.48,10.89
			c0.94,0,1.91-0.13,2.86-0.37c3.22-0.83,6.64-1.64,9.9-1.64c6.74,0.01,10.02,2.47,10.02,7.5l0,1.06l-0.92,0
			c-4.14,0-14.78,0.36-24.02,3.65c-10.6,3.78-15.97,10.09-15.97,18.77c0,12.95,9.9,22.37,23.55,22.38h0.06
			c12.63,0,18.09-7.59,19.32-9.6l0,8.03l21.41,0.03l-0.01-42.55C348.16,164.68,336.48,154.11,316.91,154.08z M321.63,204.59
			c-2.23,2.49-5.08,3.93-7.84,3.93c-5.79-0.01-6.41-3.93-6.41-5.62c0-2.57,1.69-4.57,5.02-5.96c2.75-1.14,6.5-1.77,10.56-1.77
			l2.05,0.01l0,1.33C325.02,199.19,323.75,202.22,321.63,204.59z"/>
		<path class="st1" d="M247.05,153.96c-12.94,0-19.32,7.4-20.66,9.17l0-7.59l-21.14-0.04l0.02,102.14l23.41,0.04l-0.01-37.73
			c1.27,1.17,7.48,6.38,17.45,6.39c9.02,0,17.17-3.5,22.97-9.84c6.01-6.58,9.19-15.65,9.19-26.23
			C278.28,168.58,265.73,153.99,247.05,153.96z M252.58,202.71c-2.4,2.71-5.73,4.21-9.36,4.21c-9.18-0.01-13.36-8.47-13.37-16.33
			c0-5.45,1.42-9.9,4.1-12.85c2.33-2.57,5.61-3.98,9.24-3.98l0-1.54l0.02,1.54c7.99,0.02,13.37,6.8,13.37,16.87
			C256.58,195.58,255.2,199.75,252.58,202.71z"/>
		<path class="st1" d="M165.14,159.19c-8.94-3.53-16-6.32-16-11.45c0-2.71,1.21-4.83,3.6-6.31c2-1.24,4.72-1.92,7.65-1.92
			c9.92,0.02,15.73,4.38,17.77,6.25l1.18,1.08l14.71-17.22l-1-1.01c-2.71-2.74-13.04-11.69-32.37-11.72l-0.1,0
			c-10.65,0-20.23,2.88-26.97,8.1c-7.2,5.58-11,13.53-11,23.01c0,20.44,18.04,27.97,32.53,34.01c8.8,3.67,15.75,6.57,15.75,11.36
			c0,6.33-5.47,9.17-10.9,9.17c-5.6,0-11.7-2.35-16.39-4.41c-1.93-0.84-3.88-1.27-5.8-1.27c-10.52,0-16.75,12.45-17.01,12.98
			l-0.5,1.02l0.82,0.78c3.6,3.4,16.99,14.52,38.37,14.55l0.11,0c11.42,0,21.08-3.45,27.96-9.97c6.35-6.03,9.85-14.34,9.85-23.4
			C197.42,171.95,179.53,164.88,165.14,159.19z"/>
	</g>
	<g>
		<path class="st1" d="M603.21,170.09v-0.01c0-1.27,1.03-2.33,2.32-2.33c1.3,0,2.32,1.05,2.32,2.31v0.02c0,1.27-1.03,2.33-2.32,2.33
			C604.22,172.4,603.21,171.35,603.21,170.09z M607.58,170.07v-0.02c0-1.13-0.88-2.06-2.05-2.06c-1.16,0-2.05,0.94-2.05,2.08v0.01
			c0,1.13,0.88,2.06,2.05,2.06C606.69,172.15,607.58,171.2,607.58,170.07z M604.62,168.85l1.06,0c0.52,0,0.9,0.25,0.9,0.74
			c0,0.39-0.55,0.72-0.55,0.72l0.63,0.89l-0.55,0l-0.56-0.81l-0.49,0l0,0.81l-0.45,0L604.62,168.85z M605.64,170.02
			c0.31,0,0.48-0.16,0.48-0.39c0-0.25-0.17-0.39-0.48-0.39l-0.57,0l0,0.77L605.64,170.02z"/>
	</g>
	<g>
		<g>
			<path class="st4" d="M316.91,155.62c-13.57,0-23.91,5.97-27,7.98c0,0,5.12,12.06,14.54,9.63c3.51-0.91,6.94-1.69,10.28-1.69
				c9.55,0.02,11.56,4.93,11.56,9.05l0,1.21c0,0.37-0.15,0.73-0.41,0.99c-0.26,0.26-0.62,0.41-0.99,0.41l-1.06,0
				c-4.06,0-14.49,0.35-23.51,3.56c-9.92,3.53-14.95,9.36-14.95,17.31c0,12.06,9.26,20.82,22.01,20.84h0.06
				c13.3,0,18.02-8.86,18.21-9.23c0.24-0.48,0.73-0.77,1.25-0.77c0.11,0,0.22,0.01,0.33,0.04c0.63,0.15,1.08,0.71,1.08,1.36l0,7.03
				l18.33,0.03l-0.01-41C346.62,165.65,335.54,155.65,316.91,155.62z M322.78,205.62c-2.52,2.82-5.79,4.44-8.99,4.44
				c-5.86-0.01-7.95-3.71-7.95-7.16c0-2.24,1.04-5.33,5.97-7.38c2.94-1.22,6.9-1.89,11.15-1.89l2.2,0.01c0.77,0,1.4,0.63,1.4,1.4
				l0,1.47C326.56,199.56,325.15,202.97,322.78,205.62z M164.58,160.63c-9.48-3.75-16.98-6.71-16.98-12.88
				c0-3.23,1.5-5.87,4.33-7.63c2.24-1.39,5.24-2.15,8.47-2.15c10.32,0.02,17.24,5.07,19.63,7.27l13.29-14.54
				c-2.71-2.74-13.95-12.22-32.63-12.25h-0.1c-10.31,0-19.55,2.76-26.02,7.78c-6.81,5.28-10.4,12.81-10.4,21.79
				c0,19.42,17.51,26.72,31.58,32.59c9.33,3.89,16.7,6.97,16.7,12.79c0,7.33-6.31,10.71-12.44,10.71c-5.67,0-11.68-2.2-17.01-4.54
				c-12.7-5.56-20.81,10.97-20.81,10.97c3.23,3.06,16.34,14.09,37.32,14.13l0.1,0c11.01,0,20.32-3.3,26.9-9.55
				c6.04-5.73,9.37-13.65,9.37-22.28C195.88,173,178.52,166.14,164.58,160.63z M247.05,155.5c-13.55,0-19.39,8.48-19.63,8.83
				c-0.26,0.4-0.71,0.63-1.17,0.63c-0.13,0-0.27-0.02-0.4-0.06c-0.59-0.18-1-0.72-1-1.34l0-6.49l-18.06-0.03l0.02,99.06l20.33,0.03
				l-0.01-36.51c0-0.57,0.35-1.08,0.88-1.3c0.17-0.07,0.35-0.1,0.52-0.1c0.37,0,0.74,0.15,1.01,0.43c0.06,0.06,6.06,6.14,16.58,6.16
				h0c8.58,0,16.33-3.32,21.84-9.34c5.75-6.29,8.79-15,8.79-25.19C276.74,169.5,264.83,155.53,247.05,155.5z M253.74,203.73
				c-2.7,3.05-6.42,4.73-10.52,4.73c-10.24-0.01-14.91-9.27-14.91-17.88c0-5.84,1.55-10.64,4.5-13.89
				c2.63-2.89,6.31-4.49,10.38-4.49h0.02c8.92,0.02,14.91,7.42,14.91,18.42C258.13,195.96,256.61,200.49,253.74,203.73z
				 M576.99,204.4c-6.12,2.79-8.61,2.91-11.17,2.78c-6.9-0.36-11.91-2.97-14.93-8.72c-0.2-0.37-0.21-0.81-0.05-1.2
				c0.17-0.39,0.5-0.68,0.9-0.8c0,0,36.78-10.63,37.94-11c1.87-0.6,2.58-2.21,2.15-3.74c-0.37-1.32-0.51-1.68-0.78-2.61
				c-4.29-14.85-14.85-23.72-28.25-23.72c-3.16,0-6.48,0.49-9.86,1.46c-9.59,2.76-16.91,8.27-21.15,15.95
				c-4.27,7.73-5.1,17.24-2.35,26.78c4.4,15.21,17.29,25.03,32.85,25.03h0c3.82,0,7.8-0.59,11.82-1.74
				c9.19-2.64,15.39-7.44,19.41-11.32C593.54,211.56,586.38,200.12,576.99,204.4z M548.97,186.34c-0.29,0-0.58-0.09-0.81-0.26
				c-0.35-0.25-0.56-0.64-0.58-1.07c-0.35-7.16,2.9-12.26,8.93-13.99c0.95-0.27,1.91-0.41,2.87-0.41c4.74,0,8.91,3.36,10.36,8.37
				c0.1,0.36,0.06,0.74-0.12,1.07c-0.18,0.33-0.48,0.57-0.84,0.67l-19.4,5.58C549.23,186.32,549.1,186.34,548.97,186.34z
				 M519.05,206.81L519.05,206.81c-6.13-0.01-8.74-3.07-8.75-10.24l-0.01-80.9l-20.33-0.03l0.02,83.97
				c0,21.7,11.54,24.71,24.01,24.73h0.07c2.38,0,4.93-0.16,6.41-0.28l0-17.28C520.04,206.79,519.56,206.81,519.05,206.81z
				 M484.33,227c-3.56-4.82-22.76-38.3-23.57-39.72c-0.34-0.59-0.21-1.33,0.31-1.77c8.59-7.28,14.58-17.2,16.99-28.08l-18.58,0
				c-3.46,10.34-11.67,18.5-21.62,21.43c-0.13,0.04-0.26,0.06-0.4,0.06c-0.3,0-0.59-0.1-0.84-0.28c-0.35-0.26-0.56-0.68-0.56-1.12
				l-0.01-51.47l-20.33-0.03l0.02,97.48l20.33,0.03l0-25.36c0-0.58,0.37-1.11,0.92-1.32c0.14-0.05,0.3-0.08,0.45-0.09
				c1.96-0.36,3.96-0.87,5.97-1.5c0.14-0.04,0.28-0.06,0.42-0.06c0.51,0,0.99,0.28,1.24,0.74c0.2,0.38,20.2,37.92,25.53,44.22
				c8.13,9.6,15.66,14.92,31.58,15.21l0-16.42C493.88,237.83,489.15,233.52,484.33,227z M402.1,156.17
				c-9.13,0-17.58,6.62-20.56,16.1c-0.19,0.59-0.73,0.98-1.34,0.98c-0.07,0-0.14-0.01-0.21-0.02c-0.68-0.1-1.19-0.69-1.19-1.38
				l0-14.52l-19.4-0.03l0,66.09l20.34,0.04l0-24.68c0-3.88,0.41-7.08,1.27-9.8c3.67-11.29,13.52-12.98,19.11-12.98
				c1.31,0,2.44,0.09,3.28,0.18l0-19.91C403.01,156.21,402.55,156.17,402.1,156.17z"/>
		</g>
	</g>
	<g>
		<path class="st3" d="M225.5,128.37c-0.25-0.12-0.55-0.2-0.82-0.19c-5.76-0.32-16.25-1.3-20.16-2.04
			c1.82-2.35,6.28-7.27,10.98-12.09c0.67-0.69,0.66-1.8-0.03-2.47c-0.63-0.61-1.36-0.06-2.05,0.56l-0.07,0.06
			c-3.35,3.43-10.04,9.12-12.87,11.05c-0.55-3.7-1.7-13.9-2.32-24.29c-0.02-1.33,0.37-2.84-1.37-2.84l-0.1,0
			c-1.7,0-1.72,1.55-1.73,2.76c-0.62,10.53-1.42,20.14-1.96,23.77c-2.83-1.97-9.21-7.77-12.66-11.27c-0.64-0.65-1.82-0.66-2.47-0.02
			c-0.69,0.67-0.7,1.78-0.03,2.48c4.56,4.67,9.25,9.85,11.17,12.3c-3.85,0.75-14.11,1.73-19.72,2.05h-0.13
			c-0.94,0-1.71,0.74-1.75,1.68l0,0.08l0.01,0.11c0.06,0.92,0.82,1.64,1.77,1.64h0.01c5.72,0.32,15.69,1.27,19.5,2.01
			c-1.14,1.53-3.97,4.91-11,12.09c-0.68,0.69-0.28,1.85,0.41,2.53c0.56,0.55,1.56,0.64,2.22,0.19l0.22-0.11l0.14-0.21
			c3.39-3.45,9.58-9.09,12.37-10.99c0.61,3.8,1.47,13.78,1.92,21.4c0.02,1.4,0.04,2.84,1.79,2.84h0.03c1.76,0,1.44-1.49,1.46-2.76
			c0.53-9.01,1.26-18.11,1.79-21.53c2.63,1.82,8.99,7.26,12.26,10.59c0.33,0.34,0.79,0.53,1.3,0.53l0.13-0.01
			c0.91-0.08,1.59-0.83,1.59-1.75c0-0.52-0.24-1.02-0.64-1.35c-3.45-3.55-8.27-8.92-10.18-11.41c3.84-0.74,14.19-1.73,20.11-2.06
			l0.22,0c0.95-0.06,1.66-0.82,1.66-1.75C226.48,129.26,226.07,128.62,225.5,128.37z"/>
		<path class="st4" d="M225.7,127.98c-0.14-0.07-0.29-0.11-0.45-0.11l-0.07,0c-6.12-0.34-18.75-1.52-21.43-2.31
			c1.1-1.74,6.12-7.37,11.74-13.12c0.37-0.39,0.37-1.01-0.02-1.38c-0.36-0.35-0.97-0.36-1.34-0.03l-0.05,0.05
			c-3.64,3.72-11.3,10.66-13.59,11.75c-0.54-2.48-1.46-13.06-2.16-24.93c-0.01-1.38-0.02-2.08-1.02-2.08h0l-0.09,0
			c-0.94,0-0.95,0.78-0.96,2.03c-0.72,12.23-1.65,22.7-2.17,24.98c-2.25-1.09-10.05-8.19-13.77-11.98
			c-0.37-0.37-1.01-0.38-1.38-0.01c-0.38,0.37-0.39,1-0.02,1.38c5.38,5.52,10.75,11.53,11.93,13.33c-2.64,0.82-15.04,2-21.03,2.34
			l-0.12,0c-0.53,0-0.96,0.41-0.98,0.94l0,0.08l0.01,0.03c0.03,0.51,0.46,0.91,0.98,0.91l0.07,0c6.05,0.34,18.53,1.53,21.11,2.34
			c-0.56,0.95-2.81,4.02-11.72,13.13c-0.38,0.38-0.37,1.01,0.01,1.39c0.34,0.33,0.9,0.36,1.27,0.08l0.09-0.05l0.07-0.1
			c3.77-3.84,11.29-10.67,13.52-11.73c0.6,2.53,1.62,13.82,2.14,22.62c0.02,1.43,0.03,2.08,1.02,2.08h0.03c1,0,1-0.69,1.02-2.03
			c0.57-9.7,1.6-20.49,2.13-22.7c2.08,0.94,9.39,7.66,12.91,11.26c0.18,0.19,0.44,0.3,0.71,0.3l0.09,0c0.5-0.05,0.89-0.47,0.89-0.97
			c0-0.31-0.15-0.6-0.38-0.78c-3.85-3.96-9.77-10.56-10.96-12.47c2.61-0.82,15.12-1.99,21.4-2.35l0.18,0
			c0.54-0.04,0.94-0.45,0.94-0.98C226.25,128.47,226.02,128.12,225.7,127.98z"/>
	</g>
</g>
</svg>
