<?xml version="1.0" encoding="UTF-8"?>
<svg width="90px" height="48px" viewBox="0 0 90 48" version="1.1" xmlns="http://www.w3.org/2000/svg" xmlns:xlink="http://www.w3.org/1999/xlink">
    <!-- Generator: Sketch 53 (72520) - https://sketchapp.com -->
    <title>Assets/Vanityfair White Logo Copy</title>
    <desc>Created with Sketch.</desc>
    <defs>
        <polygon id="path-1" points="0.0144792127 0.0957027864 15.8695157 0.0957027864 15.8695157 15.0003715 0.0144792127 15.0003715"></polygon>
        <polygon id="path-3" points="0.00895621406 0.081002671 89.756192 0.081002671 89.756192 43.7052259 0.00895621406 43.7052259"></polygon>
    </defs>
    <g id="Desktop" stroke="none" stroke-width="1" fill="none" fill-rule="evenodd">
        <g id="Assets/Vanityfair-White-Logo-Copy">
            <g id="Group">
                <path d="M74.197499,44.8177096 C73.9480848,44.76674 73.7663583,44.9244502 73.725525,45.1279591 C73.6843238,45.3318374 73.7906375,45.5479041 74.0400517,45.5985043 C74.2894659,45.6491045 74.4704567,45.4917637 74.5116579,45.2878854 C74.5532269,45.0840071 74.4472811,44.8683098 74.197499,44.8177096" id="Fill-1" fill="#816C49"></path>
                <path d="M70.0529688,40.0049536 C69.701736,40.0049536 69.4637992,40.2785387 69.4637992,40.6368297 C69.4637992,40.9949721 69.701736,41.2685573 70.0529688,41.2685573 C70.1240215,41.2685573 70.1891033,41.2600867 70.2486621,41.240322 L70.0192337,40.978031 L70.2853826,40.7607678 L70.5291409,41.04 C70.6027311,40.935678 70.642437,40.7976223 70.642437,40.6368297 C70.642437,40.2785387 70.404351,40.0049536 70.0529688,40.0049536" id="Fill-2" fill="#816C49"></path>
                <path d="M73.807981,40.7782661 L73.5879865,41.171418 L74.3915579,41.171418 L74.1718,40.7782661 C74.0821463,40.6183012 73.987525,40.371418 73.987525,40.371418 C73.987525,40.371418 73.8978713,40.6183012 73.807981,40.7782661" id="Fill-3" fill="#816C49"></path>
                <g id="Group-7" transform="translate(66.723795, 32.990712)">
                    <mask id="mask-2" fill="white">
                        <use xlink:href="#path-1"></use>
                    </mask>
                    <g id="Clip-5"></g>
                    <path d="M10.2877672,11.68351 C10.1974593,11.4593151 9.98591618,11.3806283 9.77746578,11.466809 C9.56901538,11.5517408 9.45953253,11.7634458 9.54860333,11.9882652 C9.63705557,12.2043416 9.86468093,12.2842774 10.0743684,12.1993456 C10.2822003,12.1144139 10.3762194,11.9002109 10.2877672,11.68351" id="Fill-4" fill="#816C49" mask="url(#mask-2)"></path>
                    <path d="M13.1875774,7.96755418 L13.1875774,8.6050774 L12.7881303,8.6050774 L12.7881303,7.99578947 L12.0571539,6.68700929 L12.4963069,6.68700929 L12.8363445,7.3047678 C12.9099348,7.44014861 12.9920334,7.66870588 12.9920334,7.66870588 C12.9920334,7.66870588 13.0684598,7.44282353 13.1421992,7.3047678 L13.4680562,6.68700929 L13.8731756,6.68700929 L13.1875774,7.96755418 Z M11.9260946,7.03385759 L11.3763324,7.03385759 L11.3763324,8.6050774 L10.9797214,8.6050774 L10.9797214,7.03385759 L10.4299591,7.03385759 L10.4299591,6.68700929 L11.9260946,6.68700929 L11.9260946,7.03385759 Z M10.2687472,4.22251393 L11.0085305,3.29639628 L11.624121,3.78367802 L11.4903748,3.9513065 L11.0661488,3.61560372 L10.8311975,3.9098452 L11.2048209,4.20542415 L11.0740602,4.36889164 L10.700586,4.07331269 L10.5940071,4.20676161 L11.0373397,4.55762229 L10.9035935,4.72510217 L10.2687472,4.22251393 Z M9.92020124,12.2761115 C9.69943056,12.3655728 9.48507851,12.2982539 9.40760725,12.1095232 C9.35342216,11.9769659 9.39805396,11.8591207 9.49254202,11.7717399 C9.41477222,11.7620805 9.33983857,11.7265635 9.30267028,11.6360619 C9.25311256,11.515096 9.31073087,11.341226 9.50687196,11.2615728 C9.70465502,11.1813251 9.86303074,11.2676656 9.91258846,11.3886316 C9.94960747,11.4791331 9.92244029,11.5559628 9.8737782,11.6171889 C10.0027477,11.6139195 10.115596,11.6678638 10.1697811,11.8002724 C10.2471031,11.9891517 10.1441066,12.1853127 9.92020124,12.2761115 Z M8.45168067,12.7868731 C8.23747789,12.8048545 8.10089562,12.7046935 8.04223242,12.5907121 L8.23897059,12.4710836 C8.27091442,12.5367678 8.32614441,12.5878885 8.4304843,12.5791207 C8.53168952,12.5706502 8.58497899,12.4961981 8.57751548,12.4077771 C8.56930562,12.3125201 8.50123839,12.2518885 8.38092658,12.2618452 C8.27658669,12.2707616 8.20523552,12.3203963 8.15657342,12.3663158 L8.13492923,12.3593313 L8.08134122,11.7265635 L8.67349624,11.6767802 L8.68991597,11.8708607 L8.29270787,11.9044458 L8.30897833,12.0949598 C8.33032397,12.079356 8.38167293,12.0627121 8.43391751,12.0584025 C8.65349403,12.0401238 8.81157121,12.1891765 8.82858801,12.3886068 C8.84485847,12.5826873 8.72872623,12.7636904 8.45168067,12.7868731 Z M7.60382574,8.6050774 L7.51306944,8.38796285 L6.73104268,8.38796285 L6.64028638,8.6050774 L6.25785604,8.6050774 L7.10496462,6.67006811 L7.13899823,6.67006811 L8.02028969,8.6050774 L7.60382574,8.6050774 Z M7.55322313,12.052904 C7.52739938,12.1810031 7.45664529,12.2663034 7.33707983,12.379096 L7.01256634,12.685226 L6.75179124,12.6326192 L7.02555285,12.374935 C7.076454,12.3266378 7.15482088,12.2926068 7.15482088,12.2926068 C7.11317448,12.3037523 7.07973795,12.3093994 7.03003096,12.2994427 C6.84165192,12.261548 6.71820544,12.1032817 6.76000111,11.8985015 C6.80537926,11.6748483 7.00987948,11.5736471 7.22781402,11.6176347 C7.44380805,11.6611765 7.59889982,11.8292508 7.55322313,12.052904 Z M6.03454777,12.2092384 L5.81870301,12.1053622 L6.1306778,11.4623406 L5.97304843,11.3866997 L6.058431,11.211195 L6.43175586,11.3904149 L6.03454777,12.2092384 Z M5.38999889,8.63048916 C4.94547214,8.63048916 4.60827068,8.39628483 4.60827068,7.91108359 L4.60827068,6.68700929 L5.00473242,6.68700929 L5.00473242,7.88849536 C5.00473242,8.16787616 5.1266862,8.27502167 5.38999889,8.27502167 C5.65077399,8.27502167 5.76974237,8.16787616 5.76974237,7.88849536 L5.76974237,6.68700929 L6.16635338,6.68700929 L6.16635338,7.91108359 C6.16635338,8.39628483 5.82930119,8.63048916 5.38999889,8.63048916 Z M4.68872733,3.58112693 C4.80903914,3.48334365 4.93024657,3.45466254 5.08190513,3.51336223 L5.01159885,3.72750464 C4.93159,3.696 4.87740491,3.70179567 4.82351835,3.74563467 C4.76798983,3.79066254 4.76127267,3.85456347 4.79888877,3.90018576 C4.84531181,3.95695356 4.89934763,3.9513065 5.00921053,3.92024768 L5.07339673,3.90196904 C5.29073419,3.84 5.43895953,3.83658204 5.56822755,3.99425387 C5.70749668,4.16426006 5.64957983,4.36621672 5.46926139,4.51259443 C5.29327178,4.65555418 5.11086356,4.66402477 4.96592216,4.59997523 L5.04757298,4.3855356 C5.14235958,4.41882353 5.23475785,4.42432198 5.32835029,4.3483839 C5.4070157,4.28463158 5.4250774,4.20497833 5.38089341,4.15088545 C5.32790248,4.08624149 5.2575962,4.10496594 5.13997125,4.13765944 L5.07593432,4.15593808 C4.89158558,4.20913932 4.74127046,4.20988235 4.61528638,4.0560743 C4.49930341,3.91430341 4.51930562,3.71873684 4.68872733,3.58112693 Z M4.32361234,8.64163467 L4.06044892,8.85904644 L3.77414861,8.53166563 C3.64085029,8.59378328 3.49068443,8.63048916 3.32917404,8.63048916 C2.77403804,8.63048916 2.33219814,8.21290402 2.33219814,7.64611765 C2.33219814,7.07903406 2.77403804,6.66174613 3.32917404,6.66174613 C3.88460858,6.66174613 4.32659774,7.07903406 4.32659774,7.64611765 C4.32659774,7.91955418 4.2244969,8.15955418 4.05462738,8.33416718 L4.32361234,8.64163467 Z M6.07156678,2.77775851 L6.54146948,3.86660062 L6.31607143,3.96274923 L5.84646727,2.87390712 L6.07156678,2.77775851 Z M7.070931,2.45840248 L7.72234631,2.95980186 C7.78489054,3.00839628 7.87713954,3.10796285 7.87713954,3.10796285 C7.87713954,3.10796285 7.84847966,2.976 7.84056833,2.89426625 L7.79324967,2.40014861 L8.02133459,2.37830341 L8.13582486,3.56790093 L8.11134454,3.57042724 L7.46022778,3.06887926 C7.39544449,3.01894737 7.30349403,2.92116409 7.30349403,2.92116409 C7.30349403,2.92116409 7.33364662,3.04941176 7.34170721,3.13441486 L7.38932441,3.62868111 L7.16094096,3.65037771 L7.04659996,2.46078019 L7.070931,2.45840248 Z M8.23344759,6.68700929 L8.62990933,6.68700929 L8.62990933,8.2582291 L9.50269239,8.2582291 L9.50269239,8.6050774 L8.23344759,8.6050774 L8.23344759,6.68700929 Z M9.78391751,8.60492879 L10.1805285,8.60492879 L10.1805285,6.68700929 L9.78391751,6.68700929 L9.78391751,8.60492879 Z M8.89829721,3.04049536 C9.00159222,2.70598142 9.33640535,2.54058204 9.662113,2.64029721 C9.86780739,2.70345511 9.99229876,2.82159752 10.045439,3.01077399 L9.82750442,3.08269969 C9.80093432,2.97971517 9.72779191,2.89010526 9.59747899,2.85013003 C9.39193388,2.78712074 9.20430119,2.90303406 9.13877156,3.11420433 C9.07383901,3.32552322 9.16250553,3.52941176 9.36819991,3.59242105 C9.51552963,3.63744892 9.61867536,3.59256966 9.71211853,3.51559133 L9.85586577,3.69614861 C9.70987948,3.81919505 9.52299314,3.86764087 9.30416298,3.8006192 C8.97785825,3.70090402 8.79485294,3.37500929 8.89829721,3.04049536 Z M15.3742371,6.81421672 C15.5024602,6.63068731 15.5778417,6.40747988 15.5778417,6.16658824 C15.5778417,5.68465635 15.2760172,5.27271827 14.85,5.10821053 C14.909111,4.97134365 14.9415027,4.82050774 14.9415027,4.66194427 C14.9415027,4.07702786 14.4969759,3.59539319 13.9257187,3.53386997 C13.9312417,3.48839628 13.9340778,3.44203096 13.9340778,3.39521981 C13.9340778,2.76839628 13.4235736,2.26016099 12.7941011,2.26016099 C12.6834918,2.26016099 12.5767636,2.27591331 12.4757077,2.30504025 C12.4758569,2.29894737 12.4760062,2.29270588 12.4760062,2.286613 C12.4760062,1.65964087 11.965502,1.15155418 11.3357309,1.15155418 C11.1531734,1.15155418 10.980617,1.19435294 10.8277643,1.27029102 C10.6775984,0.818080495 10.2496406,0.491591331 9.74510725,0.491591331 C9.45447811,0.491591331 9.18907563,0.599925697 8.98785935,0.77825387 L8.98785935,0.778105263 C8.94397391,0.677795666 8.88605705,0.584916409 8.81619858,0.502142415 L8.81604931,0.502142415 C8.79888324,0.481486068 8.78082154,0.461424149 8.76201349,0.442105263 L8.76156568,0.44180805 C8.7429069,0.422489164 8.7233525,0.403913313 8.70349956,0.386080495 C8.70305175,0.385783282 8.70275321,0.385486068 8.70245467,0.385188854 C8.69305064,0.376569659 8.68319881,0.368099071 8.67304843,0.359925697 C8.67274989,0.359628483 8.67230208,0.359331269 8.67200354,0.358885449 C8.66185316,0.350563467 8.65170279,0.342241486 8.6411046,0.334216718 C8.64065679,0.333770898 8.64020898,0.333473684 8.63991044,0.333176471 C8.62976006,0.325448916 8.61990823,0.318018576 8.60960858,0.310736842 C8.60886223,0.310142415 8.60811588,0.309547988 8.60736953,0.308804954 C8.59662207,0.301374613 8.58602388,0.293944272 8.57527643,0.286811146 C8.57453008,0.286365325 8.57378372,0.285919505 8.57318664,0.285473684 C8.56318554,0.278786378 8.55288589,0.272247678 8.54258625,0.265857585 C8.54124281,0.265114551 8.54019792,0.264371517 8.53900376,0.263479876 C8.52810703,0.25679257 8.51691176,0.250402477 8.5057165,0.244012384 C8.50482088,0.243566563 8.50407452,0.243120743 8.5031789,0.242674923 C8.49287926,0.236879257 8.48272888,0.231232198 8.47213069,0.225733746 C8.47048872,0.224842105 8.46869748,0.223950464 8.46705551,0.223058824 C8.45586024,0.217263158 8.44466497,0.211616099 8.43317116,0.206117647 C8.43227554,0.205671827 8.43108138,0.205226006 8.43003649,0.204780186 C8.41958757,0.199876161 8.40928793,0.195120743 8.3983912,0.190513932 C8.39659996,0.189622291 8.39451017,0.188582043 8.39227112,0.187690402 C8.38077731,0.182786378 8.36913423,0.17803096 8.35749115,0.173424149 C8.35629699,0.172978328 8.3552521,0.172681115 8.35420721,0.172235294 C8.34345975,0.168074303 8.33286157,0.164210526 8.32196484,0.160198142 C8.31942724,0.159455108 8.31703892,0.158712074 8.31479987,0.157820433 C8.30300752,0.15380805 8.2910659,0.149795666 8.27912428,0.146080495 C8.27793012,0.145783282 8.27688523,0.145486068 8.2755418,0.145188854 C8.26479434,0.141622291 8.25374834,0.138650155 8.24255307,0.135529412 C8.24001548,0.134934985 8.23717935,0.13419195 8.23464175,0.133448916 C8.22255086,0.130328173 8.2103107,0.12720743 8.19807054,0.124532508 C8.19702565,0.124235294 8.19598076,0.12393808 8.1947866,0.123789474 C8.18359133,0.121263158 8.17239606,0.118885449 8.16090226,0.116656347 C8.15776758,0.11606192 8.15493145,0.115616099 8.15194604,0.115021672 C8.13970588,0.112643963 8.12716718,0.110563467 8.11462848,0.108631579 C8.11373286,0.108482972 8.11283724,0.108482972 8.11209089,0.108334365 C8.10029854,0.106551084 8.08850619,0.105065015 8.07671384,0.103727554 C8.07372844,0.103281734 8.07044449,0.10298452 8.06745909,0.1025387 C8.05477112,0.101201238 8.04208315,0.100012384 8.02939518,0.0989721362 L8.02775321,0.0989721362 C8.01551305,0.0979318885 8.00312362,0.0973374613 7.99088346,0.0968916409 C7.98745024,0.0967430341 7.98431557,0.0965944272 7.98088235,0.0964458204 C7.96804511,0.096 7.95520787,0.0957027864 7.94222136,0.0957027864 C7.92908558,0.0957027864 7.91624834,0.096 7.90326183,0.0964458204 C7.89982862,0.0965944272 7.89654467,0.0967430341 7.89341,0.0968916409 C7.88116984,0.0973374613 7.86878041,0.0979318885 7.85639098,0.0989721362 L7.85489828,0.0989721362 C7.84221031,0.100012384 7.82952234,0.101201238 7.81683437,0.1025387 C7.81355042,0.10298452 7.81056502,0.103281734 7.80728107,0.103727554 C7.79548872,0.105065015 7.78369637,0.106551084 7.77190402,0.108334365 C7.77115767,0.108482972 7.77026205,0.108482972 7.77026205,0.108482972 C7.75682773,0.110563467 7.7444383,0.112643963 7.73204887,0.115021672 C7.72921274,0.115616099 7.72622733,0.11606192 7.7233912,0.116656347 C7.71204666,0.118885449 7.70070212,0.121263158 7.68920831,0.123789474 C7.68831269,0.12393808 7.6872678,0.124235294 7.68622291,0.124532508 C7.67398275,0.12720743 7.66174259,0.130328173 7.64980097,0.133448916 C7.64681557,0.13419195 7.64427797,0.134934985 7.64144184,0.135529412 C7.63054511,0.138650155 7.61949912,0.141622291 7.60845312,0.145188854 C7.60740823,0.145486068 7.60636333,0.145783282 7.60516917,0.146080495 C7.59322755,0.149795666 7.58128594,0.15380805 7.56949359,0.157820433 C7.56695599,0.158712074 7.56456767,0.159455108 7.56232862,0.160198142 C7.55143189,0.164210526 7.54053516,0.168074303 7.53008625,0.172235294 C7.52874281,0.172681115 7.52769792,0.172978328 7.52665303,0.173424149 C7.51486068,0.17803096 7.5032176,0.182786378 7.49172379,0.187690402 C7.48963401,0.188582043 7.4876935,0.189622291 7.48560372,0.190513932 C7.47500553,0.195120743 7.46455661,0.199876161 7.45395843,0.204780186 C7.45291353,0.205226006 7.45201791,0.205671827 7.45112229,0.206117647 C7.43962848,0.211616099 7.42813467,0.217263158 7.41693941,0.223058824 C7.41529743,0.223950464 7.41380473,0.224842105 7.41201349,0.225733746 C7.40156457,0.231232198 7.39111566,0.236879257 7.38081601,0.242674923 C7.37992039,0.243120743 7.37917404,0.243566563 7.37827842,0.244012384 C7.36708315,0.250402477 7.35603715,0.25679257 7.34528969,0.263479876 C7.34409553,0.264371517 7.3427521,0.265114551 7.34155794,0.265857585 C7.33125829,0.272247678 7.32110792,0.278786378 7.31080827,0.285473684 C7.31021119,0.285919505 7.30946484,0.286365325 7.30901703,0.286811146 C7.29797103,0.293944272 7.28752211,0.301374613 7.27692393,0.308804954 C7.27617758,0.309547988 7.27528195,0.310142415 7.27438633,0.310736842 C7.26438523,0.318018576 7.25423485,0.325448916 7.24438302,0.333176471 C7.24378594,0.333473684 7.24333812,0.333770898 7.24289031,0.334216718 C7.23259067,0.342241486 7.22214175,0.350563467 7.21199138,0.358885449 C7.21169284,0.359331269 7.21124502,0.359628483 7.21094648,0.359925697 C7.20109465,0.368099071 7.19109354,0.376569659 7.18168952,0.385188854 C7.18124171,0.385486068 7.18094317,0.385783282 7.18064463,0.386080495 C7.16064241,0.403913313 7.14123728,0.422489164 7.12257851,0.441659443 L7.12242923,0.441956656 C7.10362119,0.461424149 7.08541022,0.481486068 7.0679456,0.501993808 L7.06779633,0.502142415 C6.9982364,0.584916409 6.94031955,0.677795666 6.8964341,0.778105263 L6.8964341,0.77825387 C6.69491928,0.599925697 6.42981535,0.491591331 6.1391862,0.491591331 C5.63465281,0.491591331 5.20669505,0.818080495 5.05652919,1.27029102 C4.90337793,1.19435294 4.73082154,1.15155418 4.54826404,1.15155418 C3.91879146,1.15155418 3.40828726,1.65964087 3.40828726,2.286613 C3.40828726,2.29270588 3.40843653,2.29894737 3.4085858,2.30504025 C3.30752985,2.27591331 3.2005031,2.26016099 3.09019239,2.26016099 C2.46042127,2.26016099 1.94991707,2.76839628 1.94991707,3.39521981 C1.94991707,3.44203096 1.95305175,3.48839628 1.95857475,3.53386997 C1.38731756,3.59539319 0.94249226,4.07702786 0.94249226,4.66194427 C0.94249226,4.82050774 0.975182441,4.97134365 1.03399491,5.10821053 C0.608276205,5.27271827 0.306153251,5.68465635 0.306153251,6.16658824 C0.306153251,6.40747988 0.381534719,6.63068731 0.510056391,6.81421672 C0.210918841,7.0188483 0.0144792127,7.36183282 0.0144792127,7.75043963 C0.0144792127,8.04156037 0.124789916,8.30712074 0.30570544,8.50803715 C0.156435206,8.69988854 0.0676194162,8.94048297 0.0676194162,9.20217957 C0.0676194162,9.58291022 0.255998452,9.91995046 0.544985626,10.1257709 C0.613202123,10.1743653 0.686941619,10.215678 0.765308492,10.2485201 C1.70630805,10.7736966 5.34372512,12.8124334 5.34372512,12.9503406 C5.34372512,13.1087554 5.33058934,14.2041362 5.58225896,14.4549845 C5.83437638,14.7056842 6.80194604,14.5869474 7.09362008,14.5869474 C7.38514485,14.5869474 7.59725785,15.0092879 7.94222136,15.0092879 C8.28673706,15.0092879 8.49885007,14.5869474 8.79037483,14.5869474 C9.08204887,14.5869474 10.0499171,14.7056842 10.301736,14.4549845 C10.5537041,14.2041362 10.5402698,13.1087554 10.5402698,12.9503406 C10.5402698,12.8124334 14.1776869,10.7736966 15.118985,10.2485201 C15.1970533,10.215678 15.2709421,10.1743653 15.3391586,10.1257709 C15.628295,9.91995046 15.816674,9.58291022 15.816674,9.20217957 C15.816674,8.94048297 15.727709,8.69988854 15.5784387,8.50803715 C15.7595035,8.30712074 15.8695157,8.04156037 15.8695157,7.75043963 C15.8695157,7.36183282 15.6733746,7.0188483 15.3742371,6.81421672 L15.3742371,6.81421672 Z" id="Fill-6" fill="#816C49" mask="url(#mask-2)"></path>
                </g>
                <path d="M76.590962,44.7954695 C76.360939,44.889412 76.2922973,45.1171402 76.3737181,45.3196466 C76.4565994,45.522153 76.6585084,45.6204819 76.8885313,45.5265394 C77.1181891,45.4325969 77.1944983,45.2209522 77.1123472,45.0184458 C77.029466,44.816305 76.82135,44.7018925 76.590962,44.7954695" id="Fill-8" fill="#816C49"></path>
                <path d="M70.5291409,41.04 L70.2853826,40.7607678 L70.0192337,40.978031 L70.2486621,41.240322 C70.1891033,41.2600867 70.1240215,41.2685573 70.0529688,41.2685573 C69.701736,41.2685573 69.4637992,40.9949721 69.4637992,40.6368297 C69.4637992,40.2785387 69.701736,40.0049536 70.0529688,40.0049536 C70.404351,40.0049536 70.642437,40.2785387 70.642437,40.6368297 C70.642437,40.7976223 70.6027311,40.935678 70.5291409,41.04 Z M70.0529688,39.6524582 C69.4978328,39.6524582 69.0559929,40.0697461 69.0559929,40.6368297 C69.0559929,41.2036161 69.4978328,41.6212012 70.0529688,41.6212012 C70.2144792,41.6212012 70.3646451,41.5844954 70.4979434,41.5223777 L70.7842437,41.8497585 L71.0474071,41.6323467 L70.7784222,41.3248793 C70.9482917,41.1502663 71.0503925,40.9102663 71.0503925,40.6368297 C71.0503925,40.0697461 70.6084034,39.6524582 70.0529688,39.6524582 L70.0529688,39.6524582 Z" id="Fill-9" fill="#FFFFFE"></path>
                <path d="M72.8901482,40.9017957 L72.8901482,39.6777214 L72.4935372,39.6777214 L72.4935372,40.8792074 C72.4935372,41.1585882 72.3745688,41.2657337 72.1137937,41.2657337 C71.850481,41.2657337 71.7285272,41.1585882 71.7285272,40.8792074 L71.7285272,39.6777214 L71.3320655,39.6777214 L71.3320655,40.9017957 C71.3320655,41.3869969 71.6692669,41.6212012 72.1137937,41.6212012 C72.553096,41.6212012 72.8901482,41.3869969 72.8901482,40.9017957" id="Fill-10" fill="#FFFFFE"></path>
                <path d="M74.0950575,41.0484706 L73.5879865,41.0484706 L73.7268078,40.7157399 C73.7835305,40.5803591 73.8401039,40.371418 73.8401039,40.371418 C73.8401039,40.371418 73.899812,40.5803591 73.9563854,40.7157399 L74.0950575,41.0484706 Z M73.8287594,39.6607802 L72.9816508,41.5957895 L73.3640812,41.5957895 L73.4548375,41.3786749 L74.2368642,41.3786749 L74.3276205,41.5957895 L74.7440845,41.5957895 L73.862793,39.6607802 L73.8287594,39.6607802 L73.8287594,39.6607802 Z" id="Fill-11" fill="#FFFFFE"></path>
                <polyline id="Fill-12" fill="#FFFFFE" points="76.2264872 41.2489412 75.3537041 41.2489412 75.3537041 39.6777214 74.9572424 39.6777214 74.9572424 41.5957895 76.2264872 41.5957895 76.2264872 41.2489412"></polyline>
                <polygon id="Fill-13" fill="#FFFFFE" points="76.5077123 41.5956409 77.3112837 41.5956409 77.3112837 39.6777214 76.5077123 39.6777214"></polygon>
                <polyline id="Fill-14" fill="#FFFFFE" points="77.1537539 40.0245697 77.7035161 40.0245697 77.7035161 41.5957895 78.1001272 41.5957895 78.1001272 40.0245697 78.6498894 40.0245697 78.6498894 39.6777214 77.1537539 39.6777214 77.1537539 40.0245697"></polyline>
                <path d="M79.865994,40.2954799 C79.7922545,40.4335356 79.7158282,40.659418 79.7158282,40.659418 C79.7158282,40.659418 79.6337295,40.4308607 79.5601393,40.2954799 L79.2201017,39.6777214 L78.7809487,39.6777214 L79.511925,40.9865015 L79.511925,41.5957895 L79.9113722,41.5957895 L79.9113722,40.9582663 L80.5969704,39.6777214 L80.191851,39.6777214 L79.865994,40.2954799" id="Fill-15" fill="#FFFFFE"></path>
                <path d="M71.7997291,37.1466502 L71.863766,37.1283715 C71.981391,37.095678 72.0516973,37.0769536 72.1046882,37.1415975 C72.1488722,37.1956904 72.1308105,37.2753437 72.0521451,37.339096 C71.9585526,37.4150341 71.8661544,37.4095356 71.7713678,37.3762477 L71.6897169,37.5906873 C71.8346583,37.6547368 72.0170666,37.6462663 72.1930562,37.5033065 C72.3733746,37.3569288 72.4312915,37.1549721 72.2920223,36.9849659 C72.1627543,36.8272941 72.014529,36.8307121 71.7971915,36.8926811 L71.7330053,36.9109598 C71.6231424,36.9420186 71.5691066,36.9476656 71.5226835,36.8908978 C71.4850674,36.8452755 71.4917846,36.7813746 71.5473131,36.7363467 C71.6011997,36.6925077 71.6553848,36.6867121 71.7353936,36.7182167 L71.8056999,36.5040743 C71.6540414,36.4453746 71.5328339,36.4740557 71.4125221,36.571839 C71.2431004,36.7094489 71.2230982,36.9050155 71.3390812,37.0467864 C71.4650652,37.2005944 71.6153804,37.1998514 71.7997291,37.1466502" id="Fill-16" fill="#FFFFFE"></path>
                <polyline id="Fill-17" fill="#FFFFFE" points="73.3738335 36.8573127 72.8305253 35.7684706 72.5702621 35.8646192 73.113225 36.9534613 73.3738335 36.8573127"></polyline>
                <path d="M74.1131192,36.6193932 L74.065502,36.1251269 C74.0574414,36.0401238 74.0272888,35.9118762 74.0272888,35.9118762 C74.0272888,35.9118762 74.1192393,36.0096594 74.1840226,36.0595913 L74.8351393,36.5611393 L74.8596196,36.558613 L74.7451294,35.3690155 L74.5170444,35.3908607 L74.5643631,35.8849783 C74.5722744,35.9667121 74.6009343,36.0986749 74.6009343,36.0986749 C74.6009343,36.0986749 74.5086853,35.9991084 74.4461411,35.9505139 L73.7947258,35.4491146 L73.7703947,35.4514923 L73.8847357,36.6410898 L74.1131192,36.6193932" id="Fill-18" fill="#FFFFFE"></path>
                <path d="M76.0279578,36.7913313 C76.2467879,36.8583529 76.4336743,36.8099071 76.5796605,36.6868607 L76.4359133,36.5063034 C76.3424701,36.5832817 76.2393244,36.628161 76.0919947,36.5831331 C75.8863003,36.5201238 75.7976338,36.3162353 75.8625663,36.1049164 C75.928096,35.8937461 76.1157287,35.7778328 76.3212738,35.8408421 C76.4515867,35.8808173 76.5247291,35.9704272 76.5512992,36.0734118 L76.7692337,36.0014861 C76.7160935,35.8123096 76.5916022,35.6941672 76.3859078,35.6310093 C76.0602001,35.5312941 75.725387,35.6966935 75.622092,36.0312074 C75.5186477,36.3657214 75.701653,36.6916161 76.0279578,36.7913313" id="Fill-19" fill="#FFFFFE"></path>
                <polyline id="Fill-20" fill="#FFFFFE" points="77.7611345 37.5483344 77.3178019 37.1974737 77.4243808 37.0640248 77.7978549 37.3596037 77.9286157 37.1961362 77.5549923 36.9005573 77.7899436 36.6063158 78.2141696 36.9420186 78.3479157 36.7743901 77.7323253 36.2871084 76.992542 37.213226 77.6273883 37.7158142 77.7611345 37.5483344"></polyline>
                <polyline id="Fill-21" fill="#FFFFFE" points="72.7448092 44.3774118 72.9514251 44.4530526 72.5424978 45.0960743 72.8254207 45.1999505 73.3460692 44.3811269 72.8567261 44.2019071 72.7448092 44.3774118"></polyline>
                <path d="M74.1721049,45.0011146 C74.1514509,45.0831455 74.0607209,45.146452 73.9356905,45.1260929 C73.8106601,45.1057337 73.7573654,45.0187988 73.7780194,44.9367678 C73.798489,44.8548854 73.8895878,44.7914303 74.0146182,44.8119381 C74.139833,44.8322972 74.1929433,44.9190836 74.1721049,45.0011146 Z M74.0636714,44.6083467 C73.794432,44.5643591 73.5417894,44.6655604 73.4857286,44.8892136 C73.4340936,45.0939938 73.5866012,45.2522601 73.8193274,45.2901548 C73.8807361,45.3001115 73.9220441,45.2944644 73.9734946,45.2833189 C73.9734946,45.2833189 73.8766791,45.3173498 73.8137951,45.3656471 L73.475586,45.6233313 L73.7977513,45.6759381 L74.19866,45.369808 C74.3463729,45.2570155 74.4337835,45.1717152 74.4656865,45.0436161 C74.5221162,44.8199628 74.3305136,44.6518885 74.0636714,44.6083467 L74.0636714,44.6083467 Z" id="Fill-22" fill="#FFFFFE"></path>
                <path d="M75.165529,45.0491146 C75.1122418,45.0534241 75.0598681,45.0700681 75.0380965,45.0856718 L75.0215013,44.8951579 L75.4266363,44.8615728 L75.4098889,44.6674923 L74.8059165,44.7172755 L74.8605739,45.3500433 L74.8826501,45.3570279 C74.9322833,45.3111084 75.0050584,45.2614737 75.1114806,45.2525573 C75.2341934,45.2426006 75.303619,45.3032322 75.3119927,45.3984892 C75.3196052,45.4869102 75.2652522,45.5613622 75.1620273,45.5698328 C75.0556051,45.5786006 74.9992729,45.5274799 74.9666916,45.4617957 L74.7660272,45.5814241 C74.8258611,45.6954056 74.9651691,45.7955666 75.1836467,45.7775851 C75.4662211,45.7544025 75.584671,45.5733994 75.5680758,45.3793189 C75.5507194,45.1798885 75.3894875,45.0308359 75.165529,45.0491146" id="Fill-23" fill="#FFFFFE"></path>
                <path d="M76.6200249,45.0730402 C76.5166174,45.1112322 76.4258486,45.071257 76.3885891,44.9889288 C76.3519862,44.9066006 76.3828443,44.8140186 76.4862517,44.7758266 C76.5898234,44.7377833 76.6833825,44.7842972 76.720642,44.8664768 C76.7575733,44.948805 76.7232682,45.0348483 76.6200249,45.0730402 Z M76.272543,44.5555913 C76.248907,44.5020929 76.2779595,44.4517152 76.3332743,44.4315046 C76.3885891,44.4109969 76.4447246,44.4297214 76.4686889,44.4830712 C76.4921607,44.5346378 76.4672116,44.5856099 76.412061,44.6058204 C76.3564179,44.626031 76.2960148,44.6070093 76.272543,44.5555913 Z M76.6561354,44.6079009 C76.7096447,44.5466749 76.739518,44.4698452 76.6988115,44.3793437 C76.6443175,44.2583777 76.4701661,44.1720372 76.2526822,44.2522848 C76.0370037,44.3319381 75.9736461,44.505808 76.0281402,44.626774 C76.0690108,44.7172755 76.1514085,44.7527926 76.2369248,44.762452 C76.1330249,44.8498328 76.0839474,44.967678 76.1435298,45.1002353 C76.2287179,45.2889659 76.4644213,45.3562848 76.7071826,45.2668235 C76.9533909,45.1760248 77.0666467,44.9798638 76.9816228,44.7909845 C76.9220404,44.6585759 76.7979514,44.6046316 76.6561354,44.6079009 L76.6561354,44.6079009 Z" id="Fill-24" fill="#FFFFFE"></path>
                <g id="Group-30">
                    <mask id="mask-4" fill="white">
                        <use xlink:href="#path-3"></use>
                    </mask>
                    <g id="Clip-26"></g>
                    <path d="M53.1196042,18.5532632 C52.9730208,18.0658328 52.6531347,17.948582 52.0100785,17.8213746 C51.3670223,17.6943158 50.9559321,18.2004706 50.7700907,19.5545759 C50.5105097,21.4448545 49.848347,27.2559752 49.0157176,27.4448545 C48.3808713,27.5893003 48.1517415,24.466774 47.9687362,22.9576718 C47.7855816,21.4482724 47.6815402,20.050031 47.4925641,19.1855851 C47.3037373,18.3208421 46.9341442,18.0659814 46.2907895,17.9496223 C45.7125166,17.8453003 45.1036433,17.9848421 45.1036433,17.9848421 C45.1036433,17.9848421 45.4139761,19.5686935 45.5407065,22.4354675 C45.667437,25.3022415 45.916569,29.8797771 48.7652421,29.7274551 C50.8893576,29.6140681 51.7343764,26.7055356 51.7343764,26.7055356 C51.7343764,26.7055356 52.2686146,33.5041486 52.4140038,36.0844087 C52.559393,38.6639257 52.384299,42.2561981 52.2093543,42.680322 C52.0344096,43.1042972 52.600293,43.9806316 53.0967658,43.6202601 C53.5932386,43.2597399 54.9109962,42.4950093 55.0247402,40.5662415 C55.1384841,38.6371765 54.5043841,30.6495604 53.8693885,25.6617214 C53.2345422,20.674031 53.2661875,19.0408421 53.1196042,18.5532632" id="Fill-25" fill="#000000" mask="url(#mask-4)"></path>
                    <path d="M14.1436533,20.605226 C14.1157397,20.4273437 14.0122954,20.2661053 13.8904909,20.1369659 C13.6934542,19.928322 13.4605927,19.7397399 13.2408669,19.5578452 C13.1410051,19.4749226 12.9285935,19.3218576 12.8085803,19.4750712 C12.3113611,20.1100681 10.4741431,22.6669969 8.73813025,27.791257 C7.63203782,31.0562972 7.25722026,33.2168916 7.25722026,33.2168916 C7.25722026,33.2168916 5.63913092,28.5669845 4.91218487,26.469548 C4.14732419,24.2630341 3.40097302,22.5345882 3.16199138,22.0978328 C2.73313799,21.3146749 1.86184763,21.0972632 1.46404246,21.0725944 C0.631860902,21.0210279 -0.245698806,21.3684706 0.0634398496,21.9297585 C0.372578505,22.4906006 2.07381137,27.2524087 3.18005307,30.0433932 C4.28629478,32.8346749 5.70630252,36.9151207 5.94647833,37.5502663 C6.18650487,38.1852632 7.13437085,38.7817709 7.70323972,38.6169659 C8.27210858,38.4518638 8.52810703,38.2154303 8.89008735,36.4119381 C9.20713733,34.8315046 9.81466718,31.2566192 11.0703284,27.6664272 C12.3012107,24.1475666 13.6664363,22.2382663 14.0540911,21.1095975 C14.1084255,20.9514799 14.1700741,20.774192 14.1436533,20.605226" id="Fill-27" fill="#000000" mask="url(#mask-4)"></path>
                    <path d="M68.1367868,18.9613375 C68.0061754,20.1114056 67.8404854,21.2749969 67.230418,22.3491269 C66.0956656,24.3468483 64.8344814,25.7577214 64.1442559,25.387096 C63.4829887,25.0322229 64.283525,22.4613251 65.251841,20.8614241 C66.1801526,19.3275046 67.3102775,18.1555913 68.1920168,17.9947988 C68.1888821,18.2951331 68.1757464,18.6195418 68.1367868,18.9613375 Z M89.5195986,11.4061672 C89.2185206,11.5578947 87.2593487,12.1417709 85.1518023,14.0363591 C83.2420389,15.7527678 81.9751824,18.2328669 81.9751824,18.2328669 C81.9751824,18.2328669 81.9259233,17.2114923 81.8483027,16.2427245 C81.7703837,15.2742539 81.3958647,14.9479133 80.9505916,14.76587 C80.5051692,14.5838266 79.8537539,14.4906502 79.5828284,14.5359752 C79.3117536,14.5814489 78.9078284,14.5691146 79.0291851,15.0021548 C79.1505418,15.435195 79.522971,19.069969 79.4481866,21.4830464 C79.373253,23.8962724 79.0170942,25.8177585 77.9339894,25.9723096 C76.8507353,26.1268607 76.6120522,23.1877152 76.4730816,21.7943777 C76.334111,20.4008916 76.3309763,17.6834675 76.2673872,16.2592198 C76.2034996,14.8346749 74.7434874,14.9776347 74.447186,14.9685697 C74.1510338,14.959356 73.6915801,15.0063158 73.7053129,15.4360867 C73.7190458,15.8660062 73.8005473,18.1588607 73.6248563,21.4919628 C73.456778,24.680322 72.5962351,26.8533994 72.0216939,26.8355666 C71.4990989,26.819517 70.7776758,25.7881858 70.6069107,22.3653251 C70.4903306,20.0231331 70.5306336,18.2079009 70.5249613,17.5956409 C70.6231811,17.3584644 70.6805009,17.1368916 70.6545279,17.0169659 C70.5334697,16.4631084 70.3627046,15.7032817 68.6525155,15.5503653 C66.6125885,15.3678762 64.182469,17.655678 62.6711079,20.8562229 C61.1452676,24.086935 61.2385615,27.0746749 63.2350509,27.6022291 C66.1031291,28.359678 68.2959089,24.8787121 68.2959089,24.8787121 C68.2959089,24.8787121 68.483243,26.1901672 69.4576791,27.2219443 C70.2579169,28.0695975 71.3628151,28.3938576 72.4408448,28.3871703 C74.3821042,28.3752817 74.9117149,26.0672693 74.9117149,26.0672693 C74.9117149,26.0672693 75.6492592,27.4879505 77.4245301,27.620805 C79.2535383,27.7575232 80.0215336,26.4658328 80.0215336,26.4658328 C80.0215336,26.4658328 80.5083038,26.911356 81.3573529,26.8557771 C82.194759,26.8010898 82.3417901,26.4029721 82.3534332,26.0275913 C82.3650763,25.6523591 82.2193885,25.138031 82.4356811,23.3733251 C82.6524215,21.6086192 82.6561533,20.6154799 83.9167404,18.2119133 C85.1776261,15.8083467 88.0676471,13.6058452 88.8184763,13.1558638 C89.5691563,12.706031 89.7558934,12.0961486 89.7514153,11.7620805 C89.7466387,11.428161 89.8209752,11.254291 89.5195986,11.4061672 L89.5195986,11.4061672 Z" id="Fill-28" fill="#000000" mask="url(#mask-4)"></path>
                    <path d="M42.6332209,15.0736347 C42.1589894,15.1232693 41.6796827,15.1708235 41.1929124,15.2154056 C41.2597855,9.4931517 42.3164695,7.61817957 42.3164695,7.61817957 C42.3164695,7.61817957 43.0702842,8.82560991 42.6332209,15.0736347 Z M41.5816121,22.110613 C41.4095035,20.8657337 41.2856092,19.4422291 41.226946,17.8120124 C41.2142581,17.4607059 41.2058989,17.1241115 41.1997789,16.7945015 C41.6216165,16.743678 42.05659,16.6904768 42.5018631,16.635195 C42.3087074,18.5198266 41.9829998,20.3915294 41.5816121,22.110613 Z M16.6384067,28.5539071 C15.7239772,30.2908235 14.2639651,32.5248297 13.511046,32.3063777 C12.9111289,32.1323591 13.5923983,29.3337957 14.4474182,27.6710341 C15.3355761,25.9434799 16.2852333,24.5186378 17.0960692,24.4743529 C17.1702565,24.847356 17.2363832,25.2743034 17.2687749,25.7737709 C17.3240049,26.6284087 17.1578671,27.5677523 16.6384067,28.5539071 Z M59.3577565,15.0234056 C59.3344704,14.7698824 59.3140203,14.5226006 59.2944659,14.2772508 C63.8548209,13.5779071 65.1766088,13.3908111 65.7599569,13.3196285 C66.4636168,13.234031 67.0300973,12.8495851 67.2316121,12.0628607 C67.4770124,11.1041981 66.5990049,11.2522105 65.7987671,11.3210155 C65.0416685,11.3861053 63.1762384,11.7091765 59.1771395,12.4377957 C58.8253096,4.83789474 60.4204113,1.82325697 61.9884951,1.89280495 C63.8915414,1.97736223 64.938075,3.74920124 65.6230761,4.8436904 C66.3080772,5.93832817 66.5972136,6.02645201 67.2372844,6.10996904 C68.3111345,6.25040248 68.771036,5.88364087 68.5850453,4.92958514 C68.3375553,3.66063158 65.7626437,0.339120743 62.9118808,0.10298452 C59.7955661,-0.154996904 58.3097302,1.89919505 57.3791796,4.08921362 C56.4172822,6.35308978 56.333243,9.30887926 56.6208868,12.9051641 C56.5183381,12.9240372 56.4171329,12.9424644 56.3124945,12.9616347 C52.7034387,13.6230836 48.8834642,14.329709 44.5697037,14.8550341 C44.8848131,9.45243344 44.1674204,5.20703406 42.4057331,4.74026006 C40.2029522,4.15668111 38.9725177,8.81951703 38.7498065,13.6794056 C38.724132,14.2414365 38.7048762,14.8215975 38.6936809,15.4139443 C33.7268631,15.7417709 32.7489938,15.3504892 32.3534277,15.3383034 C31.9224845,15.3250774 31.5876714,15.6905015 32.047573,16.5097709 C32.5073253,17.3291889 33.3608525,17.4520867 35.5793067,17.3699071 C36.1426526,17.3489536 37.2482972,17.2450774 38.6874115,17.0860681 C38.7256247,20.3135108 39.0753649,23.7845201 40.1374226,26.8453746 C39.3736068,28.756904 38.5720257,29.9615108 37.9389706,29.9493251 C36.8610902,29.9286687 36.2090778,27.3212136 36.2937141,23.8869102 C36.3602886,21.1923715 36.8343709,19.8113684 34.8984852,19.644483 C34.3076736,19.5935108 33.7085029,19.7688669 33.7085029,19.7688669 C33.7085029,19.7688669 33.7332817,22.6191455 33.8398607,24.9307245 C33.7110405,25.8669474 33.4498176,27.5499195 33.1079887,28.6239009 C32.8316895,29.4933994 32.3011831,30.3716656 31.9674149,30.2780433 C31.2927134,30.0891641 30.9646174,28.3323344 30.6693609,26.4439876 C30.4741154,25.196582 30.0907895,21.6873808 29.9742094,20.9939814 C29.8576294,20.3004334 29.3186146,19.8376718 28.5092713,19.8329164 C27.7002267,19.8278638 27.1512107,20.0457214 26.8764042,20.8435913 C26.6014485,21.6417585 25.6817946,25.3096718 25.6817946,25.3096718 C25.6817946,25.3096718 25.1693498,22.7341672 24.9836577,22.1149226 C24.798264,21.495678 24.3929954,21.2426006 23.7281457,21.2498824 C23.0631468,21.2574613 22.79864,21.3929907 22.7296771,21.4669969 C22.6607143,21.5413003 22.662207,21.5771146 22.6639982,22.0960495 C22.6659387,22.6148359 22.7481866,23.8109721 22.6813136,27.2139195 C22.6144405,30.6170155 22.2129036,31.9387245 21.8352499,31.9081115 C21.3141475,31.8656099 20.75319,29.9004334 20.2977665,27.8774489 C19.8898109,26.0651889 19.7108359,23.8374241 19.6647114,23.5705263 C19.643515,23.4488173 19.5335029,23.3694613 19.344676,23.3253251 C19.1586853,22.8022291 18.6162373,22.2488173 17.2774326,22.2654613 C15.5255971,22.2877523 13.2063854,24.8547864 11.8983304,28.2336594 C10.608337,31.5648297 10.9671827,33.9651269 12.9963622,34.3483839 C16.2286599,34.9588607 18.2352996,29.8863158 18.2352996,29.8863158 C18.2352996,29.8863158 18.3969593,31.0372755 19.0509122,32.2906254 C19.5358912,33.2200124 20.2731369,34.0624644 21.3478826,34.1462786 C23.8904025,34.3445201 24.268504,31.0909226 24.268504,31.0909226 C24.268504,31.0909226 24.8748397,32.4017833 26.0170555,32.1515294 C27.1046384,31.9133127 27.0758293,30.130774 27.182259,29.2615728 C27.3736234,27.6971889 28.0026482,24.4159505 28.0026482,24.4159505 C28.0026482,24.4159505 28.4692669,28.2296471 28.7681059,29.362031 C29.1891973,30.9567307 29.5919284,32.1091765 31.5327399,32.0665263 C33.5225122,32.0225387 34.1952731,30.4132755 34.5599403,29.4231084 C35.0846252,30.733969 36.0571207,31.8904272 37.9395677,31.6670712 C39.0786488,31.531839 40.1383182,30.5615851 41.0627488,29.0291517 C41.3483027,29.5880619 41.6637107,30.12587 42.0161378,30.6346997 C43.8049923,33.2170402 47.089833,34.1199752 48.3562417,33.0840372 C49.3888932,32.2390588 48.9464562,31.4382167 48.9464562,31.4382167 C48.9464562,31.4382167 47.60795,31.5949969 46.3709476,31.0369783 C45.6168344,30.6966687 43.7227444,30.0063901 42.4455882,26.0644458 C43.2450796,23.8882477 43.8606701,21.2489907 44.2262329,18.4588978 C44.3180341,17.7583653 44.3940126,17.067195 44.4553627,16.3889536 C48.5047656,15.8703158 53.0091442,15.2467616 56.0403748,14.7783529 C56.2953284,14.7389721 56.5419228,14.7009288 56.7835913,14.6636285 C56.9925697,16.6878019 57.2842437,18.8910464 57.5823364,21.2671207 C58.5282618,28.8077276 59.1344483,36.1297337 59.2602831,36.7061796 C59.3859686,37.2826254 59.6798817,38.2400991 60.9573364,37.6172879 C61.8537041,37.1800867 62.1231369,36.2245449 61.898933,35.0697214 C61.6745798,33.9147492 60.0085747,22.1116533 59.3577565,15.0234056 L59.3577565,15.0234056 Z" id="Fill-29" fill="#000000" mask="url(#mask-4)"></path>
                </g>
                <path d="M33.8947921,12.7333746 C34.3461853,12.2839876 34.3021506,11.5115294 33.7965723,11.0080495 C33.2908448,10.5045697 32.5149381,10.4607307 32.0635449,10.9101176 C31.6120024,11.3596533 31.6560372,12.1319628 32.1617647,12.6354427 C32.6674923,13.1389226 33.4433989,13.1827616 33.8947921,12.7333746" id="Fill-31" fill="#000000"></path>
                <path d="M75.0578505,12.6980062 C75.5090944,12.2486192 75.4186367,11.4297957 74.8554401,10.8692508 C74.2923927,10.3085573 73.4699138,10.2183529 73.0185206,10.6677399 C72.5669781,11.1171269 72.6577344,11.9359505 73.2206325,12.496644 C73.7839783,13.0571889 74.606308,13.1473932 75.0578505,12.6980062" id="Fill-32" fill="#000000"></path>
                <path d="M85.0490965,25.401504 C85.0490965,25.7715007 84.7560617,26.0806007 84.3755803,26.0806007 C83.9906824,26.0806007 83.7018433,25.7758976 83.7018433,25.4056811 L83.7018433,25.401504 C83.7018433,25.0312875 83.9950989,24.7221875 84.3755803,24.7221875 C84.7602574,24.7221875 85.0490965,25.0268907 85.0490965,25.3968873 L85.0490965,25.401504 Z M84.3755803,24.6393065 C83.9511547,24.6393065 83.6146174,24.9877585 83.6146174,25.401504 L83.6146174,25.4056811 C83.6146174,25.8194266 83.946959,26.1634817 84.3755803,26.1634817 C84.7997851,26.1634817 85.1365432,25.8150297 85.1365432,25.401504 L85.1365432,25.3968873 C85.1365432,24.9835815 84.8042016,24.6393065 84.3755803,24.6393065 L84.3755803,24.6393065 Z" id="Fill-33" fill="#1A1919"></path>
                <path d="M84.3865841,25.4007059 L84.2535056,25.4007059 L84.2535056,25.2267833 L84.391221,25.2267833 C84.4647155,25.2267833 84.5059838,25.257088 84.5059838,25.3137446 C84.5059838,25.3660092 84.4647155,25.4007059 84.3865841,25.4007059 Z M84.4004947,25.0181641 L83.9917537,25.0181641 L83.9917537,25.8181641 L84.2535056,25.8181641 L84.2535056,25.5875849 L84.3316371,25.5875849 L84.4969419,25.8181641 L84.7953251,25.8181641 L84.5980259,25.5443238 C84.7035149,25.5008432 84.7677357,25.4180543 84.7677357,25.2920043 C84.7677357,25.1092977 84.6207466,25.0181641 84.4004947,25.0181641 Z" id="Fill-34" fill="#1A1919"></path>
                <polyline id="Fill-35" fill="#816C49" points="79.1839783 46.724805 78.9682828 46.3745387 78.6991486 46.3745387 78.6991486 47.2810402 78.9475343 47.2810402 78.9475343 46.751257 79.1780075 47.110291 79.1869637 47.110291 79.4175862 46.751257 79.4175862 47.2810402 79.668808 47.2810402 79.668808 46.3745387 79.4028085 46.3745387 79.1839783 46.724805"></polyline>
                <polyline id="Fill-36" fill="#816C49" points="77.7590447 46.5952198 78.0328631 46.5952198 78.0328631 47.2810402 78.288948 47.2810402 78.288948 46.5952198 78.5626161 46.5952198 78.5626161 46.3745387 77.7590447 46.3745387 77.7590447 46.5952198"></polyline>
            </g>
        </g>
    </g>
</svg>