<?xml version="1.0" encoding="UTF-8"?>
<svg width="75px" height="40px" viewBox="0 0 75 40" version="1.1" xmlns="http://www.w3.org/2000/svg" xmlns:xlink="http://www.w3.org/1999/xlink">
    <!-- Generator: Sketch 53.2 (72643) - https://sketchapp.com -->
    <title>Assets/Vanityfair White Logo</title>
    <desc>Created with Sketch.</desc>
    <defs>
        <polygon id="path-1" points="0.0120660106 0.079752322 13.2245964 0.079752322 13.2245964 12.5003096 0.0120660106 12.5003096"></polygon>
        <polygon id="path-3" points="0.00746351172 0.0675022258 74.7968266 0.0675022258 74.7968266 36.4210216 0.00746351172 36.4210216"></polygon>
    </defs>
    <g id="PDP-New" stroke="none" stroke-width="1" fill="none" fill-rule="evenodd">
        <g id="Navigation/Tablet/Secondary-Header-Copy" transform="translate(-52.000000, -4.000000)">
            <g id="Assets/Vanityfair-White-Logo" transform="translate(52.000000, 4.000000)">
                <g id="Group">
                    <path d="M61.8312492,37.3480913 C61.623404,37.3056167 61.4719652,37.4370418 61.4379375,37.6066326 C61.4036032,37.7765312 61.4921979,37.9565867 61.7000431,37.9987536 C61.9078882,38.0409204 62.0587139,37.9098031 62.0930482,37.7399045 C62.1276891,37.5700059 62.0394009,37.3902582 61.8312492,37.3480913" id="Fill-1" fill="#816C49"></path>
                    <path d="M58.377474,33.3374613 C58.08478,33.3374613 57.8864993,33.5654489 57.8864993,33.8640248 C57.8864993,34.1624768 58.08478,34.3904644 58.377474,34.3904644 C58.4366845,34.3904644 58.4909194,34.3834056 58.5405517,34.366935 L58.3493615,34.1483591 L58.5711521,33.9673065 L58.7742841,34.2 C58.8356092,34.113065 58.8686975,33.9980186 58.8686975,33.8640248 C58.8686975,33.5654489 58.6702925,33.3374613 58.377474,33.3374613" id="Fill-2" fill="#816C49"></path>
                    <path d="M61.5066509,33.9818884 L61.3233221,34.309515 L61.9929649,34.309515 L61.8098333,33.9818884 C61.7351219,33.8485843 61.6562708,33.6428483 61.6562708,33.6428483 C61.6562708,33.6428483 61.5815594,33.8485843 61.5066509,33.9818884" id="Fill-3" fill="#816C49"></path>
                    <g id="Group-7" transform="translate(55.603162, 27.492260)">
                        <mask id="mask-2" fill="white">
                            <use xlink:href="#path-1"></use>
                        </mask>
                        <g id="Clip-5"></g>
                        <path d="M8.57313933,9.73625831 C8.49788276,9.54942921 8.32159681,9.48385688 8.14788815,9.5556742 C7.97417949,9.62645068 7.88294378,9.80287147 7.95716944,9.99022098 C8.03087964,10.1702847 8.22056744,10.2368978 8.39530702,10.1661214 C8.56850023,10.0953449 8.64684954,9.91684242 8.57313933,9.73625831" id="Fill-4" fill="#816C49" mask="url(#mask-2)"></path>
                        <path d="M10.9896478,6.63962848 L10.9896478,7.17089783 L10.6567752,7.17089783 L10.6567752,6.66315789 L10.0476283,5.57250774 L10.4135891,5.57250774 L10.6969538,6.0873065 C10.758279,6.20012384 10.8266945,6.39058824 10.8266945,6.39058824 C10.8266945,6.39058824 10.8903831,6.20235294 10.9518327,6.0873065 L11.2233801,5.57250774 L11.5609797,5.57250774 L10.9896478,6.63962848 Z M9.93841221,5.86154799 L9.48027698,5.86154799 L9.48027698,7.17089783 L9.1497678,7.17089783 L9.1497678,5.86154799 L8.69163257,5.86154799 L8.69163257,5.57250774 L9.93841221,5.57250774 L9.93841221,5.86154799 Z M8.55728936,3.51876161 L9.17377543,2.7469969 L9.68676747,3.15306502 L9.57531236,3.29275542 L9.22179069,3.0130031 L9.0259979,3.25820433 L9.33735073,3.50452012 L9.22838346,3.64074303 L8.91715502,3.39442724 L8.82833923,3.50563467 L9.19778306,3.79801858 L9.08632795,3.93758514 L8.55728936,3.51876161 Z M8.26683437,10.2300929 C8.0828588,10.304644 7.90423209,10.2485449 7.83967271,10.0912693 C7.79451847,9.98080495 7.83171163,9.88260062 7.91045168,9.80978328 C7.84564352,9.80173375 7.78319881,9.77213622 7.75222523,9.69671827 C7.71092713,9.59591331 7.75894239,9.45102167 7.9223933,9.38464396 C8.08721252,9.3177709 8.21919228,9.38972136 8.26049038,9.49052632 C8.29133956,9.56594427 8.26870024,9.62996904 8.2281485,9.68099071 C8.33562307,9.67826625 8.42966331,9.72321981 8.47481756,9.83356037 C8.53925254,9.99095975 8.45342216,10.1544272 8.26683437,10.2300929 Z M7.04306723,10.6557276 C6.8645649,10.6707121 6.75074635,10.5872446 6.70186035,10.4922601 L6.86580882,10.3925697 C6.89242868,10.4473065 6.93845367,10.4899071 7.02540358,10.4826006 C7.10974126,10.4755418 7.15414916,10.4134985 7.14792957,10.3398142 C7.14108801,10.2604334 7.08436533,10.2099071 6.98410548,10.2182043 C6.89715557,10.2256347 6.83769626,10.2669969 6.79714452,10.3052632 L6.7791077,10.2994427 L6.73445102,9.77213622 L7.22791353,9.73065015 L7.24159664,9.8923839 L6.91058989,9.92037152 L6.92414861,10.0791331 C6.94193664,10.06613 6.98472744,10.0522601 7.0282646,10.0486687 C7.21124502,10.0334365 7.34297601,10.1576471 7.35715668,10.323839 C7.37071539,10.4855728 7.27393852,10.6364087 7.04306723,10.6557276 Z M6.33652145,7.17089783 L6.2608912,6.98996904 L5.60920223,6.98996904 L5.53357198,7.17089783 L5.21488003,7.17089783 L5.92080385,5.55839009 L5.94916519,5.55839009 L6.68357475,7.17089783 L6.33652145,7.17089783 Z M6.29435261,10.0440867 C6.27283282,10.1508359 6.21387107,10.2219195 6.11423319,10.3159133 L5.84380529,10.5710217 L5.6264927,10.5271827 L5.85462738,10.3124458 C5.897045,10.2721981 5.96235073,10.243839 5.96235073,10.243839 C5.9276454,10.2531269 5.89978162,10.2578328 5.85835913,10.2495356 C5.7013766,10.2179567 5.59850453,10.0860681 5.63333425,9.91541796 C5.67114938,9.72904025 5.84156623,9.64470588 6.02317835,9.68136223 C6.20317337,9.71764706 6.33241652,9.85770898 6.29435261,10.0440867 Z M5.02878981,10.1743653 L4.84891917,10.0878019 L5.10889816,9.55195046 L4.97754036,9.48891641 L5.0486925,9.34266254 L5.35979655,9.49201238 L5.02878981,10.1743653 Z M4.49166575,7.1920743 C4.12122678,7.1920743 3.84022556,6.99690402 3.84022556,6.59256966 L3.84022556,5.57250774 L4.17061035,5.57250774 L4.17061035,6.57374613 C4.17061035,6.80656347 4.2722385,6.89585139 4.49166575,6.89585139 C4.70897833,6.89585139 4.80811864,6.80656347 4.80811864,6.57374613 L4.80811864,5.57250774 L5.13862782,5.57250774 L5.13862782,6.59256966 C5.13862782,6.99690402 4.857751,7.1920743 4.49166575,7.1920743 Z M3.90727278,2.98427245 C4.00753262,2.90278638 4.10853881,2.87888545 4.23492094,2.92780186 L4.17633238,3.10625387 C4.10965834,3.08 4.06450409,3.08482972 4.01959863,3.12136223 C3.97332486,3.15888545 3.96772722,3.21213622 3.99907397,3.2501548 C4.03775984,3.2974613 4.08278969,3.29275542 4.17434211,3.26687307 L4.22783061,3.25164087 C4.40894516,3.2 4.53246628,3.1971517 4.64018963,3.32854489 C4.75624724,3.47021672 4.70798319,3.63851393 4.55771782,3.76049536 C4.41105982,3.87962848 4.25905296,3.88668731 4.13826847,3.83331269 L4.20631081,3.654613 C4.28529965,3.68235294 4.36229821,3.68693498 4.44029191,3.62365325 C4.50584642,3.57052632 4.52089783,3.50414861 4.48407784,3.45907121 C4.43991873,3.40520124 4.38133016,3.42080495 4.28330938,3.44804954 L4.22994527,3.46328173 C4.07632132,3.5076161 3.95105871,3.50823529 3.84607198,3.38006192 C3.7494195,3.2619195 3.76608801,3.09894737 3.90727278,2.98427245 Z M3.60301028,7.20136223 L3.38370743,7.3825387 L3.14512384,7.10972136 C3.03404191,7.16148607 2.90890369,7.1920743 2.7743117,7.1920743 C2.31169836,7.1920743 1.94349845,6.84408669 1.94349845,6.37176471 C1.94349845,5.89919505 2.31169836,5.55145511 2.7743117,5.55145511 C3.23717382,5.55145511 3.60549812,5.89919505 3.60549812,6.37176471 C3.60549812,6.59962848 3.52041409,6.79962848 3.37885615,6.94513932 L3.60301028,7.20136223 Z M5.05963899,2.31479876 L5.45122457,3.22216718 L5.26339286,3.30229102 L4.87205606,2.3949226 L5.05963899,2.31479876 Z M5.8924425,2.04866873 L6.43528859,2.46650155 C6.48740878,2.5069969 6.56428295,2.58996904 6.56428295,2.58996904 C6.56428295,2.58996904 6.54039971,2.48 6.53380694,2.41188854 L6.49437472,2.00012384 L6.68444549,1.9819195 L6.77985405,2.97325077 L6.75945378,2.97535604 L6.21685648,2.55739938 C6.16287041,2.51578947 6.08624502,2.43430341 6.08624502,2.43430341 C6.08624502,2.43430341 6.11137218,2.54117647 6.11808934,2.61201238 L6.15777034,3.02390093 L5.9674508,3.04198142 L5.87216663,2.05065015 L5.8924425,2.04866873 Z M6.86120632,5.57250774 L7.19159111,5.57250774 L7.19159111,6.88185759 L7.91891033,6.88185759 L7.91891033,7.17089783 L6.86120632,7.17089783 L6.86120632,5.57250774 Z M8.1532646,7.17077399 L8.48377377,7.17077399 L8.48377377,5.57250774 L8.1532646,5.57250774 L8.1532646,7.17077399 Z M7.41524768,2.53374613 C7.50132685,2.25498452 7.78033779,2.1171517 8.05176084,2.20024768 C8.22317282,2.25287926 8.32691563,2.35133127 8.37119914,2.50897833 L8.18958702,2.56891641 C8.16744527,2.48309598 8.10649326,2.40842105 7.99789916,2.37510836 C7.82661157,2.32260062 7.670251,2.41919505 7.61564297,2.59517028 C7.56153251,2.77126935 7.63542127,2.94117647 7.80683326,2.99368421 C7.92960803,3.03120743 8.0155628,2.99380805 8.09343211,2.92965944 L8.21322147,3.08012384 C8.09156623,3.18266254 7.93582762,3.22303406 7.75346915,3.16718266 C7.48154854,3.08408669 7.32904412,2.81250774 7.41524768,2.53374613 Z M12.8118642,5.67851393 C12.9187168,5.52557276 12.9815347,5.33956656 12.9815347,5.13882353 C12.9815347,4.73721362 12.7300144,4.39393189 12.375,4.25684211 C12.4242592,4.14278638 12.4512522,4.01708978 12.4512522,3.88495356 C12.4512522,3.39752322 12.0808132,2.99616099 11.6047656,2.94489164 C11.6093681,2.9069969 11.6117315,2.86835913 11.6117315,2.82934985 C11.6117315,2.3069969 11.1863114,1.88346749 10.6617509,1.88346749 C10.5695765,1.88346749 10.4806363,1.89659443 10.396423,1.92086687 C10.3965474,1.91578947 10.3966718,1.91058824 10.3966718,1.90551084 C10.3966718,1.38303406 9.97125166,0.959628483 9.44644239,0.959628483 C9.29431115,0.959628483 9.15051415,0.995294118 9.02313689,1.05857585 C8.89799867,0.681733746 8.5413672,0.409659443 8.12092271,0.409659443 C7.87873176,0.409659443 7.65756303,0.49993808 7.4898828,0.648544892 L7.4898828,0.648421053 C7.45331159,0.564829721 7.40504755,0.487430341 7.34683215,0.418452012 L7.34670776,0.418452012 C7.3324027,0.40123839 7.31735128,0.384520124 7.30167791,0.368421053 L7.30130473,0.368173375 C7.28575575,0.352074303 7.26946042,0.336594427 7.2529163,0.321733746 C7.25254312,0.321486068 7.25229434,0.32123839 7.25204556,0.320990712 C7.24420887,0.31380805 7.235999,0.306749226 7.22754036,0.29993808 C7.22729157,0.299690402 7.2269184,0.299442724 7.22666962,0.299071207 C7.21821097,0.292136223 7.20975232,0.285201238 7.2009205,0.278513932 C7.20054732,0.278142415 7.20017415,0.277894737 7.19992536,0.277647059 C7.19146672,0.27120743 7.18325686,0.26501548 7.17467382,0.258947368 C7.17405186,0.258452012 7.1734299,0.257956656 7.17280794,0.257337461 C7.16385172,0.251145511 7.1550199,0.24495356 7.14606369,0.239009288 C7.14544173,0.238637771 7.14481977,0.238266254 7.1443222,0.237894737 C7.13598795,0.232321981 7.12740491,0.226873065 7.11882187,0.221547988 C7.11770234,0.220928793 7.1168316,0.220309598 7.11583647,0.219566563 C7.10675586,0.213993808 7.09742647,0.208668731 7.08809708,0.203343653 C7.08735073,0.202972136 7.08672877,0.202600619 7.08598242,0.202229102 C7.07739938,0.197399381 7.06894073,0.192693498 7.06010891,0.188111455 C7.0587406,0.187368421 7.0572479,0.186625387 7.05587959,0.185882353 C7.0465502,0.181052632 7.03722081,0.176346749 7.02764264,0.171764706 C7.02689628,0.171393189 7.02590115,0.171021672 7.02503041,0.170650155 C7.01632298,0.166563467 7.00773994,0.162600619 6.99865933,0.15876161 C6.99716663,0.158018576 6.99542514,0.157151703 6.99355927,0.156408669 C6.98398109,0.152321981 6.97427853,0.148359133 6.96457596,0.144520124 C6.96358083,0.144148607 6.96271008,0.143900929 6.96183934,0.143529412 C6.95288313,0.14006192 6.9440513,0.136842105 6.9349707,0.133498452 C6.93285604,0.132879257 6.93086577,0.132260062 6.92899989,0.131517028 C6.91917293,0.128173375 6.90922158,0.124829721 6.89927023,0.121733746 C6.8982751,0.121486068 6.89740436,0.12123839 6.89628483,0.120990712 C6.88732862,0.118018576 6.87812362,0.115541796 6.86879423,0.112941176 C6.86667957,0.11244582 6.86431612,0.111826625 6.86220146,0.11120743 C6.85212572,0.108606811 6.84192559,0.106006192 6.83172545,0.10377709 C6.83085471,0.103529412 6.82998397,0.103281734 6.82898883,0.103157895 C6.81965944,0.101052632 6.81033005,0.0990712074 6.80075188,0.0972136223 C6.79813965,0.0967182663 6.79577621,0.0963467492 6.79328837,0.0958513932 C6.78308824,0.093869969 6.77263932,0.0921362229 6.7621904,0.0905263158 C6.76144405,0.0904024768 6.7606977,0.0904024768 6.76007574,0.0902786378 C6.75024878,0.0887925697 6.74042183,0.0875541796 6.73059487,0.0864396285 C6.72810703,0.0860681115 6.72537041,0.0858204334 6.72288257,0.0854489164 C6.71230927,0.0843343653 6.70173596,0.0833436533 6.69116265,0.0824767802 L6.68979434,0.0824767802 C6.67959421,0.0816099071 6.66926968,0.0811145511 6.65906955,0.0807430341 C6.65620854,0.080619195 6.65359631,0.080495356 6.65073529,0.080371517 C6.64003759,0.08 6.62933989,0.079752322 6.6185178,0.079752322 C6.60757132,0.079752322 6.59687362,0.08 6.58605153,0.080371517 C6.58319051,0.080495356 6.58045389,0.080619195 6.57784166,0.0807430341 C6.56764153,0.0811145511 6.55731701,0.0816099071 6.54699248,0.0824767802 L6.54574856,0.0824767802 C6.53517525,0.0833436533 6.52460195,0.0843343653 6.51402864,0.0854489164 C6.51129202,0.0858204334 6.50880418,0.0860681115 6.50606756,0.0864396285 C6.4962406,0.0875541796 6.48641364,0.0887925697 6.47658669,0.0902786378 C6.47596473,0.0904024768 6.47521838,0.0904024768 6.47521838,0.0904024768 C6.46402311,0.0921362229 6.45369858,0.093869969 6.44337406,0.0958513932 C6.44101061,0.0963467492 6.43852278,0.0967182663 6.43615933,0.0972136223 C6.42670555,0.0990712074 6.41725177,0.101052632 6.4076736,0.103157895 C6.40692724,0.103281734 6.4060565,0.103529412 6.40518576,0.10377709 C6.39498563,0.106006192 6.38478549,0.108606811 6.37483414,0.11120743 C6.37234631,0.111826625 6.37023165,0.11244582 6.3678682,0.112941176 C6.35878759,0.115541796 6.3495826,0.118018576 6.3403776,0.120990712 C6.33950686,0.12123839 6.33863611,0.121486068 6.33764098,0.121733746 C6.32768963,0.124829721 6.31773828,0.128173375 6.30791132,0.131517028 C6.30579666,0.132260062 6.30380639,0.132879257 6.30194051,0.133498452 C6.29285991,0.136842105 6.2837793,0.14006192 6.27507187,0.143529412 C6.27395234,0.143900929 6.2730816,0.144148607 6.27221086,0.144520124 C6.2623839,0.148359133 6.25268134,0.152321981 6.24310316,0.156408669 C6.24136168,0.157151703 6.23974458,0.158018576 6.2380031,0.15876161 C6.22917127,0.162600619 6.22046384,0.166563467 6.21163202,0.170650155 C6.21076128,0.171021672 6.21001493,0.171393189 6.20926858,0.171764706 C6.1996904,0.176346749 6.19011223,0.181052632 6.18078284,0.185882353 C6.17941453,0.186625387 6.17817061,0.187368421 6.17667791,0.188111455 C6.16797048,0.192693498 6.15926305,0.197399381 6.15068001,0.202229102 C6.14993366,0.202600619 6.1493117,0.202972136 6.14856535,0.203343653 C6.13923596,0.208668731 6.13003096,0.213993808 6.12107475,0.219566563 C6.12007961,0.220309598 6.11896008,0.220928793 6.11796495,0.221547988 C6.10938191,0.226873065 6.10092326,0.232321981 6.09234023,0.237894737 C6.09184266,0.238266254 6.0912207,0.238637771 6.09084752,0.239009288 C6.08164253,0.24495356 6.0729351,0.251145511 6.06410327,0.257337461 C6.06348131,0.257956656 6.06273496,0.258452012 6.06198861,0.258947368 C6.05365436,0.26501548 6.04519571,0.27120743 6.03698585,0.277647059 C6.03648828,0.277894737 6.0361151,0.278142415 6.03574193,0.278513932 C6.02715889,0.285201238 6.01845146,0.292136223 6.00999281,0.299071207 C6.00974403,0.299442724 6.00937085,0.299690402 6.00912207,0.29993808 C6.00091221,0.306749226 5.99257795,0.31380805 5.98474126,0.320990712 C5.98436809,0.32123839 5.98411931,0.321486068 5.98387052,0.321733746 C5.96720201,0.336594427 5.95103107,0.352074303 5.93548209,0.368049536 L5.9353577,0.368297214 C5.91968432,0.384520124 5.90450851,0.40123839 5.88995467,0.418328173 L5.88983027,0.418452012 C5.83186367,0.487430341 5.78359962,0.564829721 5.74702842,0.648421053 L5.74702842,0.648544892 C5.5790994,0.49993808 5.35817946,0.409659443 5.1159885,0.409659443 C4.69554401,0.409659443 4.33891254,0.681733746 4.21377433,1.05857585 C4.08614828,0.995294118 3.94235128,0.959628483 3.79022004,0.959628483 C3.26565955,0.959628483 2.84023939,1.38303406 2.84023939,1.90551084 C2.84023939,1.91058824 2.84036378,1.91578947 2.84048817,1.92086687 C2.75627488,1.89659443 2.66708591,1.88346749 2.57516033,1.88346749 C2.05035106,1.88346749 1.62493089,2.3069969 1.62493089,2.82934985 C1.62493089,2.86835913 1.62754312,2.9069969 1.63214562,2.94489164 C1.15609797,2.99616099 0.785410217,3.39752322 0.785410217,3.88495356 C0.785410217,4.01708978 0.812652034,4.14278638 0.861662428,4.25684211 C0.506896838,4.39393189 0.255127709,4.73721362 0.255127709,5.13882353 C0.255127709,5.33956656 0.317945599,5.52557276 0.425046992,5.67851393 C0.175765701,5.84904025 0.0120660106,6.13486068 0.0120660106,6.45869969 C0.0120660106,6.70130031 0.103991597,6.92260062 0.254754533,7.09003096 C0.130362671,7.24990712 0.0563495135,7.45040248 0.0563495135,7.66848297 C0.0563495135,7.98575851 0.213332043,8.26662539 0.454154688,8.43814241 C0.511001769,8.47863777 0.572451349,8.51306502 0.637757077,8.54043344 C1.42192337,8.9780805 4.45310427,10.6770279 4.45310427,10.7919505 C4.45310427,10.9239628 4.44215778,11.8367802 4.65188246,12.0458204 C4.86198032,12.2547368 5.66828837,12.1557895 5.91135007,12.1557895 C6.15428737,12.1557895 6.33104821,12.5077399 6.6185178,12.5077399 C6.90561422,12.5077399 7.08237506,12.1557895 7.32531236,12.1557895 C7.56837406,12.1557895 8.37493089,12.2547368 8.58477996,12.0458204 C8.79475343,11.8367802 8.78355816,10.9239628 8.78355816,10.7919505 C8.78355816,10.6770279 11.8147391,8.9780805 12.5991541,8.54043344 C12.6642111,8.51306502 12.7257851,8.47863777 12.7826321,8.43814241 C13.0235792,8.26662539 13.1805617,7.98575851 13.1805617,7.66848297 C13.1805617,7.45040248 13.1064241,7.24990712 12.9820323,7.09003096 C13.1329196,6.92260062 13.2245964,6.70130031 13.2245964,6.45869969 C13.2245964,6.13486068 13.0611455,5.84904025 12.8118642,5.67851393 L12.8118642,5.67851393 Z" id="Fill-6" fill="#816C49" mask="url(#mask-2)"></path>
                    </g>
                    <path d="M63.8258016,37.3295579 C63.6341159,37.4078433 63.5769144,37.5976169 63.6447651,37.7663722 C63.7138328,37.9351275 63.8820903,38.0170682 64.0737761,37.9387828 C64.2651576,37.8604974 64.3287486,37.6841268 64.2602894,37.5153715 C64.1912216,37.3469208 64.0177917,37.2515771 63.8258016,37.3295579" id="Fill-8" fill="#816C49"></path>
                    <path d="M58.7742841,34.2 L58.5711521,33.9673065 L58.3493615,34.1483591 L58.5405517,34.366935 C58.4909194,34.3834056 58.4366845,34.3904644 58.377474,34.3904644 C58.08478,34.3904644 57.8864993,34.1624768 57.8864993,33.8640248 C57.8864993,33.5654489 58.08478,33.3374613 58.377474,33.3374613 C58.6702925,33.3374613 58.8686975,33.5654489 58.8686975,33.8640248 C58.8686975,33.9980186 58.8356092,34.113065 58.7742841,34.2 Z M58.377474,33.0437152 C57.9148607,33.0437152 57.5466608,33.3914551 57.5466608,33.8640248 C57.5466608,34.3363467 57.9148607,34.6843344 58.377474,34.6843344 C58.512066,34.6843344 58.6372042,34.6537461 58.7482862,34.6019814 L58.9868697,34.8747988 L59.2061726,34.6936223 L58.9820185,34.4373994 C59.1235764,34.2918885 59.2086604,34.0918885 59.2086604,33.8640248 C59.2086604,33.3914551 58.8403361,33.0437152 58.377474,33.0437152 L58.377474,33.0437152 Z" id="Fill-9" fill="#FFFFFE"></path>
                    <path d="M60.7417901,34.0848297 L60.7417901,33.0647678 L60.411281,33.0647678 L60.411281,34.0660062 C60.411281,34.2988235 60.3121406,34.3881115 60.0948281,34.3881115 C59.8754008,34.3881115 59.7737727,34.2988235 59.7737727,34.0660062 L59.7737727,33.0647678 L59.4433879,33.0647678 L59.4433879,34.0848297 C59.4433879,34.4891641 59.7243891,34.6843344 60.0948281,34.6843344 C60.4609133,34.6843344 60.7417901,34.4891641 60.7417901,34.0848297" id="Fill-10" fill="#FFFFFE"></path>
                    <path d="M61.7458812,34.2070588 L61.3233221,34.2070588 L61.4390065,33.9297833 C61.4862754,33.8169659 61.5334199,33.6428483 61.5334199,33.6428483 C61.5334199,33.6428483 61.5831767,33.8169659 61.6303212,33.9297833 L61.7458812,34.2070588 Z M61.5239662,33.0506502 L60.8180423,34.6631579 L61.1367343,34.6631579 L61.2123646,34.4822291 L61.8640535,34.4822291 L61.9396838,34.6631579 L62.2867371,34.6631579 L61.5523275,33.0506502 L61.5239662,33.0506502 L61.5239662,33.0506502 Z" id="Fill-11" fill="#FFFFFE"></path>
                    <polyline id="Fill-12" fill="#FFFFFE" points="63.5220726 34.3741176 62.7947534 34.3741176 62.7947534 33.0647678 62.4643686 33.0647678 62.4643686 34.6631579 63.5220726 34.6631579 63.5220726 34.3741176"></polyline>
                    <polygon id="Fill-13" fill="#FFFFFE" points="63.7564269 34.6630341 64.4260698 34.6630341 64.4260698 33.0647678 63.7564269 33.0647678"></polygon>
                    <polyline id="Fill-14" fill="#FFFFFE" points="64.2947949 33.353808 64.7529301 33.353808 64.7529301 34.6631579 65.0834393 34.6631579 65.0834393 33.353808 65.5415745 33.353808 65.5415745 33.0647678 64.2947949 33.0647678 64.2947949 33.353808"></polyline>
                    <path d="M66.554995,33.5795666 C66.4935454,33.694613 66.4298568,33.8828483 66.4298568,33.8828483 C66.4298568,33.8828483 66.3614413,33.6923839 66.3001161,33.5795666 L66.0167514,33.0647678 L65.6507906,33.0647678 L66.2599375,34.155418 L66.2599375,34.6631579 L66.5928102,34.6631579 L66.5928102,34.1318885 L67.164142,33.0647678 L66.8265425,33.0647678 L66.554995,33.5795666" id="Fill-15" fill="#FFFFFE"></path>
                    <path d="M59.8331076,30.9555418 L59.8864717,30.9403096 C59.9844925,30.913065 60.043081,30.8974613 60.0872402,30.9513313 C60.1240602,30.9964087 60.1090087,31.0627864 60.0434542,31.1159133 C59.9654605,31.179195 59.888462,31.174613 59.8094731,31.1468731 L59.7414308,31.3255728 C59.8622153,31.3789474 60.0142221,31.3718885 60.1608801,31.2527554 C60.3111455,31.130774 60.3594096,30.9624768 60.2433519,30.820805 C60.1356286,30.6894118 60.0121075,30.6922601 59.8309929,30.7439009 L59.7775044,30.7591331 C59.685952,30.7850155 59.6409222,30.7897214 59.6022363,30.7424149 C59.5708895,30.7043963 59.5764872,30.6511455 59.6227609,30.6136223 C59.6676664,30.5770898 59.7128207,30.5722601 59.7794947,30.5985139 L59.8380833,30.4200619 C59.7117011,30.3711455 59.6106949,30.3950464 59.5104351,30.4765325 C59.3692503,30.5912074 59.3525818,30.7541796 59.4492343,30.872322 C59.554221,31.0004954 59.6794836,30.9998762 59.8331076,30.9555418" id="Fill-16" fill="#FFFFFE"></path>
                    <polyline id="Fill-17" fill="#FFFFFE" points="61.1448612 30.7144272 60.6921044 29.8070588 60.4752184 29.8871827 60.9276875 30.7945511 61.1448612 30.7144272"></polyline>
                    <path d="M61.7609327,30.516161 L61.7212517,30.1042724 C61.7145345,30.0334365 61.6894073,29.9265635 61.6894073,29.9265635 C61.6894073,29.9265635 61.7660327,30.0080495 61.8200188,30.0496594 L62.3626161,30.4676161 L62.3830164,30.4655108 L62.2876078,29.4741796 L62.097537,29.4923839 L62.1369693,29.9041486 C62.143562,29.9722601 62.1674453,30.0822291 62.1674453,30.0822291 C62.1674453,30.0822291 62.0905711,29.999257 62.0384509,29.9587616 L61.4956048,29.5409288 L61.4753289,29.5429102 L61.5706131,30.5342415 L61.7609327,30.516161" id="Fill-18" fill="#FFFFFE"></path>
                    <path d="M63.3566315,30.6594427 C63.5389899,30.7152941 63.6947285,30.6749226 63.8163838,30.5723839 L63.6965944,30.4219195 C63.6187251,30.4860681 63.5327703,30.5234675 63.4099956,30.4859443 C63.2385836,30.4334365 63.1646948,30.2635294 63.2188053,30.0874303 C63.2734133,29.9114551 63.4297739,29.8148607 63.6010615,29.8673684 C63.7096556,29.9006811 63.7706076,29.975356 63.7927493,30.0611765 L63.9743615,30.0012384 C63.930078,29.8435913 63.8263351,29.7451393 63.6549232,29.6925077 C63.3835001,29.6094118 63.1044892,29.7472446 63.01841,30.0260062 C62.9322064,30.3047678 63.0847109,30.5763467 63.3566315,30.6594427" id="Fill-19" fill="#FFFFFE"></path>
                    <polyline id="Fill-20" fill="#FFFFFE" points="64.8009454 31.2902786 64.4315015 30.9978947 64.5203173 30.8866873 64.8315458 31.1330031 64.940513 30.9967802 64.6291602 30.7504644 64.824953 30.5052632 65.1784747 30.7850155 65.2899298 30.6453251 64.7769377 30.239257 64.1604517 31.0110217 64.6894903 31.4298452 64.8009454 31.2902786"></polyline>
                    <polyline id="Fill-21" fill="#FFFFFE" points="60.6206743 36.9811765 60.7928542 37.0442105 60.4520815 37.5800619 60.6878506 37.6666254 61.1217243 36.9842724 60.7139384 36.8349226 60.6206743 36.9811765"></polyline>
                    <path d="M61.9261739,37.5390366 C61.9055199,37.6151557 61.8147899,37.6738997 61.6897595,37.6550078 C61.5647291,37.636116 61.5114344,37.5554463 61.5320884,37.4793273 C61.552558,37.4033462 61.6436568,37.3444643 61.7686872,37.363494 C61.893902,37.3823859 61.9470123,37.4629176 61.9261739,37.5390366 Z M61.8177404,37.1745754 C61.5485009,37.133758 61.2958584,37.2276657 61.2397976,37.4352003 C61.1881626,37.6252221 61.3406702,37.7720822 61.5733964,37.8072459 C61.6348051,37.816485 61.6761131,37.8112449 61.7275636,37.8009026 C61.7275636,37.8009026 61.6307481,37.832481 61.5678641,37.8772974 L61.229655,38.1164105 L61.5518203,38.1652259 L61.952729,37.8811586 C62.1004419,37.7764949 62.1878525,37.6973421 62.2197555,37.5784751 C62.2761852,37.3709404 62.0845826,37.2149792 61.8177404,37.1745754 L61.8177404,37.1745754 Z" id="Fill-22" fill="#FFFFFE"></path>
                    <path d="M62.6379408,37.5409288 C62.5935348,37.5445201 62.5498901,37.5583901 62.5317471,37.5713932 L62.5179178,37.4126316 L62.8555303,37.384644 L62.8415741,37.2229102 L62.3382637,37.2643963 L62.3838116,37.7917028 L62.4022084,37.7975232 C62.4435694,37.759257 62.5042153,37.7178947 62.5929005,37.7104644 C62.6951612,37.7021672 62.7530158,37.7526935 62.7599939,37.8320743 C62.7663376,37.9057585 62.7210435,37.9678019 62.6350227,37.9748607 C62.5463376,37.9821672 62.4993941,37.9395666 62.472243,37.8848297 L62.3050227,37.9845201 C62.3548843,38.0795046 62.4709743,38.1629721 62.6530389,38.1479876 C62.8885176,38.1286687 62.9872258,37.9778328 62.9733965,37.8160991 C62.9589328,37.6499071 62.824573,37.5256966 62.6379408,37.5409288" id="Fill-23" fill="#FFFFFE"></path>
                    <path d="M63.9517503,37.6362191 C63.8483428,37.6714238 63.7575741,37.6345753 63.7203145,37.5586866 C63.6837116,37.4827979 63.7145697,37.3974573 63.8179771,37.3622526 C63.9215488,37.3271849 64.0151079,37.3700607 64.0523674,37.4458124 C64.0892987,37.5217011 64.0549936,37.6010144 63.9517503,37.6362191 Z M63.6042684,37.1592434 C63.5806324,37.1099294 63.609685,37.0634921 63.6649997,37.0448624 C63.7203145,37.0259587 63.77645,37.0432186 63.8004143,37.0923956 C63.8238861,37.1399288 63.798937,37.186914 63.7437864,37.2055438 C63.6881433,37.2241735 63.6277402,37.2066396 63.6042684,37.1592434 Z M63.9878609,37.2074615 C64.0413701,37.1510244 64.0712434,37.0802041 64.030537,36.9967813 C63.9760429,36.8852769 63.8018915,36.8056896 63.5844076,36.8796606 C63.3687291,36.9530836 63.3053715,37.113354 63.3598656,37.2248584 C63.4007362,37.3082812 63.4831339,37.3410202 63.5686502,37.3499241 C63.4647504,37.4304703 63.4156728,37.539098 63.4752552,37.6612871 C63.5604433,37.8352558 63.7961467,37.8973092 64.038908,37.8148453 C64.2851163,37.7311485 64.3983721,37.5503306 64.3133482,37.3762249 C64.2537658,37.2541728 64.1296768,37.2044479 63.9878609,37.2074615 L63.9878609,37.2074615 Z" id="Fill-24" fill="#FFFFFE"></path>
                    <g id="Group-30">
                        <mask id="mask-4" fill="white">
                            <use xlink:href="#path-3"></use>
                        </mask>
                        <g id="Clip-26"></g>
                        <path d="M44.2663368,15.4610526 C44.144184,15.0548607 43.8776122,14.9571517 43.3417321,14.8511455 C42.8058519,14.7452632 42.4632768,15.1670588 42.3084089,16.2954799 C42.0920914,17.8707121 41.5402891,22.7133127 40.8464313,22.8707121 C40.3173927,22.9910836 40.1264512,20.3889783 39.9739468,19.1313932 C39.821318,17.8735604 39.7346169,16.7083591 39.5771368,15.9879876 C39.4197811,15.2673684 39.1117868,15.0549845 38.5756579,14.9580186 C38.0937638,14.8710836 37.5863694,14.9873684 37.5863694,14.9873684 C37.5863694,14.9873684 37.8449801,16.3072446 37.9505888,18.6962229 C38.0561975,21.0852012 38.2638075,24.8998142 40.6377018,24.7728793 C42.407798,24.6783901 43.1119803,22.254613 43.1119803,22.254613 C43.1119803,22.254613 43.5571788,27.9201238 43.6783365,30.0703406 C43.7994941,32.2199381 43.6535825,35.2134985 43.5077952,35.566935 C43.362008,35.9202477 43.8335775,36.6505263 44.2473048,36.3502167 C44.6610322,36.0497833 45.7591635,35.4125077 45.8539501,33.8052012 C45.9487367,32.1976471 45.4203201,25.5413003 44.8911571,21.3847678 C44.3621185,17.2283591 44.3884896,15.8673684 44.2663368,15.4610526" id="Fill-25" fill="#FFFFFF" mask="url(#mask-4)"></path>
                        <path d="M11.7863777,17.1710217 C11.7631164,17.0227864 11.6769129,16.8884211 11.5754091,16.780805 C11.4112119,16.606935 11.2171605,16.4497833 11.0340557,16.2982043 C10.9508376,16.2291022 10.773828,16.101548 10.6738169,16.229226 C10.2594676,16.7583901 8.72845257,18.8891641 7.28177521,23.1593808 C6.36003151,25.8802477 6.04768355,27.680743 6.04768355,27.680743 C6.04768355,27.680743 4.69927576,23.8058204 4.09348739,22.0579567 C3.45610349,20.219195 2.83414418,18.7788235 2.63499281,18.4148607 C2.27761499,17.7622291 1.55153969,17.5810526 1.22003538,17.5604954 C0.526550752,17.5175232 -0.204749005,17.8070588 0.0528665414,18.2747988 C0.310482088,18.7421672 1.72817614,22.7103406 2.65004423,25.036161 C3.57191232,27.3622291 4.7552521,30.7626006 4.95539861,31.2918885 C5.15542072,31.8210526 5.94530904,32.3181424 6.41936643,32.180805 C6.89342382,32.0432198 7.10675586,31.846192 7.40840613,30.3432817 C7.67261444,29.0262539 8.17888932,26.0471827 9.22527366,23.055356 C10.251009,20.1229721 11.3886969,18.5318885 11.7117426,17.5913313 C11.7570212,17.4595666 11.8083951,17.3118266 11.7863777,17.1710217" id="Fill-27" fill="#FFFFFF" mask="url(#mask-4)"></path>
                        <path d="M56.7806557,15.8011146 C56.6718128,16.7595046 56.5337378,17.7291641 56.0253483,18.6242724 C55.0797214,20.2890402 54.0287345,21.4647678 53.4535466,21.1559133 C52.9024906,20.8601858 53.5696042,18.7177709 54.3765342,17.3845201 C55.1501272,16.1062539 56.0918979,15.1296594 56.8266807,14.9956656 C56.8240684,15.2459443 56.813122,15.5162848 56.7806557,15.8011146 Z M74.5996655,9.50513932 C74.3487671,9.63157895 72.7161239,10.1181424 70.9598352,11.6969659 C69.3683658,13.1273065 68.312652,15.1940557 68.312652,15.1940557 C68.312652,15.1940557 68.2716027,14.3429102 68.206919,13.5356037 C68.1419864,12.7285449 67.8298872,12.4565944 67.4588263,12.3048916 C67.087641,12.1531889 66.5447949,12.0755418 66.3190237,12.1133127 C66.093128,12.1512074 65.7565237,12.1409288 65.8576542,12.5017957 C65.9587848,12.8626625 66.2691425,15.8916409 66.2068222,17.9025387 C66.1443775,19.9135604 65.8475785,21.5147988 64.9449912,21.6435913 C64.0422794,21.7723839 63.8433768,19.323096 63.727568,18.1619814 C63.6117592,17.000743 63.6091469,14.7362229 63.556156,13.5493498 C63.5029163,12.3622291 62.2862395,12.4813622 62.0393216,12.473808 C61.7925282,12.46613 61.40965,12.5052632 61.4210941,12.8634056 C61.4325381,13.2216718 61.5004561,15.1323839 61.3540469,17.909969 C61.2139816,20.566935 60.4968626,22.3778328 60.0180783,22.3629721 C59.5825824,22.3495975 58.9813965,21.4901548 58.8390922,18.6377709 C58.7419422,16.6859443 58.775528,15.1732508 58.7708011,14.6630341 C58.8526509,14.465387 58.9004174,14.280743 58.8787732,14.180805 C58.7778914,13.719257 58.6355871,13.0860681 57.2104296,12.9586378 C55.5104904,12.8065635 53.4853909,14.713065 52.2259233,17.3801858 C50.9543897,20.0724458 51.0321346,22.5622291 52.6958757,23.0018576 C55.085941,23.633065 56.9132574,20.7322601 56.9132574,20.7322601 C56.9132574,20.7322601 57.0693692,21.8251393 57.8813993,22.6849536 C58.548264,23.3913313 59.4690126,23.661548 60.3673706,23.6559752 C61.9850868,23.6460681 62.4264291,21.7227245 62.4264291,21.7227245 C62.4264291,21.7227245 63.0410493,22.9066254 64.5204417,23.0173375 C66.0446152,23.1312693 66.6846113,22.0548607 66.6846113,22.0548607 C66.6846113,22.0548607 67.0902532,22.42613 67.7977941,22.3798142 C68.4956325,22.3342415 68.6181584,22.0024768 68.627861,21.6896594 C68.6375636,21.3769659 68.5161571,20.9483591 68.6964009,19.4777709 C68.8770179,18.0071827 68.8801277,17.1795666 69.930617,15.1765944 C70.981355,13.1736223 73.3897059,11.3382043 74.0153969,10.9632198 C74.6409636,10.5883591 74.7965778,10.0801238 74.7928461,9.80173375 C74.7888655,9.52346749 74.8508127,9.37857585 74.5996655,9.50513932 L74.5996655,9.50513932 Z" id="Fill-28" fill="#FFFFFF" mask="url(#mask-4)"></path>
                        <path d="M35.5276841,12.5613622 C35.1324912,12.6027245 34.7330689,12.6423529 34.327427,12.6795046 C34.3831546,7.91095975 35.2637246,6.34848297 35.2637246,6.34848297 C35.2637246,6.34848297 35.8919035,7.35467492 35.5276841,12.5613622 Z M34.6513434,18.4255108 C34.5079196,17.3881115 34.4046744,16.2018576 34.3557884,14.8433437 C34.3452151,14.5505882 34.3382491,14.2700929 34.333149,13.995418 C34.6846805,13.953065 35.0471583,13.9087307 35.4182193,13.8626625 C35.2572562,15.4331889 34.9858331,16.9929412 34.6513434,18.4255108 Z M13.8653389,23.7949226 C13.1033144,25.2423529 11.8866375,27.1040248 11.259205,26.9219814 C10.7592741,26.7769659 11.3269986,24.4448297 12.0395151,23.059195 C12.7796467,21.6195666 13.5710278,20.4321981 14.2467243,20.3952941 C14.3085471,20.70613 14.3636527,21.0619195 14.3906457,21.4781424 C14.4366707,22.1903406 14.2982226,22.9731269 13.8653389,23.7949226 Z M49.4647971,12.5195046 C49.445392,12.3082353 49.4283503,12.1021672 49.412055,11.897709 C53.2123507,11.3149226 54.3138407,11.1590093 54.7999641,11.0996904 C55.3863473,11.0283591 55.8584144,10.7079876 56.0263434,10.0523839 C56.2308437,9.25349845 55.4991707,9.37684211 54.8323059,9.43417957 C54.2013904,9.48842105 52.6468653,9.75764706 49.314283,10.3648297 C49.0210913,4.03157895 50.3503428,1.5193808 51.6570793,1.57733746 C53.2429511,1.64780186 54.1150625,3.12433437 54.6858967,4.03640867 C55.256731,4.94860681 55.497678,5.02204334 56.0310703,5.09164087 C56.9259454,5.20866873 57.3091967,4.90303406 57.1542044,4.10798762 C56.9479627,3.05052632 54.8022031,0.282600619 52.4265673,0.0858204334 C49.8296384,-0.129164087 48.5914418,1.58266254 47.815983,3.40767802 C47.0144018,5.29424149 46.9443692,7.75739938 47.1840723,10.7543034 C47.0986151,10.770031 47.0142774,10.785387 46.9270787,10.8013622 C43.9195323,11.3525697 40.7362201,11.9414241 37.1414197,12.379195 C37.4040109,7.87702786 36.8061837,4.33919505 35.3381109,3.95021672 C33.5024602,3.46390093 32.4770981,7.34959752 32.2915054,11.3995046 C32.27011,11.8678638 32.2540635,12.3513313 32.2447341,12.8449536 C28.1057193,13.1181424 27.2908282,12.7920743 26.9611897,12.7819195 C26.6020704,12.7708978 26.3230595,13.075418 26.7063108,13.7581424 C27.0894377,14.4409907 27.8007104,14.5434056 29.6494223,14.4749226 C30.1188772,14.4574613 31.0402477,14.3708978 32.2395096,14.2383901 C32.2713539,16.9279257 32.5628041,19.8204334 33.4478522,22.3711455 C32.811339,23.9640867 32.1433547,24.9679257 31.6158088,24.9577709 C30.7175752,24.9405573 30.1742315,22.767678 30.2447617,19.9057585 C30.3002405,17.6603096 30.695309,16.5094737 29.082071,16.3704025 C28.589728,16.3279257 28.0904191,16.4740557 28.0904191,16.4740557 C28.0904191,16.4740557 28.1110681,18.8492879 28.1998839,20.7756037 C28.0925337,21.5557895 27.874848,22.9582663 27.5899906,23.8532508 C27.3597413,24.5778328 26.9176526,25.3097214 26.6395124,25.2317028 C26.0772612,25.0743034 25.8038479,23.6102786 25.5578008,22.0366563 C25.3950962,20.9971517 25.0756579,18.0728173 24.9785079,17.4949845 C24.8813578,16.9170279 24.4321788,16.5313932 23.7577261,16.5274303 C23.0835222,16.5232198 22.626009,16.7047678 22.3970035,17.3696594 C22.1678737,18.0347988 21.4014955,21.0913932 21.4014955,21.0913932 C21.4014955,21.0913932 20.9744582,18.9451393 20.8197147,18.4291022 C20.66522,17.913065 20.3274961,17.7021672 19.7734548,17.7082353 C19.219289,17.7145511 18.9988667,17.8274923 18.9413976,17.8891641 C18.8839286,17.9510836 18.8851725,17.9809288 18.8866652,18.4133746 C18.8882823,18.8456966 18.9568222,19.8424768 18.9010946,22.6782663 C18.8453671,25.5141796 18.510753,26.6156037 18.1960416,26.5900929 C17.7617896,26.5546749 17.294325,24.9170279 16.9148054,23.2312074 C16.5748424,21.7209907 16.4256966,19.8645201 16.3872595,19.6421053 C16.3695959,19.5406811 16.2779191,19.4745511 16.1205634,19.4377709 C15.9655711,19.0018576 15.5135311,18.5406811 14.3978605,18.5545511 C12.9379976,18.5731269 11.0053212,20.712322 9.91527532,23.5280495 C8.84028085,26.3040248 9.13931889,28.3042724 10.8303019,28.6236533 C13.5238832,29.1323839 15.196083,24.9052632 15.196083,24.9052632 C15.196083,24.9052632 15.3307994,25.8643963 15.8757602,26.9088545 C16.2799093,27.6833437 16.8942807,28.385387 17.7899021,28.4552322 C19.9086687,28.6204334 20.2237533,25.9091022 20.2237533,25.9091022 C20.2237533,25.9091022 20.7290331,27.0014861 21.6808796,26.7929412 C22.5871987,26.5944272 22.5631911,25.1089783 22.6518825,24.384644 C22.8113528,23.0809907 23.3355401,20.3466254 23.3355401,20.3466254 C23.3355401,20.3466254 23.7243891,23.5247059 23.9734216,24.4683591 C24.324331,25.7972755 24.6599403,26.7576471 26.2772833,26.7221053 C27.9354268,26.6854489 28.4960609,25.3443963 28.7999502,24.519257 C29.2371876,25.6116409 30.0476006,26.575356 31.6163064,26.389226 C32.5655407,26.2765325 33.4485985,25.4679876 34.2189573,24.1909598 C34.456919,24.6567183 34.719759,25.1048916 35.0134481,25.5289164 C36.5041602,27.6808669 39.2415275,28.4333127 40.2968681,27.570031 C41.157411,26.8658824 40.7887135,26.1985139 40.7887135,26.1985139 C40.7887135,26.1985139 39.6732917,26.3291641 38.6424563,25.8641486 C38.0140286,25.5805573 36.4356203,25.0053251 35.3713235,21.7203715 C36.0375663,19.9068731 36.5505584,17.7074923 36.8551941,15.3824149 C36.931695,14.7986378 36.9950105,14.2226625 37.0461356,13.6574613 C40.420638,13.2252632 44.1742868,12.7056347 46.7003124,12.3152941 C46.9127737,12.2824768 47.118269,12.250774 47.3196594,12.2196904 C47.493808,13.9065015 47.7368697,15.7425387 47.9852803,17.7226006 C48.7735515,24.0064396 49.2787069,30.1081115 49.3835692,30.588483 C49.4883072,31.0688545 49.7332347,31.8667492 50.7977803,31.3477399 C51.5447534,30.9834056 51.7692807,30.1871207 51.5824442,29.2247678 C51.3954832,28.262291 50.0071456,18.4263777 49.4647971,12.5195046 L49.4647971,12.5195046 Z" id="Fill-29" fill="#FFFFFF" mask="url(#mask-4)"></path>
                    </g>
                    <path d="M28.2456601,10.6111455 C28.6218211,10.2366563 28.5851255,9.59294118 28.1638103,9.17337461 C27.7423706,8.75380805 27.0957817,8.71727554 26.7196207,9.09176471 C26.3433354,9.46637771 26.380031,10.109969 26.8014706,10.5295356 C27.2229102,10.9491022 27.8694991,10.9856347 28.2456601,10.6111455" id="Fill-31" fill="#FFFFFF"></path>
                    <path d="M62.5482088,10.5816718 C62.9242454,10.2071827 62.8488639,9.52482972 62.3795334,9.05770898 C61.9103273,8.5904644 61.2249281,8.51529412 60.8487671,8.88978328 C60.4724818,9.26427245 60.548112,9.94662539 61.0171937,10.41387 C61.4866486,10.8809907 62.1719234,10.956161 62.5482088,10.5816718" id="Fill-32" fill="#FFFFFF"></path>
                    <path d="M70.903311,21.1795154 C70.903311,21.4934747 70.6531782,21.7557604 70.3284014,21.7557604 C69.9998547,21.7557604 69.7533034,21.4972056 69.7533034,21.1830598 L69.7533034,21.1795154 C69.7533034,20.8653695 70.0036246,20.6030838 70.3284014,20.6030838 C70.6567596,20.6030838 70.903311,20.8616385 70.903311,21.1755979 L70.903311,21.1795154 Z M70.3284014,20.5327554 C69.9661141,20.5327554 69.6788479,20.8284331 69.6788479,21.1795154 L69.6788479,21.1830598 C69.6788479,21.534142 69.9625327,21.8260888 70.3284014,21.8260888 C70.6905002,21.8260888 70.977955,21.5304111 70.977955,21.1795154 L70.977955,21.1755979 C70.977955,20.8248887 70.6942701,20.5327554 70.3284014,20.5327554 L70.3284014,20.5327554 Z" id="Fill-33" fill="#FFFFFF"></path>
                    <path d="M70.3497827,21.1460961 L70.238884,21.1460961 L70.238884,21.0011606 L70.3536468,21.0011606 C70.4148923,21.0011606 70.4492825,21.0264145 70.4492825,21.0736283 C70.4492825,21.1171822 70.4148923,21.1460961 70.3497827,21.1460961 Z M70.3613749,20.8273112 L70.0207574,20.8273112 L70.0207574,21.4939779 L70.238884,21.4939779 L70.238884,21.3018285 L70.3039935,21.3018285 L70.4417475,21.4939779 L70.6904003,21.4939779 L70.5259842,21.2657777 C70.6138917,21.2295438 70.6674091,21.160553 70.6674091,21.0555114 C70.6674091,20.9032559 70.5449181,20.8273112 70.3613749,20.8273112 Z" id="Fill-34" fill="#FFFFFF"></path>
                    <polyline id="Fill-35" fill="#816C49" points="65.9866486 38.9373375 65.8069024 38.6454489 65.5826238 38.6454489 65.5826238 39.4008669 65.7896119 39.4008669 65.7896119 38.9593808 65.9816729 39.2585759 65.9891364 39.2585759 66.1813219 38.9593808 66.1813219 39.4008669 66.3906734 39.4008669 66.3906734 38.6454489 66.1690071 38.6454489 65.9866486 38.9373375"></polyline>
                    <polyline id="Fill-36" fill="#816C49" points="64.7992039 38.8293498 65.0273859 38.8293498 65.0273859 39.4008669 65.24079 39.4008669 65.24079 38.8293498 65.4688467 38.8293498 65.4688467 38.6454489 64.7992039 38.6454489 64.7992039 38.8293498"></polyline>
                </g>
            </g>
        </g>
    </g>
</svg>