<svg xmlns="http://www.w3.org/2000/svg" width="126" height="126" viewBox="0 0 126 126">
    <g fill="none" fill-rule="nonzero">
        <path fill="#FFF" d="M62.9 125.8c34.739.055 62.945-28.061 63-62.8.055-34.739-28.061-62.945-62.8-63m0 0C28.361-.055.155 28.06.1 62.8c-.055 34.739 28.061 62.945 62.8 63"/>
        <g fill="#005293">
            <path d="M78.7 51.1a9.91 9.91 0 0 0-5.1-1h-8.5v16.4H70v-5.4h3.4a10.76 10.76 0 0 0 5.2-1c1.8-1 2.6-2.4 2.6-4.9a4.21 4.21 0 0 0-2.5-4.1m-3.8 6.8a6.61 6.61 0 0 1-2.4.3h-2.4v-4.9h2.4a6.09 6.09 0 0 1 2.4.3 2.17 2.17 0 0 1 1.3 2.2 2.13 2.13 0 0 1-1.3 2.1M62.7 65.7a21.26 21.26 0 0 1-7.6 1.3c-7.3 0-10.5-3.7-10.5-8.5 0-5.4 4.2-8.6 10.6-8.6a20.37 20.37 0 0 1 7.5 1.5v3.9h-.5a9 9 0 0 0-6.2-2.2c-3.7 0-6.1 2.2-6.1 5.4 0 2.9 1.5 5.7 6.2 5.6a11.27 11.27 0 0 0 1.8-.3v-3.1H54v-3.1h8.8l-.1 8.1zm.2 20.2H60v3.9h3.1c1.5 0 2.2-.8 2.2-2 0-1.3-1-1.9-2.4-1.9zm-14.4 0h-2.2v4.2h2.4a2.21 2.21 0 0 0 2.4-2.2 2.38 2.38 0 0 0-2.6-2zm29.5-.1a4.14 4.14 0 0 0-4.1 4.2 4.2 4.2 0 0 0 4.1 4.2 4.14 4.14 0 0 0 4.1-4.2 4 4 0 0 0-4.1-4.2z"/>
            <path d="M63.1 15.2c-26.4-.055-47.845 21.3-47.9 47.7-.055 26.4 21.3 47.845 47.7 47.9 26.4.055 47.845-21.3 47.9-47.7a47.63 47.63 0 0 0-47.7-47.9zM53.9 88c0 3.1-2.4 4.7-5.6 4.7h-2.2v4.1h-2.9V83.1h5.6a4.73 4.73 0 0 1 5.1 4.9zm11.2 8.8l-2.9-4.4H60v4.4h-2.9V83.1h6.2a5.36 5.36 0 0 1 3.9 1.3 4.14 4.14 0 0 1 1.2 3.1 4.19 4.19 0 0 1-2.9 4.2l3.2 4.9h-3.4v.2h-.2zM85.4 90a7 7 0 0 1-7.3 7 6.86 6.86 0 0 1-7.1-7 7.2 7.2 0 1 1 14.4 0zM70.2 69.6a5.63 5.63 0 0 0-3.2.7 4.37 4.37 0 0 0-2 2.4l-2 4.1-2-4.1a3.78 3.78 0 0 0-2-2.4 5.85 5.85 0 0 0-3.2-.7h-30L63 32.1l37.2 37.5h-30z"/>
            <g>
                <path d="M105.4 93.7h-1.2v-.5h2.7v.5h-1.1v2.7h-.7v-2.7h.3zm2.2-.6h.7l1 1.7 1-1.7h.7v3.4h-.7v-2.4l-1.2 1.7-1-1.7v2.4h-.7v-3.4h.2z"/>
            </g>
        </g>
        <g fill="#FFF">
            <path d="M68.4 87.7a4.38 4.38 0 0 0-1.2-3.1 5 5 0 0 0-3.9-1.3h-6.2V97H60v-4.4h2.2l2.9 4.4h3.6l-3.2-4.9c1.6-.9 2.9-2.1 2.9-4.4zm-3.1.1a2 2 0 0 1-2.2 2H60v-3.9h2.9c1.4 0 2.4.6 2.4 1.9zM78 82.9a7.09 7.09 0 0 0-7.3 7 7 7 0 0 0 7.1 7 7.09 7.09 0 0 0 7.3-7c.3-3.8-2.9-7-7.1-7zm4.2 7.3a4.1 4.1 0 1 1-8.2 0 4.14 4.14 0 0 1 4.1-4.2c2.4-.2 4.1 1.7 4.1 4.2zm-33.5-7.1h-5.6v13.7H46v-4.1h2.2c3.1 0 5.6-1.7 5.6-4.7.1-2.9-1.9-4.9-5.1-4.9zm2.2 4.9a2.16 2.16 0 0 1-2.4 2.2h-2.4V86h2.2c1.7-.1 2.6.7 2.6 2zM74.9 53.6a6.61 6.61 0 0 0-2.4-.3h-2.4v4.9h2.4a15.69 15.69 0 0 0 2.4-.3 2.23 2.23 0 0 0 1.3-2.2 2 2 0 0 0-1.3-2.1z"/>
            <path d="M63.1 32.1L25.9 69.6h29.8a5.63 5.63 0 0 1 3.2.7 4.37 4.37 0 0 1 2 2.4l2 4.1 2-4.1a3.78 3.78 0 0 1 2-2.4 5.85 5.85 0 0 1 3.2-.7h29.8L63.1 32.1zm-.4 33.6a21.26 21.26 0 0 1-7.6 1.3c-7.3 0-10.5-3.7-10.5-8.5 0-5.4 4.2-8.6 10.6-8.6a20.37 20.37 0 0 1 7.5 1.5v3.9h-.5a9 9 0 0 0-6.2-2.2c-3.7 0-6.1 2.2-6.1 5.4 0 2.9 1.5 5.7 6.2 5.6a11.27 11.27 0 0 0 1.8-.3v-3.1H54v-3.1h8.8l-.1 8.1zm16-5.6a10.76 10.76 0 0 1-5.2 1h-3.4v5.4h-4.9V50.2h8.5a10.13 10.13 0 0 1 5.1 1 4.34 4.34 0 0 1 2.6 4.2c-.2 2.3-1.1 4-2.7 4.7z"/>
        </g>
    </g>
</svg>
