<?xml version="1.0" encoding="utf-8"?>
<!-- Generator: Adobe Illustrator 22.0.1, SVG Export Plug-In . SVG Version: 6.00 Build 0)  -->
<svg version="1.1" id="full_color" xmlns="http://www.w3.org/2000/svg" xmlns:xlink="http://www.w3.org/1999/xlink" x="0px" y="0px"
	 viewBox="0 0 130 35.9" style="enable-background:new 0 0 130 35.9;" xml:space="preserve">
<style type="text/css">
	.st0{fill:#FFFFFF;}
	.st1{fill:#00C1DE;}
	.st2{fill:#82BC00;}
	.st3{fill:#B00060;}
	.st4{fill:#E2231A;}
</style>
<path class="st0" d="M35.4,1h5.5v34h-5.5V1z M72,18c3.9,2,7,4.9,8.3,7.7c0.6,1.3,1,2.6,1,3.8c0,2.2-1,3.6-1.9,4.5
	c-1.2,1.2-2.8,1.9-4.5,1.9c-1.2,0-2.5-0.3-3.8-1c-2.8-1.4-5.6-4.4-7.7-8.3c-2,3.9-4.9,6.9-7.7,8.3c-1.3,0.6-2.6,1-3.8,1
	c-1.7,0-3.3-0.6-4.5-1.9c-0.9-0.9-1.9-2.3-1.9-4.5c0-1.2,0.3-2.5,1-3.8c1.4-2.8,4.4-5.6,8.3-7.7c-3.9-2-7-4.8-8.3-7.7
	c-0.6-1.3-0.9-2.6-1-3.8c0-2.2,1-3.7,1.9-4.5c1.2-1.2,2.8-1.9,4.5-1.9c1.2,0,2.5,0.3,3.8,1c2.8,1.4,5.6,4.4,7.7,8.3
	c2-3.9,4.8-6.9,7.7-8.3c1.3-0.6,2.6-1,3.8-1c1.7,0,3.3,0.6,4.5,1.9c0.9,0.9,1.9,2.3,1.9,4.5c0,1.2-0.3,2.5-1,3.8
	C78.9,13.1,75.9,16,72,18 M30.9,18c0,4.8-1.8,9.2-5.1,12.3S18.1,35,13.4,35H0V1h13.4c4.8,0,9.2,1.7,12.4,4.7
	C29.1,8.8,30.9,13.2,30.9,18 M25.3,18c0-3.5-1.2-6.5-3.3-8.6s-5.2-3.2-8.6-3.2H5.5V30h7.8c3.4,0,6.4-1.2,8.6-3.2
	C24.1,24.5,25.3,21.5,25.3,18 M85.9,35h5.5V1h-5.5V35z M125,25.1l3.9,3.5l-0.7,0.9c-3.3,4.2-8.1,6.3-14.3,6.3c-5,0-9.5-1.8-12.8-5.2
	c-3.2-3.3-5-7.8-5-12.7c0-4.8,1.8-9.3,5-12.7c3.2-3.3,7.5-5.2,12.1-5.2c9.9,0,16.6,7.4,16.8,18.4v1.3h-28.3
	c0.8,6.6,5.5,10.8,12.1,10.8c4.6,0,7.7-1.4,10.3-4.6L125,25.1L125,25.1z M102,14.7h22.2c-0.5-2.6-1.6-4.8-3-6.4
	c-1.9-2-4.6-3.1-7.9-3.1C107.5,5.3,103.2,9,102,14.7"/>
<path class="st1" d="M61.8,19.6L61,19.7c-4.1,0.5-8.1,3.3-10.3,7c-0.5,0.8-0.7,1.5-0.8,2c-0.1,1.1,0.3,1.7,0.6,2.1
	c0.5,0.5,1.2,0.7,2.1,0.6c0.6-0.1,1.3-0.3,2-0.8c3.7-2.2,6.5-6.2,7-10.3C61.6,20.3,61.8,19.6,61.8,19.6z"/>
<path class="st2" d="M61.8,16.4l-0.1-0.8c-0.5-4.1-3.3-8.1-7-10.3c-0.7-0.4-1.4-0.7-2-0.8c-0.8-0.1-1.5,0.1-2.1,0.6
	c-0.3,0.4-0.8,1-0.6,2.1c0.1,0.5,0.3,1.2,0.8,2c2.2,3.7,6.2,6.5,10.3,7C61.1,16.2,61.8,16.4,61.8,16.4z"/>
<path class="st3" d="M65.8,19.7L65,19.6l0.1,0.8c0.5,4.1,3.3,8.1,7,10.3c0.7,0.4,1.4,0.7,2,0.8c0.8,0.1,1.5-0.1,2.1-0.6
	c0.3-0.4,0.8-1,0.6-2.1c-0.1-0.6-0.3-1.2-0.8-2C73.9,23,69.9,20.3,65.8,19.7"/>
<path class="st4" d="M76.1,9.3c0.5-0.8,0.7-1.5,0.8-2c0.1-1.1-0.3-1.7-0.6-2.1c-0.5-0.5-1.2-0.7-2.1-0.6c-0.6,0.1-1.3,0.3-2,0.8
	c-3.7,2.2-6.5,6.2-7,10.3l-0.1,0.8l0.8-0.1C69.9,15.7,73.9,13,76.1,9.3"/>
</svg>
