<svg id="Layer_1" xmlns="http://www.w3.org/2000/svg" viewBox="0 0 124 18"><style>.st0{fill:#747678}</style><path class="st0" d="M12.2 4.4L8.6 11h4.3l-.7-6.6zM10 1h5.6l2.7 16.7h-4.5l-.5-3.6H6.8l-2 3.6H0L10 1zm18.9 16.5c-.9.3-2 .5-3.7.5-3.6 0-5.9-2.6-5.9-5.7 0-4.1 3.3-7.4 8.1-7.4 1.1 0 2.7.3 3.9.8l-.9 3c-.9-.4-1.8-.7-2.8-.7-2.2 0-3.8 1.4-3.8 4 0 1.5 1.2 2.7 3 2.7 1.1 0 1.8-.2 2.8-.6l-.7 3.4zm5.8-12.3l3.7-3.9h1.4l-.9 3.9h3l-.5 3h-3.1l-.7 3.5c-.2.9-.4 1.6-.4 2.2 0 .8.6 1.4 1.4 1.4.5 0 .9-.2 1.4-.4l-.5 2.9c-.9.1-1.8.2-2.7.2-2.2 0-4-1.1-4-3.7 0-.6.1-1.2.4-2.6l.7-3.5h-2.3M45.5 0h4.4l-.7 3.2h-4.4l.7-3.2zm-1.1 5.2h4.4l-2.6 12.5h-4.4l2.6-12.5zm13.1 12.5h-4.9l-2-12.5h4.3l.9 8.9 4.4-8.9h4.7zm15.9-7.4c0-1.3-.5-2.5-2.1-2.5-1.9 0-2.9 1.3-3.2 2.5h5.3zm1.1 7c-1.5.5-3.1.7-4.4.7-4.2 0-6.4-2.6-6.4-5.7 0-2.9 1.9-7.4 7.5-7.4 3.3 0 5.8 1.7 5.8 5.4 0 .5-.1 1.6-.3 2.4h-8.8c0 1.3.7 2.4 3.4 2.4 1.2 0 2.7-.3 3.9-.9l-.7 3.1zM87.9 2.6l-5.7 9.2h7.4l-1.7-9.2zM87.2 1h2l3.3 16.7h-1.7l-.8-4.5h-8.6l-2.8 4.5h-1.8L87.2 1zm12.3 1.2h-1.8l.4-2h1.8l-.4 2zm-2.4 3.3h1.6l-2.6 12.2h-1.6l2.6-12.2zm4.3 2.2c.1-.4.1-.7.2-1.1.1-.4.1-.7.1-1.1h1.5c0 .4-.1.7-.1 1s-.1.6-.2.8c.4-.6.8-1.1 1.4-1.5.5-.4 1.2-.6 2-.6.3 0 .5 0 .7.1.2 0 .4.1.6.1l-.4 1.6c-.2-.1-.4-.1-.6-.2h-.7c-.6 0-1.2.2-1.6.5s-.8.7-1.1 1.2c-.3.5-.6 1-.7 1.6-.2.6-.3 1.1-.5 1.7l-1.2 6h-1.6l2.2-10.1zm15.3 3v-.9c0-1-.2-1.8-.7-2.4-.4-.6-1.2-.9-2.1-.9-.6 0-1.1.1-1.6.3s-.9.5-1.3.9-.7.8-1 1.4c-.3.5-.4 1-.5 1.6h7.2zm-7.5 1.3c0 .3-.1.6-.1 1 0 1.2.3 2.1 1 2.7.7.6 1.6 1 2.7 1 .8 0 1.4-.1 2-.3s1.1-.4 1.6-.6l-.1 1.4c-.2.1-.4.1-.6.2-.2.1-.5.2-.8.2-.3.1-.6.1-1 .2-.4 0-.8.1-1.3.1-.7 0-1.4-.1-2-.3s-1.1-.5-1.6-.9-.8-.9-1.1-1.6c-.3-.6-.4-1.3-.4-2.2 0-1 .1-2 .4-2.9s.7-1.8 1.3-2.5c.6-.7 1.2-1.3 2-1.7s1.7-.6 2.6-.6c1.4 0 2.5.4 3.2 1.2.7.8 1.1 1.9 1.1 3.3 0 .4 0 .7-.1 1.1 0 .4-.1.8-.1 1.2h-8.7zm11 3.2h-.7V15h1.8v.2h-.8v2.2h-.3zm3.4 1.2v-1.1l-.3.9-.4 1.2h-.2l-.4-1.2c-.1-.3-.2-.7-.3-1v1.1l-.1 1.1h-.4l.2-2.5h.4l.4 1.2c.1.3.2.6.2.8.1-.2.1-.5.3-.8l.4-1.2h.4l.2 2.5h-.3l-.1-1z"/></svg>