<svg id="Layer_1" xmlns="http://www.w3.org/2000/svg" viewBox="0 0 124.2 56.1"><style>.st0{fill:#747678}</style><path class="st0" d="M54.6 50c-.2-.1-.3-.2-.6-.2h-.3c-.1 0-.2.1-.2.1-.1 0-.1.1-.2.2 0 .1-.1.2-.1.3 0 .1 0 .2.1.3.1.1.2.1.3.2.1 0 .2.1.4.1.1 0 .3.1.4.1s.3.1.4.1.3.1.4.2l.3.3c.1.1.1.3.1.4 0 .2 0 .3-.1.5l-.3.3c-.4 0-.5.1-.7.1s-.3.1-.5.1-.4 0-.5-.1c-.2 0-.3-.1-.5-.2-.1-.1-.2-.2-.3-.4-.1-.2-.1-.3-.1-.5h.4c0 .1 0 .3.1.4s.1.2.2.3c.1.1.2.1.3.2h.7c.1 0 .2-.1.3-.1.1 0 .1-.1.2-.2 0-.1.1-.2.1-.3 0-.1 0-.2-.1-.3-.1-.1-.1-.1-.3-.2-.1 0-.2-.1-.4-.1-.1 0-.3-.1-.4-.1s-.3-.1-.4-.1-.3-.1-.4-.2l-.3-.3c-.1-.1-.1-.2-.1-.4s0-.3.1-.5l.3-.3c.1-.1.3-.1.4-.2.2 0 .3-.1.5-.1s.3 0 .5.1c.2 0 .3.1.4.2l.3.3c.1.1.1.3.1.5h-.4c.1-.2 0-.4-.1-.5zm5-.5v.4h-1.9V51h1.8v.4h-1.8v1.2h1.9v.4h-2.4v-3.5h2.4zm3.4 0c.3 0 .6.1.8.2.2.2.3.4.3.7 0 .2 0 .4-.1.6s-.2.3-.5.3c.1 0 .2.1.2.1.1 0 .1.1.1.2s.1.1.1.2v.8c0 .1 0 .2.1.2 0 .1.1.1.1.2h-.5l-.1-.1V52c0-.1-.1-.1-.1-.2s-.1-.1-.2-.1h-1.4V53h-.5v-3.5H63zm.1 1.6c.1 0 .2 0 .3-.1.1 0 .1-.1.2-.2 0-.1.1-.2.1-.3 0-.2-.1-.3-.1-.4-.1-.1-.3-.2-.5-.2H62v1.2h1.1c-.2 0-.1 0 0 0zm3.3-1.6V53h-.5v-3.5h.5zm4.3 0v.4h-1.9V51h1.8v.4h-1.8v1.2h1.9v.4h-2.4v-3.5h2.4zm3.5.5c-.1-.1-.3-.2-.6-.2h-.3c-.1 0-.2.1-.2.1-.1 0-.1.1-.2.2 0 .1-.1.2-.1.3 0 .1 0 .2.1.3.1.1.1.1.3.2.1 0 .2.1.4.1.1 0 .3.1.4.1s.3.1.4.1.2.1.4.2l.3.3c.1.1.1.3.1.4 0 .2 0 .3-.1.5l-.3.3c-.1.1-.3.1-.4.2-.2 0-.3.1-.5.1s-.4 0-.5-.1c-.2 0-.3-.1-.5-.2-.1-.1-.2-.2-.3-.4-.1-.2-.1-.3-.1-.5h.4c0 .1 0 .3.1.4s.1.2.2.3c.1.1.2.1.3.2h.7c.1 0 .2-.1.3-.1.1 0 .2-.1.2-.2.1-.1.1-.2.1-.3 0-.1 0-.2-.1-.3-.1-.1-.1-.1-.3-.2-.1 0-.2-.1-.4-.1-.1 0-.3-.1-.4-.1s-.3-.1-.4-.1-.3-.1-.4-.2c-.1-.3-.2-.3-.3-.4s-.1-.2-.1-.4 0-.3.1-.5l.3-.3c.1-.1.3-.1.4-.2.1 0 .3-.1.5-.1s.3 0 .5.1c.2 0 .3.1.4.2l.3.3c.1.1.1.3.1.5h-.4c-.1-.2-.2-.4-.4-.5zm-23.1.8H31l-1-.2 1-.2h20.1zm46 0H77v-.4h20.1l.9.2zm-64-8h2.6c1.2 0 2 .8 2 1.9s-.7 1.9-2 1.9h-1.6v1.7h-1v-5.5zm1 2.8h1.5c.7 0 1-.4 1-.9s-.3-.9-1-.9h-1.5v1.8zm4.5-2.8h2.6c1.2 0 2 .8 2 1.9 0 .8-.5 1.4-1.3 1.6l1.4 1.9H42l-1.1-1.7h-1.2v1.7h-1v-5.4h-.1zm1 2.8h1.5c.7 0 1-.4 1-.9s-.3-.9-1-.9h-1.5v1.8zm7-2.9c1.6 0 2.9 1.2 2.9 2.8s-1.3 2.8-2.9 2.8c-1.6 0-2.9-1.2-2.9-2.8 0-1.5 1.3-2.8 2.9-2.8zm0 4.7c1 0 1.9-.8 1.9-1.9s-.9-1.9-1.9-1.9-1.9.8-1.9 1.9c0 1.1.9 1.9 1.9 1.9zm4-4.6h4.1v.9h-3.2V45h2.2v1h-2.2v2.3h-1v-5.5h.1zm4.8 0h4.2v.9h-3.2V45h2.2v1h-2.2v1.4h3.2v.9h-4.2v-5.5zm5.4 3.9c.4.4 1 .7 1.6.7.8 0 1.3-.3 1.3-.8 0-1.2-3.5 0-3.5-2.3 0-1 1-1.6 2.2-1.6.9 0 1.6.3 2.2.8l-.7.7c-.5-.5-.9-.6-1.5-.6-.8 0-1.1.4-1.1.7 0 1.2 3.5 0 3.5 2.3 0 1.1-1.1 1.8-2.4 1.8-.8 0-1.6-.3-2.3-1l.7-.7zm5.3 0c.4.4 1 .7 1.6.7.8 0 1.3-.3 1.3-.8 0-1.2-3.5 0-3.5-2.3 0-1 1-1.6 2.2-1.6.9 0 1.6.3 2.2.8l-.7.7c-.5-.5-.9-.6-1.5-.6-.8 0-1.1.4-1.1.7 0 1.2 3.5 0 3.5 2.3 0 1.1-1.2 1.8-2.4 1.8-.8 0-1.6-.3-2.3-1l.7-.7zm5-3.9h1v5.4h-1v-5.4zm4.9-.1c1.6 0 2.9 1.2 2.9 2.8s-1.3 2.8-2.9 2.8-2.9-1.2-2.9-2.8c0-1.5 1.3-2.8 2.9-2.8zm0 4.7c1 0 1.9-.8 1.9-1.9s-.9-1.9-1.9-1.9-1.9.8-1.9 1.9c.1 1.1.9 1.9 1.9 1.9zm4.8-2.5v3.3h-1v-5.5l3.5 3.4v-3.3h1v5.5l-3.5-3.4zm6.2-1.2l.4-.9h.6l2.3 5.4h-1.1l-.4-1h-2.3l-.4 1H85l2-4.5zm1.4 2.7l-.8-1.9-.8 1.9h1.6zm2.5-3.6h1v4.5H94V46h1v2.2h-4.1v-5.4z"/><path class="st0" d="M99.4 39.3c-23.5-1.1-47.1-1.1-70.7 0-1.2.1-2.1 1-2.1 2.2v9.9c0 1.1.9 2.2 2.1 2.3 11.7 1.5 23.6 2.4 35.4 2.4 11.3 0 23.3-.9 35.4-2.4 1.1-.2 2-1.2 2-2.3v-9.9c0-1.2-.9-2.2-2.1-2.2zm1.1 2.2c-.6 3.3-.7 6.6-.3 9.9.1.8-.4 1.4-1.1 1.5-11.4 1-23.2 1.6-35 1.6-11.7 0-23.6-.5-35-1.6-.7-.1-1.2-.7-1.1-1.5.4-3.3.4-6.6-.3-9.9-.1-.7.3-1.3 1-1.3h70.6c.9 0 1.3.6 1.2 1.3zM20.9 24.1c-1.6-4.6-3.1-9.3-4.6-14-.7-2.4-2-2.8-3.9-2.2-1.5.5-2.4 1.4-2.9 3.1-1 3.4-1.9 6.8-2.9 10.2-2.7.9-4.8 2.8-6 5.1-.6 1.1-.9 2.6 0 2.6.4 0 .8-.5 1.2-1.2.4-.5 1.5-1.9 2.6-2.6.3-.2.7-.4 1.2-.7-.1.5-.3 1.1-.4 1.6-.7 2.4-2 6.8-2.2 7.7-.4 1.7.6 1.4 1.6.9 1.2-.6 1.7-1.4 2-2.4.8-2.3 1.7-5.3 2.7-8.6h1c2.9.1 4.5 1.6 5.3 2.4 1.3 3.6 4.2 4.8 6.5 3.9.6-.3 1.4-1.1.7-1.7-.3-.6-.9-1.3-1.9-4.1zm-10.6-3.6c.7-2.4 1.3-4.8 2-7.1v-.2s.1.1 0 .1 1.1 4.4 2.2 8.3c-.8-.4-2.2-1-4.2-1.1zM69.7 0c-4.2.1-5.2 6.6-5.4 10.4-.1 2-.1 2.3.1 4.2.1.7.2 1.5.3 2.2-1.5 1.2-3.2 2-5.2 2.1-1.4.1-2.3-.5-2.9-1.3.5-.1 1-.3 1.6-.6 2.6-1.1 4.5-2.8 4.5-5.8 0-1.9-1-4.5-4.9-4.3-4.2.2-6.7 4.1-6.7 7.7-.1 4.2 2.8 7.6 7.3 7.4 2.7-.1 5-1.1 7-2.6.7 1.7 1.8 2.9 3.5 3.3 1.4.3 2.8-.1 3.3-.7.7-.8.2-1.3-.4-1.4-1-.2-1.7-1-2.3-2.4-.2-.5-.4-1.4-.6-2.4 1.4-1.9 2.6-4.1 3.3-6.2 1.7-4 1.6-9.8-2.5-9.6zM55.9 13.8c0-2.3.8-4 2.1-4.1 1 0 1.5.8 1.3 2-.1.9-.4 2.1-2.1 3.2-.4.3-.8.5-1.2.6-.1-.5-.1-1.1-.1-1.7zm13.5-3.2c-.2.5-.5 1-.7 1.4 0-.9-.1-1.9 0-2.9.1-3.3.4-6.6 1.5-6.6 1 .2.8 4.7-.8 8.1zM49.2 6.5c-1 .1-1.9.7-2.6 1.8-.1.2-.2.4-.4.6-.5-.4-1.5-.9-3.2-.7-4.1.5-6.7 4.4-6.7 8.4 0 4.4 2.1 6.8 6.1 6.3 1.2-.2 2.1-.7 2.8-1.3 0 3.4-.9 8.4-4.8 9-1.2.2-1.9-.2-1.9-1 0-.9.7-1.6 2-2.3.7-.3 1.2-.3 1.3-.9.1-.8-.8-1.4-2.4-1.2-2.6.4-5.1 2.3-5.2 4.7-.2 2.8 2.3 4.3 6.5 3.5 6-1.2 8.6-6.5 8.9-12.7.1-2.8 0-8.9 0-10 0-2.3.4-2.9.4-3.6.2-.3-.1-.6-.8-.6zm-3.9 6.6v4.2c-.2 1-.7 2.5-1.9 2.7-1.3.2-2.2-.8-2.2-4.2 0-3 .8-4.6 2.3-4.8 1.4-.2 1.7.9 1.8 1.8v.3zm-8.9 10.5c0-.5-.3-.6-.8-.8-.6-.3-1.2-1.2-1.2-3.7v-5.2c0-2.7-1.2-4.2-3.7-3.7-2 .4-3.5 2-4.1 2.9-.2-.5-.4-.9-.8-1.1-.6-.3-1.3-.4-2.2-.1-1.1.3-1.8.8-1.8 1.4 0 .7.6.5.6 2.1v9.8c0 1.3.2 2 1.3 1.7s1.1-.3 1.7-.4c.9-.2 1.4-.7 1.4-2.1v-9.2c.4-.4.9-.9 1.6-1 1.3-.3 1.6.6 1.6 2.1 0 .6-.1 4.4 0 5.1.2 3.9 2.4 4.4 4.2 4 1.4-.4 2.2-1.2 2.2-1.8zm86.9-4.7c-.4-.4-.8.1-3.1-.5-.5-.1-1.1-.3-1.8-.5v-3.7c0-1.4 0-2-1.1-1.9-1 .1-1.9.7-2.4 1-.6.4-.8 1-.8 2.1v1c-1.4-.5-2.8-1-3.8-1.3-.1 0-.2-.1-.3-.1v-.6c0-4.4.8-4.9 2.1-4.8.5 0 .9.5 1.2.8.3.4.8.6 1.2.4 1.1-.6.3-3.7-2.2-4.3-3.9-.9-6.6 1.5-6.6 6.4v1c-1.7-.2-3 0-3.9.3-1.2-1.7-3-2.9-5.2-3.2-3.5-.5-6.7 1.3-6.8 6.6 0 4.1 2.5 7.8 6.5 8.8 4.3 1.1 7.4-2.5 7.3-6.6 0-1.3-.3-2.7-.9-3.9h.6c.8.1 1.5.2 2.4.4v10.8c0 2.2-.3 4-1.1 5.5-.4.8-.2 1.3.3 1.6 1 .7 2.8-.2 3.8-1.7 1-1.4 1.4-3.1 1.4-5.6v-9.4c1.2.4 2.4.8 3.7 1.2.1 0 .2.1.4.1v6.9c0 4.1 1.7 6.1 4 6.8 2.1.7 3.4.1 4-.6.5-.7.6-1.4-.5-1.4-.3 0-1.2 0-1.7-.3-.8-.5-1.5-1.1-1.5-3.5v-6.6c1.1.3 1.6.4 2.8.5 1.6.3 2.7-1 2-1.7zm-26.4 5c-1.4-.3-2.4-1.9-2.4-5.3 0-3 .7-4.9 2.2-4.8 1.5.1 2.5 1.6 2.5 5.3 0 3.1-.7 5.2-2.3 4.8zM85.2 7.8c-.7.2-1.2.3-1.5.9-.5.9.6 2.2 2.6 2.3 2 0 3.9-1.2 4-3.9.1-3.3-3.5-5.7-7.6-6.1s-8.4 2.2-8.5 6.7c0 3.7 3.4 6.3 5.7 7.5 3.6 2 4.6 3 4.5 4.4-.1 1.3-1.2 2.2-2.8 2-1.3-.1-2.4-.7-3.4-1.7s-1-1.9-2.1-2c-.9-.1-1.7.7-1.5 2.4.4 2 2.6 4.1 6.9 4.5 4.8.5 7.6-2.1 7.6-5.5s-2.2-5.1-6.2-7.7c-2.5-1.6-3.7-3-3.7-4.9s1.6-2.8 3.4-2.7c1.8.1 3.5 1.1 3.5 2.5.1.8-.4 1.2-.9 1.3zm36 4.6c0-.8.7-1.5 1.5-1.5s1.5.7 1.5 1.5-.7 1.5-1.5 1.5c-.9 0-1.5-.6-1.5-1.5zm2.7 0c0-.7-.5-1.3-1.2-1.3s-1.3.6-1.3 1.3c0 .7.5 1.3 1.3 1.3.7 0 1.2-.6 1.2-1.3zm-1.8-.7h.7c.3 0 .6.2.6.5 0 .2-.1.4-.3.4l.4.5h-.3l-.3-.5h-.3v.5h-.3v-1.4h-.2zm.7.7c.2 0 .3-.1.3-.2 0-.2-.1-.2-.3-.2h-.3v.5l.3-.1z"/></svg>