<svg xmlns="http://www.w3.org/2000/svg" viewBox="0 0 125 59.7"><defs><style>.a{fill:#747678;}.b{fill:#fff;}</style></defs><title>brawny-grey</title><path class="a" d="M36.75,41.72L33,30.32a9.83,9.83,0,0,0,3.4-7.1v-2.6a6.74,6.74,0,0,0-8-6.9l-9.8,1.5v2.4l0.9,0.8v26l6.8-1V32.72l0.7-.1,3.3,10Zm-6.9-20.2v2.6a3,3,0,0,1-2.4,2.8l-1.2.1v-7.4l1.2-.2A2,2,0,0,1,29.85,21.52ZM9.55,45.72a9.72,9.72,0,0,0,8-9.3v-2.6a5.81,5.81,0,0,0-2.3-4.9,8.12,8.12,0,0,0,2.3-5.6,6.74,6.74,0,0,0-8-6.9l-9.8,1.5v2.5l1,0.8V47Zm-0.8-23.5a2,2,0,0,1,2.4,2.1,3,3,0,0,1-2.4,2.8l-1.2.2v-4.8Zm-1.3,10.7,1.2-.2a2,2,0,0,1,2.4,2.1v2.6a3,3,0,0,1-2.3,2.8l-1.3.2v-7.5Z" transform="translate(0.25 0.28)"/><path class="a" d="M41,41l1.2-5,6.4-1,1.2,4.7,6.6-1-7-28.3L40,11.82v2.4l0.7,0.9L34.65,42Zm6.2-11.5-3.7.6,1.8-8.6Zm30.7,6,6.9-30.2-0.2-.2L77,6.32v2.4l0.8,0.6-3.3,14.8-4.1-16.8-6.9,1,1.9,7.9-2.1,9.5L59.25,9,52,10v2.5l1.1,0.7,6.2,25.1,7.5-1.2,1.8-8.2,1.8,7.7Z" transform="translate(0.25 0.28)"/><path class="a" d="M94.65,3.62V6l1,0.8v10.4l-7.8-12.6-4.3.7v29.3l6.2-.9V20l7.8,12.5,4.3-.6V2.52Z" transform="translate(0.25 0.28)"/><path class="a" d="M100.15,2.82l7.1,17.3v11l6.1-1V19.22l7.1-19.5L111.95,1v2.4l0.7,0.7-2.4,6.4-3.5-8.7Z" transform="translate(0.25 0.28)"/><path class="a" d="M119.65,23.72c0-.8-0.5-1-1.4-0.9l-1.4.2v3.6l0.7-.1V25l0.5-.1,0.8,1.4,0.8-.1-0.9-1.4A1,1,0,0,0,119.65,23.72Zm-1.5.7-0.6.1v-0.9l0.6-.1c0.5-.1.7,0,0.7,0.3S118.75,24.32,118.15,24.42Zm0-2.8a3.58,3.58,0,0,0-3,3.6,2.45,2.45,0,0,0,3,2.6,3.5,3.5,0,0,0,3-3.6A2.45,2.45,0,0,0,118.15,21.62Zm0,5.6a2.09,2.09,0,0,1-2.5-2.2,2.92,2.92,0,0,1,2.5-2.9,2.09,2.09,0,0,1,2.5,2.2A3.11,3.11,0,0,1,118.15,27.22Z" transform="translate(0.25 0.28)"/><path class="a" d="M9.25,22.12a2,2,0,0,1,2.4,2.1A3,3,0,0,1,9.25,27l0.5-.1a2.9,2.9,0,0,0,2.4-2.8A2.08,2.08,0,0,0,9.75,22Z" transform="translate(0.25 0.28)"/><polyline class="a" points="31.6 42.8 28.3 32.8 27.8 32.9 31.1 42.9"/><polygon class="a" points="113.5 37.3 114.3 37.2 114.4 37.7 115.2 42.7 112.7 43.1 113.5 37.3"/><path class="b" d="M113.75,37.42l0.7,4.6-1.4.2,0.7-4.8m0.8-1-0.9.1-0.7.1-0.1.7-0.7,4.8-0.2,1.2,1.2-.2,1.4-.2,0.9-.1-0.1-.9-0.7-4.6-0.1-.9h0Z" transform="translate(0.25 0.28)"/><path class="a" d="M59.15,44.52l1-.2h0.4a1.16,1.16,0,0,1,1,.4,2.2,2.2,0,0,1,.4,1.6,2.22,2.22,0,0,1-.1.9,4.88,4.88,0,0,1-.3.7,2.65,2.65,0,0,1-.6.5,1.45,1.45,0,0,1-.7.2l-1.1.2v-4.3Z" transform="translate(0.25 0.28)"/><path class="b" d="M60.55,44.82a1.45,1.45,0,0,1,.7.2,1.88,1.88,0,0,1,.3,1.3,2,2,0,0,1-.1.8,1.42,1.42,0,0,1-.2.6,0.62,0.62,0,0,1-.4.3c-0.2.1-.4,0.1-0.6,0.2l-0.6.1v-3.4l0.6-.1h0.3m0-.9H60l-0.6.1-0.8.1v5.3l1.1-.2,0.6-.1a1.88,1.88,0,0,0,.8-0.2,2.41,2.41,0,0,0,.8-0.6,2.47,2.47,0,0,0,.4-0.9,4.19,4.19,0,0,0-.4-2.9A1.84,1.84,0,0,0,60.55,43.92Z" transform="translate(0.25 0.28)"/><path class="a" d="M66.95,52.22a1.1,1.1,0,0,1-.9-0.4,1.92,1.92,0,0,1-.3-1.2v-5.5a2.13,2.13,0,0,1,.3-1.2,1.68,1.68,0,0,1,1.1-.6h0.3a1.1,1.1,0,0,1,.9.4,1.92,1.92,0,0,1,.3,1.2v5.5a2.13,2.13,0,0,1-.3,1.2,1.68,1.68,0,0,1-1.1.6h-0.3Z" transform="translate(0.25 0.28)"/><path class="b" d="M67.35,43.72a0.76,0.76,0,0,1,.5.2,2,2,0,0,1,.2.9v5.5a2,2,0,0,1-.2.9,0.84,0.84,0,0,1-.7.4H67a0.76,0.76,0,0,1-.5-0.2,0.86,0.86,0,0,1-.2-0.8v-5.5a2,2,0,0,1,.2-0.9,0.84,0.84,0,0,1,.7-0.4,0.31,0.31,0,0,1,.2-0.1m0-.9h-0.4a1.86,1.86,0,0,0-1.4.8,3.34,3.34,0,0,0-.3,1.5v5.5a2,2,0,0,0,.4,1.4,1.58,1.58,0,0,0,1.3.6h0.4a1.86,1.86,0,0,0,1.4-.8,2.9,2.9,0,0,0,.3-1.4v-5.5a2,2,0,0,0-.4-1.4A1.33,1.33,0,0,0,67.35,42.82Z" transform="translate(0.25 0.28)"/><path class="a" d="M100.55,47.12a1.1,1.1,0,0,1-.9-0.4,1.92,1.92,0,0,1-.3-1.2V40a2.13,2.13,0,0,1,.3-1.2,1.36,1.36,0,0,1,1.1-.6h0.3a1.1,1.1,0,0,1,.9.4,1.92,1.92,0,0,1,.3,1.2v5.5a2.13,2.13,0,0,1-.3,1.2,1.68,1.68,0,0,1-1.1.6h-0.3Z" transform="translate(0.25 0.28)"/><path class="b" d="M101.05,38.72a0.76,0.76,0,0,1,.5.2,2,2,0,0,1,.2.9v5.5a2,2,0,0,1-.2.9,0.84,0.84,0,0,1-.7.4h-0.2a0.76,0.76,0,0,1-.5-0.2,2,2,0,0,1-.2-0.9V40a2,2,0,0,1,.2-0.9,0.84,0.84,0,0,1,.7-0.4h0.2m0-1h-0.4a1.86,1.86,0,0,0-1.4.8,2.9,2.9,0,0,0-.3,1.4v5.5a2,2,0,0,0,.4,1.4,1.58,1.58,0,0,0,1.3.6h0.4a1.86,1.86,0,0,0,1.4-.8,2.9,2.9,0,0,0,.3-1.4v-5.5a2,2,0,0,0-.4-1.4A1.76,1.76,0,0,0,101.05,37.72Z" transform="translate(0.25 0.28)"/><path class="a" d="M47.75,42.12l76.5-11.3-0.2,16.8-76.4,11.2ZM51.65,55l0.8-.1v-4.5l1.2-.2c0.5-.1.9-0.2,1.3-0.3a1.56,1.56,0,0,0,.8-0.6,2.62,2.62,0,0,0,.5-0.9,5.9,5.9,0,0,0,.2-1.4,2.51,2.51,0,0,0-.6-2,2.13,2.13,0,0,0-1.2-.3,2.49,2.49,0,0,0-.8.1l-2.2.2V55Zm6.7-1,0.8-.1v-4.5l0.4-.1a0.9,0.9,0,0,0,.5-0.1c0.1,0,.3-0.1.4-0.1L61,49l1.3,4.4,0.8-.1-1.4-4.6,0.3-.2,0.3-.3a2.19,2.19,0,0,0,.3-0.5,1.45,1.45,0,0,0,.2-0.7,3.42,3.42,0,0,0,.1-1.1,2.51,2.51,0,0,0-.6-2,2.14,2.14,0,0,0-1.2-.4,1.27,1.27,0,0,0-.6.1l-2,.3V54h-0.1Zm9.3-11.5h-0.5c-0.4.1-.7,0.2-1,0.3a4.35,4.35,0,0,0-.7.6,2,2,0,0,0-.4.8,3.08,3.08,0,0,0-.1,1v5.6a2.77,2.77,0,0,0,.1.9,0.92,0.92,0,0,0,.4.6,2.09,2.09,0,0,0,.6.4c0.2,0,.3.1,0.5,0.1h0.5c0.4-.1.7-0.2,1-0.3a4.35,4.35,0,0,0,.7-0.6,2,2,0,0,0,.4-0.8,3.08,3.08,0,0,0,.1-1v-5.6a2.77,2.77,0,0,0-.1-0.9,0.92,0.92,0,0,0-.4-0.6,2.09,2.09,0,0,0-.6-0.4A0.75,0.75,0,0,0,67.65,42.53Zm4,9.6,0.8-.1v-4.9l2.3-.3V46l-2.3.3v-3.8l3.1-.5v-0.7l-3.9.7v10.1Zm5.8-.9,3.9-.6v-0.7l-3.1.5v-4.2l2.2-.3v-0.7l-2.2.3v-3.8l2.9-.4v-0.7l-3.7.6v10Zm5.5-2.8a1.42,1.42,0,0,0,.2.6,1.61,1.61,0,0,0,.4.7,2.09,2.09,0,0,0,.6.4,0.9,0.9,0,0,0,.5.1H85c0.4-.1.7-0.2,1-0.3a1.34,1.34,0,0,0,.7-0.6,2.18,2.18,0,0,0,.5-0.8,3.13,3.13,0,0,0,0-2.2,4.7,4.7,0,0,0-.6-0.9,2.7,2.7,0,0,0-.8-0.7c-0.3-.2-0.6-0.5-0.9-0.7a2.7,2.7,0,0,1-.7-0.8,2.17,2.17,0,0,1,0-2.2,1.7,1.7,0,0,1,1-.6h0.5a0.68,0.68,0,0,1,.5.3,0.85,0.85,0,0,1,.3.5,0.2,0.2,0,0,0,.1.2l0.8-.2a0.76,0.76,0,0,0-.2-0.5,1.27,1.27,0,0,0-.4-0.6,0.55,0.55,0,0,0-.5-0.3c-0.1,0-.3-0.1-0.4-0.1h-0.3a2.72,2.72,0,0,0-1.7.8,2.61,2.61,0,0,0-.6,1.8,3.09,3.09,0,0,0,.2,1.1,2.41,2.41,0,0,0,.6.8,5.72,5.72,0,0,0,.8.7c0.3,0.2.6,0.5,0.9,0.7a5,5,0,0,1,.7.8,2.13,2.13,0,0,1,.3,1.2,1.5,1.5,0,0,1-.4,1.1,1.91,1.91,0,0,1-1,.5h-0.2a1.35,1.35,0,0,1-1-.5,1.88,1.88,0,0,1-.4-0.9Zm5.8-.9a1.42,1.42,0,0,0,.2.6,1.61,1.61,0,0,0,.4.7,2.09,2.09,0,0,0,.6.4,0.9,0.9,0,0,0,.5.1h0.3c0.4-.1.7-0.2,1-0.3a1.34,1.34,0,0,0,.7-0.6,2.18,2.18,0,0,0,.5-0.8,3.13,3.13,0,0,0,0-2.2,4.7,4.7,0,0,0-.6-0.9,2.7,2.7,0,0,0-.8-0.7c-0.3-.2-0.6-0.5-0.9-0.7a2.7,2.7,0,0,1-.7-0.8,2.17,2.17,0,0,1,0-2.2,1.44,1.44,0,0,1,1-.6h0.5a0.68,0.68,0,0,1,.5.3,0.85,0.85,0,0,1,.3.5,0.2,0.2,0,0,0,.1.2l0.8-.2a0.76,0.76,0,0,0-.2-0.5,1.27,1.27,0,0,0-.4-0.6,0.55,0.55,0,0,0-.5-0.3c-0.1,0-.3-0.1-0.4-0.1h-0.3a2.72,2.72,0,0,0-1.7.8,2.61,2.61,0,0,0-.6,1.8,3.09,3.09,0,0,0,.2,1.1,2.41,2.41,0,0,0,.6.8,2.7,2.7,0,0,0,.8.7c0.3,0.2.6,0.5,0.9,0.7a2.7,2.7,0,0,1,.7.8,2.13,2.13,0,0,1,.3,1.2,1.5,1.5,0,0,1-.4,1.1,1.91,1.91,0,0,1-1,.5H91a1.35,1.35,0,0,1-1-.5,1.88,1.88,0,0,1-.4-0.9Zm6.6,1,0.8-.1v-10l-0.8.1v10Zm6-11h-0.5c-0.4.1-.7,0.2-1,0.3a4.35,4.35,0,0,0-.7.6,2,2,0,0,0-.4.8,3.08,3.08,0,0,0-.1,1v5.6a2.77,2.77,0,0,0,.1.9,0.92,0.92,0,0,0,.4.6,2.09,2.09,0,0,0,.6.4,4.33,4.33,0,0,0,.5.1h0.5c0.4-.1.7-0.2,1-0.3a4.35,4.35,0,0,0,.7-0.6,2,2,0,0,0,.4-0.8,3.08,3.08,0,0,0,.1-1v-5.6a2.77,2.77,0,0,0-.1-0.9,0.92,0.92,0,0,0-.4-0.6,2.09,2.09,0,0,0-.6-0.4A0.75,0.75,0,0,0,101.35,37.52Zm3.9,9.5,0.6-.1v-6.8l0.8-.1,0.2,0.4,2.1,6.1,0.7-.1v-10l-0.6.1v6.3l-0.8.1-0.2-.4-2-5.6-0.8.1V47Zm6.1-.9,0.7-.1,0.3-2.5,2.7-.4,0.3,2.4,0.7-.1-1.7-9.7-1.4.2Zm6.3-1,3.5-.5v-0.7l-2.7.4V35l-0.8.1v10Z" transform="translate(0.25 0.28)"/><path class="b" d="M123.75,31.32l-0.2,15.8-75.4,11.2,0.1-15.8,75.5-11.2m-6.5,14.4,4.5-.7v-1.6l-2.7.4v-9.3l-1.7.3v10.9m-6.6,1,1.7-.3,0.3-2.5,1.9-.3L115,46l1.7-.3L114.75,35l-2.2.3-1.8,11.4m-2.2-4.4-2.1-5.9-1.6.2v10.9l1.6-.2v-6.8l2.2,6.5,1.5-.2v-11l-1.6.2v6.3m-8.3,6h0.5a3.37,3.37,0,0,0,1.2-.4,2.7,2.7,0,0,0,.8-0.7,3.13,3.13,0,0,0,.5-1,4.25,4.25,0,0,0,.2-1.1v-5.6a4.25,4.25,0,0,0-.2-1.1,2.1,2.1,0,0,0-1.3-1.3,1.27,1.27,0,0,0-.6-0.1h-0.5a3.37,3.37,0,0,0-1.2.4,2.7,2.7,0,0,0-.8.7,3.13,3.13,0,0,0-.5,1,4.25,4.25,0,0,0-.2,1.1v5.6a4.25,4.25,0,0,0,.2,1.1,2.1,2.1,0,0,0,1.3,1.3,1.27,1.27,0,0,0,.6.1m-5.4.7,1.7-.3V37.82l-1.7.3V49m-4-.9a0.86,0.86,0,0,1-.6-0.3,1.74,1.74,0,0,1-.3-1.2l-1.7.5a3.59,3.59,0,0,0,.2,1.1,4.05,4.05,0,0,0,.5.9,2.18,2.18,0,0,0,.8.5,1.48,1.48,0,0,0,.7.1h0.4c0.4-.1.8-0.2,1.1-0.3a5.5,5.5,0,0,0,.9-0.7,8.79,8.79,0,0,0,.6-1,5,5,0,0,0,.2-1.2,2.77,2.77,0,0,0-.3-1.3,3.59,3.59,0,0,0-.7-1,7.27,7.27,0,0,0-.9-0.8,5.5,5.5,0,0,1-.9-0.7,4.62,4.62,0,0,1-.7-0.7,1.14,1.14,0,0,1-.3-0.8,1.88,1.88,0,0,1,.2-0.8,1.27,1.27,0,0,1,.6-0.4h0.3a0.92,0.92,0,0,1,.5.5,0.92,0.92,0,0,1,.1.6l1.7-.4a3,3,0,0,0-.2-1,2.18,2.18,0,0,0-.5-0.8,1,1,0,0,0-.7-0.4,1.27,1.27,0,0,0-.6-0.1h-0.4a3.2,3.2,0,0,0-2,1,2.82,2.82,0,0,0-.7,2.1,2.5,2.5,0,0,0,.3,1.3,3.59,3.59,0,0,0,.7,1,3.11,3.11,0,0,0,.9.7,5.5,5.5,0,0,1,.9.7,4.62,4.62,0,0,1,.7.7,1.61,1.61,0,0,1,.3.9,1.14,1.14,0,0,1-.3.8,2.77,2.77,0,0,1-.8.5h0m-5.9.9a0.86,0.86,0,0,1-.6-0.3,1.74,1.74,0,0,1-.3-1.2l-1.6.5a3.59,3.59,0,0,0,.2,1.1,4.05,4.05,0,0,0,.5.9,2.18,2.18,0,0,0,.8.5,1.48,1.48,0,0,0,.7.1H85c0.4-.1.8-0.2,1.1-0.3a5.5,5.5,0,0,0,.9-0.7,8.79,8.79,0,0,0,.6-1,5,5,0,0,0,.2-1.2,2.77,2.77,0,0,0-.3-1.3,3.59,3.59,0,0,0-.7-1,7.27,7.27,0,0,0-.9-0.8,5.5,5.5,0,0,1-.9-0.7,4.62,4.62,0,0,1-.7-0.7,1.14,1.14,0,0,1-.3-0.8,1.88,1.88,0,0,1,.2-0.8,1.27,1.27,0,0,1,.6-0.4h0.3a0.92,0.92,0,0,1,.5.5,0.92,0.92,0,0,1,.1.6l1.7-.4a3,3,0,0,0-.2-1,2.18,2.18,0,0,0-.5-0.8,1,1,0,0,0-.7-0.4,1.27,1.27,0,0,0-.6-0.1H85a3.2,3.2,0,0,0-2,1,2.82,2.82,0,0,0-.7,2.1,2.5,2.5,0,0,0,.3,1.3,3.59,3.59,0,0,0,.7,1,3.11,3.11,0,0,0,.9.7,5.5,5.5,0,0,1,.9.7,4.62,4.62,0,0,1,.7.7,1.61,1.61,0,0,1,.3.9,1.14,1.14,0,0,1-.3.8,1.61,1.61,0,0,1-.7.4,0.2,0.2,0,0,1-.2.1m-7.9,2.7,4.8-.7v-1.6l-3.1.5v-3.2l2.2-.3v-1.6l-2.2.2v-2.8l2.9-.4v-1.6l-4.6.7v10.8m-5.9.9,1.7-.3v-4.9l2.3-.3v-1.6l-2.3.3V43l3.1-.5v-1.6l-4.8.7v11m-4.5.8h0.5a3.37,3.37,0,0,0,1.2-.4,2.7,2.7,0,0,0,.8-0.7,3.13,3.13,0,0,0,.5-1,4.25,4.25,0,0,0,.2-1.1v-5.6a4.25,4.25,0,0,0-.2-1.1,2.1,2.1,0,0,0-1.3-1.3,1.27,1.27,0,0,0-.6-0.1h-0.5a3.37,3.37,0,0,0-1.2.4,2.7,2.7,0,0,0-.8.7,3.13,3.13,0,0,0-.5,1,4.25,4.25,0,0,0-.2,1.1v5.6a4.25,4.25,0,0,0,.2,1.1,2.1,2.1,0,0,0,1.3,1.3,0.92,0.92,0,0,0,.6.1m-8.8,1.2,1.7-.3v-4.5c0.2,0,.3-0.1.5-0.1a2.27,2.27,0,0,0,.4-0.1l1.2,4.3,1.8-.3L62,49a1.51,1.51,0,0,0,.4-0.4,3.11,3.11,0,0,0,.4-0.6,6.89,6.89,0,0,0,.3-0.8,4.12,4.12,0,0,0,.1-1.2,3,3,0,0,0-.7-2.4,2.46,2.46,0,0,0-1.5-.5,1.7,1.7,0,0,0-.7.1l-2.4.4v11m-6.7,1,1.7-.3v-4.5l0.8-.1a5.73,5.73,0,0,0,1.4-.4,3.59,3.59,0,0,0,1-.7,3.88,3.88,0,0,0,.6-1.1,6.05,6.05,0,0,0,.2-1.5,3,3,0,0,0-.8-2.4,2.46,2.46,0,0,0-1.5-.5,2.2,2.2,0,0,0-.8.1l-2.5.4-0.1,11m73.5-25.4-1.1.2-75.5,11.1-0.8.1v17.8l1.1-.2L123.75,48l0.8-.1v-0.8l0.2-15.8Zm-11.2,6,0.6-.1,1.1,6.5-0.6.1-1.9.3h-0.3Zm-7.7,1.2,0.8,2.1h-0.3l-0.5.1v-2.2Zm-5.5,10h-0.4a1.47,1.47,0,0,1-.4-0.2,2.19,2.19,0,0,1-.3-0.5,2,2,0,0,1-.1-0.8v-5.6a2,2,0,0,1,.1-0.8,4.87,4.87,0,0,1,.3-0.7,1,1,0,0,1,.6-0.5,6.89,6.89,0,0,1,.8-0.3h0.8a1.47,1.47,0,0,1,.4.2,2.19,2.19,0,0,1,.3.5,2,2,0,0,1,.1.8v5.6a2,2,0,0,1-.1.8,4.87,4.87,0,0,1-.3.7,1,1,0,0,1-.6.5,6.89,6.89,0,0,1-.8.3h-0.4Zm-8-2.2-0.6-.6c-0.3-.2-0.6-0.5-0.9-0.7a4.35,4.35,0,0,1-.7-0.6,1.38,1.38,0,0,1-.3-0.4,4.62,4.62,0,0,0,.7.7c0.3,0.2.6,0.5,0.9,0.7a4.35,4.35,0,0,1,.7.6C92.15,45,92.15,45.13,92.25,45.23Zm-25.6,7.3h-0.4a1.47,1.47,0,0,1-.4-0.2,2.19,2.19,0,0,1-.3-0.5,2,2,0,0,1-.1-0.8v-5.6a2,2,0,0,1,.1-0.8,4.87,4.87,0,0,1,.3-0.7,1,1,0,0,1,.6-0.5,6.89,6.89,0,0,1,.8-0.3h0.8a1.47,1.47,0,0,1,.4.2,2.19,2.19,0,0,1,.3.5,2,2,0,0,1,.1.8v5.6a2,2,0,0,1-.1.8,4.87,4.87,0,0,1-.3.7,1,1,0,0,1-.6.5,6.89,6.89,0,0,1-.8.3A0.53,0.53,0,0,0,66.65,52.53Zm41.7-9.2,0.3-.1,0.5-.1v2.6Zm-22,2.8-0.6-.6c-0.3-.2-0.6-0.5-0.9-0.7a4.35,4.35,0,0,1-.7-0.6,1.38,1.38,0,0,1-.3-0.4,4.62,4.62,0,0,0,.7.7c0.3,0.2.6,0.5,0.9,0.7a4.35,4.35,0,0,1,.7.6A0.53,0.53,0,0,1,86.35,46.13Zm-27.6-1.7,1.6-.2h0.6a2,2,0,0,1,.9.2,2.19,2.19,0,0,1,.4,1.7,3.08,3.08,0,0,1-.1,1,4.17,4.17,0,0,1-.2.6,1.42,1.42,0,0,0-.2.4,0.53,0.53,0,0,1-.3.2l-0.4.3-0.9.3a0.37,0.37,0,0,0-.3.1c-0.2,0-.3.1-0.5,0.1l-0.6-.1v-4.6Zm-6.6,1,1.7-.3c0.3,0,.5-0.1.7-0.1a2.51,2.51,0,0,1,1,.2,2.19,2.19,0,0,1,.4,1.7,5.07,5.07,0,0,1-.2,1.3,1.61,1.61,0,0,1-.4.7,4.23,4.23,0,0,1-.7.5,10.38,10.38,0,0,1-1.2.3l-0.8.1-0.5.2v-4.6Z" transform="translate(0.25 0.28)"/><path class="a" d="M52.45,45.52l1.1-.2h0.8a0.91,0.91,0,0,1,.7.3,1.61,1.61,0,0,1,.4.7,4.1,4.1,0,0,1,0,1.8c-0.1.3-.2,0.5-0.3,0.8a2.65,2.65,0,0,1-.6.5,1.88,1.88,0,0,1-.8.2l-1.2.2Z" transform="translate(0.25 0.28)"/><path class="b" d="M54,45.82h0.2a1.06,1.06,0,0,1,.5.2,0.76,0.76,0,0,1,.2.5c0,0.2.1,0.5,0.1,0.8a2,2,0,0,1-.1.8,1.42,1.42,0,0,1-.2.6,0.85,0.85,0,0,1-.5.3,6.37,6.37,0,0,1-.7.2l-0.7.1v-3.4l0.7-.1H54m0-.9h-0.6l-0.7.1-0.8.1v5.3l1.1-.2,0.7-.1a6.37,6.37,0,0,0,.9-0.2,2.41,2.41,0,0,0,.8-0.6,3.55,3.55,0,0,0,.4-0.9,5.05,5.05,0,0,0,0-2,3.13,3.13,0,0,0-.5-1,1.78,1.78,0,0,0-1-.4C54.35,44.92,54.15,44.92,54,44.92Z" transform="translate(0.25 0.28)"/><path class="a" d="M116.05,28.62l7.3,2.1-7.3.9v-3Z" transform="translate(0.25 0.28)"/></svg>