<svg id="Layer_1" xmlns="http://www.w3.org/2000/svg" viewBox="0 0 125 59.7"><style>.st0{fill:#2f3036}.st1{fill:#cf0a2c}.st2{fill:#fff}</style><path class="st0" d="M37 42l-3.8-11.4c2-1.8 3.4-4.4 3.4-7.1v-2.6c0-4.5-3.6-7.6-8-6.9l-9.8 1.5v2.4l.9.8v26l6.8-1V33l.7-.1 3.3 10L37 42zm-6.9-20.2v2.6c0 1.3-1.1 2.6-2.4 2.8l-1.2.1v-7.4l1.2-.2c1.4-.2 2.4.7 2.4 2.1zM9.8 46c4.4-.7 8-4.8 8-9.3v-2.6c0-2.2-.9-3.9-2.3-4.9 1.4-1.5 2.3-3.4 2.3-5.6 0-4.5-3.6-7.6-8-6.9L0 18.2v2.5l1 .8v25.8L9.8 46zM9 22.5c1.3-.2 2.4.7 2.4 2.1 0 1.3-1.1 2.6-2.4 2.8l-1.2.2v-4.8l1.2-.3zM7.7 33.2l1.2-.2c1.3-.2 2.4.7 2.4 2.1v2.6c0 1.3-1 2.5-2.3 2.8l-1.3.2v-7.5z"/><path class="st0" d="M41.2 41.3l1.2-5 6.4-1L50 40l6.6-1-7-28.3-9.3 1.4v2.4l.7.9-6.1 26.9 6.3-1zm6.2-11.5l-3.7.6 1.8-8.6 1.9 8zm30.7 6L85 5.6l-.2-.2-7.6 1.2V9l.8.6-3.3 14.8-4.1-16.8-6.9 1 1.9 7.9-2.1 9.5-4-16.7-7.3 1v2.5l1.1.7 6.2 25.1 7.5-1.2 1.8-8.2 1.8 7.7z"/><path class="st0" d="M94.9 3.9v2.4l1 .8v10.4L88.1 4.9l-4.3.7v29.3L90 34V20.3l7.8 12.5 4.3-.6V2.8z"/><path class="st0" d="M100.4 3.1l7.1 17.3v11l6.1-1V19.5L120.7 0l-8.5 1.3v2.4l.7.7-2.4 6.4-3.5-8.7z"/><path class="st1" d="M42.1 15.2l-.7-.9v-2.4l-.5.1v2.4l.7.8-5.5 23.9.5-.1 5.5-23.8M28.9 27c1.3-.2 2.4-1.4 2.4-2.8v-2.6c0-1.3-1.1-2.2-2.4-2.1l-.5.1c1.3-.2 2.4.7 2.4 2.1v2.6c0 1.3-1.1 2.6-2.4 2.8l.5-.1zm19.6 2.7l-2.1-9.2-.5.1 2.1 9.2.5-.1zm47-25.9v2.4l.9.8v11.3l.5-.1V6.9l-.9-.8V3.7l-.5.1zm-86 18.6c1.3-.2 2.4.7 2.4 2.1 0 1.3-1.1 2.6-2.4 2.8l.5-.1c1.3-.2 2.4-1.4 2.4-2.8 0-1.3-1.1-2.3-2.4-2.1l-.5.1zM64.2 8.5l1.9 7.9-2.4 10.7.5-.1 2.4-10.7-1.9-7.9-.5.1zm48.6-7.3v2.4l.7.6-2.6 7.2.5-.1 2.6-7.2-.7-.6V1.1l-.5.1zM78.3 6.4l-.5.1v2.4l.8.6-3.6 16 .5-.1 3.6-16-.8-.6V6.4zM60 38.5l.5-.1-6.2-25-1.2-.8v-2.4l-.4.1v2.4l1.2.8 6.1 25zm9.1-10.6l2.1 8.9.5-.1-2.1-8.9-.5.1zM84.4 8.3v26.5l.5-.1V8.3h-.5zm18.2-2.7l-.5.1 5.9 14.7v10.9l.5-.1V20.3l-5.9-14.7zM90 19.3l8.3 13.4.5-.1-8.3-13.4-.5.1zm-79.9 21c1.3-.2 2.3-1.4 2.3-2.8v-2.6c0-1.3-1.1-2.2-2.4-2.1l-.5.2c1.3-.2 2.4.7 2.4 2.1v2.6c0 1.3-1 2.5-2.3 2.8l.5-.2zM.5 18.1v2.5l1 .8v25.9l.5-.1V21.4l-1-.8v-2.5H.5zm48.8 17.1l1.2 4.7.5-.1-1.2-4.7-.5.1zm-29 9.3l.5-.1v-26l-.9-.8v-2.4l-.5.1v2.4l.9.8v26zm11.3-1.7l-3.3-10-.5.1 3.3 10"/><path class="st0" d="M119.9 24c0-.8-.5-1-1.4-.9l-1.4.2v3.6l.7-.1v-1.5l.5-.1.8 1.4.8-.1-.9-1.4c.5-.1.9-.4.9-1.1zm-1.5.7l-.6.1v-.9l.6-.1c.5-.1.7 0 .7.3s-.1.5-.7.6zm0-2.8c-1.7.3-3 1.7-3 3.6 0 1.8 1.3 2.9 3 2.6 1.7-.2 3-1.7 3-3.6 0-1.8-1.3-2.9-3-2.6zm0 5.6c-1.4.2-2.5-.7-2.5-2.2s1.1-2.7 2.5-2.9 2.5.7 2.5 2.2c-.1 1.5-1.2 2.7-2.5 2.9z"/><path class="st1" d="M42.1 15.2l-.7-.9v-2.4l-.5.1v2.4l.7.8-5.5 23.9.5-.1 5.5-23.8M28.9 27c1.3-.2 2.4-1.4 2.4-2.8v-2.6c0-1.3-1.1-2.2-2.4-2.1l-.5.1c1.3-.2 2.4.7 2.4 2.1v2.6c0 1.3-1.1 2.6-2.4 2.8l.5-.1zm19.6 2.7l-2.1-9.2-.5.1 2.1 9.2.5-.1zm47-25.9v2.4l.9.8v11.3l.5-.1V6.9l-.9-.8V3.7l-.5.1zm-86 18.6c1.3-.2 2.4.7 2.4 2.1 0 1.3-1.1 2.6-2.4 2.8l.5-.1c1.3-.2 2.4-1.4 2.4-2.8 0-1.3-1.1-2.3-2.4-2.1l-.5.1zM64.2 8.5l1.9 7.9-2.4 10.7.5-.1 2.4-10.7-1.9-7.9-.5.1zm48.6-7.3v2.4l.7.6-2.6 7.2.5-.1 2.6-7.2-.7-.6V1.1l-.5.1zM78.3 6.4l-.5.1v2.4l.8.6-3.6 16 .5-.1 3.6-16-.8-.6V6.4zM60 38.5l.5-.1-6.2-25-1.2-.8v-2.4l-.4.1v2.4l1.2.8 6.1 25zm9.1-10.6l2.1 8.9.5-.1-2.1-8.9-.5.1zM84.4 8.3v26.5l.5-.1V8.3h-.5zm18.2-2.7l-.5.1 5.9 14.7v10.9l.5-.1V20.3l-5.9-14.7zM90 19.3l8.3 13.4.5-.1-8.3-13.4-.5.1zm-79.9 21c1.3-.2 2.3-1.4 2.3-2.8v-2.6c0-1.3-1.1-2.2-2.4-2.1l-.5.2c1.3-.2 2.4.7 2.4 2.1v2.6c0 1.3-1 2.5-2.3 2.8l.5-.2zM.5 18.1v2.5l1 .8v25.9l.5-.1V21.4l-1-.8v-2.5H.5zm48.8 17.1l1.2 4.7.5-.1-1.2-4.7-.5.1zm-29 9.3l.5-.1v-26l-.9-.8v-2.4l-.5.1v2.4l.9.8v26zm11.3-1.7l-3.3-10-.5.1 3.3 10m82.4-5.6l.8-.1.1.5.8 5-2.5.4z"/><path class="st2" d="M114 37.7l.7 4.6-1.4.2.7-4.8m.8-1l-.9.1-.7.1-.1.7-.7 4.8-.2 1.2 1.2-.2 1.4-.2.9-.1-.1-.9-.7-4.6-.1-.9z"/><path class="st1" d="M59.4 44.8l1-.2h.4c.4 0 .8.1 1 .4.3.3.4.8.4 1.6 0 .4 0 .7-.1.9-.1.3-.2.5-.3.7-.2.2-.4.4-.6.5s-.4.2-.7.2l-1.1.2v-4.3z"/><path class="st2" d="M60.8 45.1c.3 0 .5.1.7.2.2.2.3.6.3 1.3 0 .3 0 .6-.1.8 0 .2-.1.4-.2.6-.1.1-.2.3-.4.3-.2.1-.4.1-.6.2l-.6.1v-3.4l.6-.1h.3m0-.9h-.5l-.6.1-.8.1v5.3l1.1-.2.6-.1c.3 0 .6-.1.8-.2.3-.1.6-.4.8-.6.2-.2.3-.6.4-.9s.1-.6.1-1c0-.9-.2-1.5-.5-1.9-.3-.3-.7-.6-1.4-.6z"/><path class="st1" d="M67.2 52.5c-.5 0-.7-.2-.9-.4-.2-.3-.3-.6-.3-1.2v-5.5c0-.5.1-.9.3-1.2.2-.3.6-.5 1.1-.6h.3c.5 0 .7.2.9.4.2.3.3.6.3 1.2v5.5c0 .5-.1.9-.3 1.2-.2.3-.6.5-1.1.6h-.3z"/><path class="st2" d="M67.6 44c.2 0 .4.1.5.2.1.2.2.5.2.9v5.5c0 .4-.1.7-.2.9-.1.2-.4.4-.7.4h-.2c-.2 0-.4-.1-.5-.2-.2-.1-.2-.4-.2-.8v-5.5c0-.4.1-.7.2-.9s.4-.4.7-.4c.1-.1.2-.1.2-.1m0-.9h-.4c-.8.1-1.2.5-1.4.8-.2.4-.3.9-.3 1.5v5.5c0 .6.1 1.1.4 1.4.2.2.5.6 1.3.6h.4c.8-.1 1.2-.5 1.4-.8.2-.4.3-.8.3-1.4v-5.5c0-.6-.1-1.1-.4-1.4-.2-.4-.6-.7-1.3-.7z"/><path class="st1" d="M100.8 47.4c-.5 0-.7-.2-.9-.4-.2-.3-.3-.6-.3-1.2v-5.5c0-.5.1-.9.3-1.2.2-.3.6-.6 1.1-.6h.3c.5 0 .7.2.9.4.2.3.3.6.3 1.2v5.5c0 .5-.1.9-.3 1.2-.2.3-.6.5-1.1.6h-.3z"/><path class="st2" d="M101.3 39c.2 0 .4.1.5.2.1.2.2.5.2.9v5.5c0 .4-.1.7-.2.9-.1.2-.4.4-.7.4h-.2c-.2 0-.4-.1-.5-.2-.1-.2-.2-.5-.2-.9v-5.5c0-.4.1-.7.2-.9s.4-.4.7-.4h.2m0-1h-.4c-.8.1-1.2.5-1.4.8-.2.4-.3.8-.3 1.4v5.5c0 .6.1 1.1.4 1.4.2.2.5.6 1.3.6h.4c.8-.1 1.2-.5 1.4-.8.2-.4.3-.8.3-1.4V40c0-.6-.1-1.1-.4-1.4-.2-.2-.6-.6-1.3-.6z"/><path class="st1" d="M48 42.4l76.5-11.3-.2 16.8-76.4 11.2.1-16.7zm3.9 12.9l.8-.1v-4.5l1.2-.2c.5-.1.9-.2 1.3-.3.3-.1.6-.3.8-.6.2-.2.4-.6.5-.9.1-.4.2-.9.2-1.4 0-1-.2-1.7-.6-2-.3-.2-.7-.3-1.2-.3-.2 0-.5 0-.8.1l-2.2.2v10zm6.7-1l.8-.1v-4.5l.4-.1c.2 0 .3 0 .5-.1.1 0 .3-.1.4-.1l.5-.1 1.3 4.4.8-.1-1.4-4.6.3-.2.3-.3c.1-.1.2-.3.3-.5.1-.2.2-.4.2-.7.1-.3.1-.6.1-1.1 0-1-.2-1.7-.6-2-.3-.2-.7-.4-1.2-.4-.2 0-.4 0-.6.1l-2 .3v10.1h-.1zm9.3-11.5h-.5c-.4.1-.7.2-1 .3-.3.2-.5.4-.7.6-.2.2-.3.5-.4.8s-.1.6-.1 1v5.6c0 .3 0 .6.1.9s.2.5.4.6c.2.2.4.3.6.4.2 0 .3.1.5.1h.5c.4-.1.7-.2 1-.3.3-.2.5-.4.7-.6s.3-.5.4-.8.1-.6.1-1v-5.6c0-.3 0-.6-.1-.9-.1-.3-.2-.5-.4-.6-.2-.2-.4-.3-.6-.4-.1-.1-.3-.1-.5-.1zm4 9.6l.8-.1v-4.9l2.3-.3v-.8l-2.3.3v-3.8l3.1-.5v-.7l-3.9.7v10.1zm5.8-.9l3.9-.6v-.7l-3.1.5v-4.2l2.2-.3v-.7l-2.2.3V42l2.9-.4v-.7l-3.7.6v10zm5.5-2.8c0 .2.1.4.2.6.1.3.2.5.4.7.2.2.4.3.6.4s.3.1.5.1h.3c.4-.1.7-.2 1-.3.3-.1.5-.3.7-.6.2-.2.4-.5.5-.8s.2-.7.2-1.1-.1-.8-.2-1.1c-.2-.3-.3-.6-.6-.9-.2-.3-.5-.5-.8-.7s-.6-.5-.9-.7-.5-.5-.7-.8-.3-.7-.3-1.1c0-.4.1-.8.3-1.1.2-.3.6-.5 1-.6h.5c.2 0 .3.1.5.3.1.1.3.3.3.5 0 .1 0 .1.1.2l.8-.2c0-.2-.1-.4-.2-.5-.1-.2-.2-.5-.4-.6-.1-.2-.3-.3-.5-.3-.1 0-.3-.1-.4-.1h-.3c-.8.1-1.3.4-1.7.8s-.6 1.1-.6 1.8c0 .5.1.8.2 1.1.2.3.3.6.6.8.2.2.5.5.8.7s.6.5.9.7c.3.3.5.5.7.8s.3.7.3 1.2c0 .4-.1.8-.4 1.1-.3.3-.6.4-1 .5h-.2c-.3 0-.6-.1-1-.5-.2-.2-.3-.5-.4-.9l-.8.6zm5.8-.9c0 .2.1.4.2.6.1.3.2.5.4.7.2.2.4.3.6.4s.3.1.5.1h.3c.4-.1.7-.2 1-.3.3-.1.5-.3.7-.6.2-.2.4-.5.5-.8s.2-.7.2-1.1-.1-.8-.2-1.1c-.2-.3-.3-.6-.6-.9-.2-.3-.5-.5-.8-.7s-.6-.5-.9-.7-.5-.5-.7-.8-.3-.7-.3-1.1c0-.4.1-.8.3-1.1.2-.3.5-.5 1-.6h.5c.2 0 .3.1.5.3.1.1.3.3.3.5 0 .1 0 .1.1.2l.8-.2c0-.2-.1-.4-.2-.5-.1-.2-.2-.5-.4-.6-.1-.2-.3-.3-.5-.3-.1 0-.3-.1-.4-.1h-.3c-.8.1-1.3.4-1.7.8s-.6 1.1-.6 1.8c0 .5.1.8.2 1.1.2.3.3.6.6.8.2.3.5.5.8.7s.6.5.9.7.5.5.7.8.3.7.3 1.2c0 .4-.1.8-.4 1.1-.3.3-.6.4-1 .5h-.2c-.3 0-.6-.1-1-.5-.2-.2-.3-.5-.4-.9l-.8.6zm6.6 1l.8-.1v-10l-.8.1v10zm6-11h-.5c-.4.1-.7.2-1 .3-.3.2-.5.4-.7.6-.2.2-.3.5-.4.8s-.1.6-.1 1v5.6c0 .3 0 .6.1.9s.2.5.4.6c.2.2.4.3.6.4.1 0 .3.1.5.1h.5c.4-.1.7-.2 1-.3.3-.2.5-.4.7-.6s.3-.5.4-.8c.1-.3.1-.6.1-1v-5.6c0-.3 0-.6-.1-.9-.1-.3-.2-.5-.4-.6-.2-.2-.4-.3-.6-.4-.1-.1-.3-.1-.5-.1zm3.9 9.5l.6-.1v-6.8l.8-.1.2.4 2.1 6.1.7-.1v-10l-.6.1v6.3l-.8.1-.2-.4-2-5.6-.8.1v10zm6.1-.9l.7-.1.3-2.5 2.7-.4.3 2.4.7-.1-1.7-9.7-1.4.2-1.6 10.2zm6.3-1l3.5-.5v-.7l-2.7.4v-9.3l-.8.1v10z"/><path class="st2" d="M124 31.6l-.2 15.8-75.4 11.2.1-15.8L124 31.6M117.5 46l4.5-.7v-1.6l-2.7.4v-9.3l-1.7.3V46m-6.6 1l1.7-.3.3-2.5 1.9-.3.3 2.4 1.7-.3-1.9-10.7-2.2.3L111 47m-2.2-4.4l-2.1-5.9-1.6.2v10.9l1.6-.2v-6.8l2.2 6.5 1.5-.2v-11l-1.6.2v6.3m-8.3 6h.5c.5-.1.9-.2 1.2-.4.3-.2.6-.4.8-.7.2-.3.4-.6.5-1s.2-.7.2-1.1v-5.6c0-.4-.1-.7-.2-1.1-.1-.3-.3-.6-.5-.8s-.5-.4-.8-.5c-.2-.1-.4-.1-.6-.1h-.5c-.5.1-.9.2-1.2.4-.3.2-.6.4-.8.7-.2.3-.4.6-.5 1s-.2.7-.2 1.1v5.6c0 .4.1.7.2 1.1.1.3.3.6.5.8.2.2.5.4.8.5.2.1.4.1.6.1m-5.4.7l1.7-.3V38.1l-1.7.3v10.9m-4-.9c-.2 0-.4-.1-.6-.3-.2-.2-.3-.6-.3-1.2l-1.7.5c0 .4.1.8.2 1.1.1.3.3.6.5.9.2.2.5.4.8.5.2.1.4.1.7.1h.4c.4-.1.8-.2 1.1-.3.3-.2.6-.4.9-.7.2-.3.4-.6.6-1 .1-.4.2-.8.2-1.2 0-.5-.1-.9-.3-1.3-.2-.4-.4-.7-.7-1-.3-.3-.5-.5-.9-.8-.3-.2-.6-.4-.9-.7-.3-.2-.5-.5-.7-.7s-.3-.5-.3-.8.1-.6.2-.8.4-.3.6-.4h.3c.1 0 .2.1.3.2.1.1.2.2.2.3.1.1.1.3.1.6l1.7-.4c0-.4-.1-.7-.2-1s-.3-.6-.5-.8-.4-.4-.7-.4c-.2-.1-.4-.1-.6-.1h-.4c-.9.1-1.5.5-2 1s-.7 1.2-.7 2.1c0 .5.1 1 .3 1.3.2.4.4.7.7 1 .3.3.5.5.9.7.3.2.6.4.9.7.3.2.5.5.7.7.2.3.3.6.3.9 0 .3-.1.6-.3.8-.2.2-.4.3-.8.5.1 0 0 0 0 0m-5.9.9c-.2 0-.4-.1-.6-.3-.2-.2-.3-.6-.3-1.2l-1.6.5c0 .4.1.8.2 1.1.1.3.3.6.5.9.2.2.5.4.8.5.2.1.4.1.7.1h.4c.4-.1.8-.2 1.1-.3.3-.2.6-.4.9-.7.2-.3.4-.6.6-1 .1-.4.2-.8.2-1.2 0-.5-.1-.9-.3-1.3-.2-.4-.4-.7-.7-1-.3-.3-.5-.5-.9-.8-.3-.2-.6-.4-.9-.7-.3-.2-.5-.5-.7-.7s-.3-.5-.3-.8.1-.6.2-.8.4-.3.6-.4h.3c.1 0 .2.1.3.2.1.1.2.2.2.3.1.1.1.3.1.6l1.7-.4c0-.4-.1-.7-.2-1s-.3-.6-.5-.8-.4-.4-.7-.4c-.2-.1-.4-.1-.6-.1h-.4c-.9.1-1.5.5-2 1s-.7 1.2-.7 2.1c0 .5.1 1 .3 1.3.2.4.4.7.7 1 .3.3.5.5.9.7.3.2.6.4.9.7.3.2.5.5.7.7.2.3.3.6.3.9s-.1.6-.3.8c-.2.2-.4.3-.7.4-.1.1-.1.1-.2.1M77.3 52l4.8-.7v-1.6l-3.1.5V47l2.2-.3v-1.6l-2.2.2v-2.8l2.9-.4v-1.6l-4.6.7V52m-5.9.9l1.7-.3v-4.9l2.3-.3v-1.6l-2.3.3v-2.8l3.1-.5v-1.6l-4.8.7v11m-4.5.8h.5c.5-.1.9-.2 1.2-.4.3-.2.6-.4.8-.7.2-.3.4-.6.5-1s.2-.7.2-1.1v-5.6c0-.4-.1-.7-.2-1.1-.1-.3-.3-.6-.5-.8s-.5-.4-.8-.5c-.2-.1-.4-.1-.6-.1h-.5c-.5.1-.9.2-1.2.4-.3.2-.6.4-.8.7-.2.3-.4.6-.5 1s-.2.7-.2 1.1v5.6c0 .4.1.7.2 1.1.1.3.3.6.5.8.2.2.5.4.8.5.1.1.3.1.6.1m-8.8 1.2l1.7-.3v-4.5c.2 0 .3-.1.5-.1s.3-.1.4-.1l1.2 4.3 1.8-.3-1.5-4.6c.1-.1.3-.2.4-.4.1-.2.3-.3.4-.6.1-.2.2-.5.3-.8.1-.3.1-.7.1-1.2 0-1.2-.2-2-.7-2.4-.4-.3-.9-.5-1.5-.5-.2 0-.5 0-.7.1l-2.4.4v11m-6.7 1l1.7-.3v-4.5l.8-.1c.5-.1 1-.2 1.4-.4.4-.2.7-.4 1-.7.3-.3.4-.7.6-1.1.1-.4.2-.9.2-1.5 0-1.2-.3-2-.8-2.4-.4-.3-.9-.5-1.5-.5-.3 0-.5 0-.8.1l-2.5.4-.1 11m73.5-25.4l-1.1.2-75.5 11.1-.8.1v17.8l1.1-.2L124 48.3l.8-.1v-.8l.2-15.8-.1-1.1zm-11.2 6l.6-.1 1.1 6.5-.6.1-1.9.3h-.3l1.1-6.8zm-7.7 1.2l.8 2.1h-.3l-.5.1v-2.2zm-5.5 10h-.4c-.2-.1-.3-.1-.4-.2s-.2-.3-.3-.5c-.1-.2-.1-.5-.1-.8v-5.6c0-.3 0-.6.1-.8.1-.3.2-.5.3-.7.1-.2.3-.4.6-.5.2-.1.5-.2.8-.3h.8c.2.1.3.1.4.2.1.1.2.3.3.5.1.2.1.5.1.8v5.6c0 .3 0 .6-.1.8-.1.3-.2.5-.3.7-.1.2-.3.4-.6.5-.2.1-.5.2-.8.3h-.4zm-8-2.2l-.6-.6c-.3-.2-.6-.5-.9-.7s-.5-.4-.7-.6c-.1-.1-.2-.2-.3-.4.2.2.4.5.7.7.3.2.6.5.9.7s.5.4.7.6c.1.1.1.2.2.3zm-25.6 7.3h-.4c-.2-.1-.3-.1-.4-.2s-.2-.3-.3-.5c-.1-.2-.1-.5-.1-.8v-5.6c0-.3 0-.6.1-.8.1-.3.2-.5.3-.7.1-.2.3-.4.6-.5.2-.1.5-.2.8-.3h.8c.2.1.3.1.4.2.1.1.2.3.3.5.1.2.1.5.1.8v5.6c0 .3 0 .6-.1.8-.1.3-.2.5-.3.7-.1.2-.3.4-.6.5-.2.1-.5.2-.8.3-.2-.1-.3 0-.4 0zm41.7-9.2l.3-.1.5-.1V46l-.8-2.4zm-22 2.8l-.6-.6c-.3-.2-.6-.5-.9-.7s-.5-.4-.7-.6c-.1-.1-.2-.2-.3-.4.2.2.4.5.7.7.3.2.6.5.9.7s.5.4.7.6c.1.1.2.2.2.3zM59 44.7l1.6-.2h.6c.4 0 .7.1.9.2.3.2.4.8.4 1.7 0 .4 0 .7-.1 1-.1.2-.1.5-.2.6-.1.2-.2.3-.2.4-.1.1-.2.2-.3.2l-.4.3-.9.3c-.1 0-.2 0-.3.1-.2 0-.3.1-.5.1l-.6-.1v-4.6zm-6.6 1l1.7-.3c.3 0 .5-.1.7-.1.4 0 .8.1 1 .2.3.2.4.8.4 1.7 0 .5-.1.9-.2 1.3-.1.3-.2.5-.4.7-.2.2-.4.3-.7.5-.3.1-.7.2-1.2.3l-.8.1-.5.2v-4.6z"/><path class="st1" d="M52.7 45.8l1.1-.2h.8c.3 0 .5.1.7.3s.3.4.4.7c.1.2.1.5.1.9s0 .7-.1.9c-.1.3-.2.5-.3.8-.2.2-.4.4-.6.5s-.5.2-.8.2l-1.2.2-.1-4.3z"/><path class="st2" d="M54.3 46.1h.2c.2 0 .3.1.5.2.1.1.2.3.2.5s.1.5.1.8 0 .6-.1.8c0 .2-.1.4-.2.6-.1.1-.3.3-.5.3-.2.1-.4.1-.7.2l-.7.1v-3.4l.7-.1h.5m0-.9h-.6l-.7.1-.8.1v5.3l1.1-.2.7-.1c.4-.1.7-.1.9-.2.3-.1.6-.4.8-.6.2-.3.3-.6.4-.9s.1-.6.1-1 0-.7-.1-1c-.1-.4-.3-.7-.5-1-.3-.2-.6-.4-1-.4 0-.1-.2-.1-.3-.1z"/><path class="st1" d="M116.3 28.9l7.3 2.1-7.3.9z"/></svg>