<svg id="Layer_1" xmlns="http://www.w3.org/2000/svg" viewBox="0 0 124 50"><style>.st0{fill:#747678}</style><path class="st0" d="M0 24.3C0 11.8 7.3 8.2 9.2 8.2c1.8 0 3.2.3 3.2.3l-.2 4.8c-.5-.1-1-.1-1.9-.1-1.8 0-4.6 4.3-4.6 11.3s2.9 11 4.6 11c.8 0 2-.4 2.5-.5l-.1 4.9s-1.9.6-3.7.7c-2.1-.2-9-3.8-9-16.3zm91.4 0c0-12.5 7.3-16.1 9.2-16.1 1.8 0 3.2.3 3.2.3l-.2 4.8c-.5-.1-1-.1-1.9-.1-1.8 0-4.6 4.3-4.6 11.3s2.9 11 4.6 11c.8 0 2-.4 2.5-.5l-.1 4.9s-1.9.6-3.7.7c-2.1-.2-9-3.8-9-16.3zm-72.6 0c0-7.8.9-10.8 1.9-10.8 1.1 0 1.9 3 1.9 10.8s-.9 10.8-1.9 10.8-1.9-2.9-1.9-10.8zm2 16.1c2.8 0 7.6-2.2 7.6-16.3 0-14-4.8-16-7.6-16s-8 1.9-8 16 5.1 16.3 8 16.3zm42.7-24.9c.2-.7 1.9-1.8 2.5-1.8 1.1 0 2.6 2.6 2.8 7.9.3 8.1-3.7 13.2-5.2 13.6V15.5h-.1zm-5 34.5h5.3V39.2c2.8-.4 10-2.8 10-16.4 0-10.1-3.3-14.9-7.8-14.9 0 0-.4 0-.6.1l-1.7 2V8h-5.2v42zm25.7-15.8c-.1.6-.5 1.4-1.2 1.4-.6 0-2.9-.8-3.2-4.8-.5-6.3 3.7-10.1 4.4-10.1v13.5zm0-17.4c-2.3.2-9.7 4-9.5 13.2.2 6.9 4 10.4 7.3 10.4.2 0 .4 0 .7-.1l1.9-2.5v2.3h5.1V19.9c0-9.5-2.7-11.7-7.1-11.7-2.6 0-5.1.7-5.1.7v5.5c1.3-.4 3.1-.6 4.5-.6s2.1 2.3 2.1 3.6l.1-.6zM112.4 27c0 4.2 1.4 8.1 3 8.1.4 0 .8-.1 1.2-.1l.2 5s-.9.2-1.9.2c-2.6 0-8.1-1.8-8.1-14.3V13.2h-1.9V8.5h1.9V0h5.3v8.5h3.9v4.7h-3.7l.1 13.8zm-72-7.3c0-2.3-.6-5.2-2-5.2-2.2 0-2.1 3-2.1 5.2v20.5h-5.7V8.3h5.9v1.8L38 8c.2-.1.3-.1.6-.1 1.7 0 3.5.7 4.8 2.2 1.4-1.7 3-2.2 4.8-2.2 4.8 0 7.4 4.3 7.4 13.5V40h-5.7V19.7c0-2.3-.3-5.1-1.7-5.1-2.1.1-2.3 2.8-2.3 5.1v20.5h-5.7V19.7h.2zM124 38c0 .8-.3 1.4-.8 1.9s-1.2.8-1.9.8c-.8 0-1.4-.3-1.9-.8s-.8-1.2-.8-1.9c0-.8.3-1.4.8-1.9s1.2-.8 1.9-.8c.8 0 1.4.3 1.9.8s.8 1.1.8 1.9zm-.6 0c0-.6-.2-1.1-.6-1.5-.4-.4-.9-.6-1.5-.6s-1.1.2-1.5.6c-.4.4-.6.9-.6 1.5s.2 1.1.6 1.5c.4.4.9.6 1.5.6s1.1-.2 1.5-.6c.4-.4.6-.9.6-1.5zm-.6 1.3h-.9l-.8-1h-.3v1h-.7v-2.7h1.5c.1 0 .2.1.3.1l.3.3c.1.1.1.2.1.4s-.1.4-.2.5c-.1.1-.3.2-.4.3l1.1 1.1zm-1.2-1.9v-.2l-.1-.1c-.1 0-.1 0-.2-.1h-.4v.8h.5c.1 0 .1 0 .2-.1l.1-.1c-.1-.1-.1-.2-.1-.2z"/></svg>