<svg id="full_color" xmlns="http://www.w3.org/2000/svg" viewBox="0 0 130 35.9"><style>.st0{fill:#747678}</style><path class="st0" d="M35.4 1h5.5v34h-5.5V1zM72 18c3.9 2 7 4.9 8.3 7.7.6 1.3 1 2.6 1 3.8 0 2.2-1 3.6-1.9 4.5-1.2 1.2-2.8 1.9-4.5 1.9-1.2 0-2.5-.3-3.8-1-2.8-1.4-5.6-4.4-7.7-8.3-2 3.9-4.9 6.9-7.7 8.3-1.3.6-2.6 1-3.8 1-1.7 0-3.3-.6-4.5-1.9-.9-.9-1.9-2.3-1.9-4.5 0-1.2.3-2.5 1-3.8 1.4-2.8 4.4-5.6 8.3-7.7-3.9-2-7-4.8-8.3-7.7-.6-1.3-.9-2.6-1-3.8 0-2.2 1-3.7 1.9-4.5C48.6.8 50.2.1 51.9.1c1.2 0 2.5.3 3.8 1 2.8 1.4 5.6 4.4 7.7 8.3 2-3.9 4.8-6.9 7.7-8.3 1.3-.6 2.6-1 3.8-1 1.7 0 3.3.6 4.5 1.9.9.9 1.9 2.3 1.9 4.5 0 1.2-.3 2.5-1 3.8-1.4 2.8-4.4 5.7-8.3 7.7m-41.1 0c0 4.8-1.8 9.2-5.1 12.3-3.3 3.1-7.7 4.7-12.4 4.7H0V1h13.4c4.8 0 9.2 1.7 12.4 4.7 3.3 3.1 5.1 7.5 5.1 12.3m-5.6 0c0-3.5-1.2-6.5-3.3-8.6s-5.2-3.2-8.6-3.2H5.5V30h7.8c3.4 0 6.4-1.2 8.6-3.2 2.2-2.3 3.4-5.3 3.4-8.8m60.6 17h5.5V1h-5.5v34zm39.1-9.9l3.9 3.5-.7.9c-3.3 4.2-8.1 6.3-14.3 6.3-5 0-9.5-1.8-12.8-5.2-3.2-3.3-5-7.8-5-12.7 0-4.8 1.8-9.3 5-12.7 3.2-3.3 7.5-5.2 12.1-5.2 9.9 0 16.6 7.4 16.8 18.4v1.3h-28.3c.8 6.6 5.5 10.8 12.1 10.8 4.6 0 7.7-1.4 10.3-4.6l.9-.8zm-23-10.4h22.2c-.5-2.6-1.6-4.8-3-6.4-1.9-2-4.6-3.1-7.9-3.1-5.8.1-10.1 3.8-11.3 9.5M76.1 9.3c.5-.8.7-1.5.8-2 .1-1.1-.3-1.7-.6-2.1-.5-.5-1.2-.7-2.1-.6-.6.1-1.3.3-2 .8-3.7 2.2-6.5 6.2-7 10.3l-.1.8.8-.1c4-.7 8-3.4 10.2-7.1m-14.3 7.1l-.1-.8c-.5-4.1-3.3-8.1-7-10.3-.7-.4-1.4-.7-2-.8-.8-.1-1.5.1-2.1.6-.3.4-.8 1-.6 2.1.1.5.3 1.2.8 2 2.2 3.7 6.2 6.5 10.3 7l.7.2zm0 3.2l-.8.1c-4.1.5-8.1 3.3-10.3 7-.5.8-.7 1.5-.8 2-.1 1.1.3 1.7.6 2.1.5.5 1.2.7 2.1.6.6-.1 1.3-.3 2-.8 3.7-2.2 6.5-6.2 7-10.3l.2-.7zm4 .1l-.8-.1.1.8c.5 4.1 3.3 8.1 7 10.3.7.4 1.4.7 2 .8.8.1 1.5-.1 2.1-.6.3-.4.8-1 .6-2.1-.1-.6-.3-1.2-.8-2-2.1-3.8-6.1-6.5-10.2-7.1"/></svg>