<svg id="Layer_1" xmlns="http://www.w3.org/2000/svg" viewBox="0 0 123.9 28.1"><style>.st0{fill:#747678}</style><path class="st0" d="M51.9 26l-.2.9h-.6l1.5-5.5h.6l-.6 2.3c.4-.4.9-.8 1.5-.8.9 0 1.5.7 1.5 1.6 0 .7-.3 1.3-.7 1.8-.4.4-.9.6-1.5.6-.8 0-1.2-.4-1.5-.9zm2.5 0c.3-.4.6-.9.6-1.4 0-.7-.4-1.2-1.1-1.2-.4 0-.8.2-1.2.5-.3.3-.6.8-.6 1.3 0 .7.5 1.2 1.2 1.2.5 0 .8-.2 1.1-.4zm2.1-3h.6l.5 3.2 2.1-3.2h.7l-2.7 4c-.6.8-1 1.1-1.6 1.1-.3 0-.6-.1-.9-.3l.3-.4c.1.1.4.2.6.2.3 0 .6-.2 1-.7l-.6-3.9zm6.4 1.2c0-1.5 1.1-2.7 2.6-2.7.9 0 1.4.3 2 .7l-.4.5c-.4-.4-.9-.6-1.6-.6-1.2 0-2 1-2 2.2 0 1.3.8 2.2 2.1 2.2.6 0 1.2-.2 1.5-.5v-1.3h-1.6V24h2.2v2.1c-.5.4-1.2.8-2.1.8-1.7 0-2.7-1.2-2.7-2.7zm5.8.7c0-1.1.8-2 1.9-2 1.2 0 1.8.9 1.8 2.1v.2h-3.1c.1.8.7 1.3 1.4 1.3.5 0 .9-.2 1.2-.6l.4.3c-.4.4-.9.7-1.6.7-1.1 0-2-.8-2-2zm3.1-.2c-.1-.7-.5-1.3-1.2-1.3s-1.2.6-1.3 1.3h2.5zm1.4.2c0-1.1.9-2 2-2 1.2 0 2 .9 2 2s-.9 2-2 2c-1.2 0-2-.9-2-2zm3.4 0c0-.9-.6-1.5-1.4-1.5s-1.4.7-1.4 1.5.6 1.5 1.4 1.5 1.4-.7 1.4-1.5zm1.7-1.9h.6v1c.3-.6.9-1.1 1.6-1.1v.6c-.9 0-1.5.6-1.5 1.8v1.6h-.6l-.1-3.9zm2.8 4.5l.3-.5c.4.3.9.5 1.5.5.9 0 1.4-.5 1.4-1.4v-.5c-.3.5-.8.8-1.5.8-.9 0-1.8-.7-1.8-1.8s.9-1.8 1.8-1.8c.7 0 1.2.4 1.5.8V23h.6v3.2c0 .6-.2 1.1-.5 1.4-.3.3-.9.5-1.5.5-.7 0-1.3-.2-1.8-.6zm3.2-2.8c0-.8-.7-1.3-1.4-1.3s-1.3.5-1.3 1.3.6 1.3 1.3 1.3c.7 0 1.4-.5 1.4-1.3zm1.9-3.2h.7v.6h-.7v-.6zm0 1.5h.6v3.9h-.6V23zm1.7 2.7c0-.8.7-1.3 1.7-1.3.5 0 .9.1 1.2.2v-.1c0-.7-.4-1.1-1.2-1.1-.5 0-.8.1-1.2.3l-.2-.5c.4-.2.9-.3 1.4-.3s1 .1 1.3.4c.3.3.4.6.4 1.1v2.4h-.6v-.6c-.3.4-.7.7-1.4.7s-1.4-.4-1.4-1.2zm2.8-.3V25c-.3-.1-.7-.2-1.1-.2-.7 0-1.1.3-1.1.8s.5.8 1 .8c.6.1 1.2-.4 1.2-1zm1.7-1.1h2.1v.6h-2.1v-.6zm3.3-2.7h2c1.2 0 2 .6 2 1.7s-.9 1.7-2.1 1.7h-1.3v1.9h-.6v-5.3zm1.9 2.8c.9 0 1.4-.5 1.4-1.2 0-.8-.6-1.1-1.4-1.1h-1.3v2.3h1.3zm2.6 1.3c0-.8.7-1.3 1.7-1.3.5 0 .9.1 1.2.2v-.1c0-.7-.4-1.1-1.2-1.1-.5 0-.8.1-1.2.3l-.2-.5c.4-.2.9-.3 1.4-.3s1 .1 1.3.4c.3.3.4.6.4 1.1v2.4h-.6v-.6c-.3.4-.7.7-1.4.7-.6 0-1.4-.4-1.4-1.2zm2.9-.3V25c-.3-.1-.7-.2-1.1-.2-.7 0-1.1.3-1.1.8s.5.8 1 .8c.6.1 1.2-.4 1.2-1zm1.6-.5c0-1.1.9-2 2-2 .7 0 1.2.3 1.6.7l-.4.4c-.3-.3-.7-.6-1.2-.6-.8 0-1.4.7-1.4 1.5s.6 1.5 1.4 1.5c.5 0 .9-.2 1.2-.6l.4.3c-.4.4-.9.8-1.6.8-1.2 0-2-.9-2-2zm4.5-3.4h.7v.6h-.7v-.6zm.1 1.5h.6v3.9h-.6V23zm2.1.5h-.5V23h.5v-.3c0-.4.1-.8.3-1 .2-.2.5-.3.8-.3s.5 0 .6.1v.5c-.2-.1-.4-.1-.6-.1-.5 0-.7.3-.7.8v.3h1.2v.5h-1.2v3.4h-.4v-3.4zm2.6-2h.7v.6h-.7v-.6zm0 1.5h.6v3.9h-.6V23zm1.7 1.9c0-1.1.9-2 2-2 .7 0 1.2.3 1.6.7l-.4.4c-.3-.3-.7-.6-1.2-.6-.8 0-1.4.7-1.4 1.5s.6 1.5 1.4 1.5c.5 0 .9-.2 1.2-.6l.4.3c-.4.4-.9.8-1.6.8-1.1 0-2-.9-2-2zm-81-9.6c-2 0-3.2-1.3-3.2-3 0-2.8 1.7-4.4 4.2-4.4.8 0 1.6.2 2.4.5.5-1.1 1.2-2.1 2-2.9-1.4-.5-3.6-1-4.6-1-5.2 0-8.8 3.5-8.8 8 0 3.4 2.5 6.2 6.4 6.2 1.8 0 3.4-.2 5.7-.9-.7-.9-1.2-1.9-1.4-3-.9.4-1.7.5-2.7.5zM5.3 18.5h9.3c.2-4-.3-8.2 1-12 .7-2.1 2.2-4.3 3.8-6.2h-.7c-.1.1-.3.2-.5.3h-.1c-.1.1-.3.2-.5.3-.1.1-.2.1-.3.2-.1.1-.2.1-.3.2l-.6.6c-.1.2-.3.3-.4.5-.1.1-.1.2-.2.3-2.3 3-1.4 6.6-3 9.9-.7 1.8-2.6 4.2-7.5 5.9z"/><path class="st0" d="M16.7 1.9l.6-.6c.1-.1.2-.2.3-.2.1-.1.2-.2.3-.2.2-.1.3-.2.5-.3h.1c.2-.1.3-.2.5-.3h-.4c-.7 0-1.7 0-3 .1-1.2.1-2.7.2-4.2.5s-3.1.7-4.7 1.4c-.8.3-1.5.9-2.1 1.3-.6.5-1.3 1-1.8 1.5-.6.5-1 1.1-1.4 1.7C1 7.4.7 8 .5 8.6.1 9.8 0 10.8 0 11.5c0 .4 0 .6.1.8v-.8c0-.7.2-1.7.7-2.7.3-.5.6-1 1-1.6.4-.5.9-1 1.5-1.4.6-.5 1.2-.9 1.8-1.2.7-.4 1.3-.7 2-1 1.4-.5 2.9-.7 4.4-.8 1.4-.1 2.8-.1 4 0h.5c.1-.1.1-.2.2-.3.2-.3.3-.5.5-.6z"/><path class="st0" d="M8.7 5.5c-.4.3-.9.6-1.3 1-.5.4-.9.8-1.3 1.2-.4.5-.9 1-1.3 1.5-.2.3-.4.6-.6.8l-.5.9-.5.9c-.1.3-.3.6-.4.9-.3.6-.5 1.3-.7 1.9-.2.6-.3 1.2-.4 1.8-.1.7-.2 1.3-.2 1.7-.1.7-.1 1.5 0 2.5 0 .6.5 1.1 1.1 1 .5-.1 1-.6.8-1.3-.1-.9-.2-1.7-.2-2.3v-1.5c0-.5.1-1.1.2-1.7.1-.6.3-1.2.5-1.8l.3-.9.4-.9.4-.9c.2-.3.3-.6.5-.8.3-.5.7-1.1 1.1-1.5.4-.5.8-.9 1.2-1.3.4-.4.8-.8 1.2-1.1.8-.6 1.5-1.1 2-1.4.5-.3.8-.4.8-.4s-.4.2-.9.5c-.6.2-1.3.6-2.2 1.2zm18.6-1.8L28 .3H17.1c-.2.9-.5 2.1-1 3.7-1.4 5-1.6 4.4-1.8 5.8-.4 3.4.9 5.3-.5 8.4-.1.1-.1.3-.2.3h10.8l.7-3.4h-8.3l.9-4.1h7.6l.8-3.4h-7.7l.8-3.8 8.1-.1zm36.1-2.2c1.3 0 2.6.3 3.7.9l.5-1.6C66.3.3 64.9 0 63.4 0c-3.2 0-6.2 1.5-6.2 5.1 0 4.2 6.7 4.5 6.7 8.3 0 2.8-2.6 3.9-5.1 3.9-1.3 0-2.8-.4-3.9-1.1l-.5 1.6c.8.4 2.2 1 4.6 1 3.3 0 6.7-2 6.7-5.7 0-4.7-6.7-5-6.7-8.2 0-2.5 2.4-3.4 4.4-3.4zm6.2 5.9c.2-.7.3-1.5.3-2.2h1.6c-.1.8-.2 1.5-.3 2h.1c1.3-1.7 2.3-2.3 4.1-2.3 1.9 0 3.3 1 3.3 3h.1c.9-1.9 2.4-3 4.5-3 2.3 0 3.8 1.5 3.8 3.9 0 .5-.2 1.5-.4 2.5l-1.5 7.2h-1.7l1.5-7c.2-.8.3-1.6.3-2.6 0-1.5-.6-2.6-2.2-2.6-2.7 0-4.1 3.1-4.6 5.5l-1.4 6.8h-1.7l1.5-7c.2-.8.3-1.6.3-2.6 0-1.5-.6-2.6-2.2-2.6-2.7 0-4.1 3.1-4.6 5.5L69 18.7h-1.7l2.3-11.3zm28.9 7.9c-.3 1-.4 2.2-.5 3.2h-1.6c.1-.7.1-1.4.3-2h-.1c-1.1 1.7-2.6 2.3-4.5 2.3-2.1 0-3.8-1.5-3.8-3.7 0-3.9 4.4-4.7 7.6-4.7.7 0 1.3.1 1.8.1.1-.4.1-.8.1-1.3 0-1.8-1-2.9-2.8-2.9-1.5 0-3.1.7-3.9 1.1l.2-1.7c.9-.4 2.5-.9 4-.9 2.9 0 4.4 1.6 4.4 4.3 0 .5-.1 1.5-.3 2.5l-.9 3.7zm-5.9 2.1c3.1 0 4.5-2.8 4.9-5.6-.5 0-1.1-.1-1.6-.1-2.2 0-5.8.3-5.8 3.3-.1 1.5 1.2 2.4 2.5 2.4zm10.7-9.9c.2-.8.3-1.5.4-2.4h1.6c-.1.8-.2 1.5-.3 2h.1c.8-1.3 2-2.3 3.7-2.3.5 0 1 .1 1.4.2l-.4 1.7c-.4-.2-.9-.2-1.4-.2-2.7 0-3.8 3-4.3 5.4l-1.4 6.6H101l2.3-11zm11.5-5.3l1.9-.7-.8 3.6h3.5l-.3 1.4h-3.4l-1.4 6.6c-.2.9-.4 1.7-.4 2.6 0 1 .5 1.6 1.5 1.6.5 0 .9-.1 1.4-.4l-.2 1.4c-.5.2-1 .4-1.7.4-1.9 0-2.9-1-2.9-2.5 0-1.1.5-3.3.6-3.8l1.3-5.9h-2.7l.4-1.4h2.6l.6-2.9zM47.6 4.5c-5.3 0-8.8 3.2-8.8 8 0 3.4 2 6.2 7.1 6.2s8.8-2.5 8.8-8.1c0-3.4-2.5-6.1-7.1-6.1zm-1.4 11c-1.6 0-2.6-1.2-2.6-3 0-2.2 1.4-4.6 3.7-4.6 1.8 0 2.5 1.3 2.5 2.7 0 3.1-1.4 4.9-3.6 4.9zm74.3-13.1h-.6v-.3h1.7v.3h-.6v1.7h-.4l-.1-1.7zm1.4-.3h.4l.6 1 .6-1h.4v2h-.4V2.6l-.6 1-.6-1v1.5h-.4v-2z"/></svg>