<svg xmlns="http://www.w3.org/2000/svg" viewBox="0 0 127 20.9"><path d="M18.2 10.6c.4-1.2.9-2.3 1.2-3.5h4.3L23 9.3c1.6-1.5 3.2-2.5 5.6-2.5 2.7 0 3.8 2 3.3 4.6-.2.9-.3 1.4-.9 2.8l-2.4 6.3h-4.8l2.4-6.3c.3-.7.6-1.3.7-2 .1-.8-.2-1.6-1.5-1.5-2 0-3.4 1.7-4.1 3.7L19 20.5h-4.6l3.8-9.9zm-6 9.1c-1.9.8-3.9 1.1-6.4 1-4.5-.1-6.4-2.8-5.7-6.2.9-4.1 4.2-7.9 10.2-7.9 4.5 0 6.4 2.9 5.9 6-.1.8-.4 1.6-.7 2.4H4.9c-.1 1.5.4 2.6 3.2 2.6 1.2 0 3-.3 5.3-1.2l-1.2 3.3m-.6-7.3c.3-1.4-.5-2.5-2-2.5-2 0-3.3 1.4-3.9 2.5h5.9zm51.9 8.4c-5 0-6.5-2.8-5.9-6.1.9-4.7 4.9-7.9 10.1-7.9 4.6 0 6.5 2.6 5.9 6-1 5.6-5.1 8-10.1 8M66.9 10c-2.2 0-4.1 2.4-4.5 4.6-.3 1.8.4 3 2 3 2.2 0 3.9-1.8 4.4-4.9.3-1.4-.1-2.7-1.9-2.7zm23.9-8.7L96 0l-1.9 4.9h-4.7zm7.3 19.5c-5 0-6.5-2.8-5.9-6.1.9-4.7 4.9-7.9 10.1-7.9 4.6 0 6.5 2.6 5.9 6-1 5.6-5.1 8-10.1 8m3.4-10.8c-2.2 0-4.1 2.4-4.5 4.6-.3 1.8.4 3 2 3 2.2 0 3.9-1.8 4.4-4.9.3-1.4-.1-2.7-1.9-2.7zm9.2.6c.4-1.2.9-2.3 1.2-3.5h4.3l-.8 2.2h.1c1.6-1.5 3.2-2.5 5.6-2.5 2.7 0 3.8 2 3.3 4.6-.2.9-.3 1.4-.9 2.8l-2.4 6.3h-4.8l2.4-6.3c.2-.7.6-1.3.7-2 .1-.8-.2-1.6-1.5-1.5-2 0-3.4 1.7-4.1 3.7l-2.5 6.2h-4.6l4-10zM88.5 7.1l-.6 1.5c.1 0 .1.1.2.1l2 1.4h-2.8l-4.1 10.4H88l5.2-13.4h-4.7zM60.8.6c6.7-.7 15.4-.1 20 1.2-1.4.3-2.6.6-2.8.7C73.8 1.1 65.9.4 60.8.6z"/><path d="M79.1 16.4c.1-.6.4-1.3.8-2.3l1.9-4.7h5.8c-1.4-1-3-1.9-4.7-2.7l1.5-3.8-5.1 1.3-.4 1c-5.2-1.7-11.4-2.6-18.6-2.9-10-.4-21.6.5-33.7 2.5C33.8 3.7 61.6.1 78 7.3l-2.7 6.8c-.6 1.4-.8 2.1-.9 2.8-.5 2.8 1.2 4 3.5 4 .9 0 1.9-.1 2.9-.3l1.1-3.1c-.5.2-1.1.4-1.6.4-.8 0-1.3-.6-1.2-1.5z"/><path d="M52.3 3.7l-7.1 10.9h-.1l1.7-10.8c-2.8.1-5.5.2-8 .4l-6.5 16.3h4.4L42 7.2h.1l-1.5 13.3h4.5l9.2-13.3h.1L49 20.5h4.7l6.5-16.4c-2.6-.2-5.3-.3-7.9-.4zM127 19c0 .5-.2.9-.5 1.3-.4.4-.8.5-1.3.5s-1-.2-1.3-.5c-.4-.4-.5-.8-.5-1.3s.2-1 .5-1.3c.4-.4.8-.5 1.3-.5s1 .2 1.3.5.5.8.5 1.3zm-.4 0c0-.4-.1-.7-.4-1-.3-.3-.6-.4-1-.4s-.7.1-1 .4c-.3.3-.4.6-.4 1s.1.7.4 1c.3.3.6.4 1 .4s.7-.1 1-.4c.2-.3.4-.6.4-1zm-.4.9h-.6l-.6-.7h-.2v.7h-.5v-1.8h1c.1 0 .2 0 .2.1.1 0 .1.1.2.2 0 .1.1.2.1.3s0 .2-.1.3-.2.2-.3.2l.8.7zm-.8-1.3c0-.1 0-.2-.1-.2h-.4v.5h.3c.1 0 .1 0 .1-.1l.1-.1v-.1z"/></svg>