<?xml version="1.0" encoding="utf-8"?>
<!-- Generator: Adobe Illustrator 22.1.0, SVG Export Plug-In . SVG Version: 6.00 Build 0)  -->
<svg version="1.1" id="Layer_1" xmlns="http://www.w3.org/2000/svg" xmlns:xlink="http://www.w3.org/1999/xlink" x="0px" y="0px"
	 viewBox="0 0 234.7 66" style="enable-background:new 0 0 234.7 66;" xml:space="preserve">
<style type="text/css">
	.st0{fill:#076EB7;}
	.st1{fill:#FFFFFF;}
	.st2{fill:#231F20;}
</style>
<path class="st0" d="M38.4,11L38.4,11l34.2,34.5H45.1c-1.3,0-2.2,0.1-3,0.6c-0.9,0.5-1.4,1.2-1.9,2.2c0,0-1.8,3.7-1.8,3.7
	s-1.8-3.7-1.8-3.7c-0.5-1.1-0.9-1.7-1.9-2.2c-0.8-0.4-1.6-0.6-3-0.6H4.2L38.4,11z"/>
<path class="st1" d="M37.4,41.9c-1.6,0.5-4,1.2-7,1.2c-6.7,0-9.6-3.4-9.6-7.8c0-5,4-8,9.7-8c3,0,4.9,0.5,6.8,1.3v3.5h-0.5
	c-1.4-1.1-3-2-5.7-2c-3.4,0-5.6,1.9-5.6,4.9c0,2.7,1.3,5.2,5.7,5c0.4,0,1.2-0.1,1.6-0.3v-2.8h-3.6v-2.8h8.1V41.9z"/>
<path class="st1" d="M52.1,28.5c-1.2-0.7-2.9-0.9-4.7-0.9h-7.8v15.1h4.5v-4.9h3.1c1.8,0,3.4-0.2,4.8-1c1.6-0.9,2.4-2.3,2.4-4.4
	C54.5,30.5,53.7,29.4,52.1,28.5 M49.8,32.7c0,1.1-0.6,1.6-1.2,1.9C48,34.9,47.1,35,46.4,35h-2.2v-4.5h2.2c0.8,0,1.6,0,2.2,0.3
	C49.2,31.1,49.8,31.6,49.8,32.7"/>
<path d="M134.7,39.8c-0.6,0-1.1-0.1-1.5-0.4c-0.6-0.5-0.9-1.4-0.9-2.5c0-1.9,1-3.2,2.5-3.2c0.7,0,1.3,0.2,1.7,0.5v5
	C136,39.6,135.4,39.8,134.7,39.8 M140.1,31.3h-3.4l-0.1,0.5c-0.8-0.6-1.8-0.9-3.1-0.9c-2.4,0-4.8,1.9-4.9,5.9c0,3.5,1.9,5.8,4.9,5.7
	c1.3,0,2.2-0.5,3-1.2v0.2c0,0.5,0,0.9-0.1,1.2c-0.3,1.2-1.5,1.6-2.9,1.6c-1.2,0-2.4-0.4-3.2-0.8h-0.4v2.9c1.3,0.3,3.1,0.5,4.1,0.5
	c2.1,0,4.6-0.4,5.6-2.9c0.3-0.7,0.4-1.6,0.4-2.7V31.3z"/>
<path d="M92.8,41.9c-0.9,0.5-3,1.1-5.8,1.1c-4.7,0-7.9-2.9-7.9-7.9c0-4.3,2.9-7.8,8-7.8c2.6,0,4.2,0.4,5.6,1.1v3.5h-0.4
	c-1.4-1.2-2.8-1.8-4.7-1.7c-3,0.1-4.5,2.3-4.6,5c0,2.7,1.2,5,4.6,5c0.5,0,1-0.1,1.4-0.2v-2.8h-2.2v-2.8h6V41.9z"/>
<path d="M115.4,37c0,2.2-0.7,3.5-2.3,3.5c-1.7,0-2.3-1.3-2.3-3.5c0-2.2,0.7-3.5,2.3-3.5C114.8,33.5,115.4,34.8,115.4,37 M119,37
	c0-3.9-2.4-6-6-6c-3.6,0-6,2.1-6,6c0,4,2.4,6.1,6,6.1C116.6,43.1,119,41,119,37"/>
<path d="M128.1,34.8h-0.3c-0.4-0.1-0.9-0.2-1.5-0.2c-0.9,0-1.6,0.3-2.2,0.7v7.5h-3.5V31.3h3.5V33c0.3-0.4,1.1-1.1,1.7-1.4
	c0.6-0.3,1.1-0.3,1.6-0.3c0.4,0,0.7,0,0.8,0V34.8z"/>
<path d="M176.8,32.4c-0.1-3.6-2.6-4.8-5.8-4.8h-6.1V35h-4.4v2.8h4.4v4.9h3.7v-4.9h2.1C175.1,37.8,176.9,35.4,176.8,32.4 M169.6,35
	h-1v-4.5h1.4c1.8,0,2.9,0.5,2.9,2.1C172.9,34.6,171.4,35,169.6,35"/>
<path d="M195.4,43.1c-3.8,0-6.5-1.9-6.5-6c0-4,2.6-6.1,6.4-6.1c1.6,0,2.8,0.4,3.8,0.9V35h-0.5c-1-0.9-1.8-1.4-3.2-1.4
	c-1.8,0-2.9,1.3-2.9,3.5c0,2.3,1.1,3.4,3,3.4c1.4,0,2.3-0.5,3.1-1.4h0.5v3.1C198,42.7,196.8,43.1,195.4,43.1"/>
<path d="M204.4,42.7h-3.5V31.3h3.5V42.7z M204.4,29.7h-3.5v-2.8h3.5V29.7z"/>
<path d="M213.8,29.6h-0.4c-0.4-0.2-0.8-0.4-1.4-0.4c-0.5,0-0.8,0.1-1,0.4c-0.2,0.3-0.3,0.7-0.3,1.4v0.3h3.1v2.5h-3v8.9h-3.5v-8.9
	h-1.6v-2.5h1.6v-0.7c0-1.3,0.2-2.1,0.9-2.8c0.7-0.7,1.8-1,3.1-1c1,0,2,0.1,2.5,0.3V29.6z"/>
<path d="M226.7,43.1c-3.8,0-6.5-1.9-6.5-6c0-4,2.6-6.1,6.4-6.1c1.6,0,2.8,0.4,3.8,0.9V35h-0.5c-1-0.9-1.8-1.4-3.2-1.4
	c-1.8,0-2.9,1.3-2.9,3.5c0,2.3,1.1,3.4,2.9,3.4c1.4,0,2.3-0.5,3.1-1.4h0.5v3.1C229.3,42.7,228.1,43.1,226.7,43.1"/>
<path d="M218.8,42.7h-3.5V31.3h3.5V42.7z M218.8,29.7h-3.5v-2.8h3.5V29.7z"/>
<path d="M145.9,42.7h-3.5V31.3h3.5V42.7z M145.9,29.7h-3.5v-2.8h3.5V29.7z"/>
<path d="M105.8,37.2c0-1.4-0.2-2.9-1-4c-0.8-1.2-2.3-2.1-4.4-2.2c-4.1-0.1-6.1,2.6-6.1,6.2c0,3.9,2.9,5.9,6.8,5.9
	c2.1,0,3.4-0.5,4.5-1.1v-2.7h-0.4c-1.1,0.9-2.4,1.4-3.9,1.4c-2.4,0-3.4-1.3-3.5-2.6h7.9V37.2z M97.8,35.8c0-0.5,0.2-1.1,0.5-1.5
	c0.5-0.7,1-0.9,1.9-0.9c1.3,0,2,1,2.1,2.4H97.8z"/>
<path d="M182.1,40.6c-1.2,0.1-1.8-0.3-1.9-1.3c0-1.1,0.9-1.6,2.3-1.8c0.6-0.1,1.1-0.1,1.5-0.2v2.4C183.6,40.2,182.8,40.5,182.1,40.6
	 M184.1,42.7h3.5V35c0-1.4-0.4-2.4-1.3-3c-0.9-0.6-2.2-1-4.1-1c-0.7,0-2.8,0.2-4.2,0.6v2.7h0.3c0.9-0.5,2-0.9,3.2-0.9
	c0.8,0,1.5,0.1,1.9,0.3c0.7,0.4,0.7,0.9,0.7,1.5v0.1c-1,0.1-2,0.2-3,0.3c-3.2,0.4-4.4,1.8-4.4,3.9c0,2.2,1.6,3.5,3.6,3.6
	c1.6,0.1,2.7-0.3,3.8-1.3V42.7z"/>
<path d="M153.1,40.6c-1.2,0.1-1.8-0.3-1.9-1.3c0-1.1,0.9-1.6,2.3-1.8c0.6-0.1,1.1-0.1,1.5-0.2v2.4C154.7,40.2,153.8,40.5,153.1,40.6
	 M155.1,42.7h3.5V35c0-1.4-0.4-2.4-1.3-3c-0.9-0.6-2.3-1-4.3-1c-0.7,0-3,0.2-4.3,0.6v2.7h0.3c0.9-0.5,2.1-0.9,3.3-0.9
	c0.8,0,1.7,0.1,2.1,0.3c0.7,0.4,0.7,0.9,0.7,1.5v0.1c-1,0.1-2,0.2-3,0.3c-3.2,0.4-4.4,1.8-4.4,3.9c0,2.2,1.6,3.5,3.6,3.6
	c1.6,0.1,2.7-0.3,3.8-1.3V42.7z"/>
<g>
	<path d="M87.5,59.2c-0.4,0.2-1.2,0.4-2.3,0.4c-3.1,0-4.7-1.9-4.7-4.5c0-3,2.2-4.7,4.9-4.7c1,0,1.8,0.2,2.2,0.4l-0.4,1.6
		c-0.4-0.2-1-0.3-1.7-0.3c-1.6,0-2.9,1-2.9,3c0,1.8,1.1,2.9,2.9,2.9c0.6,0,1.3-0.1,1.7-0.3L87.5,59.2z"/>
	<path d="M94.9,56.2c0,2.4-1.7,3.5-3.4,3.5c-1.9,0-3.4-1.2-3.4-3.3c0-2.1,1.4-3.4,3.5-3.4C93.6,52.9,94.9,54.2,94.9,56.2z
		 M90.2,56.2c0,1.1,0.5,1.9,1.3,1.9c0.8,0,1.3-0.8,1.3-1.9c0-1-0.4-1.9-1.3-1.9C90.6,54.3,90.2,55.3,90.2,56.2z"/>
	<path d="M96.2,55.1c0-0.8,0-1.5-0.1-2.1h1.8l0.1,0.9h0c0.3-0.4,0.9-1,2-1c1.3,0,2.3,0.9,2.3,2.8v3.8h-2v-3.6c0-0.8-0.3-1.4-1-1.4
		c-0.6,0-0.9,0.4-1,0.8c-0.1,0.1-0.1,0.3-0.1,0.5v3.7h-2V55.1z"/>
	<path d="M103.9,57.7c0.4,0.2,1.1,0.5,1.7,0.5c0.6,0,0.9-0.2,0.9-0.5c0-0.3-0.2-0.5-1-0.7c-1.3-0.5-1.9-1.2-1.8-1.9
		c0-1.2,1-2.1,2.6-2.1c0.8,0,1.4,0.2,1.8,0.4l-0.4,1.4c-0.3-0.2-0.8-0.4-1.4-0.4c-0.5,0-0.8,0.2-0.8,0.5c0,0.3,0.3,0.5,1,0.7
		c1.2,0.4,1.8,1,1.8,2c0,1.2-1,2.1-2.8,2.1c-0.8,0-1.6-0.2-2.1-0.5L103.9,57.7z"/>
	<path d="M115.8,57.4c0,0.8,0,1.5,0.1,2.1h-1.8l-0.1-0.9h0c-0.3,0.4-0.9,1.1-2,1.1c-1.3,0-2.3-0.8-2.3-2.8V53h2v3.5
		c0,0.9,0.3,1.5,1,1.5c0.6,0,0.9-0.4,1-0.7c0.1-0.1,0.1-0.3,0.1-0.4V53h2V57.4z"/>
	<path d="M117.4,55.1c0-0.8,0-1.5-0.1-2.1h1.7l0.1,0.9h0c0.3-0.4,0.8-1,2-1c0.8,0,1.5,0.4,1.8,1.1h0c0.2-0.3,0.5-0.6,0.8-0.8
		c0.4-0.2,0.8-0.3,1.2-0.3c1.2,0,2.2,0.9,2.2,2.8v3.8h-2V56c0-0.9-0.3-1.5-1-1.5c-0.5,0-0.8,0.3-0.9,0.7c-0.1,0.1-0.1,0.4-0.1,0.5
		v3.8h-2v-3.6c0-0.8-0.3-1.4-0.9-1.4c-0.5,0-0.8,0.4-0.9,0.7c-0.1,0.2-0.1,0.3-0.1,0.5v3.8h-2V55.1z"/>
	<path d="M130.4,56.9c0.1,0.8,0.9,1.2,1.8,1.2c0.7,0,1.2-0.1,1.8-0.3l0.3,1.4c-0.7,0.3-1.5,0.4-2.3,0.4c-2.2,0-3.5-1.3-3.5-3.3
		c0-1.6,1-3.5,3.3-3.5c2.1,0,2.9,1.6,2.9,3.2c0,0.3,0,0.6-0.1,0.8H130.4z M132.8,55.5c0-0.5-0.2-1.3-1.1-1.3c-0.8,0-1.2,0.8-1.2,1.3
		H132.8z"/>
	<path d="M135.8,55.1c0-1,0-1.6-0.1-2.1h1.7l0.1,1.2h0.1c0.3-0.9,1.1-1.3,1.8-1.3c0.2,0,0.3,0,0.4,0v1.9c-0.1,0-0.3-0.1-0.5-0.1
		c-0.7,0-1.2,0.4-1.4,1c0,0.1,0,0.3,0,0.5v3.3h-2V55.1z"/>
	<path d="M143.6,50.7c0.6-0.1,1.5-0.2,2.7-0.2c1.2,0,2.1,0.2,2.7,0.7c0.6,0.5,1,1.2,1,2.1s-0.3,1.6-0.8,2.1
		c-0.7,0.7-1.7,0.9-2.9,0.9c-0.3,0-0.5,0-0.7,0v3.2h-2V50.7z M145.6,54.7c0.2,0,0.4,0.1,0.7,0.1c1.1,0,1.7-0.5,1.7-1.5
		c0-0.8-0.6-1.3-1.6-1.3c-0.4,0-0.7,0-0.8,0.1V54.7z"/>
	<path d="M151.1,55.1c0-1,0-1.6-0.1-2.1h1.7l0.1,1.2h0.1c0.3-0.9,1.1-1.3,1.8-1.3c0.2,0,0.3,0,0.4,0v1.9c-0.1,0-0.3-0.1-0.5-0.1
		c-0.7,0-1.2,0.4-1.4,1c0,0.1,0,0.3,0,0.5v3.3h-2V55.1z"/>
	<path d="M162.5,56.2c0,2.4-1.7,3.5-3.4,3.5c-1.9,0-3.4-1.2-3.4-3.3c0-2.1,1.4-3.4,3.5-3.4C161.2,52.9,162.5,54.2,162.5,56.2z
		 M157.8,56.2c0,1.1,0.5,1.9,1.3,1.9c0.8,0,1.3-0.8,1.3-1.9c0-1-0.4-1.9-1.3-1.9C158.1,54.3,157.8,55.3,157.8,56.2z"/>
	<path d="M170,50.1v7.5c0,0.7,0,1.5,0.1,1.9h-1.8l-0.1-1h0c-0.4,0.7-1.2,1.1-2,1.1c-1.5,0-2.8-1.3-2.8-3.3c0-2.2,1.4-3.4,2.9-3.4
		c0.8,0,1.4,0.3,1.7,0.7h0v-3.5H170z M168,55.8c0-0.1,0-0.3,0-0.4c-0.1-0.5-0.6-1-1.2-1c-0.9,0-1.4,0.8-1.4,1.8
		c0,1.1,0.5,1.8,1.4,1.8c0.6,0,1-0.4,1.2-1c0-0.1,0.1-0.3,0.1-0.5V55.8z"/>
	<path d="M177.8,57.4c0,0.8,0,1.5,0.1,2.1h-1.8l-0.1-0.9h0c-0.3,0.4-0.9,1.1-2,1.1c-1.3,0-2.3-0.8-2.3-2.8V53h2v3.5
		c0,0.9,0.3,1.5,1,1.5c0.6,0,0.9-0.4,1-0.7c0.1-0.1,0.1-0.3,0.1-0.4V53h2V57.4z"/>
	<path d="M184.3,59.3c-0.4,0.2-1,0.3-1.8,0.3c-2.1,0-3.4-1.3-3.4-3.3c0-1.9,1.3-3.4,3.7-3.4c0.5,0,1.1,0.1,1.5,0.3l-0.3,1.5
		c-0.2-0.1-0.6-0.2-1.1-0.2c-1.1,0-1.8,0.8-1.7,1.8c0,1.2,0.8,1.8,1.8,1.8c0.5,0,0.8-0.1,1.2-0.2L184.3,59.3z"/>
	<path d="M187.8,51.2V53h1.4v1.5h-1.4v2.3c0,0.8,0.2,1.1,0.8,1.1c0.3,0,0.5,0,0.6-0.1l0,1.5c-0.3,0.1-0.7,0.2-1.3,0.2
		c-0.7,0-1.2-0.2-1.5-0.6c-0.4-0.4-0.6-1-0.6-1.9v-2.7H185V53h0.9v-1.4L187.8,51.2z"/>
	<path d="M190.4,57.7c0.4,0.2,1.1,0.5,1.7,0.5c0.6,0,0.9-0.2,0.9-0.5c0-0.3-0.2-0.5-1-0.7c-1.3-0.5-1.9-1.2-1.8-1.9
		c0-1.2,1-2.1,2.6-2.1c0.8,0,1.4,0.2,1.8,0.4l-0.4,1.4c-0.3-0.2-0.8-0.4-1.4-0.4c-0.5,0-0.8,0.2-0.8,0.5c0,0.3,0.3,0.5,1,0.7
		c1.2,0.4,1.8,1,1.8,2c0,1.2-1,2.1-2.8,2.1c-0.8,0-1.6-0.2-2.1-0.5L190.4,57.7z"/>
</g>
<g>
	<path class="st2" d="M199,57.4c0.5,0.3,1.4,0.6,2.3,0.6c0.9,0,1.4-0.4,1.4-1c0-0.6-0.4-0.9-1.5-1.3c-1.5-0.5-2.5-1.3-2.5-2.7
		c0-1.5,1.3-2.7,3.4-2.7c1,0,1.8,0.2,2.3,0.5l-0.4,1.6c-0.4-0.2-1-0.4-1.9-0.4c-0.9,0-1.3,0.4-1.3,0.9c0,0.6,0.5,0.8,1.7,1.3
		c1.6,0.6,2.3,1.4,2.3,2.7c0,1.5-1.1,2.8-3.6,2.8c-1,0-2-0.3-2.5-0.6L199,57.4z"/>
	<path class="st2" d="M208.2,51.2V53h1.5v1.5h-1.5v2.4c0,0.8,0.2,1.1,0.8,1.1c0.3,0,0.5,0,0.6-0.1l0,1.5c-0.3,0.1-0.7,0.2-1.3,0.2
		c-0.7,0-1.2-0.2-1.5-0.6c-0.4-0.4-0.6-1-0.6-1.9v-2.7h-0.9V53h0.9v-1.4L208.2,51.2z"/>
	<path class="st2" d="M217.2,56.2c0,2.4-1.7,3.5-3.4,3.5c-1.9,0-3.4-1.3-3.4-3.4c0-2.1,1.4-3.5,3.5-3.5
		C215.9,52.9,217.2,54.2,217.2,56.2z M212.5,56.3c0,1.1,0.5,2,1.3,2c0.8,0,1.3-0.8,1.3-2c0-1-0.4-2-1.3-2
		C212.9,54.3,212.5,55.3,212.5,56.3z"/>
	<path class="st2" d="M218.5,55.2c0-1,0-1.6-0.1-2.1h1.7l0.1,1.2h0c0.3-1,1.1-1.4,1.8-1.4c0.2,0,0.3,0,0.4,0v1.9
		c-0.2,0-0.3-0.1-0.5-0.1c-0.7,0-1.3,0.4-1.4,1c0,0.1,0,0.3,0,0.5v3.3h-2V55.2z"/>
	<path class="st2" d="M225,56.9c0.1,0.8,0.9,1.2,1.8,1.2c0.7,0,1.2-0.1,1.8-0.3l0.3,1.4c-0.7,0.3-1.5,0.4-2.4,0.4
		c-2.2,0-3.5-1.3-3.5-3.3c0-1.7,1-3.5,3.3-3.5c2.1,0,2.9,1.6,2.9,3.3c0,0.4,0,0.7-0.1,0.8H225z M227.4,55.5c0-0.5-0.2-1.3-1.1-1.3
		c-0.9,0-1.2,0.8-1.3,1.3H227.4z"/>
</g>
</svg>
