<svg xmlns="http://www.w3.org/2000/svg" xmlns:xlink="http://www.w3.org/1999/xlink" viewBox="0 0 124.01 54.89"><defs><style>.a{fill:none;}.b{clip-path:url(#a);}.c{fill:#0067a6;}</style><clipPath id="a" transform="translate(-0.29 -2.43)"><rect class="a" x="-12.75" y="-10.57" width="150.51" height="80.83"/></clipPath></defs><title>pacific-blue-gray</title><g class="b"><g class="b"><path class="c" d="M31.47,35.48h2.82c2.66,0,3.75.9,3.75,3.1,0,2.43-1.48,3.57-4.67,3.57h-1.9V35.48Zm8,7.93a5.26,5.26,0,0,0,2.81-5c0-4.31-2.79-6.77-7.65-6.77H22.79l2.65,1.3A3.1,3.1,0,0,1,27,34.21a4.11,4.11,0,0,1,.41,2.12V53.74h0v3.18H35.9c5,0,8.27-2.77,8.27-7.06a6.56,6.56,0,0,0-4.69-6.45M35.56,53H31.47V46.08H35c3.42,0,4.88,1.06,4.88,3.53S38.59,53,35.56,53" transform="translate(-0.29 -2.43)"/><path class="c" d="M91,53.15v-7h10.22V42.31H91V35.57h10.52V31.71H82.34L85,33a3.1,3.1,0,0,1,1.58,1.32A4.11,4.11,0,0,1,87,36.45V53.87h0V57h14.83V53.15H91Z" transform="translate(-0.29 -2.43)"/><path class="c" d="M76.58,31.59V47.66c0,3.38-2.51,5.66-6.24,5.66a6.31,6.31,0,0,1-5.28-2.42c-0.91-1.15-1-2.58-1-4.82V31.59H55.48l2.65,1.3a3.1,3.1,0,0,1,1.58,1.32,3.91,3.91,0,0,1,.41,1.94V46.22c0,2.94.12,5,1.68,7.1a10.26,10.26,0,0,0,8.53,4c6,0,10.21-3.94,10.21-9.59V31.59h-4Z" transform="translate(-0.29 -2.43)"/><path class="c" d="M50.07,53V31.59H41.46l2.65,1.3a3.1,3.1,0,0,1,1.58,1.32,3.85,3.85,0,0,1,.41,1.89V56.92H59.16V53H50.07Z" transform="translate(-0.29 -2.43)"/><path class="c" d="M40,28.18H35.81l-3-7.24H23.32l-3,7.24h-4.2L26.57,2.84h2.91ZM24.91,17h6.22L28,9.48Z" transform="translate(-0.29 -2.43)"/><path class="c" d="M51.27,28.61A13.14,13.14,0,0,1,41.9,6.26a13,13,0,0,1,9.6-3.82,18.39,18.39,0,0,1,8.13,2l0.2,0.1V9.23L59.3,8.92a15.65,15.65,0,0,0-7.8-2.44,8.77,8.77,0,0,0-9.09,8.44q0,0.28,0,.56a8.75,8.75,0,0,0,8.5,9h0.38a14.52,14.52,0,0,0,8.19-2.86L60,21.3v4.86l-0.19.1a17.93,17.93,0,0,1-8.6,2.35" transform="translate(-0.29 -2.43)"/><path class="c" d="M115.53,28.61a13.14,13.14,0,0,1-9.36-22.34,13,13,0,0,1,9.6-3.82,18.39,18.39,0,0,1,8.13,2l0.2,0.1V9.23l-0.54-.31a15.65,15.65,0,0,0-7.8-2.44,8.77,8.77,0,0,0-9.09,8.44q0,0.28,0,.56a8.75,8.75,0,0,0,8.5,9h0.38a14.52,14.52,0,0,0,8.19-2.86l0.56-.38V26.1l-0.19.1a17.93,17.93,0,0,1-8.6,2.35" transform="translate(-0.29 -2.43)"/><path class="c" d="M12.58,2.84H0.29l2.65,1.3A3.1,3.1,0,0,1,4.52,5.46a4.11,4.11,0,0,1,.41,2.12v20.6H9V17.58h3.61c5.09,0,8.13-2.75,8.13-7.35s-3-7.39-8.13-7.39M12.24,13.73H9v-7h3.27c3,0,4.26,1,4.26,3.5s-1.23,3.5-4.26,3.5" transform="translate(-0.29 -2.43)"/><path class="c" d="M64.46,2.84H59.83l2.65,1.3a3.11,3.11,0,0,1,1.58,1.32,3.69,3.69,0,0,1,.4,1.77v21h4.08V2.84H64.46Z" transform="translate(-0.29 -2.43)"/><path class="c" d="M89.25,6.7V2.84H70.58l2.65,1.3a3.1,3.1,0,0,1,1.58,1.32,4.07,4.07,0,0,1,.41,2.08V28.18h4v-11h9.69V13.26H79.26V6.7h10Z" transform="translate(-0.29 -2.43)"/><path class="c" d="M95.44,2.84H90.8l2.65,1.3A3.11,3.11,0,0,1,95,5.46a3.69,3.69,0,0,1,.4,1.77v21h4.08V2.84h-4Z" transform="translate(-0.29 -2.43)"/><path class="c" d="M102.4,34h0a1.63,1.63,0,0,1,3.26,0h0a1.63,1.63,0,0,1-3.26,0m3.07,0h0a1.44,1.44,0,0,0-2.89,0h0a1.44,1.44,0,0,0,2.89,0m-2.08-.86h0.75a0.55,0.55,0,0,1,.64.53,0.5,0.5,0,0,1-.38.51l0.44,0.63h-0.38l-0.39-.57h-0.35v0.57H103.4V33.14ZM104.11,34a0.29,0.29,0,0,0,.34-0.24v0a0.28,0.28,0,0,0-.28-0.28h-0.46V34h0.4Z" transform="translate(-0.29 -2.43)"/></g></g></svg>
