<svg id="Artwork" xmlns="http://www.w3.org/2000/svg" viewBox="0 0 83.3 74.1"><style>.st0{fill:#747678}.st1{fill:none}</style><path class="st0" d="M78 59.7c-20.3-.9-40.6-.9-60.9 0-1 0-1.8.9-1.8 1.9v8.5c0 1 .8 1.9 1.8 2 10.1 1.2 20.3 2 30.5 2 9.8 0 20-.7 30.5-2.1 1-.1 1.8-1 1.8-2v-8.5c-.1-.9-.9-1.8-1.9-1.8zm.9 1.9c-.5 2.8-.6 5.7-.2 8.5.1.6-.3 1.2-1 1.3-9.8.9-20 1.4-30.1 1.4s-20.3-.5-30.1-1.4c-.6-.1-1-.6-1-1.3.4-2.8.3-5.7-.2-8.5-.1-.6.3-1.1.9-1.1H78c.6 0 1 .5.9 1.1z"/><path class="st0" d="M39.3 68.9c-.1-.1-.3-.1-.5-.1h-.2c-.1 0-.2 0-.2.1-.1 0-.1.1-.1.2s-.1.1-.1.2 0 .2.1.2c.1.1.1.1.2.1s.2.1.3.1c.1 0 .2 0 .3.1.1 0 .2.1.3.1.1 0 .2.1.3.2.1.1.2.1.2.2.1.1.1.2.1.4s0 .3-.1.4l-.3.3c-.1.1-.2.1-.4.2h-.4c-.2 0-.3 0-.5-.1-.1 0-.3-.1-.4-.2l-.3-.3c-.1-.1-.1-.3-.1-.5h.4c0 .1 0 .2.1.3 0 .1.1.2.2.2.1.1.2.1.3.1h.6c.1 0 .2 0 .2-.1.1 0 .1-.1.2-.2 0-.1.1-.2.1-.3 0-.1 0-.2-.1-.3l-.2-.2c-.1 0-.2-.1-.3-.1-.1 0-.2-.1-.3-.1-.1 0-.2-.1-.3-.1-.1 0-.2-.1-.3-.1-.1-.1-.2-.1-.2-.2-.1-.1-.1-.2-.1-.3 0-.2 0-.3.1-.4s.1-.2.2-.3c.1-.1.2-.1.3-.2.1 0 .3-.1.4-.1.2 0 .3 0 .4.1.1 0 .2.1.3.2.1.1.2.2.2.3.1.1.1.3.1.4h-.4c.1 0 .1-.1-.1-.2zm4.3-.4v.3h-1.7v.9h1.5v.4h-1.5v1h1.7v.3h-2.1v-3l2.1.1zm3 0c.3 0 .5.1.7.2s.2.3.2.6c0 .2 0 .3-.1.5-.1.1-.2.2-.4.3.1 0 .2 0 .2.1.1 0 .1.1.1.1 0 .1.1.1.1.2v.8c0 .1.1.1.1.2h-.3s0-.1-.1-.1v-.8c0-.1 0-.1-.1-.2l-.1-.1h-1.2v1.3h-.5v-3l1.4-.1zm.1 1.3c.1 0 .2 0 .2-.1.1 0 .1-.1.2-.2 0-.1.1-.2.1-.3 0-.2 0-.3-.1-.4s-.2-.1-.4-.1h-1v1h.8c0 .2.1.1.2.1zm2.8-1.3v3h-.4v-3h.4zm3.8 0v.3h-1.7v.9h1.6v.4h-1.5v1h1.7v.3h-2.2v-3l2.1.1zm3 .4c-.1-.1-.3-.1-.5-.1h-.2c-.1 0-.2 0-.2.1-.1 0-.1.1-.2.2 0 .1-.1.1-.1.2s0 .2.1.2c.1.1.1.1.2.1s.2.1.3.1c.1 0 .2 0 .3.1.1 0 .2.1.3.1.1 0 .2.1.3.2.1.1.2.1.2.2.1.1.1.2.1.4s0 .3-.1.4l-.3.3c-.1.1-.2.1-.4.2h-.4c-.2 0-.3 0-.5-.1-.1 0-.3-.1-.4-.2l-.3-.3c-.1-.1-.1-.3-.1-.5h.4c0 .1 0 .2.1.3 0 .1.1.2.2.2.1.1.2.1.3.1h.6c.1 0 .2 0 .2-.1.1 0 .1-.1.2-.2 0-.1.1-.2.1-.3 0-.1 0-.2-.1-.3l-.2-.2c-.1 0-.2-.1-.3-.1-.1 0-.2-.1-.3-.1-.1 0-.2-.1-.3-.1-.1 0-.2-.1-.3-.1-.1-.1-.2-.1-.2-.2-.1-.1-.1-.2-.1-.3 0-.2 0-.3.1-.4s.1-.2.2-.3c.1-.1.2-.1.3-.2.1 0 .3-.1.4-.1.2 0 .3 0 .4.1.1 0 .2.1.3.2.1.1.2.2.2.3.1.1.1.3.1.4h-.4c.2 0 .1-.1 0-.2zm-20 .7H19l-.8-.2.8-.2h17.3zm39.7 0H58.7v-.4H76l.8.2zm-55.1-6.9h2.2c1 0 1.7.7 1.7 1.6s-.6 1.6-1.7 1.6h-1.4v1.5h-.9v-4.7h.1zm.8 2.4H23c.6 0 .9-.4.9-.8s-.3-.8-.9-.8h-1.3v1.6zm3.9-2.4h2.2c1 0 1.7.7 1.7 1.6 0 .7-.5 1.2-1.1 1.4l1.2 1.7h-1.1l-1-1.5h-1.1v1.5h-.9l.1-4.7zm.8 2.4h1.3c.6 0 .9-.4.9-.8s-.3-.8-.9-.8h-1.3v1.6zm6.1-2.5c1.4 0 2.5 1.1 2.5 2.4 0 1.4-1.1 2.4-2.5 2.4S30 66.3 30 65c0-1.3 1.1-2.4 2.5-2.4zm0 4.1c.8 0 1.6-.7 1.6-1.6s-.8-1.6-1.6-1.6-1.6.7-1.6 1.6c0 .9.7 1.6 1.6 1.6zm3.4-4h3.6v.8h-2.7v1h1.9v.8h-1.9v2h-.9v-4.6zm4.1 0h3.6v.8h-2.7v1h1.9v.8h-1.9v1.2h2.7v.8H40v-4.6zm4.7 3.3c.4.4.8.6 1.4.6.7 0 1.1-.3 1.1-.7 0-1-3 0-3-1.9 0-.8.9-1.4 1.9-1.4.8 0 1.4.2 1.9.7l-.6.6c-.4-.4-.8-.6-1.3-.6-.7 0-1 .3-1 .6 0 1.1 3 0 3 1.9 0 1-1 1.6-2.1 1.6-.7 0-1.4-.2-2-.9l.7-.5zm4.6 0c.4.4.8.6 1.4.6.7 0 1.1-.3 1.1-.7 0-1-3 0-3-1.9 0-.8.9-1.4 1.9-1.4.8 0 1.4.2 1.9.7l-.6.6c-.4-.4-.8-.6-1.3-.6-.7 0-1 .3-1 .6 0 1.1 3 0 3 1.9 0 1-1 1.6-2.1 1.6-.7 0-1.4-.2-2-.9l.7-.5zm4.3-3.3h.9v4.7h-.9v-4.7zm4.2-.1c1.4 0 2.5 1.1 2.5 2.4 0 1.4-1.1 2.4-2.5 2.4s-2.5-1.1-2.5-2.4 1.1-2.4 2.5-2.4zm0 4.1c.8 0 1.6-.7 1.6-1.6s-.8-1.6-1.6-1.6-1.6.7-1.6 1.6.8 1.6 1.6 1.6zm4.2-2.2v2.9h-.9v-4.8l3 3v-2.9h.9v4.8l-3-3zm5.2-1l.3-.8h.5l2 4.7h-.8l-.4-.9h-2l-.4.9h-.9l1.7-3.9zm1.3 2.2l-.7-1.6-.7 1.7 1.4-.1zm2.2-3h.9v3.9h1.8v-1.1h.9v1.9h-3.6v-4.7z"/><path class="st1" d="M57.2 45.5c-.2.1-.4.3-.6.4.2-.1.4-.3.6-.4zm4 6.8c-.2.2-.5.3-.7.5.2-.1.5-.3.7-.5zm-4.9-6.2l-.9.6.9-.6zm10.2 2.3c-.2.2-.5.4-.7.6.2-.2.5-.4.7-.6zM50.9 58.8c-.2.1-.3.1-.5.2h.3l.2-.2zm4.5-12.1c-.3.2-.7.4-1 .6.4-.1.7-.4 1-.6zm9.3 3.1zm-12.3 7.7c-.2.1-.3.2-.5.2.1 0 .3-.1.5-.2zm26.5-30.3c-.1.2-.1.4-.2.6.2-.6.4-1.2.6-1.7-.1.4-.3.7-.4 1.1zM53.3 57.1c-.2.1-.3.2-.5.2.1 0 .3-.1.5-.2zm6.4-3.7c-.1.1-.3.2-.4.3.1-.1.2-.2.4-.3zm.7-.5c-.3.2-.5.3-.8.5.3-.2.6-.4.8-.5zm16.1-19.4c-.1.1-.1.2-.2.4.1-.1.1-.3.2-.4zm-.9 2.1c-.1.3-.3.6-.4.8.1-.3.2-.6.4-.8zm-7 10.7c-.2.2-.4.5-.6.7.2-.3.4-.5.6-.7zm5.3-7.5zm5.4-12.7c.1-.3.2-.5.2-.7 0 .1 0 .1-.1.2 0 .1-.1.3-.1.5zm-8-.7l-.1 1.3zm5.7 6.9c-.2.4-.3.8-.5 1.2.2-.4.3-.8.5-1.2zM46.9 51.1zm23.7-7.2c-.2.3-.4.5-.6.7.2-.2.4-.4.6-.7zm.8-20.5v.2-.1zM52.8 48.3zm-2.2 1.1zm19.3-4.6c-.2.2-.4.5-.6.7.2-.3.4-.5.6-.7zm-20.7 5.3c-.1 0-.1 0-.2.1.1 0 .1-.1.2-.1zm25-11.9c0 .1-.1.2-.1.2.4-.7.7-1.3 1-1.9-.1.1-.1.3-.2.4-.2.4-.4.9-.7 1.3zm-9 11.2c.1-.1.2-.2.3-.2-.1 0-.1.1-.2.1 0 0 0 .1-.1.1zm5.4-5.5l.6-.9s0 .1-.1.1c-.1.3-.3.5-.5.8zm-1.9 2.3c.2-.2.4-.5.6-.7-.2.3-.4.5-.6.7zm-5.2-6.1zm3 8.2c.2-.2.5-.4.7-.7-.2.3-.4.5-.7.7zm.8-.6c.2-.2.5-.4.7-.7-.3.2-.5.5-.7.7zm.8-13.8c-.1.1-.1.2-.2.4 0-.1.1-.1.1-.2.1-.1.1-.1.1-.2zm9-1.8c.2-.4.3-.8.5-1.1-.2.3-.4.7-.5 1.1zm-10.5 4.2zm9.4-1.6c-.1.3-.3.6-.4.8.2-.5.4-1 .7-1.4 0 .1-.1.2-.1.3-.1.1-.2.2-.2.3zm-9.2 1.2v.1zM50.6 58.4c-.2.1-.4.2-.5.2.1-.1.3-.2.5-.2zm4.8-2.4l-.6.3c-.4.2-.8.4-1.3.7 2.1-1.1 4-2.2 5.7-3.3-1.1.7-2.4 1.5-3.8 2.3zm15.7-29c0 .1 0 .2-.1.2 0 0 .1-.1.1-.2zM51.5 57.9c-.2.1-.3.2-.5.2.1 0 .3-.1.5-.2zm11-16.8l-.4.4c.1-.2.2-.3.4-.4zm2.1 8.7c.1 0 .1 0 0 0 .2-.2.4-.3.6-.4-.2.2-.5.4-.6.4-.1.1 0 .1 0 0zm-4.1-6.9c-.1.1-.3.2-.4.3.2-.1.3-.2.4-.3zm5 7s0-.1 0 0c-.1.1-.3.2-.5.4.2-.2.3-.3.5-.4zm-2.4-9.4zm14.7-10.3c.2-.6.5-1.2.7-1.8-.1.4-.3.8-.5 1.3 0 .2-.1.4-.2.5zM62.7 51.3zm-.9.7c-.2.1-.4.3-.5.4.5-.3 1-.7 1.4-1-.3.1-.6.3-.9.6zm12.9-31.4c0-.2-.1-.3-.4-.3h-.2v.5h.2c.2 0 .4 0 .4-.2zm-36.9 1.6c.1.1.2.3.2.5v.6c.7.1 1.2.2 1.6.5l10.9-8.5c-1.6-.5-3.2-1-4.8-1.4l-7.9 8.3z"/><path class="st1" d="M52.9 16.1l-12.7 8.5c.1.2.2.5.2.8 0 .4-.1.7-.2 1-.1-.1-.3-.2-.4-.3.1-.2.2-.5.1-.7-.1-1-.7-1.5-2.2-1.6-.1 0-.2 0-.2-.1s-.1-.2 0-.2c.1-.2.1-.5.1-.6-.1-.3-.3-.4-.5-.4s-.3.1-.4.2c-.1.1-.2.1-.3.1-.1 0-.2-.1-.2-.2 0-.2-.1-.4-.2-.6-.3-.5-.6-.7-1.1-.7h-.3c0-.2 0-.4.1-.5h.2c.7 0 1.2.3 1.5.9.1.1.1.3.2.4h.1l6.8-8.6c-1.6-.4-3.1-.7-4.6-1l-3.1 5.6-1.6-1 2.1-5.1c-.1 0-.3-.1-.5-.1-1.6-.2-3.1-.4-4.5-.5l-.8 3.7-1.7-.9.3-3c-1.3-.1-1.4-.1-2.5-.1-.7 0-1.5 0-2.2.1l.3 2.6-1.9 1.1-.8-3.5c-1.6.2-3.1.4-4.6.8l2 4.7-1.5.8-2.8-4.9c-1.4.4-2.8.9-4 1.5l5.7 7c.2-.2.5-.4.8-.5.2-.1.4-.1.7-.1 0 .2.1.3.1.5-.2 0-.4 0-.6.1-1.3.5-1.2 1.8-1.2 1.8 0 .1 0 .2-.1.2-.1.1-.2.1-.2.1H16c-.1 0-.3 0-.4.1-.3.4-.2.7-.1.7v.3c-.1.1-.2.1-.2.1H15c-.6 0-1.6.1-2.1.9-.2.3-.3.8-.3 1.3.7.1 1.3.4 1.9.6.1 0 .2.1.2.1l.5-.5c-.1.8-.2 1.6-.2 1.7-.2 0-.8-.6-1.8-1.6.5.5 1.2 1.2 1.4 1.6-.8-.4-1.7-.7-2.8-1-.4-.1-.7-.1-1.1-.1-1.2 0-2.2.4-3 1.1-1.3 1.2-1.5 2.9-1.6 4.1-.1 2.7 1.4 5.3 3.9 6.8 1.1.7 2.1 1.5 2.1 2.6 0 .9-.7 1.6-1.6 1.6h-.3c-1.3-.2-2.4-.8-3.3-1.7-.1-.1-.1-.1-.2-.1l-.2-.2-.1.3c-.3 1.3-.5 2.6-.8 3.9v.1l.1.1.1.1c1 1 2.4 1.6 4.1 1.9h.7c1.5 0 2.9-.6 3.8-1.6 1-1.1 1.4-2.5 1.5-4.4.1-2.4-1.2-4.7-3.7-6.3l-.2-.1c-1-.6-2.2-1.4-2.2-2.6 0-.8.7-1.2 1.4-1.2h.3c1 .2 2 .6 2.7 1.2l.1.1.2.2.1-.3c.1-.6.3-1.2.4-1.8.1.8.1 1.7.1 2.3.1-1.2.2-3.7.3-3.8.2 0 1.1.8 1.7 1.4 0 .1 0 .2-.1.3 7.5.4 16.4-.4 26.6-4.6v-3.7l5.9-2.4v1.8c1.4-.7 2.7-1.5 4.1-2.3v-1.6l2.4-1.4c-.8-.4-1.9-.9-3.1-1.3zm-34.7 3.5h-1l-.1-.8 9.3-5.3 4.3 2.3.8.4v-1.4l1.5-.1V17l.3.2 2.6 1.5-.1.7h-1.5l-.1.4c-.2 1.4-.3 2.9-.3 4-1.8-.5-3.9-.7-6.2-.7-3.6 0-6.4.5-8.6 1.3 0-1.2-.1-2.8-.5-4.3l-.1-.4-.3-.1zm-.8 11.2c0 .2-.1.3-.1.5-1.1-1.1-1.4-1.5-1.4-1.6.1-.2 2.3-.3 2.9-.4-.6 0-2.8-.2-2.9-.4-.1-.1 1.1-1.3 1.6-1.8-.5.6-1.6 1.6-1.9 1.6-.1-.1-.2-1-.2-1.9 2.3-1.8 6.2-3.4 12.3-3.4 6.5 0 10.7 2.2 13.1 4-9 3.2-16.8 3.8-23.4 3.4zm26.4-4.5c-.8.3-1.7.7-2.5 1-.2-.2-.4-.3-.7-.5 1-.4 2.1-.8 3.1-1.2.1.2.1.4.1.7zm-8.1 31.6z"/><path class="st1" d="M14.8 24.1c0-.3 0-.6.4-.9.2-.2.5-.3.8-.3h.1c0-.1 0-.3.1-.4l-7-7.1c-1.2.7-2.3 1.5-3.2 2.4l8.4 6.4c.1-.1.3-.1.4-.1zm20.4 31.1c0-.1 0-.1 0 0 0-.1 0-.1 0 0zM12 26l.3-.9c.2-.3.5-.6.8-.7l-8.4-5.5c-.3.3-.5.6-.7.9v.1c-.1.2-.5 1-.6 1.3 0 .1-.1.3-.1.5L12 26zm63.7-5.1c0-.8-.6-1.5-1.4-1.5s-1.4.7-1.4 1.5.6 1.5 1.4 1.5 1.4-.7 1.4-1.5zm-.9 1c-.1-.1-.1-.2-.1-.4s-.1-.3-.4-.3h-.2v.7h-.4v-1.8c.2 0 .4-.1.7-.1.3 0 .5.1.6.1.1.1.2.2.2.4s-.2.4-.4.4c.2.1.3.2.3.4.1.3.1.4.1.4h-.4v.2zM45.5 51.6zm12.1-6.4c.2-.1.4-.3.5-.4-.2.2-.4.3-.5.4z"/><path class="st1" d="M70.9 23.3s.5-8.3.7-8.5h.1c.7 0 4.8 4.2 4.9 4.2l-.1-.1c-2.7-2.7-4.2-4.4-4.1-4.7.2-.4 6.4-.9 7.3-.9-.9 0-7.2-.5-7.3-.9-.1-.4 2.6-3.1 4.1-4.6-.2.2-4.1 4.1-4.8 4.1h-.1c-.3-.2-.7-5.2-.8-7.9v-.4.4c-.2 2.6-.6 7.6-.8 7.9h-.1c-.6 0-3.4-2.8-4.6-4 1.4 1.4 4 4.2 3.8 4.5-.2.4-6.5.9-7.4.9.9.1 7.3.5 7.4.9 0 .1-.3.7-2.5 3.1h.1c1.3-1.2 2.8-2.6 3.2-2.6h.1c.2.2.5 6.3.7 9.5 0 .7.1 1.2.1 1.6v-.1l.1-1.6v-.8zm8.3.2zM35.4 55.8c0-.1 0-.1 0 0 0-.1 0-.1 0 0zm.3 2.6zm.7-10.2c15-4.8 29.7-15.1 33.9-22 0-.3 0-.7-.1-1-.4.8-.9 1.6-1.7 2.5-.9 1.2-1.8 2.2-2.7 3-5.8 5.6-16 12.1-27.3 16.1-6 2.1-11.7 3.5-16.7 4.1v.5c3.9-.4 8.8-1.4 14.6-3.2zm-1.1 7.3c0-.1 0-.1 0 0 0-.1 0-.1 0 0z"/><path class="st1" d="M65 19s0-.1 0 0c.6-.7 1.1-1.2 1.5-1.6-.3-.1-.6-.2-.9-.2-.6 0-1.4.3-2.1.7-2.9 1.9-4.6 5.8-4.3 9.6.3 2.9 1.8 3.3 2.6 3.3.9 0 2-.5 3-1.3s1.9-1.9 2.9-3.1v-.2l-.5-2v-.4l-.2.3c-.8.9-1.5 1.6-2.1 2.2-.3.2-1.1.8-1.7.8-.2 0-.5-.1-.6-.5 1.9-1.4 3.7-2.9 5.4-4.4h.1v-1.6c-.1-1.6-.6-2.6-1.5-3.1-.6.5-1.2 1.1-1.6 1.5zm-1.3 1.8c.3-.2.5-.3.7-.3.5 0 .6.7.7 1-.9.7-1.8 1.4-2.7 2 .1-1.1.6-2.1 1.3-2.7zM35.6 57.3zM53.9 22v-.8c-1.4.8-2.8 1.6-4.1 2.3v.8c1.3-.7 2.7-1.4 4.1-2.3zm-47 5.9c1-.9 2.3-1.4 3.8-1.4h.2l-7.7-3.1c0 .8.2 1.6.7 2.4.6.9 1.5 1.7 2.8 2.3l.2-.2zm57.5 22.8c.2-.1.4-.3.5-.4-.2.1-.3.2-.5.4z"/><path class="st1" d="M44.9 33.7v7.4l.2-.1c1-.5 2-1 2.9-1.5h.1v-4.9l.2-.4c1 1.2 1.9 2.3 2.9 3.4l.1.1.1-.1c.9-.5 1.9-1.1 2.9-1.7l.2-.1-.1-.2c-1.2-1.4-2.5-3-3.7-4.6l3.3-6.3.3-.5-.5.3c-1 .6-2.1 1.1-3.1 1.7-.7 1.4-1.5 2.8-2.4 4.4 0-2.6 0-5.1-.1-7.7v-.3l-.2.1c-1 .4-1.9.8-2.9 1.2H45v.1c-.1 3.4-.1 6.6-.1 9.7zm-4.5-3.1l-.2.1c-.9.3-1.9.6-2.8.9h-.1v12.7l.2-.1c1-.4 2.1-.8 3.1-1.2h.1v-7.7c.7-1.1 1.9-2.2 3.3-2.8h.1v-3.1h-.2c-1.2.1-2.2.9-3.3 2.2-.1-.2-.1-.4-.2-.7v-.3zM27 40c0 .7.1 6.5 3.2 6.5.3 0 .6-.1.9-.1.8-.3 1.4-.9 2-1.6l.2.8h.2c.9-.3 1.8-.5 2.7-.8h.1v-13l-.2.1c-.9.2-1.8.5-2.7.7h-.1l-.2.8c-.4-.4-.8-.8-1.5-.8h-.4c-1.3.2-2.4 1.1-3.1 2.4-1 1.7-1.1 3.7-1.1 5zm4.7 2.3h-.2c-.2 0-.4-.1-.5-.2-.4-.4-.6-1.3-.6-2.7 0-.7 0-2.8 1.3-3h.4c.4 0 .7.2 1 .5v4.3c-.4.5-.8.9-1.4 1.1zm34.1-5c.1-.1.1 0 0 0zm-.7 1c0-.1.1-.1.1-.2 0 .1-.1.1-.1.2zm-2.4 14.2c0 .2-.2.3-.3.3-.2 0-.3-.2-.3-.3v-.1c-.3.2-.6.5-1 .7.1.1.1.2.1.3 0 .2-.2.3-.3.3-.2 0-.3-.1-.3-.3-1.6 1.1-3.4 2.2-5.4 3.3.2 0 .3.2.3.3 0 .2-.2.3-.3.3-.2 0-.3-.2-.3-.3 0-.1 0-.1.1-.2-.2.1-.3.2-.5.3.1.1.1.1.1.2 0 .2-.2.3-.3.3-.2 0-.3-.1-.3-.3-.1.1-.3.1-.4.2v.2c0 .2-.2.3-.3.3-.1 0-.3-.1-.3-.2-.5.3-.7.3-.8.4.1.1.2.2.2.3 0 .2-.2.3-.3.3-.2 0-.3-.2-.3-.3-.2.1-.4.2-.7.3h.1c.2 0 .3.1.3.3h3.3c1.6-.5 3.1-1.1 4.5-1.7 0-.2.2-.3.3-.3.1 0 .2 0 .3.1.1-.1.3-.1.4-.2v-.1c0-.2.2-.3.3-.3.1 0 .2.1.3.1.5-.2 1-.5 1.6-.8-.1-.1-.1-.2-.1-.3 0-.2.2-.3.3-.3.2 0 .3.1.3.3 1-.5 1.9-1 2.8-1.6 0-.2.2-.3.3-.3h.1c.2-.1.4-.3.6-.4v-.2c0-.2.2-.3.3-.3.1 0 .2.1.3.1.4-.3.8-.5 1.2-.8 0-.2.2-.3.3-.3h.1c.1-.1.2-.2.3-.2-.2 0-.3-.2-.3-.3 0-.2.2-.3.3-.3.2 0 .3.2.3.3v.1c.6-.4 1.1-.9 1.6-1.3 0-.2.2-.3.3-.3.6-.5 1.1-1.1 1.7-1.6h-.1c-.2 0-.3-.2-.3-.3 0-.2.2-.3.3-.3.2 0 .3.2.3.3v.1c.3-.4.6-.7 1-1.1-.2 0-.3-.2-.3-.3 0-.2.2-.3.3-.3.2 0 .3.1.3.2 2.4-2.9 4.1-5.8 5.2-8.3-.1-.1-.1-.1-.1-.2 0-.2.2-.3.3-.3.5-1.1.9-2.2 1.2-3v-.2h-.8v.1c0 .2-.2.3-.3.3-.2 0-.3-.2-.3-.3v-.1h-.5c.1.1.1.2.1.3 0 .2-.2.3-.3.3-.2 0-.3-.2-.3-.3s.1-.2.2-.3c-.8 0-1.6-.1-2.2-.2v.2c0 .2-.2.3-.3.3-.1 0-.1 0-.2-.1-.1.1-.1.3-.2.4.1.1.1.2.1.3 0 .2-.2.3-.3.3-.1.1-.1.3-.2.4.1.1.2.2.2.3 0 .2-.2.3-.3.3h-.1c-.1.1-.1.3-.2.4h.1c.2 0 .3.2.3.3 0 .2-.2.3-.3.3-.2 0-.3-.1-.3-.2-.5 1.1-1.1 2.1-1.7 3.1v.2c0 .2-.2.3-.3.3-.1.2-.3.5-.4.7h.1c.2 0 .3.2.3.3 0 .2-.2.3-.3.3-.2 0-.3-.1-.3-.3-.6 1-1.3 1.9-1.9 2.7v.1c0 .2-.2.3-.3.3h-.1c-.7.9-1.5 1.7-2.2 2.5.1 0 .3.2.3.3 0 .2-.2.3-.3.3-.2 0-.3-.1-.3-.3-.7.7-1.5 1.4-2.3 2h-.1c.1 0 .2.2.2.3 0 .2-.2.3-.3.3-.2 0-.3-.1-.3-.3l-.1.1c-.2.1-.3.3-.5.4-.6.5-1.3 1-2 1.5.1-.1.3 0 .3.2zm-6.4 4.8c-.2 0-.3-.2-.3-.3 0-.2.2-.3.3-.3s.3.2.3.3-.2.3-.3.3zm1 0c-.2 0-.3-.2-.3-.3 0-.2.2-.3.3-.3.2 0 .3.2.3.3.1.1-.1.3-.3.3zm1.2 0c-.2 0-.3-.2-.3-.3 0-.2.2-.3.3-.3.2 0 .3.2.3.3 0 .1-.1.3-.3.3zm.9-2.2c-.2 0-.3-.2-.3-.3 0-.2.2-.3.3-.3.2 0 .3.2.3.3.1.2-.1.3-.3.3zm.6 1.1c-.2 0-.3-.2-.3-.3 0-.2.2-.3.3-.3.2 0 .3.2.3.3 0 .1-.1.3-.3.3zm17.3-17.5c0-.2.2-.3.3-.3.2 0 .3.2.3.3 0 .2-.2.3-.3.3-.1 0-.3-.2-.3-.3zm.3 1c0-.2.2-.3.3-.3.2 0 .3.2.3.3 0 .2-.2.3-.3.3-.1.1-.3-.1-.3-.3zm.8 1.3c-.2 0-.3-.2-.3-.3 0-.2.2-.3.3-.3.2 0 .3.2.3.3.1.1-.1.3-.3.3zm1.2-2.2c-.2 0-.3-.2-.3-.3 0-.2.2-.3.3-.3.2 0 .3.2.3.3 0 .2-.1.3-.3.3zm.5-4c.2 0 .3.2.3.3 0 .2-.2.3-.3.3-.2 0-.3-.2-.3-.3 0-.2.1-.3.3-.3zm0 1.3c.2 0 .3.2.3.3 0 .2-.2.3-.3.3-.2 0-.3-.2-.3-.3-.1-.1.1-.3.3-.3zm-.6 1c.2 0 .3.2.3.3 0 .2-.2.3-.3.3-.2 0-.3-.2-.3-.3 0-.2.1-.3.3-.3zm-.7-2.8c.2 0 .3.2.3.3 0 .2-.2.3-.3.3-.2 0-.3-.2-.3-.3-.1-.1.1-.3.3-.3zm-.7 1c.2 0 .3.2.3.3 0 .2-.2.3-.3.3-.2 0-.3-.2-.3-.3 0-.2.2-.3.3-.3zm-.4.9c.2 0 .3.2.3.3 0 .2-.2.3-.3.3-.2 0-.3-.2-.3-.3-.1-.2.1-.3.3-.3zm-.1 1c.2 0 .3.2.3.3 0 .2-.2.3-.3.3-.2 0-.3-.2-.3-.3-.1-.1.1-.3.3-.3zm-9.1 14.3c-.2 0-.3-.2-.3-.3 0-.2.2-.3.3-.3s.3.2.3.3c0 .1-.2.3-.3.3zm1.2-2c-.2 0-.3-.2-.3-.3 0-.2.2-.3.3-.3.2 0 .3.2.3.3s-.1.3-.3.3zm2-.3c-.2 0-.3-.2-.3-.3 0-.2.2-.3.3-.3.2 0 .3.2.3.3.1.2-.1.3-.3.3zm2.9-4.7c-.2 0-.3-.2-.3-.3 0-.2.2-.3.3-.3.2 0 .3.2.3.3.1.1-.1.3-.3.3zm1.1-1.5c-.2 0-.3-.2-.3-.3 0-.2.2-.3.3-.3.2 0 .3.2.3.3.1.1-.1.3-.3.3zm1.4.2c0 .2-.2.3-.3.3-.2 0-.3-.2-.3-.3 0-.2.2-.3.3-.3.2 0 .3.1.3.3zm-.5-2.5c.2 0 .3.2.3.3 0 .2-.2.3-.3.3-.2 0-.3-.2-.3-.3s.2-.3.3-.3zm-.2-.7c0 .2-.2.3-.3.3-.2 0-.3-.2-.3-.3 0-.2.2-.3.3-.3.2 0 .3.1.3.3zm-.2-.9c0 .2-.2.3-.3.3-.2 0-.3-.2-.3-.3 0-.2.2-.3.3-.3.2 0 .3.1.3.3zm-.5-1.4c.2 0 .3.2.3.3 0 .2-.2.3-.3.3-.2 0-.3-.2-.3-.3s.1-.3.3-.3zm-.1 6.5c.2 0 .3.2.3.3 0 .2-.2.3-.3.3-.2 0-.3-.2-.3-.3-.1-.1.1-.3.3-.3zm-.8-5.6c.2 0 .3.2.3.3 0 .2-.2.3-.3.3-.2 0-.3-.2-.3-.3 0-.1.1-.3.3-.3zm0 3.1c.2 0 .3.2.3.3 0 .2-.2.3-.3.3-.2 0-.3-.2-.3-.3 0-.2.1-.3.3-.3zm-.8-.8c.2 0 .3.2.3.3 0 .2-.2.3-.3.3-.2 0-.3-.2-.3-.3s.1-.3.3-.3zm-.4 2.4c.2 0 .3.2.3.3 0 .2-.2.3-.3.3-.2 0-.3-.2-.3-.3-.1-.1.1-.3.3-.3zm-.3 3.4c0 .2-.2.3-.3.3-.2 0-.3-.2-.3-.3 0-.2.2-.3.3-.3.2-.1.3.1.3.3zm-.8-3.7c.2 0 .3.2.3.3 0 .2-.2.3-.3.3-.2 0-.3-.2-.3-.3 0-.2.1-.3.3-.3zm-.3 2.5c.2 0 .3.2.3.3 0 .2-.2.3-.3.3-.2 0-.3-.2-.3-.3-.1-.2.1-.3.3-.3zm-.8 2.8c-.2 0-.3-.2-.3-.3 0-.2.2-.3.3-.3.2 0 .3.2.3.3.1.1-.1.3-.3.3zm0-3.5c.2 0 .3.2.3.3s-.2.3-.3.3c-.2 0-.3-.2-.3-.3s.1-.3.3-.3zm-.7 1.9c.2 0 .3.2.3.3 0 .2-.2.3-.3.3-.2 0-.3-.2-.3-.3-.1-.2.1-.3.3-.3zm0 2.7c.2 0 .3.2.3.3 0 .2-.2.3-.3.3-.2 0-.3-.2-.3-.3-.1-.1.1-.3.3-.3zm-.8-3.4c.2 0 .3.2.3.3 0 .2-.2.3-.3.3-.2 0-.3-.2-.3-.3-.1-.1.1-.3.3-.3zm-.8 1.9c.2 0 .3.2.3.3 0 .2-.2.3-.3.3-.2 0-.3-.2-.3-.3 0-.2.1-.3.3-.3zm-.7.9c.2 0 .3.2.3.3 0 .2-.2.3-.3.3-.2 0-.3-.2-.3-.3-.1-.1.1-.3.3-.3zm-1.8 3.5c-.2 0-.3-.2-.3-.3 0-.2.2-.3.3-.3.2 0 .3.2.3.3.1.2-.1.3-.3.3zm.7-3.1c.2 0 .3.2.3.3 0 .2-.2.3-.3.3s-.3-.2-.3-.3c0-.1.1-.3.3-.3zm-.2 1.5c0 .2-.2.3-.3.3s-.3-.2-.3-.3c0-.2.2-.3.3-.3s.3.1.3.3zm-.8-1.3c.2 0 .3.2.3.3 0 .2-.2.3-.3.3-.2 0-.3-.2-.3-.3-.1-.2.1-.3.3-.3zm-.2 3.2c.2 0 .3.2.3.3 0 .2-.2.3-.3.3-.2 0-.3-.2-.3-.3s.1-.3.3-.3zm-1.8 1.9c-.2 0-.3-.2-.3-.3 0-.2.2-.3.3-.3.2 0 .3.2.3.3 0 .2-.1.3-.3.3zm.4-3.7c.2 0 .3.2.3.3 0 .2-.2.3-.3.3-.2 0-.3-.2-.3-.3 0-.2.1-.3.3-.3zm-.4.9c.2 0 .3.2.3.3 0 .2-.2.3-.3.3-.2 0-.3-.2-.3-.3-.1-.2.1-.3.3-.3zm-.2 1.1c.2 0 .3.2.3.3 0 .2-.2.3-.3.3-.2 0-.3-.2-.3-.3 0-.2.1-.3.3-.3zm-2.7 2c-.2 0-.3-.2-.3-.3 0-.2.2-.3.3-.3.2 0 .3.2.3.3 0 .2-.1.3-.3.3zm.6-1.2c0-.2.2-.3.3-.3.2 0 .3.2.3.3 0 .2-.2.3-.3.3-.2 0-.3-.1-.3-.3zm.8 1c0 .2-.2.3-.3.3-.2 0-.3-.2-.3-.3 0-.2.2-.3.3-.3.2 0 .3.1.3.3zm-23.7-.9c-.1.1-.1.1 0 0zm31.6-25.5s.1-.1 0 0c.1-.1 0 0 0 0zM59.5 43.8c.2-.2.5-.4.7-.6-.3.2-.5.4-.7.6zm19.2-15.9c0 .1-.1.2-.1.2s0-.1.1-.2zm1-3.1c0 .1-.1.2-.1.3 0-.1.1-.2.1-.3zM49.1 59c.2-.1.3-.1.5-.2-.1 0-.3.1-.5.2zM80 23.9zm.1-.3c0-.1 0-.1.1-.2-.1.1-.1.2-.1.2zm0-.3c-.2 0-.4.1-.5.1.1 0 .3-.1.5-.1zM64.3 39.2c0-.1.1-.1.1-.2 0 .1-.1.1-.1.2z"/><path class="st1" d="M50.9 58.8c.1 0 .1 0 0 0 .3-.1.5-.2.7-.3.2-.1.4-.2.5-.3.1-.1.3-.1.4-.2l.6-.3c.1-.1.3-.1.4-.2l.6-.3c.2-.1.3-.2.5-.3.1-.1.2-.1.3-.2 2-1.1 3.8-2.2 5.4-3.3.2-.1.4-.2.5-.4.3-.2.7-.5 1-.7.1-.1.3-.2.4-.3.7-.5 1.4-1 2-1.5-3.5 2.6-7.8 5.6-13.9 8.3.3.1.5.1.6 0z"/><path class="st0" d="M65.5 49.8c.8-.6 1.5-1.2 2.3-2l.4-.4c.8-.8 1.5-1.6 2.2-2.5.1-.2.3-.3.4-.5.7-.9 1.3-1.8 1.9-2.7.1-.1.2-.2.2-.4.1-.2.3-.5.4-.7s.2-.3.3-.5c.6-1 1.1-2 1.7-3.1.1-.1.1-.3.2-.4.1-.1.1-.3.2-.4l.3-.6c.1-.1.1-.3.2-.4l.3-.6c.1-.1.1-.3.2-.4.1-.2.1-.3.2-.5h.3c.6.1 1.4.1 2.2.2h2.4v.2c-.3.9-.7 1.9-1.2 3l-.3.6c-1.2 2.5-2.9 5.4-5.2 8.3-.1.2-.3.3-.4.5-.3.4-.6.7-1 1.1l-.3.3c-.5.6-1.1 1.1-1.7 1.6-.1.1-.2.2-.4.3-.5.5-1.1.9-1.6 1.3-.1.1-.2.2-.4.3-.1.1-.2.2-.3.2-.1.1-.2.2-.3.2l-.1.1c-.4.3-.8.6-1.2.8-.2.1-.4.2-.6.4-.2.1-.4.3-.6.4-.1.1-.3.2-.4.3-.9.6-1.9 1.1-2.8 1.6l-.6.3c-.5.3-1 .5-1.6.8l-.6.3c-.1.1-.3.1-.4.2l-.6.3c-1.5.6-3 1.2-4.5 1.7h1.5c4.7-1.7 8.9-3.9 12.8-6.6 7.9-5.6 11.7-13.7 13.2-18 .1-.2.1-.5 0-.7-.1-.1-.3-.3-.6-.3h-.5c-1.1 0-2.9-.1-4-.3-2.4 5.8-6.1 12.6-11.6 16.7z"/><path class="st1" d="M35.6 59c.1 0 .1 0 0 0 .1 0 .1 0 0 0z"/><path class="st0" d="M76.6 33.2l-.1.2c-3.2 7.4-7 12.8-11.4 16.1-.2.1-.4.3-.6.4-.1.1-.2.1-.2.2-3.8 2.9-8.4 6.1-15.2 9h1.3c6.2-2.7 10.5-5.7 13.9-8.3.2-.1.4-.3.5-.4l.1-.1c.2-.1.4-.3.5-.4C70.8 45.8 74.6 39 77 33.3h-.3l-.1-.1z"/><path class="st0" d="M64.4 50s0 .1 0 0c-.6.4-1.1.8-1.7 1.2h-.1c-.5.3-.9.7-1.4 1-.2.2-.5.3-.7.5h-.1c-.3.2-.5.3-.8.5-.1.1-.3.2-.4.3-1.7 1.1-3.6 2.2-5.7 3.3-.1.1-.2.1-.3.2-.2.1-.3.2-.5.2-.1.1-.2.1-.4.2s-.3.2-.5.2c-.1.1-.3.1-.4.2-.2.1-.3.2-.5.2-.1.1-.3.1-.4.2-.2.1-.4.2-.5.2-.1.1-.3.1-.4.2-.2.1-.3.1-.5.2 6.9-2.6 11.5-5.9 15.3-8.8zm6.3-24.1c0-.1 0-.1.1-.2l.1-1.4-.2 1.6z"/><path class="st0" d="M71.1 26.7c-4.5 14.9-18.5 22.2-26.3 25.2.2-.1.5-.2.7-.3.4-.2.9-.3 1.3-.5l.6-.3c.5-.2 1-.4 1.5-.7.1 0 .1 0 .2-.1.5-.2 1-.5 1.5-.7l.6-.3c.5-.3 1-.5 1.5-.8l.6-.3c.4-.2.7-.4 1-.6.3-.2.7-.4 1-.6l.9-.6c.1-.1.2-.1.3-.2.2-.1.4-.3.6-.4.1-.1.2-.2.4-.3.2-.1.4-.3.5-.4.1-.1.2-.2.3-.2.2-.1.3-.2.4-.3.2-.2.4-.3.6-.5s.5-.4.7-.6c.1-.1.3-.2.4-.3.4-.4.8-.7 1.2-1.1 0 0 .1 0 .1-.1l.2-.2.4-.4.6-.6.4-.4c.3-.3.5-.6.8-.9 0-.1.1-.1.1-.2.2-.3.4-.5.7-.8 0-.1.1-.1.1-.2.2-.3.4-.5.7-.8l.1-.1c.2-.3.5-.6.7-.9.1-.1.1-.2.2-.3.3-.5.7-1 1-1.5 0-.1.1-.1.1-.2.1-.1.1-.2.2-.4 0-.1.1-.2.1-.3.1-.2.2-.4.3-.5.1-.1.1-.3.2-.4.1-.2.2-.3.3-.5.1-.1.1-.3.2-.4l.3-.6c.3-.6.5-1.2.8-1.9 0-.1.1-.2.1-.4.1-.3.2-.5.3-.8l.3-.9c0-.1 0-.2.1-.2s.1-.1.1-.2l.2-1.3v-.6l.1-1.2v-.3c.1 0 .2 0 .3.1 2.4.6 4.8.6 7 .2.1 0 .3-.1.4-.1.1 0 .3-.1.4-.1s.3-.1.4-.1h.2v.2c0 .1 0 .1-.1.2 0 .1-.1.2-.1.3 0 .1-.1.2-.1.3s-.1.2-.1.3-.1.2-.1.3-.1.2-.1.3-.1.2-.1.2c-.1.2-.2.5-.2.7-.2.5-.4 1.1-.6 1.7 0 .1-.1.2-.1.2 0 .1-.1.2-.1.3-.2.6-.4 1.2-.7 1.8-.1.2-.1.4-.2.5 0 .1 0 .1-.1.2-.1.4-.3.7-.5 1.1 0 .1-.1.2-.1.2-.2.4-.3.8-.5 1.2-.1.1-.1.2-.2.4 0 .1-.1.2-.1.2-.2.5-.4.9-.7 1.4-.1.3-.3.6-.4.8v.1c-.3.6-.7 1.3-1 1.9-.1.1-.1.3-.2.4-.7 1.3-1.5 2.6-2.4 3.8-.1.1-.2.3-.3.4l-.6.9c-.2.3-.4.5-.6.7v.1c-.2.2-.4.5-.6.7l-.1.1c-.2.2-.4.5-.6.7v.1c-.2.2-.4.5-.6.7-.2.2-.4.5-.7.7-.2.2-.5.4-.7.7-.2.2-.5.4-.7.6-.1.1-.2.1-.2.2-.1.1-.2.2-.3.2 4.3-3.3 8.2-8.7 11.4-16.1l.1-.2h.5c1.5-3.6 2.5-6.8 3.1-8.5.1-.5.3-.8.3-1.1.1-.2.1-.5 0-.6-.1-.2-.4-.3-.7-.2-2.6.8-5.5.8-8.4 0 0 .2 0 .5-.1.7l-.4 3.6zM35.6 59c.1 0 .1 0 0 0v-2.2c0-.2-.1-.5-.1-.7 0-.1 0-.2-.1-.3 0-.1 0-.2-.1-.3v-.1c0-.1-.1-.2-.1-.2v-.1c0-.1-.1-.2-.1-.3h.2c.1 0 .2 0 .3-.1-.3.1-.6.2-.9.2.5 1.1.6 2.7.5 4.2.1 0 .3 0 .4-.1 0 .1 0 0 0 0zm28.8-8.3zm-25.3 3l.9-.3c-.3.1-.4.1-.4.1-.4.1-.8.2-1.2.4.2 0 .3-.1.5-.1.1 0 .1 0 .2-.1zm26.1-4.3c-.2.1-.4.3-.6.4.3-.1.4-.2.6-.4zm-.3.9s.1 0 0 0c.1 0 0 0 0 0zm-.5-.3c.1-.1.2-.1.2-.2 0 .1-.1.1-.2.2.1 0 0 0 0 0z"/><path class="st1" d="M37.1 59.1c.1-.1.2-.2.3-.2.1 0 .2.1.3.2h3c0-.2.2-.3.3-.3.2 0 .3.1.3.3h5.4c0-.1-.1-.1-.1-.2 0-.2.2-.3.3-.3.2 0 .3.2.3.3 0 .1 0 .1-.1.2h1.8c.2-.1.3-.1.5-.2.1-.1.3-.1.4-.2.2-.1.4-.2.5-.2.1-.1.3-.1.4-.2.2-.1.4-.2.5-.2.1-.1.3-.1.4-.2.2-.1.3-.2.5-.2.1-.1.2-.1.4-.2s.3-.2.5-.2c.1-.1.2-.1.3-.2.4-.2.9-.4 1.3-.7-.1-.1-.1-.2-.1-.3 0-.2.2-.3.3-.3.2 0 .3.1.3.3 1.4-.8 2.7-1.6 3.9-2.3 0-.1.2-.3.3-.3h.1c.3-.2.5-.3.8-.5h.1c.2-.2.5-.3.7-.5-.1-.1-.1-.2-.1-.3 0-.2.2-.3.3-.3.2 0 .3.1.3.2l.9-.6h.1c.6-.4 1.1-.8 1.6-1.2l.1-.1c.2-.2.5-.4.7-.5l.1-.1c0-.2.2-.3.3-.3h.1c.3-.2.5-.4.7-.6.2-.2.5-.4.7-.7.2-.2.5-.4.7-.7.2-.2.4-.5.6-.7v-.1c.2-.2.4-.5.6-.7l.1-.1c.2-.2.4-.5.6-.7v-.1c.2-.2.4-.5.6-.7.2-.3.4-.5.6-.8-.2 0-.3-.2-.3-.3 0-.2.2-.3.3-.3.1 0 .3.1.3.2.9-1.2 1.7-2.5 2.4-3.8-.1-.1-.1-.2-.1-.3 0-.2.2-.3.3-.3h.1c.2-.4.5-.9.7-1.3h-.1c-.2 0-.3-.2-.3-.3 0-.2.2-.3.3-.3.1 0 .2.1.3.2.1-.3.3-.6.4-.8.1-.3.3-.6.4-.8-.1 0-.1.1-.2.1-.2 0-.3-.2-.3-.3 0-.2.2-.3.3-.3.2 0 .3.1.3.3 0-.1.1-.2.1-.3s.1-.2.1-.2v-.1c0-.1.1-.2.2-.3.2-.4.3-.8.5-1.2 0-.1.1-.2.1-.2.2-.4.3-.8.5-1.1 0-.1 0-.1.1-.2.1-.2.1-.4.2-.5h-.1c-.2 0-.3-.2-.3-.3 0-.2.2-.3.3-.3.1 0 .2.1.3.2.2-.4.3-.9.5-1.3 0-.1.1-.2.1-.3s.1-.2.1-.2c-.1 0-.2-.2-.2-.3 0-.2.2-.3.3-.3h.1c.1-.4.3-.8.4-1.1 0-.1-.1-.1-.1-.2 0-.2.1-.3.2-.3 0-.1 0-.1.1-.2 0-.1.1-.2.1-.2 0-.1.1-.2.1-.3s.1-.2.1-.3.1-.2.1-.3h-.1c-.2 0-.3-.2-.3-.3 0-.2.2-.3.3-.3.1 0 .2 0 .3.1 0-.1 0-.1.1-.2v-.2h-.2c-.1 0-.3.1-.4.1s-.3.1-.4.1c-.1.1-.2.1-.3.1h-.2c-2.2.4-4.6.4-7-.2-.1 0-.1.1-.2.1h-.1v.1l-.1 1.2h.2c.2 0 .3.2.3.3 0 .2-.2.3-.3.3-.1 0-.2 0-.2-.1l-.1 1.3c0 .1.1.1.1.2s-.1.3-.2.3l-.3.9c-.1.3-.2.6-.3.8v.1c0 .1-.1.2-.1.3-.2.6-.5 1.3-.8 1.9.1.1.1.2.1.3 0 .2-.2.3-.3.3h-.1c-.1.1-.1.3-.2.4v.2c0 .2-.1.3-.3.3-.1.1-.1.2-.2.4 0 .1.1.1.1.2 0 .2-.2.3-.3.3 0 .1-.1.2-.1.3l-.1.1h.1c.2 0 .3.2.3.3 0 .2-.2.3-.3.3-.2 0-.3-.1-.3-.3-.3.5-.6 1-1 1.5 0 .1-.1.3-.2.3-.2.3-.5.6-.7.9l-.1.1c-.2.3-.4.5-.7.8 0 .1-.1.1-.1.2-.2.3-.4.5-.7.8 0 .1-.1.1-.1.2-.3.3-.5.6-.8.9v.1c0 .2-.2.3-.3.3h-.1l-.6.6-.4.4-.2.2c.1 0 .1-.1.2-.1.2 0 .3.2.3.3 0 .2-.2.3-.3.3-.2 0-.3-.2-.3-.3s0-.2.1-.2c-.4.4-.8.7-1.2 1.1.2 0 .3.2.3.3 0 .2-.2.3-.3.3-.2 0-.3-.2-.3-.3-.2.2-.4.4-.7.6-.2.2-.4.3-.6.5.1 0 .3.2.3.3 0 .2-.2.3-.3.3-.2 0-.3-.1-.3-.3-.1.1-.2.2-.3.2-.2.1-.3.3-.5.4-.1.1-.2.2-.4.3-.2.1-.4.3-.6.4-.1.1-.2.1-.3.2l-.9.6c-.3.2-.7.4-1 .6-.3.2-.7.4-1 .6.1.1.1.2.1.3 0 .2-.2.3-.3.3-.2 0-.3-.1-.3-.3-.5.3-1 .6-1.5.8v.1c0 .2-.2.3-.3.3-.1 0-.2-.1-.3-.1-.5.2-1 .5-1.5.7-.1 0-.1 0-.2.1-.5.2-1 .4-1.5.7v.1c0 .2-.2.3-.3.3-.1 0-.3-.1-.3-.2-.4.2-.9.3-1.3.5l-.9.3c-.3-.6-.4-.5-.5-.5 0 .2-.2.3-.3.3-.1 0-.2 0-.3-.1-.2.1-.4.1-.6.2.2 0 .3.2.3.3 0 .2-.2.3-.3.3-.2 0-.3-.2-.3-.3s0-.2.1-.2c-1.2.4-2.1.7-2.6.8-.3.1-.6.2-1 .3h-.1c-.2.1-.4.1-.6.2-.2.1-.4.1-.5.1.1.1.2.2.2.3 0 .2-.2.3-.3.3-.2 0-.3-.2-.3-.3v-.2c-.1 0-.3.1-.4.1h-.1c0 .2-.2.3-.3.3-.1 0-.2 0-.3-.1-.2.1-.4.1-.6.2-.1 0-.2 0-.3.1h-.2c0 .1.1.2.1.3v.1c0 .1.1.2.1.2v.1c0 .1 0 .2.1.3 0 .1 0 .2.1.3h.1c.2 0 .3.2.3.3 0 .2-.2.3-.3.3v2.3c.2.2.7.2 1.2.2zm-1-.6c0-.2.2-.3.3-.3.2 0 .3.2.3.3 0 .2-.2.3-.3.3-.1.1-.3-.1-.3-.3zm1.7 0c-.2 0-.3-.2-.3-.3 0-.2.2-.3.3-.3.2 0 .3.2.3.3 0 .2-.1.3-.3.3zm2 .5c-.2 0-.3-.2-.3-.3 0-.2.2-.3.3-.3.2 0 .3.2.3.3 0 .1-.2.3-.3.3zm.3-3.7c0 .2-.2.3-.3.3-.2 0-.3-.2-.3-.3 0-.2.2-.3.3-.3.1 0 .3.1.3.3zm.5 1.5c0-.2.2-.3.3-.3.2 0 .3.2.3.3 0 .2-.2.3-.3.3-.1.1-.3-.1-.3-.3zm1.5-.9c0 .2-.2.3-.3.3-.2 0-.3-.2-.3-.3 0-.2.2-.3.3-.3.1 0 .3.1.3.3zm-.2 2.9c-.2 0-.3-.2-.3-.3 0-.2.2-.3.3-.3.2 0 .3.2.3.3 0 .2-.1.3-.3.3zm9.1-6.1c0 .2-.2.3-.3.3-.2 0-.3-.2-.3-.3s.2-.3.3-.3c.1-.1.3.1.3.3zm3.9-4.2c.2 0 .3.2.3.3 0 .2-.2.3-.3.3-.2 0-.3-.2-.3-.3-.1-.1.1-.3.3-.3zm.8-.6c0 .2-.2.3-.3.3-.2 0-.3-.2-.3-.3 0-.2.2-.3.3-.3s.3.2.3.3zm4.4-.3c.2 0 .3.2.3.3s-.2.3-.3.3c-.2 0-.3-.2-.3-.3s.1-.3.3-.3zm-.1 1.3c0 .2-.2.3-.3.3-.2 0-.3-.2-.3-.3 0-.2.2-.3.3-.3.1-.1.3.1.3.3zm.1 2c-.2 0-.3-.2-.3-.3 0-.2.2-.3.3-.3.2 0 .3.2.3.3.1.1-.1.3-.3.3zm-1-3.3c.2 0 .3.2.3.3s-.2.3-.3.3c-.2 0-.3-.2-.3-.3s.1-.3.3-.3zm-.3 2.6c.2 0 .3.2.3.3 0 .2-.2.3-.3.3-.2 0-.3-.2-.3-.3 0-.2.2-.3.3-.3zm-1.3 1.6c0 .2-.2.3-.3.3-.2 0-.3-.2-.3-.3s.2-.3.3-.3c.2-.1.3.1.3.3zm-2.3.6c-.2 0-.3-.2-.3-.3 0-.2.2-.3.3-.3.2 0 .3.2.3.3s-.1.3-.3.3zm0-1.4c0 .2-.2.3-.3.3-.2 0-.3-.2-.3-.3 0-.2.2-.3.3-.3.2-.1.3.1.3.3zm.1 2c0-.2.2-.3.3-.3.2 0 .3.2.3.3 0 .2-.2.3-.3.3-.1 0-.3-.1-.3-.3zm.8.9c0-.2.2-.3.3-.3.2 0 .3.2.3.3 0 .2-.2.3-.3.3-.2 0-.3-.1-.3-.3zm1.7-3.6c-.2 0-.3-.2-.3-.3 0-.2.2-.3.3-.3.2 0 .3.2.3.3s-.1.3-.3.3zm-.5-3.2c.2 0 .3.2.3.3 0 .2-.2.3-.3.3-.2 0-.3-.2-.3-.3 0-.1.1-.3.3-.3zm0 1.3c.2 0 .3.2.3.3s-.2.4-.3.4c-.2 0-.3-.2-.3-.3s.1-.4.3-.4zm-.5 2.8c-.2 0-.3-.2-.3-.3 0-.2.2-.3.3-.3.2 0 .3.2.3.3 0 .1-.1.3-.3.3zm-2-1.6c.2 0 .3.2.3.3 0 .2-.2.3-.3.3-.2 0-.3-.2-.3-.3-.1-.2.1-.3.3-.3zm-1.9 5.7c-.2 0-.3-.2-.3-.3 0-.2.2-.3.3-.3.2 0 .3.2.3.3.1.1-.1.3-.3.3zm.2-4.2c.2 0 .3.2.3.3 0 .2-.2.3-.3.3-.2 0-.3-.2-.3-.3-.1-.1.1-.3.3-.3zm.2 1.6c-.2 0-.3-.2-.3-.3s.2-.3.3-.3c.2 0 .3.2.3.3s-.1.3-.3.3zm0-2.3c0 .2-.2.3-.3.3-.2 0-.3-.2-.3-.3 0-.2.2-.3.3-.3.1-.1.3.1.3.3zM52 54.7c-.2 0-.3-.2-.3-.3 0-.2.2-.3.3-.3.2 0 .3.2.3.3.1.1-.1.3-.3.3zm-.4-1.1c0 .2-.2.3-.3.3-.2 0-.3-.2-.3-.3 0-.2.2-.3.3-.3.1-.1.3.1.3.3zm-1 .5c0 .2-.2.3-.3.3-.2 0-.3-.2-.3-.3 0-.2.2-.3.3-.3.1-.1.3.1.3.3zm-1.2-.3c0 .2-.2.3-.3.3-.2 0-.3-.2-.3-.3s.2-.3.3-.3c.2-.1.3.1.3.3zm-1.2 2.4zm-.1-.6c0-.2.2-.3.3-.3.2 0 .3.2.3.3 0 .2-.2.3-.3.3-.2 0-.3-.1-.3-.3zm-2.4.3c.2 0 .3.2.3.3 0 .2-.2.3-.3.3-.2 0-.3-.2-.3-.3-.1-.2.1-.3.3-.3zm.8-2.1c0-.2.2-.3.3-.3.2 0 .3.2.3.3 0 .2-.2.3-.3.3s-.3-.1-.3-.3zm.8 1.5c.2 0 .3.2.3.3 0 .2-.2.3-.3.3-.2 0-.3-.2-.3-.3 0-.1.1-.3.3-.3zm-.4-3.3c0 .2-.2.3-.3.3-.2 0-.3-.2-.3-.3 0-.2.2-.3.3-.3.2-.1.3.1.3.3zm-1.2 2.3c-.2 0-.3-.2-.3-.3 0-.2.2-.3.3-.3.2 0 .3.2.3.3 0 .1-.1.3-.3.3zm-1.1 2.3c-.2 0-.3-.2-.3-.3 0-.2.2-.3.3-.3.2 0 .3.2.3.3 0 .1-.1.3-.3.3zm-1.7 2c-.2 0-.3-.2-.3-.3 0-.2.2-.3.3-.3.2 0 .3.2.3.3.1.1-.1.3-.3.3zm.7-.6c0-.2.2-.3.3-.3.2 0 .3.2.3.3 0 .2-.2.3-.3.3-.1.1-.3-.1-.3-.3zm1.5.4c-.2 0-.3-.2-.3-.3 0-.2.2-.3.3-.3.2 0 .3.2.3.3 0 .1-.1.3-.3.3zm.9.3c-.2 0-.3-.2-.3-.3 0-.2.2-.3.3-.3.2 0 .3.2.3.3.1.1-.1.3-.3.3zm.4-2.2c0-.2.2-.3.3-.3.2 0 .3.2.3.3v.1c0 .2-.2.3-.3.3-.1 0-.3-.2-.3-.4zm.9.5c0-.2.2-.3.3-.3.2 0 .3.2.3.3 0 .2-.2.3-.3.3-.2 0-.3-.1-.3-.3zm.9.6c0-.2.2-.3.3-.3.2 0 .3.2.3.3 0 .2-.2.3-.3.3-.2 0-.3-.1-.3-.3zm1.1 1c-.2 0-.3-.2-.3-.3 0-.2.2-.3.3-.3.2 0 .3.2.3.3s-.1.3-.3.3zm.3-2.5c-.2 0-.3-.2-.3-.3 0-.2.2-.3.3-.3.2 0 .3.2.3.3.1.1-.1.3-.3.3zm1.1.3c-.2 0-.3-.2-.3-.3s.2-.3.3-.3c.2 0 .3.2.3.3s-.1.3-.3.3zm1.1.4c-.2 0-.3-.2-.3-.3 0-.2.2-.3.3-.3.2 0 .3.2.3.3 0 .2-.2.3-.3.3zm.9.5c-.2 0-.3-.2-.3-.3 0-.2.2-.3.3-.3.2 0 .3.2.3.3 0 .2-.1.3-.3.3zm.8-3.9c0-.2.2-.3.3-.3.2 0 .3.2.3.3 0 .2-.2.3-.3.3-.1.1-.3-.1-.3-.3zm.5 2.5c-.2 0-.3-.2-.3-.3s.2-.3.3-.3c.2 0 .3.2.3.3s-.1.3-.3.3zm3.2-1.1c-.2 0-.3-.2-.3-.3 0-.2.2-.3.3-.3.2 0 .3.2.3.3 0 .2-.1.3-.3.3zm.6-1.8c-.2 0-.3-.2-.3-.3 0-.2.2-.3.3-.3.2 0 .3.2.3.3s-.1.3-.3.3zm.5.3c0-.2.2-.3.3-.3.2 0 .3.2.3.3 0 .2-.2.3-.3.3-.1 0-.3-.1-.3-.3zm1.2-1.5c-.2 0-.3-.2-.3-.3 0-.2.2-.3.3-.3.2 0 .3.2.3.3 0 .1-.1.3-.3.3zm.9.5c-.2 0-.3-.2-.3-.3 0-.2.2-.3.3-.3.2 0 .3.2.3.3s-.1.3-.3.3zm4-7.9c0 .2-.2.3-.3.3-.2 0-.3-.2-.3-.3s.2-.3.3-.3c.1 0 .3.1.3.3zm-.2 4.2c0 .2-.2.3-.3.3-.2 0-.3-.2-.3-.3 0-.2.2-.3.3-.3.2-.1.3.1.3.3zm.5-3.2c0 .2-.2.3-.3.3-.2 0-.3-.2-.3-.3 0-.2.2-.3.3-.3s.3.1.3.3zm-.6 1.1c0-.2.2-.3.3-.3.2 0 .3.2.3.3 0 .2-.2.3-.3.3s-.3-.1-.3-.3zm-.5 2.8c0 .2-.2.3-.3.3-.2 0-.3-.2-.3-.3 0-.2.2-.3.3-.3.2 0 .3.1.3.3zm-2.1-1.7c0-.2.2-.3.3-.3.2 0 .3.2.3.3 0 .2-.2.3-.3.3-.1.1-.3-.1-.3-.3zm.8-1.6c-.2 0-.3-.2-.3-.3 0-.2.2-.3.3-.3.2 0 .3.2.3.3.1.2-.1.3-.3.3zm.1 1.1c-.2 0-.3-.2-.3-.3 0-.2.2-.3.3-.3.2 0 .3.2.3.3.1.1-.1.3-.3.3zm0-2.4c0 .2-.2.3-.3.3-.2 0-.3-.2-.3-.3 0-.2.2-.3.3-.3s.3.1.3.3zm-1.1 1.5c.2 0 .3.2.3.3 0 .2-.2.3-.3.3-.2 0-.3-.2-.3-.3-.1-.1.1-.3.3-.3zm0 4.1c-.2 0-.3-.2-.3-.3 0-.2.2-.3.3-.3.2 0 .3.2.3.3s-.1.3-.3.3zm.2-1.4c0-.2.2-.3.3-.3.2 0 .3.2.3.3 0 .2-.2.3-.3.3-.1.1-.3-.1-.3-.3zm.5 1c0-.2.2-.3.3-.3.2 0 .3.2.3.3 0 .2-.2.3-.3.3-.1.1-.3-.1-.3-.3zm2.3-2.1c-.2 0-.3-.2-.3-.3 0-.2.2-.3.3-.3.2 0 .3.2.3.3 0 .2-.1.3-.3.3zm1.1-4.4c-.2 0-.3-.2-.3-.3 0-.2.2-.3.3-.3.2 0 .3.2.3.3 0 .2-.1.3-.3.3zm3.2-7.2c.2 0 .3.2.3.3 0 .2-.2.3-.3.3-.2 0-.3-.2-.3-.3 0-.2.1-.3.3-.3zm5.9-10.6c.2 0 .3.2.3.3 0 .2-.2.3-.3.3-.2 0-.3-.2-.3-.3 0-.2.1-.3.3-.3zm2.8 2.4c0 .2-.2.3-.3.3-.2 0-.3-.2-.3-.3 0-.2.2-.3.3-.3.2 0 .3.1.3.3zm-2 4.5c-.2 0-.3-.2-.3-.3 0-.2.2-.3.3-.3.2 0 .3.2.3.3s-.1.3-.3.3zm-1.5 4.2c-.2 0-.3-.2-.3-.3 0-.2.2-.3.3-.3.2 0 .3.2.3.3 0 .2-.1.3-.3.3zm-5.2 7.5c-.2 0-.3-.2-.3-.3 0-.2.2-.3.3-.3.2 0 .3.2.3.3 0 .1-.1.3-.3.3zm-2.8-.6c.2 0 .3.2.3.3 0 .2-.2.3-.3.3-.2 0-.3-.2-.3-.3 0-.1.1-.3.3-.3zm1.6-3.9c.2 0 .3.2.3.3 0 .2-.2.3-.3.3-.2 0-.3-.2-.3-.3-.1-.1.1-.3.3-.3zm-.4 2.1c.2 0 .3.2.3.3 0 .2-.2.3-.3.3-.2 0-.3-.2-.3-.3s.2-.3.3-.3zM65.8 45c0-.2.2-.3.3-.3.2 0 .3.2.3.3 0 .2-.2.3-.3.3-.1.1-.3-.1-.3-.3zm1.1.2c0-.2.2-.3.3-.3.2 0 .3.2.3.3 0 .2-.2.3-.3.3-.2.1-.3-.1-.3-.3zm1.8-7.8c0-.2.2-.3.3-.3.2 0 .3.2.3.3 0 .2-.2.3-.3.3-.1.1-.3-.1-.3-.3zm6-9.4c.2 0 .3.2.3.3 0 .2-.2.3-.3.3-.2 0-.3-.2-.3-.3 0-.2.1-.3.3-.3zm-.8 0c-.2 0-.3-.2-.3-.3 0-.2.2-.3.3-.3.2 0 .3.2.3.3.1.2-.1.3-.3.3zm-.2 2.1c.2 0 .3.2.3.3 0 .2-.2.3-.3.3-.2 0-.3-.2-.3-.3 0-.2.1-.3.3-.3zm-.2 2.7c-.2 0-.3-.2-.3-.3 0-.2.2-.3.3-.3.2 0 .3.2.3.3.1.1-.1.3-.3.3zm-.7-2.3c0 .2-.2.3-.3.3-.2 0-.3-.2-.3-.3s.2-.3.3-.3c.1-.1.3.1.3.3zm-.3 1.6c.2 0 .3.2.3.3 0 .2-.2.3-.3.3-.2 0-.3-.2-.3-.3-.1-.1.1-.3.3-.3zm.5.9c.2 0 .3.2.3.3 0 .2-.2.3-.3.3s-.3-.2-.3-.3c0-.1.1-.3.3-.3zm.5 2.4c-.2 0-.3-.2-.3-.3 0-.2.2-.3.3-.3.2 0 .3.2.3.3.1.1-.1.3-.3.3zm-.3-5.5c-.2 0-.3-.2-.3-.3 0-.2.2-.3.3-.3.2 0 .3.2.3.3s-.1.3-.3.3zm-.3-2.3c-.2 0-.3-.2-.3-.3 0-.2.2-.3.3-.3.2 0 .3.2.3.3.1.1-.1.3-.3.3zm-.6 7.1c.2 0 .3.2.3.3 0 .2-.2.3-.3.3-.2 0-.3-.2-.3-.3-.1-.2.1-.3.3-.3zm-1.1-.6c.2 0 .3.2.3.3 0 .2-.2.3-.3.3-.2 0-.3-.2-.3-.3 0-.2.1-.3.3-.3zm-.3 2.1c0 .2-.2.3-.3.3-.2 0-.3-.2-.3-.3 0-.2.2-.3.3-.3.2 0 .3.1.3.3zm-.3 2.4c.2 0 .3.2.3.3 0 .2-.2.3-.3.3-.2 0-.3-.2-.3-.3-.1-.1.1-.3.3-.3zm-.4-.2c0 .2-.2.3-.3.3-.2 0-.3-.2-.3-.3 0-.2.2-.3.3-.3.1-.1.3.1.3.3zm-1.8 1.8c.2 0 .3.2.3.3 0 .2-.2.3-.3.3-.2 0-.3-.2-.3-.3 0-.2.2-.3.3-.3zm.5 2.6c-.2 0-.3-.2-.3-.3 0-.2.2-.3.3-.3.2 0 .3.2.3.3.1.2-.1.3-.3.3zm.3-2c0-.2.2-.3.3-.3.2 0 .3.2.3.3 0 .2-.2.3-.3.3-.2.1-.3-.1-.3-.3zm.5 1.9c0-.2.2-.3.3-.3.2 0 .3.2.3.3 0 .2-.2.3-.3.3-.2 0-.3-.1-.3-.3zm.6-1.8c0-.2.2-.3.3-.3.2 0 .3.2.3.3 0 .2-.2.3-.3.3-.1 0-.3-.1-.3-.3zm.5-3.8c0-.2.2-.3.3-.3.2 0 .3.2.3.3 0 .2-.2.3-.3.3-.1.1-.3-.1-.3-.3zm1.3.3c.2 0 .3.2.3.3 0 .2-.2.3-.3.3-.2 0-.3-.2-.3-.3-.1-.1.1-.3.3-.3zm.4-1.5c0-.2.2-.3.3-.3.2 0 .3.2.3.3 0 .2-.2.3-.3.3-.1.1-.3-.1-.3-.3zm2.2-5.2c.2 0 .3.2.3.3 0 .2-.2.3-.3.3-.2 0-.3-.2-.3-.3-.1-.1.1-.3.3-.3zm1.4-.5c0 .2-.2.3-.3.3-.2 0-.3-.2-.3-.3 0-.2.2-.3.3-.3.2-.1.3.1.3.3zm-.6 1c0-.2.2-.3.3-.3.2 0 .3.2.3.3 0 .2-.2.3-.3.3-.2.1-.3-.1-.3-.3zm.7-4.4c.2 0 .3.2.3.3 0 .2-.2.3-.3.3-.2 0-.3-.2-.3-.3-.1-.2.1-.3.3-.3zm-.4 2.4c0 .2-.2.3-.3.3-.2 0-.3-.2-.3-.3 0-.2.2-.3.3-.3s.3.1.3.3zm-2.2-3.4c-.2 0-.3-.2-.3-.3 0-.2.2-.3.3-.3.2 0 .3.2.3.3.1.1-.1.3-.3.3zm-1.1 3.3c0 .2-.2.3-.3.3-.2 0-.3-.2-.3-.3 0-.2.2-.3.3-.3.2-.1.3.1.3.3zm-.5-1.8c-.2 0-.3-.2-.3-.3 0-.2.2-.3.3-.3.2 0 .3.2.3.3 0 .1-.1.3-.3.3zm-.3 3.6c0 .2-.2.3-.3.3-.2 0-.3-.2-.3-.3 0-.2.2-.3.3-.3.1-.1.3.1.3.3zm-1 .7c.2 0 .3.2.3.3 0 .2-.2.3-.3.3-.2 0-.3-.2-.3-.3s.1-.3.3-.3zm0 1.3c.2 0 .3.2.3.3 0 .2-.2.3-.3.3-.2 0-.3-.2-.3-.3-.1-.1.1-.3.3-.3zm-.5 2.8c-.2 0-.3-.2-.3-.3 0-.2.2-.3.3-.3.2 0 .3.2.3.3 0 .1-.1.3-.3.3zM68 42.6c.2 0 .3.2.3.3 0 .2-.2.3-.3.3-.2 0-.3-.2-.3-.3-.1-.2.1-.3.3-.3zm-.7-5c.2 0 .3.2.3.3 0 .2-.2.3-.3.3-.2 0-.3-.2-.3-.3-.1-.2.1-.3.3-.3zm-.8 3.8c0 .2-.2.3-.3.3-.2 0-.3-.2-.3-.3 0-.2.2-.3.3-.3.2 0 .3.1.3.3zm-.5 7.2c-.2 0-.3-.2-.3-.3 0-.2.2-.3.3-.3.2 0 .3.2.3.3 0 .2-.1.3-.3.3zm.3-1.1c-.2 0-.3-.2-.3-.3s.2-.3.3-.3c.2 0 .3.2.3.3s-.1.3-.3.3zm0-1c-.2 0-.3-.2-.3-.3 0-.2.2-.3.3-.3.2 0 .3.2.3.3.1.1-.1.3-.3.3zm1.5 0c-.2 0-.3-.2-.3-.3 0-.2.2-.3.3-.3.2 0 .3.2.3.3.1.2-.1.3-.3.3zm1.4-1.4c-.2 0-.3-.2-.3-.3 0-.2.2-.3.3-.3.2 0 .3.2.3.3.1.2-.1.3-.3.3zm1.9-5.5c0-.2.2-.3.3-.3.2 0 .3.2.3.3 0 .2-.2.3-.3.3s-.3-.1-.3-.3zm.3 1.2c0-.2.2-.3.3-.3.2 0 .3.2.3.3 0 .2-.2.3-.3.3-.1.1-.3-.1-.3-.3zm1-.4c-.2 0-.3-.2-.3-.3s.2-.3.3-.3c.2 0 .3.2.3.3s-.1.3-.3.3zm.6-1.8c-.2 0-.3-.2-.3-.3 0-.2.2-.3.3-.3.2 0 .3.2.3.3.1.1-.1.3-.3.3zm1.7-3.8c-.2 0-.3-.2-.3-.3 0-.2.2-.3.3-.3.2 0 .3.2.3.3s-.1.3-.3.3zm.6-1c-.2 0-.3-.2-.3-.3 0-.2.2-.3.3-.3.2 0 .3.2.3.3.1.1-.1.3-.3.3zm2.1-4.5c-.2 0-.3-.2-.3-.3 0-.2.2-.3.3-.3.2 0 .3.2.3.3.1.1-.1.3-.3.3zm1.3-4.2c.2 0 .3.2.3.3 0 .2-.2.3-.3.3-.2 0-.3-.2-.3-.3-.1-.2.1-.3.3-.3zm-.8-.1c0 .2-.2.3-.3.3-.2 0-.3-.2-.3-.3 0-.2.2-.3.3-.3.2-.1.3.1.3.3zm-1-.4c0 .2-.2.3-.3.3-.2 0-.3-.2-.3-.3 0-.2.2-.3.3-.3s.3.2.3.3zm-1.1 1.9c0 .2-.2.3-.3.3-.2 0-.3-.2-.3-.3 0-.2.2-.3.3-.3.1-.1.3.1.3.3zm-.1-2c0 .2-.2.3-.3.3-.2 0-.3-.2-.3-.3 0-.2.2-.3.3-.3.1 0 .3.1.3.3zm-1.5-.3c.2 0 .3.2.3.3 0 .2-.2.3-.3.3-.2 0-.3-.2-.3-.3s.1-.3.3-.3zm-1.3.9c0 .2-.2.3-.3.3-.2 0-.3-.2-.3-.3 0-.2.2-.3.3-.3s.3.1.3.3zm-1.7 3.4c.2 0 .3.2.3.3 0 .2-.2.3-.3.3-.2 0-.3-.2-.3-.3-.1-.1.1-.3.3-.3zm-.9 2.2c.2 0 .3.2.3.3 0 .2-.2.3-.3.3-.2 0-.3-.2-.3-.3-.1-.1.1-.3.3-.3zm-.2 3.2c.2 0 .3.2.3.3 0 .2-.2.3-.3.3-.2 0-.3-.2-.3-.3s.1-.3.3-.3zm-1.8 1.2c.2 0 .3.2.3.3 0 .2-.2.3-.3.3-.2 0-.3-.2-.3-.3 0-.1.1-.3.3-.3zm-1.6 1.4c.2 0 .3.2.3.3 0 .2-.2.3-.3.3-.2 0-.3-.2-.3-.3 0-.2.1-.3.3-.3zm-.4 2.6c.2 0 .3.2.3.3 0 .2-.2.3-.3.3-.2 0-.3-.2-.3-.3 0-.2.1-.3.3-.3zm-.9-.6c.2 0 .3.2.3.3 0 .2-.2.3-.3.3-.2 0-.3-.2-.3-.3 0-.2.1-.3.3-.3zm-.2 2.1c.2 0 .3.2.3.3 0 .2-.2.3-.3.3-.2 0-.3-.2-.3-.3 0-.2.2-.3.3-.3zm-.7-.1c0 .2-.2.3-.3.3-.2 0-.3-.2-.3-.3 0-.2.2-.3.3-.3.2-.1.3.1.3.3zm-.9 2.7c.2 0 .3.2.3.3 0 .2-.2.3-.3.3-.2 0-.3-.2-.3-.3-.1-.2.1-.3.3-.3zm-.5-.6c0 .2-.2.3-.3.3-.2 0-.3-.2-.3-.3 0-.2.2-.3.3-.3.2 0 .3.1.3.3zm-1.8.9c.2 0 .3.2.3.3 0 .2-.2.3-.3.3-.2 0-.3-.2-.3-.3-.1-.2.1-.3.3-.3zm-1 2.1c.2 0 .3.2.3.3 0 .2-.2.3-.3.3-.2 0-.3-.2-.3-.3-.1-.1.1-.3.3-.3zm-.5-.9c.2 0 .3.2.3.3 0 .2-.2.3-.3.3-.2 0-.3-.2-.3-.3-.1-.1.1-.3.3-.3zm-.5 1.3c0 .2-.2.3-.3.3-.2 0-.3-.2-.3-.3s.2-.3.3-.3c.2-.1.3.1.3.3zm-1.4.1c.2 0 .3.2.3.3 0 .2-.2.3-.3.3-.2 0-.3-.2-.3-.3 0-.2.2-.3.3-.3zm-1 .1c.2 0 .3.2.3.3 0 .2-.2.3-.3.3-.2 0-.3-.2-.3-.3-.1-.1.1-.3.3-.3zm-.2 3.2c.2 0 .3.2.3.3s-.1.4-.3.4-.3-.2-.3-.3.1-.4.3-.4zm-.4-2.4c0 .2-.2.3-.3.3-.2 0-.3-.2-.3-.3 0-.2.2-.3.3-.3.1 0 .3.1.3.3zm-3.4 2c.2 0 .3.2.3.3 0 .2-.2.3-.3.3-.2 0-.3-.2-.3-.3 0-.2.1-.3.3-.3zm-.5 2.3c0 .2-.2.3-.3.3-.2 0-.3-.2-.3-.3 0-.2.2-.3.3-.3s.3.1.3.3zm-1-1.4c.2 0 .3.2.3.3 0 .2-.2.3-.3.3-.2 0-.3-.2-.3-.3 0-.2.1-.3.3-.3zm-1 1.7c0 .2-.2.3-.3.3-.2 0-.3-.2-.3-.3 0-.2.2-.3.3-.3s.3.1.3.3zm-1-1.3c.2 0 .3.2.3.3 0 .2-.2.3-.3.3-.2 0-.3-.2-.3-.3 0-.1.1-.3.3-.3zM48 54.1c-.2 0-.3-.2-.3-.3 0-.2.2-.3.3-.3.2 0 .3.2.3.3 0 .2-.1.3-.3.3zm-2.2-1.6c.2 0 .3.2.3.3 0 .2-.2.3-.3.3-.2 0-.3-.2-.3-.3 0-.2.1-.3.3-.3zm-1.2 1.4c.2 0 .3.2.3.3 0 .2-.2.3-.3.3-.2 0-.3-.2-.3-.3 0-.2.1-.3.3-.3zm-.7.8c0 .2-.2.3-.3.3-.2 0-.3-.2-.3-.3 0-.2.2-.3.3-.3.1-.1.3.1.3.3zm-1.3.3c.2 0 .3.2.3.3 0 .2-.2.3-.3.3-.2 0-.3-.2-.3-.3 0-.2.1-.3.3-.3zm-.6-1.8c.2 0 .3.2.3.3 0 .2-.2.3-.3.3-.2 0-.3-.2-.3-.3 0-.2.1-.3.3-.3zm-1.1.4c.2 0 .3.2.3.3s-.2.3-.3.3c-.2 0-.3-.2-.3-.3s.2-.3.3-.3zm-.4 4.1c0 .2-.2.3-.3.3-.2 0-.3-.2-.3-.3 0-.2.2-.3.3-.3.2 0 .3.2.3.3zm-.3-3.4c0 .2-.2.3-.3.3-.2 0-.3-.2-.3-.3 0-.2.2-.3.3-.3.2-.1.3.1.3.3zM39 56.6c-.2 0-.3-.2-.3-.3 0-.2.2-.3.3-.3.2 0 .3.2.3.3 0 .1-.1.3-.3.3zm-.3-2.5c.2 0 .3.2.3.3 0 .2-.2.3-.3.3-.2 0-.3-.2-.3-.3-.1-.2.1-.3.3-.3zm-.3 2.7c.2 0 .3.2.3.3 0 .2-.2.3-.3.3-.2 0-.3-.2-.3-.3-.1-.2.1-.3.3-.3zm-2.7.7c0-.2.2-.3.3-.3.2 0 .3.2.3.3 0 .2-.2.3-.3.3-.2 0-.3-.1-.3-.3z"/><path class="st0" d="M78.7 23.6c-2.2.4-4.6.4-7-.2 2.4.6 4.8.6 7 .2zm-9.4 8.2c-.1.1-.1.3-.2.4 0-.1.1-.2.2-.4zm2-6.4zm.1-1.8l-.1 1.2zm-1.1 5.8c-.2.6-.5 1.3-.8 1.9.3-.7.6-1.3.8-1.9zm.4-1.2c-.1.3-.2.6-.3.8.2-.3.3-.6.3-.8zm-1.9 4.6c-.1.1-.1.2-.2.4.1-.2.1-.3.2-.4zm2.2-5.5l-.3.9c.1-.4.2-.7.3-.9zM39.1 53.7c.3-.1.6-.2 1-.3-.4.2-.7.3-1 .3zm9.9-3.5c-.5.2-1 .4-1.5.7.5-.3 1-.5 1.5-.7zm-3.5 1.4c-.2.1-.5.2-.7.3-.1 0-.2.1-.2.1.3-.1.6-.3.9-.4zm1.4-.5c-.4.2-.9.3-1.3.5.4-.1.8-.3 1.3-.5zm7.5-3.7c-.3.2-.7.4-1 .6.3-.2.7-.4 1-.6zm-1.6.9c-.5.3-1 .6-1.5.8.5-.2 1-.5 1.5-.8zm-2.2 1.1c-.5.2-1 .5-1.5.7.6-.2 1.1-.4 1.5-.7zm-14.9 8.5zm-.1-1.1zm-.1-2.1c-.1 0-.2 0-.3.1.2 0 .2-.1.3-.1zm-.1 1.1c0 .1 0 .2.1.3 0-.1-.1-.2-.1-.3zm3.5-2c-.2 0-.3.1-.5.1h-.1c.2 0 .4-.1.6-.1zm23.2-12.3l-.2.2c0-.1.1-.1.2-.2zm2.2-2.3c-.3.3-.5.6-.8.9.2-.3.5-.6.8-.9zM35.6 59s0 .1 0 0c0 .1 0 .1 0 0 0 .1 0 0 0 0zm32.7-25.3c0 .1-.1.2-.1.3 0-.1 0-.2.1-.3zm-2.5 3.6c-.2.3-.4.5-.7.8.3-.3.5-.5.7-.8zm2-2.8c-.3.5-.6 1-1 1.5.4-.5.7-1 1-1.5zm-4.7 6l-.6.6.6-.6zm-4.7 4.1c-.1.1-.2.2-.3.2.1 0 .2-.1.3-.2zm3.4-2.8c-.4.4-.8.7-1.2 1.1.4-.4.8-.8 1.2-1.1zm-4.2 3.4c-.1.1-.2.2-.4.3.1-.1.2-.2.4-.3zm1.9-1.4c-.2.2-.4.3-.6.5.2-.2.4-.4.6-.5zm19.7-20.3c.1 0 .3-.1.4-.1-.2 0-.3.1-.4.1zM67.3 47.7s-.1 0 0 0c-.1 0 0 0 0 0zm-.8.6c0 .1 0 .1 0 0 0 .1 0 .1 0 0zM64.4 50zm3.6-3zm2-2.3zm-.7.8zm-.6.7c0 .1-.1.1 0 0-.1.1 0 .1 0 0zM53.6 56.9c-.1.1-.2.1-.3.2.1-.1.2-.1.3-.2zm-1.7.9c-.1.1-.3.1-.4.2.1-.1.2-.2.4-.2zm.8-.4c-.1.1-.2.1-.4.2.2-.1.3-.2.4-.2zm-1.7.8c-.1.1-.3.1-.4.2.1-.1.2-.2.4-.2zm11.7-6.9zm-2.2 1.5s0 .1 0 0c0 .1 0 0 0 0zm10.1-8.9zm-10.5-.7c.1 0 .1 0 0 0 .1 0 .1 0 0 0zM35.3 55.4c0-.1-.1-.2-.1-.2.1 0 .1.1.1.2zm-.1-.3c0-.1-.1-.2-.1-.3 0 .1.1.2.1.3zm40.4-19.6s0 .1 0 0c0 .1 0 0 0 0zM35.7 59v-.5.5zm-.3-3.3c0-.1 0-.2-.1-.3 0 .1.1.2.1.3zM50 58.6c-.1.1-.3.1-.4.2.2-.1.3-.1.4-.2zm-14.3-.8v-.5c-.1.2 0 .4 0 .5zm20.6-11.7c.1-.1.2-.1.3-.2-.1.1-.2.1-.3.2zm22.3-18c0 .1-.1.2-.1.3 0-.1.1-.2.1-.3zm-1.5 4c0 .1-.1.2-.1.2s.1-.1.1-.2zM64.4 39c.2-.3.4-.5.7-.8-.2.3-.5.6-.7.8zm15.2-13.9c0 .1-.1.2-.1.2s.1-.1.1-.2zm.2-.6c0 .1-.1.2-.1.3 0-.1 0-.2.1-.3zM65.9 37.2c.2-.3.5-.6.7-.9-.2.3-.4.6-.7.9zm10.3-3.1c0-.1.1-.2.1-.2 0 .1 0 .1-.1.2zm2.5-6.2zM77.5 31zm.1-.2c.1-.2.1-.4.2-.5 0 .1-.1.3-.2.5zm-1.1 2.7zM59.3 53.6zm20.5-29.1c0-.1.1-.2.1-.3 0 .1-.1.2-.1.3zm-.5 1.6zm.9-2.8s-.1 0 0 0c-.1 0 0 0 0 0zm-19 29zm4.6-3.3zm-1.4 1.1s0-.1 0 0c0-.1 0-.1 0 0 .1-.1.1-.1 0 0 0-.1 0-.1 0 0zm7.1-7.5zM59.7 53.4zm14.2-14.6zm1.3-2.4zm2.3-5.4c0-.1 0-.1.1-.2 0 0-.1.1-.1.2z"/><path class="st0" d="M77.5 31c0-.1 0-.1.1-.2 0 0 0 .1-.1.2zm1.7-5.1c0 .1 0 .1.1.2.1-.2.1-.4.2-.5-.2 0-.3.1-.3.3zm.1.2z"/><circle class="st0" cx="78.7" cy="25.4" r=".3"/><circle class="st0" cx="77.6" cy="25" r=".3"/><circle class="st0" cx="76.5" cy="24.6" r=".3"/><circle class="st0" cx="75.3" cy="24.5" r=".3"/><circle class="st0" cx="74.2" cy="24.6" r=".3"/><path class="st0" d="M71.5 25.5c.2 0 .3-.2.3-.3 0-.2-.2-.3-.3-.3h-.2v.6c0-.1.1 0 .2 0zm-.2-.7v.6z"/><circle class="st0" cx="72.6" cy="25.1" r=".3"/><circle class="st0" cx="73.6" cy="25.4" r=".3"/><circle class="st0" cx="74.5" cy="25.9" r=".3"/><circle class="st0" cx="75.4" cy="26.5" r=".3"/><circle class="st0" cx="76.2" cy="27.1" r=".3"/><circle class="st0" cx="77" cy="28" r=".3"/><circle class="st0" cx="77.4" cy="28.9" r=".3"/><path class="st0" d="M77.7 29.6c-.2 0-.3.2-.3.3 0 .2.2.3.3.3h.1c.1-.2.1-.4.2-.5 0-.1-.1-.1-.3-.1zm.1.6z"/><circle class="st0" cx="75.8" cy="30.2" r=".3"/><circle class="st0" cx="75.5" cy="29.2" r=".3"/><circle class="st0" cx="74.7" cy="28.3" r=".3"/><circle class="st0" cx="73.9" cy="27.7" r=".3"/><circle class="st0" cx="72.9" cy="27.3" r=".3"/><circle class="st0" cx="72" cy="26.9" r=".3"/><path class="st0" d="M71.2 26.9c0-.1 0-.1-.1-.2 0 .1-.1.2-.1.3s0 .2-.1.2c.2 0 .3-.1.3-.3z"/><path class="st0" d="M71.2 26.7c0 .1-.1.2-.1.3 0-.1 0-.2.1-.3zm.3-3.2c.1 0 .2 0 .2-.1-.1 0-.2 0-.3-.1l.1.2z"/><path class="st0" d="M71.7 23.4c-.1 0-.2 0-.3-.1.1.1.2.1.3.1zm7.2 3.8c-.3 0-.4.2-.4.3 0 .2.1.3.2.3.1-.2.1-.4.2-.6zm-.2.7z"/><circle class="st0" cx="67.3" cy="37.9" r=".3"/><circle class="st0" cx="66.7" cy="36.8" r=".3"/><path class="st0" d="M66.8 36c-.1.1-.1.2-.2.3.1-.1.2-.2.2-.3z"/><path class="st0" d="M66.6 36.3c.1-.1.1-.2.2-.3 0 .1-.1.2-.2.3zm3.9-7.2c0-.1 0-.1 0 0-.1 0-.1.2-.1.3 0-.1.1-.2.1-.3z"/><path class="st0" d="M70.5 29c0 .1-.1.2-.1.4 0-.2 0-.3.1-.4z"/><circle class="st0" cx="71.2" cy="28.9" r=".3"/><circle class="st0" cx="72.2" cy="29.1" r=".3"/><circle class="st0" cx="73.2" cy="29.5" r=".3"/><circle class="st0" cx="73.7" cy="30.4" r=".3"/><circle class="st0" cx="72.4" cy="30.5" r=".3"/><circle class="st0" cx="71.4" cy="30.9" r=".3"/><circle class="st0" cx="70.3" cy="31" r=".3"/><circle class="st0" cx="70.7" cy="32" r=".3"/><circle class="st0" cx="72.5" cy="32.5" r=".3"/><circle class="st0" cx="73.5" cy="32.5" r=".3"/><circle class="st0" cx="73" cy="33.4" r=".3"/><path class="st0" d="M69.4 31.9c.2 0 .3-.2.3-.3s-.1-.2-.1-.3c-.1.1-.2.3-.2.6-.1-.1-.1 0 0 0zm.2-.7l-.3.6.3-.6zm-.5 1.2v-.2c-.1.2-.2.3-.3.5.2.1.3-.1.3-.3z"/><path class="st0" d="M69.1 32.3c-.1.2-.2.3-.3.5.1-.2.2-.4.3-.5zm-.8 1.4c.2 0 .4-.2.4-.3s0-.1-.1-.2c-.1.1-.2.3-.3.5zm.3-.6c-.1.2-.2.4-.3.5.1-.1.2-.3.3-.5zm-.8 1.4c0 .2.2.3.3.3.2 0 .3-.2.3-.3 0-.2-.2-.3-.3-.3H68c0 .1-.1.1-.1.2l-.1.1z"/><path class="st0" d="M67.9 34.3c0 .1-.1.1-.1.2.1-.1.1-.1.1-.2z"/><circle class="st0" cx="68.3" cy="35.5" r=".3"/><circle class="st0" cx="68.6" cy="36.5" r=".3"/><circle class="st0" cx="69.1" cy="37.4" r=".3"/><circle class="st0" cx="69.8" cy="38.4" r=".3"/><circle class="st0" cx="70.6" cy="39" r=".3"/><circle class="st0" cx="71.5" cy="39.6" r=".3"/><circle class="st0" cx="72.4" cy="40" r=".3"/><circle class="st0" cx="74.7" cy="31.1" r=".3"/><circle class="st0" cx="75.8" cy="31.2" r=".3"/><circle class="st0" cx="75.3" cy="32.1" r=".3"/><path class="st0" d="M74.8 36.2c-.2 0-.3.2-.3.3 0 .2.2.3.3.3h.1c.1-.1.1-.3.2-.4v-.1s-.1-.1-.3-.1zm.3.3c0-.1 0-.1 0 0 0-.1 0-.1 0 0z"/><circle class="st0" cx="73.8" cy="36.4" r=".3"/><circle class="st0" cx="72.9" cy="35.9" r=".3"/><circle class="st0" cx="73.5" cy="35" r=".3"/><circle class="st0" cx="72.3" cy="35" r=".3"/><circle class="st0" cx="71.2" cy="34.4" r=".3"/><circle class="st0" cx="70.7" cy="33.3" r=".3"/><circle class="st0" cx="70.1" cy="34.3" r=".3"/><circle class="st0" cx="70.2" cy="35.3" r=".3"/><circle class="st0" cx="70.6" cy="36.2" r=".3"/><circle class="st0" cx="71.2" cy="37.1" r=".3"/><circle class="st0" cx="72.1" cy="37.8" r=".3"/><circle class="st0" cx="73" cy="38.2" r=".3"/><path class="st0" d="M74.2 38.2c-.3 0-.4.2-.4.3s.1.2.1.3c.1-.1.1-.3.2-.4 0-.1.1-.1.1-.2z"/><path class="st0" d="M73.9 38.8c.1-.1.1-.3.2-.4-.1.1-.1.3-.2.4zm-2.4 3.8c-.1-.1-.2-.2-.3-.2-.2 0-.3.2-.3.3 0 .2.1.3.3.3 0 0 0-.1.1-.1 0 0 .1-.1.2-.3z"/><path class="st0" d="M71.2 43c.1-.1.2-.3.3-.4-.1.2-.2.3-.3.4z"/><circle class="st0" cx="70" cy="42.7" r=".3"/><circle class="st0" cx="68.9" cy="42.5" r=".3"/><circle class="st0" cx="71.8" cy="40.8" r=".3"/><circle class="st0" cx="70.6" cy="40.9" r=".3"/><circle class="st0" cx="69.5" cy="40.8" r=".3"/><circle class="st0" cx="68.4" cy="40.5" r=".3"/><circle class="st0" cx="67.4" cy="40.1" r=".3"/><circle class="st0" cx="66.3" cy="39.4" r=".3"/><circle class="st0" cx="65.4" cy="38.8" r=".3"/><circle class="st0" cx="74.7" cy="34.4" r=".3"/><path class="st0" d="M75.8 34.1c-.2 0-.3.2-.3.3 0 .2.2.3.3.3.1 0 .1 0 .2-.1 0-.1.1-.2.1-.3 0-.1-.2-.2-.3-.2zm.5-.3s0 .1 0 0c0 .1 0 .1 0 0 .1-.1.1-.2.2-.3-.1.1-.2.2-.2.3zm0 .1zm.2-.4z"/><circle class="st0" cx="75.3" cy="33.4" r=".3"/><path class="st0" d="M65.7 49c-.2 0-.3.1-.3.3.1 0 .1-.1.2-.1 0-.1.1-.2.1-.2z"/><path class="st0" d="M65.5 49.2c.1-.1.2-.1.2-.2l-.2.2z"/><circle class="st0" cx="66" cy="48.3" r=".3"/><circle class="st0" cx="66.3" cy="47.2" r=".3"/><circle class="st0" cx="64.3" cy="47.5" r=".3"/><circle class="st0" cx="64.5" cy="46.5" r=".3"/><circle class="st0" cx="66.3" cy="46.1" r=".3"/><circle class="st0" cx="67.8" cy="46.2" r=".3"/><circle class="st0" cx="69.2" cy="44.8" r=".3"/><circle class="st0" cx="68.6" cy="43.8" r=".3"/><circle class="st0" cx="68" cy="42.9" r=".3"/><circle class="st0" cx="67" cy="42.2" r=".3"/><circle class="st0" cx="66.2" cy="41.4" r=".3"/><circle class="st0" cx="65.2" cy="40.9" r=".3"/><circle class="st0" cx="64.2" cy="40.5" r=".3"/><path class="st0" d="M63.1 40.5c.2 0 .3-.2.3-.3v-.1c-.1.1-.2.3-.3.4z"/><path class="st0" d="M63.1 40.5l.4-.4c-.2.1-.3.3-.4.4zM61.7 42c0 .2.2.3.3.3.2 0 .3-.2.3-.3 0-.2-.2-.3-.3-.3-.1 0-.1 0-.2.1 0 0-.1 0-.1.1v.1zm.1-.3s0 .1 0 0c0 .1 0 0 0 0z"/><circle class="st0" cx="62.8" cy="42.6" r=".3"/><circle class="st0" cx="63.6" cy="43.5" r=".3"/><circle class="st0" cx="64" cy="44.4" r=".3"/><circle class="st0" cx="64.3" cy="45.4" r=".3"/><circle class="st0" cx="62.3" cy="45.7" r=".3"/><circle class="st0" cx="62" cy="44.7" r=".3"/><circle class="st0" cx="61.3" cy="43.8" r=".3"/><path class="st0" d="M60.2 43.2c0 .2.2.3.3.3.2 0 .3-.2.3-.3 0-.2-.1-.3-.3-.3l-.3.3z"/><circle class="st0" cx="65.4" cy="43.1" r=".3"/><circle class="st0" cx="65.8" cy="44" r=".3"/><circle class="st0" cx="66.2" cy="45" r=".3"/><circle class="st0" cx="67.2" cy="45.2" r=".3"/><path class="st0" d="M50.9 49.6c.2 0 .3-.2.3-.3v-.1l-.6.3c.1 0 .2.1.3.1zm.4-.5l-.6.3.6-.3z"/><circle class="st0" cx="51.4" cy="50.2" r=".3"/><circle class="st0" cx="52" cy="51.3" r=".3"/><circle class="st0" cx="53.8" cy="53.4" r=".3"/><circle class="st0" cx="53.3" cy="52.4" r=".3"/><circle class="st0" cx="53.1" cy="51.4" r=".3"/><circle class="st0" cx="52.9" cy="50.4" r=".3"/><circle class="st0" cx="52.9" cy="49.3" r=".3"/><path class="st0" d="M53.1 48.6c.2 0 .3-.2.3-.3s0-.2-.1-.3l-.6.3c.1.2.3.3.4.3zm.3-.6l-.6.3.6-.3zm5.4-3.1c.2 0 .3-.2.3-.3 0-.2-.1-.3-.3-.3-.1.1-.3.2-.4.3 0 .2.2.3.4.3z"/><path class="st0" d="M58.9 44.3c-.1.1-.3.2-.4.3.1-.1.2-.2.4-.3z"/><circle class="st0" cx="59.8" cy="45.1" r=".3"/><circle class="st0" cx="60.3" cy="45.9" r=".3"/><circle class="st0" cx="59" cy="46" r=".3"/><circle class="st0" cx="57.9" cy="46.4" r=".3"/><circle class="st0" cx="56.9" cy="46.6" r=".3"/><circle class="st0" cx="57.3" cy="47.5" r=".3"/><circle class="st0" cx="59.1" cy="48" r=".3"/><circle class="st0" cx="60.1" cy="48" r=".3"/><circle class="st0" cx="59.6" cy="48.9" r=".3"/><circle class="st0" cx="56" cy="47" r=".3"/><circle class="st0" cx="55.3" cy="47.9" r=".3"/><circle class="st0" cx="54.9" cy="48.9" r=".3"/><circle class="st0" cx="54.8" cy="49.9" r=".3"/><circle class="st0" cx="54.9" cy="51" r=".3"/><circle class="st0" cx="55.2" cy="52" r=".3"/><circle class="st0" cx="55.6" cy="53" r=".3"/><circle class="st0" cx="56.4" cy="53.9" r=".3"/><circle class="st0" cx="57.2" cy="54.5" r=".3"/><circle class="st0" cx="61.3" cy="46.6" r=".3"/><circle class="st0" cx="62.4" cy="46.7" r=".3"/><circle class="st0" cx="61.9" cy="47.6" r=".3"/><path class="st0" d="M61.4 51.7c-.2 0-.3.2-.3.3s.1.2.1.3c.2-.1.4-.3.5-.4 0-.1-.1-.2-.3-.2zm-.2.6z"/><circle class="st0" cx="60.4" cy="51.9" r=".3"/><circle class="st0" cx="59.5" cy="51.5" r=".3"/><circle class="st0" cx="60.1" cy="50.5" r=".3"/><circle class="st0" cx="58.8" cy="50.5" r=".3"/><circle class="st0" cx="57.8" cy="49.9" r=".3"/><circle class="st0" cx="57.3" cy="48.8" r=".3"/><circle class="st0" cx="56.7" cy="49.8" r=".3"/><circle class="st0" cx="56.8" cy="50.8" r=".3"/><circle class="st0" cx="57.2" cy="51.8" r=".3"/><circle class="st0" cx="57.8" cy="52.6" r=".3"/><circle class="st0" cx="58.7" cy="53.3" r=".3"/><path class="st0" d="M59.6 53.4c-.2 0-.3.1-.3.3l.3-.3c.1 0 .1 0 0 0zm.1 0zm-.4.2zM55.4 56c0-.2-.2-.3-.3-.3-.2 0-.3.2-.3.3 0 .1.1.2.1.3.1-.1.3-.2.5-.3z"/><circle class="st0" cx="54" cy="55.6" r=".3"/><circle class="st0" cx="52.9" cy="55" r=".3"/><circle class="st0" cx="52" cy="54.4" r=".3"/><circle class="st0" cx="51.2" cy="53.6" r=".3"/><circle class="st0" cx="50.6" cy="52.7" r=".3"/><circle class="st0" cx="50" cy="51.6" r=".3"/><circle class="st0" cx="49.4" cy="50.7" r=".3"/><circle class="st0" cx="61.3" cy="49.9" r=".3"/><circle class="st0" cx="62.3" cy="49.9" r=".3"/><circle class="st0" cx="63.3" cy="49.3" r=".3"/><circle class="st0" cx="63.9" cy="48.6" r=".3"/><circle class="st0" cx="61.9" cy="48.9" r=".3"/><path class="st0" d="M47.2 51.3c.2 0 .3-.2.3-.3v-.1l-.6.3s.1.1.3.1z"/><path class="st0" d="M47.5 50.9l-.6.3c.2-.2.4-.3.6-.3z"/><circle class="st0" cx="46.6" cy="52" r=".3"/><circle class="st0" cx="45.8" cy="52.8" r=".3"/><path class="st0" d="M43.8 52.5c.2 0 .3-.2.3-.3-.2.1-.4.2-.6.2.1 0 .2.1.3.1zm-1.1.2c-.1.1-.1.1-.1.2 0 .2.2.3.3.3.2 0 .3-.2.3-.3 0-.2-.1-.3-.3-.3 0 0-.1 0-.2.1z"/><circle class="st0" cx="42" cy="53.5" r=".3"/><circle class="st0" cx="40.9" cy="54" r=".3"/><circle class="st0" cx="39.9" cy="54.3" r=".3"/><circle class="st0" cx="38.7" cy="54.4" r=".3"/><path class="st0" d="M37.2 54.4c0 .2.2.3.3.3.2 0 .3-.2.3-.3 0-.1-.1-.2-.2-.3-.2 0-.3.1-.5.1.2.1.1.2.1.2zm-.8.3c.2 0 .3-.1.3-.3-.2.1-.4.1-.6.2.1 0 .2.1.3.1zm43.4-31.2c-.2 0-.3.2-.3.3 0 .2.2.3.3.3h.1c0-.1.1-.2.1-.3 0-.1.1-.2.1-.3-.1.1-.2 0-.3 0z"/><path class="st0" d="M80.1 23.6c0 .1-.1.2-.1.3 0-.1 0-.2.1-.3zm-.2.6c0-.1.1-.2.1-.3 0 .1-.1.2-.1.3zm-1-.6c.1 0 .2-.1.3-.1-.1 0-.3.1-.3.1-.1 0-.1 0 0 0z"/><path class="st0" d="M79.2 23.5c-.1 0-.3.1-.4.1.1 0 .2-.1.4-.1z"/><circle class="st0" cx="36.5" cy="58.5" r=".3"/><circle class="st0" cx="36" cy="57.5" r=".3"/><path class="st0" d="M35.9 56.4c0-.2-.2-.3-.3-.3h-.1c0 .2.1.4.1.7.2-.1.3-.2.3-.4z"/><path class="st0" d="M35.5 56.1c0 .2.1.4.1.7 0-.3-.1-.5-.1-.7z"/><circle class="st0" cx="52.7" cy="57" r=".3"/><circle class="st0" cx="51.8" cy="56.5" r=".3"/><circle class="st0" cx="50.7" cy="56.1" r=".3"/><circle class="st0" cx="49.6" cy="55.7" r=".3"/><circle class="st0" cx="48.4" cy="55.6" r=".3"/><circle class="st0" cx="47.3" cy="55.7" r=".3"/><circle class="st0" cx="44.6" cy="56.2" r=".3"/><circle class="st0" cx="45.7" cy="56.2" r=".3"/><path class="st0" d="M47.1 56.6c-.1 0-.1 0 0 0 0 0 0-.1 0 0 0-.3-.2-.4-.3-.4-.2 0-.3.2-.3.3 0 .2.2.3.3.3.1.1.3-.1.3-.2z"/><circle class="st0" cx="47.6" cy="57" r=".3"/><circle class="st0" cx="48.5" cy="57.6" r=".3"/><circle class="st0" cx="49.3" cy="58.2" r=".3"/><path class="st0" d="M47 58.4c-.2 0-.3.2-.3.3 0 .1 0 .1.1.2h.6c0-.1.1-.1.1-.2-.1-.1-.3-.3-.5-.3z"/><circle class="st0" cx="46" cy="58.3" r=".3"/><circle class="st0" cx="45.1" cy="58" r=".3"/><circle class="st0" cx="44" cy="58" r=".3"/><circle class="st0" cx="42.9" cy="58.2" r=".3"/><circle class="st0" cx="41.9" cy="58.5" r=".3"/><path class="st0" d="M40.9 58.7c-.2 0-.3.1-.3.3h.7c0-.1-.2-.3-.4-.3z"/><circle class="st0" cx="39.8" cy="58.6" r=".3"/><circle class="st0" cx="40.2" cy="57.7" r=".3"/><circle class="st0" cx="41" cy="56.8" r=".3"/><circle class="st0" cx="41.7" cy="55.9" r=".3"/><circle class="st0" cx="42.6" cy="55.3" r=".3"/><circle class="st0" cx="43.5" cy="54.7" r=".3"/><circle class="st0" cx="44.6" cy="54.2" r=".3"/><circle class="st0" cx="45.7" cy="53.9" r=".3"/><circle class="st0" cx="46.9" cy="53.8" r=".3"/><circle class="st0" cx="48" cy="53.8" r=".3"/><circle class="st0" cx="49.1" cy="53.8" r=".3"/><circle class="st0" cx="50.2" cy="54.1" r=".3"/><path class="st0" d="M37.4 58.9c-.1 0-.2.1-.3.2h.6c-.1-.1-.2-.2-.3-.2z"/><circle class="st0" cx="37.8" cy="58.2" r=".3"/><circle class="st0" cx="38.4" cy="57.1" r=".3"/><circle class="st0" cx="39" cy="56.2" r=".3"/><circle class="st0" cx="39.7" cy="55.3" r=".3"/><path class="st0" d="M56.3 17.5l.7-.5zm-13.4 35c-.1 0-.2.1-.2.1.1 0 .2 0 .2-.1zm-5.1 1.6c-.1 0-.2 0-.3.1.1 0 .2-.1.3-.1zm12-30.6v-.3c-.1.2 0 .2 0 .3zm-9.6 29.9s.1 0 0 0c.1 0 0 0 0 0z"/><path class="st0" d="M34.3 54.5l.3-.1c.2 0 .3-.1.5-.1C50 50.5 61.6 43.6 67.4 34c1.5-2.4 2.4-4.6 3.2-7.4l.1-.8v.1c0-.4-.1-.9-.1-1.6-.2-3.3-.5-9.3-.7-9.5h-.1c-.4 0-1.9 1.3-3.2 2.6.9.4 1.4 1.5 1.5 3.1v1.6H68c-1.7 1.5-3.6 3-5.4 4.4.1.5.4.5.6.5.6 0 1.4-.5 1.7-.8.7-.6 1.3-1.3 2.1-2.2l.2-.2v.3l.5 2v.2c-.9 1.3-1.9 2.4-2.9 3.1-1 .8-2.1 1.3-3 1.3s-2.4-.4-2.6-3.3c-.3-3.8 1.4-7.7 4.3-9.6.7-.5 1.5-.7 2.1-.7.3 0 .6.1.9.2 2.3-2.4 2.6-3 2.5-3.1-.2-.4-6.5-.9-7.4-.9.9-.1 7.3-.5 7.4-.9.1-.3-2.5-3.1-3.8-4.5 1.2 1.2 4 4 4.6 4h.1c.3-.2.7-5.2.8-7.9v-.4.4c.2 2.6.6 7.6.8 7.9h.1c.7 0 4.6-3.9 4.8-4.1-1.5 1.5-4.2 4.3-4.1 4.6.2.4 6.4.9 7.3.9-.9.1-7.2.5-7.3.9-.1.2 1.4 1.9 4.1 4.7l.1.1s-4.1-4.2-4.9-4.2h-.1c-.2.2-.7 8.5-.7 8.5v.9l.1-1.5.3.1h.2c.2-3.2.5-6.3.5-6.9.7.5 5.1 3.8 5.7 4.4h.1v-.1c-.6-.6-3.6-4.8-4.1-5.5 1-.2 8.9-1.4 9.6-1.4 0 0 .1 0 .1-.1h-.1c-.7 0-8.8-1-9.8-1.2.5-.6 3.1-4.1 4.6-5.9V6h-.1c-.5.6-5.2 4.2-5.9 4.7-.1-1-1.1-8.1-1.3-10.2 0-.5 0-.5-.1-.5s-.1 0-.1.5c-.1 2.2-1.1 9.2-1.3 10.1-.6-.5-4.6-3.5-5.2-4h-.1v.1c.6.6 3.3 4.5 3.7 5.2-1 .1-9.4 1.3-10.1 1.3 0 0-.1 0-.1.1 0 0 0 .1.1.1.8 0 4.8.4 7.6.7-1.9 1.5-3.8 2.9-5.6 4.2v-.5c-.4 0-1.2.1-1.2.2s.7.8.8 1c-.1-.1-.9-.9-1-.8 0 0-.1.7-.1 1.3 0 2.1.1 4.2.1 6.4 0 2.5.1 5 .1 7.5v.1c-.9.7-1.9 1.3-2.8 1.9l-.3.2v-.3c0-2.5-.1-5-.1-7.5 0-2.7-.1-5.4-.1-8.1v-.1l.1-.1c.9-.5 1.7-1 2.6-1.5-.3-.1-1.3-.1-1.4-.1.1 0 1.5-.1 1.5-.2s-.3-.4-.6-.7l-.1.1-.7.4-2.4 1.4v1.6c-1.4.8-2.7 1.6-4.1 2.3V21l-5.9 2.4v3.7c-10.2 4.2-19.2 5-26.6 4.6 0-.1 0-.2.1-.3-.6-.6-1.5-1.4-1.7-1.4-.1.1-.2 2.6-.3 3.8 0-.6-.1-1.5-.1-2.3-.1.6-.3 1.2-.4 1.8l-.1.3-.2-.2c-.1 0-.1-.1-.1-.1-.8-.6-1.7-1-2.7-1.2h-.3c-.7 0-1.4.4-1.4 1.2 0 1.2 1.2 2 2.2 2.6l.2.1c2.5 1.6 3.8 3.8 3.7 6.3-.1 1.9-.6 3.3-1.5 4.4-.9 1-2.3 1.6-3.8 1.6h-.7c-1.7-.2-3-.9-4.1-1.9l-.1-.1-.4-.2V46c.3-1.3.5-2.6.8-3.9l.1-.3.2.2c.1.1.1.1.2.1.9.9 2 1.4 3.3 1.7h.3c.9 0 1.6-.7 1.6-1.6 0-1.1-1-1.9-2.1-2.6-2.5-1.6-4-4.2-3.9-6.8.1-1.2.3-2.9 1.6-4.1.7-.7 1.8-1.1 3-1.1.4 0 .7 0 1.1.1 1.1.2 2.1.5 2.8 1-.2-.3-.9-1.1-1.4-1.6 1 1 1.6 1.6 1.8 1.6.1-.1.1-.8.2-1.7-.2.2-.4.3-.5.5-.1 0-.2-.1-.2-.1-.6-.3-1.2-.5-1.9-.6 0-.5.1-1 .3-1.3.5-.8 1.5-.9 2.1-.9h.3c.1 0 .2 0 .2-.1.1-.1.1-.2 0-.3 0 0-.2-.4.1-.7.1-.1.3-.1.4-.1h.3c.1 0 .2 0 .2-.1.1-.1.1-.1.1-.2 0 0-.1-1.3 1.2-1.8.2-.1.4-.1.6-.1 0-.2-.1-.3-.1-.5-.2 0-.5.1-.7.1-.3.1-.6.3-.8.5l-5.7-7c1.2-.6 2.6-1.1 4-1.5l2.8 4.9 1.5-.8-2-4.7c1.5-.3 3-.6 4.6-.8l.8 3.5 1.9-1.1-.3-2.6c.7 0 1.5-.1 2.2-.1 1.1 0 1.2 0 2.5.1l-.3 3 1.7.9.8-3.8c1.4.1 2.9.3 4.5.5.2 0 .4.1.5.1l-2.1 5.2 1.4.8 3.1-5.6c1.5.3 3.1.6 4.6 1l-6.8 8.6h-.1c0-.1-.1-.3-.2-.4-.3-.6-.9-.9-1.5-.9h-.2c0 .2 0 .4-.1.5h.3c.5 0 .8.2 1.1.7.1.2.2.4.2.6 0 .1.1.2.2.2s.2 0 .3-.1c.1-.1.3-.2.4-.2.2 0 .4.1.5.4 0 .1 0 .4-.1.6v.2c0 .1.1.1.2.1 1.4.1 2.1.6 2.2 1.6 0 .3 0 .5-.1.7.2.1.3.2.4.3.2-.3.2-.7.2-1s-.1-.5-.2-.8l12.9-8.3c1.2.4 2.3.9 3.4 1.3l.7-.4c-9-4-22-6.6-30.4-6.6-10.3 0-19.1 3.5-23.1 9.1 0 0-.5 1.1-.7 1.5-.5 1.7-1 5.4 3.4 7.7.1-.1.2-.2.2-.3-.3.4-.5.7-.7 1.1-5.3-2.6-3.9-7.2-3.4-8.5 0 0-.7 1.1-1.2 2.5-1.6 4.5-1.3 11.1.1 15.6.4 1.3 1.6 4.5 3.3 7.1l-.2 1.2s.5.6 1.4 1.2c.6.5 1.4.9 2.3 1.1.2.1.4.1.6.2 1.9.8 4.3 1.2 7 1.3v.5c.4.2.8.4.9.4.1-.1.1-1.5.2-2.5.1-3.9.2-11.1.2-15.3v-.2h.2c.9 0 1.8.1 2.6.1h.2v.1c.1.2.1.4.2.6.6-.7 1.3-1.1 2-1.1h.3c3.4 0 3.7 5.3 3.7 6.9 0 1.3-.2 3.3-1.1 5.1-.7 1.4-1.9 2.3-3.2 2.4-.6.1-1.3-.1-1.8-.4v5.3l-1.5-.1c-.6.1-1.2.1-1.3.2 0 .1 1.1 1.2 1.3 1.3-.2-.2-1.4-1.3-1.5-1.2s-.2 1.7-.3 2.3c4.3 1.2 10 1.4 17.9-.4 0-.1-.1-.1-.1-.2l-.2-.5zM16.6 21.6zm-.2.2s0 .1 0 0c0 .1 0 0 0 0zm20.4.1h.2c-.1-.1-.1-.1-.2 0zm.4 0s.1 0 0 0c.1 0 0 0 0 0zm.4.2c0-.1 0-.1 0 0 0-.1 0-.1 0 0zm-.2-.2s.1 0 0 0c.1 0 0 0 0 0zm2.4 2.1zm10.7-8.7l-10.9 8.5c-.4-.3-.9-.5-1.6-.5.1-.2.1-.4 0-.6 0-.2-.1-.4-.2-.5l7.9-8.3c1.6.4 3.2.9 4.8 1.4zM11.2 26.6h.4-.4zm5.1-4.5zm-7.1-6.8l7 7.1c0 .1-.1.3-.1.4H16c-.3 0-.6.1-.8.3-.3.3-.4.7-.4.9h-.5l-8.4-6.4c1-.8 2.1-1.6 3.3-2.3zm-5.8 5.9c.1-.3.5-1.1.6-1.3v-.1c.2-.3.5-.6.7-.9l8.4 5.5c-.3.2-.6.4-.8.7-.2.2-.3.5-.3.9l-8.7-4.3c0-.1.1-.3.1-.5zm.5 4.6c-.5-.8-.7-1.6-.7-2.4l7.7 3.1h-.2c-1.5 0-2.8.5-3.8 1.4l-.2.2c-1.3-.6-2.2-1.3-2.8-2.3zm50-4.6v.8c-1.4.8-2.8 1.6-4.1 2.3v-1.1.3c1.3-.7 2.7-1.5 4.1-2.3zm-9 3c1.1-.4 2-.8 3-1.2l.2-.1v.2c0 2.6 0 5.1.1 7.7.9-1.6 1.6-3 2.4-4.4 1-.5 2.1-1.1 3.1-1.7l.5-.3-.3.5-3.3 6.3c1.2 1.6 2.5 3.1 3.7 4.6l.1.2-.2.1c-1 .6-1.9 1.2-2.9 1.7l-.1.1-.1-.1c-1-1.1-1.9-2.2-2.9-3.4v5.2h-.1c-1 .5-2 1-2.9 1.5H45V24.2h-.1zm-.9 5.1h.2v3.1h-.1c-1.4.6-2.6 1.7-3.3 2.8v7.7h-.1c-1 .4-2.1.8-3.1 1.2l-.2.1V31.5h.1c.9-.3 1.9-.6 2.8-.9l.2-.1.1.2c.1.3.2.5.2.7.9-1.3 2-2 3.2-2.1zm-12.8 3.3h.4c.7 0 1.1.3 1.5.8l.2-.8h.1c.9-.2 1.8-.4 2.7-.7l.2-.1v12.8h-.1c-.9.3-1.8.6-2.7.8h-.2l-.2-.8c-.5.7-1.2 1.3-2 1.6-.3.1-.6.1-.9.1-3.1 0-3.2-5.8-3.2-6.5 0-1.3.2-3.3 1.1-5 .7-1.1 1.8-2 3.1-2.2zm-9.4 18.3c5.1-.6 10.8-2 16.7-4.1 11.3-4 21.5-10.5 27.3-16.1.9-.8 1.8-1.8 2.7-3 .7-.9 1.3-1.7 1.7-2.5 0 .3 0 .7.1 1-4.1 6.9-18.9 17.2-33.9 22-5.8 1.9-10.7 2.8-14.6 3.3v-.6zm22.4 1.2c-.1 0-.3.1-.4.1.1 0 .2 0 .4-.1zm-2.7.9z"/><path class="st0" d="M36.1 54.6c.2-.1.4-.1.6-.2.2 0 .4-.1.5-.1s.2 0 .2-.1c.1 0 .2 0 .3-.1.2-.1.4-.1.6-.2.4-.1.8-.2 1.2-.4 0 0 .1 0 .4-.1.1 0 .1 0 .2-.1h.1c.4-.1.8-.2 1.2-.4.4-.1.8-.3 1.2-.4.1 0 .2-.1.2-.1.2-.1.4-.1.6-.2.1 0 .2-.1.2-.1.1 0 .3-.1.4-.1.2-.1.4-.2.7-.2 7.7-3 21.8-10.2 26.3-25.2l.3-3.2c0-.2 0-.5.1-.7h-.2l-.3-.1-.1 1.5-.1 1.4c0 .1 0 .1-.1.2l-.1.8c-.8 2.8-1.7 5-3.2 7.4-5.8 9.6-17.4 16.4-32.3 20.3-.2 0-.3.1-.5.1l-.3.1.2.3c0 .1.1.1.1.2.3-.1.6-.1.9-.2.3 0 .5-.1.7-.1zm8.1-2.5c.1 0 .3-.1.4-.2-.2.1-.3.2-.4.2z"/><path class="st0" d="M36.7 54.4c.1 0 .1 0 0 0 .2-.1.4-.1.5-.1-.1 0-.3 0-.5.1zm1.1-.3c.2-.1.4-.1.5-.1-.2 0-.3.1-.5.1zm-2.3.6c.2-.1.4-.1.6-.2-.2.1-.4.2-.6.2zm7.2-2c0-.1 0-.1 0 0 0-.1 0-.1 0 0l-1.2.3c-.4.1-.8.2-1.2.4h-.1c-.1 0-.1 0-.2.1.5-.2 1.5-.4 2.7-.8zm.3-.2c.2-.1.4-.1.6-.2-.2.1-.5.2-.6.2-.1 0-.1 0 0 0zm1.8-.6c-.2.1-.4.2-.7.2.1 0 .3-.1.4-.1.2-.1.2-.1.3-.1z"/><path class="st0" d="M38.4 53.9c-.2.1-.4.2-.6.2.2 0 .4-.1.5-.1l.1-.1zm1.8-.5c-.1 0-.1 0-.2.1.1-.1.2-.1.2-.1zm-2.9.8c-.2 0-.4.1-.5.1.1 0 .3 0 .5-.1zm6.3-1.9c-.2.1-.4.1-.6.2.1 0 .4-.1.6-.2zm-2.1.7c.4-.1.8-.3 1.2-.4-.4.2-.8.3-1.2.4zm-1.2.4c.4-.1.8-.2 1.2-.4-.4.1-.8.3-1.2.4zm-4.2 1.2c-.2.1-.4.1-.6.2.2-.1.4-.2.6-.2zm7.5-2.2c.2-.1.4-.1.6-.2-.1 0-.3.1-.4.1-.1 0-.2 0-.2.1 0-.1 0-.1 0 0z"/><path class="st0" d="M43.8 52.3c-.1 0-.2.1-.2.1 0-.1.1-.1.2-.1zm-1.1.3c.1 0 .2 0 .3-.1-.1.1-.2.1-.3.1zm-5.4 1.7c.2 0 .3-.1.5-.1-.1 0-.2 0-.3.1-.1-.1-.1-.1-.2 0z"/><path class="st0" d="M37.5 54.2c-.1 0-.2 0-.2.1.1-.1.1-.1.2-.1zm-1.4.4c.2 0 .4-.1.6-.2-.2 0-.4.1-.6.2z"/><path class="st0" d="M36.7 54.4c-.2.1-.4.1-.6.2.2-.1.4-.2.6-.2zM18.7 20c.4 1.5.5 3.1.5 4.3 2.2-.8 5-1.3 8.6-1.3 2.3 0 4.4.3 6.2.7 0-1.1.1-2.6.3-4l.1-.4h1.5l.1-.7-2.8-1.4-.3-.2v-2.3l-1.5.1v1.4l-.8-.4-4.3-2.3-9.3 5.3.1.8h1.4l.2.4zm56.4 1.4c-.1-.2-.1-.4-.3-.4.2-.1.4-.2.4-.4s-.1-.3-.2-.4c-.1-.1-.3-.1-.6-.1s-.5 0-.7.1V22h.4v-.9h.2c.2 0 .3.1.4.3s.1.4.1.4h.4s-.1-.1-.1-.4zm-.9-.6H74v-.5h.2c.3 0 .4.1.4.3.1.2-.1.2-.4.2z"/><path class="st0" d="M74.3 19.1c-1.1 0-1.9.8-1.9 1.8s.8 1.8 1.9 1.8c1 0 1.9-.8 1.9-1.8s-.8-1.8-1.9-1.8zm0 3.3c-.8 0-1.4-.6-1.4-1.5 0-.8.6-1.5 1.4-1.5s1.4.7 1.4 1.5-.6 1.5-1.4 1.5zm-9.2-.9c0-.3-.2-1-.7-1-.2 0-.4.1-.7.3-.8.6-1.2 1.6-1.4 2.7 1-.6 1.9-1.3 2.8-2zm-45 17v4.7c.3.5.8.8 1.4.7 1.2-.1 1.2-2.3 1.2-3 0-.6 0-2.3-.6-3-.2-.2-.4-.3-.7-.3-.6 0-1 .4-1.3.9zM33 41.2v-4.3c-.3-.3-.6-.5-1-.5h-.4c-1.2.3-1.2 2.4-1.3 3 0 1.4.2 2.3.6 2.7.1.1.3.2.5.2h.2c.7-.2 1.1-.6 1.4-1.1zm32.1-22.3c-.1.1-.1.1 0 0 .3-.3.8-.9 1.5-1.5h-.1c-.4.4-.9.9-1.4 1.5zM16 52.3c0-.1-.3-.3-.5-.6-4.3-.2-6.8-1-7.7-1.4 2 1.9 4.8 3.9 8.9 5.1 0-.7-.2-2.3-.3-2.3-.1-.1-1.3.9-1.5 1.2.5-.5 1.3-1.3 1.3-1.4-.1-.1-1.4-.3-1.6-.3.2 0 1.4-.2 1.4-.3zm-1.1 1.9zm43-36.7s.1-.6.1-1.1l-.9.5c.3.3.7.7.8.6zm.2-1.1c0 .5.1 1.1.1 1.1.1.1.8-.6 1-.8-.3.3-.8.8-.8.9 0 .1.8.1 1.2.2v-2.3l-1.5.9zm-30.5 7c-6.2 0-10 1.6-12.3 3.4.1.9.2 1.8.2 1.9.2 0 1.3-1.1 1.9-1.6-.5.5-1.6 1.7-1.6 1.8.1.2 2.3.3 2.9.4-.6 0-2.8.2-2.9.4 0 .1.3.5 1.4 1.6 0-.2.1-.3.1-.5 6.6.4 14.5-.2 23.4-3.3-2.4-1.9-6.6-4.1-13.1-4.1zm13.1 3.4c.2.2.5.3.7.5.8-.3 1.6-.6 2.5-1v-.7c-1.1.4-2.2.8-3.2 1.2z"/><circle class="st0" cx="74.8" cy="39" r=".3"/><circle class="st0" cx="76.6" cy="41.1" r=".3"/><circle class="st0" cx="76.1" cy="40" r=".3"/><circle class="st0" cx="75.9" cy="39.1" r=".3"/><circle class="st0" cx="75.7" cy="38" r=".3"/><path class="st0" d="M75.7 37.3c.2 0 .3-.2.3-.3 0-.2-.2-.3-.3-.3h-.1c-.1.1-.1.3-.2.4 0 .1.2.2.3.2zm.6-1.4c0-.1-.1-.2-.2-.3l-.3.6h.1c.2.1.4-.1.4-.3zm.4-1c0-.1 0-.2-.1-.3l-.3.6c.2 0 .4-.1.4-.3zm.6-1v-.2H77c-.1.2-.1.3-.2.5.1 0 .1.1.2.1s.3-.2.3-.4zm3.4.5c.2 0 .3-.2.3-.3V34h-.7v.1c.1.2.3.3.4.3zm-1.4-.2c0 .2.2.3.3.3.2 0 .3-.2.3-.3s0-.2-.1-.3h-.4c0 .1-.1.2-.1.3z"/><circle class="st0" cx="80.1" cy="35.1" r=".3"/><circle class="st0" cx="78.8" cy="34.7" r=".3"/><circle class="st0" cx="78.1" cy="35.6" r=".3"/><circle class="st0" cx="77.7" cy="36.5" r=".3"/><circle class="st0" cx="77.6" cy="37.6" r=".3"/><circle class="st0" cx="77.7" cy="38.7" r=".3"/><circle class="st0" cx="78" cy="39.7" r=".3"/><circle class="st0" cx="78.4" cy="40.6" r=".3"/><path class="st0" d="M80.2 37.6c0 .1 0 .2.1.2l.3-.6c-.2 0-.4.2-.4.4z"/><circle class="st0" cx="80.1" cy="36.4" r=".3"/><circle class="st0" cx="79.5" cy="37.4" r=".3"/><circle class="st0" cx="79.6" cy="38.5" r=".3"/><circle class="st0" cx="76.8" cy="43.2" r=".3"/><circle class="st0" cx="75.7" cy="42.6" r=".3"/><circle class="st0" cx="74.8" cy="42" r=".3"/><circle class="st0" cx="74" cy="41.2" r=".3"/><path class="st0" d="M73.8 40.3v-.2c-.1.2-.2.3-.3.5.1.1.3-.1.3-.3z"/><circle class="st0" cx="75.6" cy="44.6" r=".3"/><circle class="st0" cx="74.6" cy="44.1" r=".3"/><circle class="st0" cx="73.6" cy="43.7" r=".3"/><circle class="st0" cx="72.5" cy="43.3" r=".3"/><path class="st0" d="M70.9 44.6l-.4.4h.1c.1 0 .3-.2.3-.4z"/><circle class="st0" cx="71.4" cy="45.2" r=".3"/><circle class="st0" cx="72.2" cy="45.8" r=".3"/><circle class="st0" cx="73" cy="46.7" r=".3"/><path class="st0" d="M73.4 47.2c-.2 0-.3.2-.3.3 0 .2.2.3.3.3h.1l.3-.3v-.1s-.2-.2-.4-.2z"/><circle class="st0" cx="71.7" cy="48.9" r=".3"/><circle class="st0" cx="71.4" cy="47.9" r=".3"/><circle class="st0" cx="70.7" cy="47" r=".3"/><circle class="st0" cx="69.9" cy="46.4" r=".3"/><path class="st0" d="M73.1 42c.2 0 .3-.2.3-.3 0-.2-.2-.3-.3-.3H73c-.1.1-.2.3-.2.4 0 .1.1.2.3.2zm1.7 3.9c-.2 0-.3.2-.3.3 0 .2.1.3.3.3.1-.2.3-.3.4-.5-.2 0-.3-.1-.4-.1zm-14 7.9c.2 0 .3-.2.3-.3s-.1-.2-.1-.3c-.2.1-.4.2-.5.4 0 0 .1.2.3.2z"/><circle class="st0" cx="61.4" cy="54.5" r=".3"/><path class="st0" d="M62.7 55.2c-.2 0-.3.2-.3.3 0 .1.1.2.1.3l.6-.3c-.1-.2-.2-.3-.4-.3z"/><circle class="st0" cx="62.5" cy="54.6" r=".3"/><circle class="st0" cx="62.3" cy="53.6" r=".3"/><path class="st0" d="M62.3 52.8c.2 0 .3-.2.3-.3 0-.2-.1-.3-.3-.3-.1.1-.3.2-.4.3v.1c.1.1.2.2.4.2zm5.9-4.7c.2 0 .3-.2.3-.3 0-.2-.1-.3-.3-.3l-.4.4c.1.1.2.2.4.2z"/><circle class="st0" cx="69.1" cy="48.2" r=".3"/><circle class="st0" cx="69.7" cy="49.1" r=".3"/><circle class="st0" cx="68.4" cy="49.1" r=".3"/><circle class="st0" cx="67.3" cy="49.6" r=".3"/><circle class="st0" cx="66.3" cy="49.7" r=".3"/><circle class="st0" cx="66.7" cy="50.7" r=".3"/><circle class="st0" cx="68.5" cy="51.1" r=".3"/><path class="st0" d="M69.5 50.8c-.2 0-.3.2-.3.3 0 .2.1.3.3.3.1-.1.2-.2.4-.3V51c-.1 0-.2-.2-.4-.2zm-.8 1.3c.1 0 .1 0 0 0 .2-.2.3-.3.4-.3H69c-.2-.1-.3.1-.3.3zm-3.4-1.6c.2 0 .3-.2.3-.3s-.1-.3-.2-.3c-.2.1-.3.2-.5.4.1.1.3.2.4.2z"/><circle class="st0" cx="64.7" cy="51.1" r=".3"/><circle class="st0" cx="64.3" cy="52" r=".3"/><circle class="st0" cx="64.1" cy="53.1" r=".3"/><circle class="st0" cx="64.3" cy="54.2" r=".3"/><circle class="st0" cx="70.7" cy="49.7" r=".3"/><path class="st0" d="M71.5 49.9c.1-.1.2-.2.4-.3-.3 0-.4.1-.4.3zm-4.3 2.9c-.2 0-.3.2-.3.3v.2c.2-.1.4-.2.6-.4-.1-.1-.2-.1-.3-.1z"/><circle class="st0" cx="66.6" cy="52" r=".3"/><circle class="st0" cx="66.1" cy="52.9" r=".3"/><path class="st0" d="M65.8 53.9c.1-.1.3-.2.4-.3h-.1l-.3.3zm-5.2 2.5c-.2 0-.3.2-.3.3v.1l.6-.3s-.2-.1-.3-.1z"/><circle class="st0" cx="60" cy="55.8" r=".3"/><circle class="st0" cx="59.4" cy="54.8" r=".3"/><path class="st0" d="M50.8 59h.7c0-.1-.2-.3-.3-.3H51c-.1.1-.2.2-.2.3zm1.2-.2c.2 0 .3-.2.3-.3 0-.1-.1-.2-.2-.3-.2.1-.4.2-.5.3.1.2.2.3.4.3zm.9-.6c.2 0 .3-.2.3-.3v-.2l-.6.3c.1.1.2.2.3.2zm1.1-.4c.2 0 .3-.2.3-.3 0-.1 0-.2-.1-.2l-.6.3c.1.1.2.2.4.2zm1-.3c.2 0 .3-.2.3-.3 0-.2-.1-.3-.3-.3-.1.1-.2.1-.3.2 0 .1-.1.1-.1.2.1 0 .3.2.4.2z"/><circle class="st0" cx="56.3" cy="57" r=".3"/><circle class="st0" cx="57.3" cy="56.9" r=".3"/><circle class="st0" cx="58.5" cy="56.9" r=".3"/><path class="st0" d="M59.6 56.9c-.2 0-.3.2-.3.3l.6-.3c-.1.1-.2 0-.3 0z"/></svg>