<?xml version="1.0" encoding="utf-8"?>
<!-- Generator: Adobe Illustrator 22.1.0, SVG Export Plug-In . SVG Version: 6.00 Build 0)  -->
<svg version="1.1" id="Layer_1" xmlns="http://www.w3.org/2000/svg" xmlns:xlink="http://www.w3.org/1999/xlink" x="0px" y="0px"
	 viewBox="0 0 441.5 341.9" style="enable-background:new 0 0 441.5 341.9;" xml:space="preserve">
<style type="text/css">
	.st0{fill:#8347AD;}
	.st1{fill:none;stroke:#000000;stroke-miterlimit:10;}
	.st2{fill:none;stroke:#ED1C24;stroke-width:0.5;}
	.st3{fill:none;}
	.st4{fill:#510C76;}
	.st5{fill:#FFFFFF;}
	.st6{fill:none;stroke:#8347AD;stroke-width:4;stroke-miterlimit:10;}
	.st7{fill:#DB0032;}
	.st8{opacity:0.4;fill:#510C76;}
	.st9{fill:#EF4977;}
</style>
<g>
	<g>
		<path class="st0" d="M183.9,204.8c28.4,0,33,18.2,34.5,22.7c-5.4,4.9-11.1,5.9-15.2,5.9c-0.8,0-1.6,0-2.2-0.1
			c-11.8-1-9.7-17.5-24.3-17.5c-1,0-2,0.1-3.2,0.2c-19.1,2.6-20.6,34.1-18.1,52c3.8,26.8,14.7,41.5,29.3,41.5c1,0,2.1-0.1,3.2-0.2
			c11.2-1.6,19.6-21.4,18-32.6l-0.2-1.4c-1.4,0.3-2.9,0.6-4.3,0.8c-1.4,0.2-2.7,0.3-3.9,0.3c-4.5,0-7.8-1.6-8.6-6.6
			c-0.2-1.7-0.2-3.6,0-4.8c0.7-1.8,29.9-8.2,37.3-9.2c0.4-0.1,0.9-0.1,1.3-0.1c3.2,0,5.4,1.9,6,6c0.3,2.5,0,4.3-0.6,6.1
			c-1.9,1.2-4.6,2.2-9.4,3.7l0,0.2c4.6,24.8-12.7,47.1-37.3,50.6c-2.6,0.4-5.1,0.5-7.4,0.5c-29.3,0-43.3-26.5-46.7-51
			c-3.8-27.4,8.4-61.5,40.3-66C176.6,205.1,180.4,204.8,183.9,204.8 M183.9,203.8L183.9,203.8c-3.6,0-7.5,0.3-11.6,0.9
			c-19,2.7-29.2,15.1-34.4,25c-6.4,12.2-8.9,27.6-6.8,42.2c3.5,25.1,17.9,51.8,47.7,51.8c2.4,0,5-0.2,7.6-0.5
			c12.4-1.7,23.6-8.4,30.7-18.3c6.8-9.5,9.5-21.1,7.5-32.7c4.6-1.4,7-2.4,8.8-3.5l0.3-0.2l0.1-0.4c0.5-1.8,1-3.8,0.6-6.5
			c-0.6-4.4-3.1-6.9-7-6.9c-0.4,0-0.9,0-1.4,0.1c-3.8,0.5-13.2,2.4-21.3,4.3c-16.2,3.8-16.6,4.8-16.8,5.5l0,0.1l0,0.1
			c-0.2,1.1-0.2,3.2,0,5c0.7,5.1,3.8,7.5,9.5,7.5c1.2,0,2.5-0.1,4.1-0.3c1-0.1,2.2-0.3,3.3-0.5l0,0.3c0.7,5.3-0.9,12.9-4.1,19.4
			c-3.5,7.1-8.3,11.5-13,12.2c-1,0.1-2.1,0.2-3.1,0.2c-14.3,0-24.6-14.8-28.3-40.6c-2.9-20.7,1.2-37.2,6.5-44.3
			c2.8-3.8,6.4-6,10.7-6.6c1.1-0.1,2.1-0.2,3-0.2c7.2,0,10,4.3,12.9,8.8c2.6,4,5.3,8.2,11.3,8.7c0.8,0.1,1.6,0.1,2.3,0.1
			c6,0,11.4-2.1,15.8-6.2l0.5-0.4l-0.2-0.6l-0.2-0.5c-0.9-2.7-2.6-8.4-7.8-13.5C205.1,207,195.8,203.8,183.9,203.8L183.9,203.8z"/>
	</g>
	<g>
		<path class="st0" d="M243.2,130.3c10.1,0,14.8,5.9,14.9,13.8c-0.6,10.9-6.9,12-9.5,12.6c-0.7,0.2-1.4,0.2-2.2,0.2
			c-5.1,0-11.1-3.6-9.4-11.2c1.2-5.1,0.2-6-0.8-6c-0.4,0-0.8,0.1-1,0.2c-12.2,3.8-18.8,21.4-17.8,38.9c0.5,9,4.8,16.1,4.8,16.1
			c-1.4,1.2-4.9,1.9-7.5,2.2c-0.7,0.1-1.5,0.1-2.1,0.1c-12.1,0-13.8-13.4-15.1-24.1c-0.7-6-1.2-12.6-1.8-17.7
			c-0.7-6.2-1.7-11.7-4.2-17.4c2.7-3.3,7-5.4,11-5.8c0.3,0,0.7,0,1,0c8.8,0,9.9,8.6,10.1,9.2c0.2,0.7,0.4,4.6,0.4,4.6
			c8.2-11.6,20.2-15,25.7-15.6C241,130.4,242.1,130.3,243.2,130.3 M243.2,129.3L243.2,129.3c-1.1,0-2.3,0.1-3.5,0.2
			c-2.6,0.3-15.4,2.4-24.8,13.9c-0.1-0.9-0.2-1.8-0.2-2.1c0,0,0-0.1,0-0.1c-1.2-6.3-5.2-9.9-11-9.9c-0.3,0-0.7,0-1,0
			c-4.6,0.5-8.9,2.8-11.7,6.2l-0.4,0.5l0.3,0.6c2.4,5.4,3.4,10.7,4.1,17.1c0.3,2.4,0.5,5.2,0.8,8.1c0.3,3.2,0.6,6.4,1,9.6
			c1.2,10.6,2.9,25,16.1,25c0.7,0,1.5,0,2.3-0.1c1.4-0.2,6.1-0.8,8-2.5l0.6-0.6l-0.4-0.7c0-0.1-4.2-7-4.7-15.6
			c-0.5-8.6,0.9-17.2,3.9-24.1c3.2-7.3,7.7-12,13.2-13.7l0.1,0c0.2-0.1,0.4-0.1,0.6-0.1c0.1,0,0.1,0,0.1,0c0,0,0.7,0.7-0.3,4.7
			c-1,4.2,0.3,6.9,1.6,8.5c1.9,2.4,5.3,3.9,8.8,3.9c0.8,0,1.7-0.1,2.4-0.3l0.2-0.1c2.8-0.7,9.4-2.2,10-13.5l0,0l0,0
			C259,134.8,253.1,129.3,243.2,129.3L243.2,129.3z"/>
	</g>
	<g>
		<path class="st0" d="M279.1,203.4c9.5,0,13.9,5.6,14,13c-0.5,10.2-6.5,11.3-8.9,11.9c-0.6,0.2-1.4,0.2-2.1,0.2
			c-4.8,0-10.5-3.4-8.8-10.5c1.1-4.8,0.1-5.6-0.7-5.6c-0.4,0-0.7,0.1-0.9,0.2c-11.4,3.5-17.9,20.4-16.7,36.8
			c0.7,9.3,4.5,14.8,4.5,14.8c-1.3,1.1-4.6,1.8-7,2.1c-0.7,0.1-1.4,0.1-2,0.1c-11.4,0-13-12.6-14.2-22.7c-0.7-5.7-1.1-11.8-1.6-16.6
			c-0.7-5.8-1.3-11.7-3.7-17c2.9-2.8,6.4-4,10.2-4.5c0.3,0,0.6,0,0.9,0c8.2,0,9.1,7.8,9.3,8.4c0.2,0.7,0.4,4.3,0.4,4.3
			c7.7-10.9,18.9-14.1,24.2-14.7C277.1,203.5,278.1,203.4,279.1,203.4 M279.1,202.4L279.1,202.4c-1.1,0-2.2,0.1-3.3,0.2
			c-2.4,0.3-14.4,2.2-23.3,13c-0.1-0.8-0.1-1.5-0.2-1.8c0,0,0-0.1,0-0.1c-1.1-5.7-4.8-9-10.2-9c-0.3,0-0.7,0-1,0
			c-4.5,0.5-8,2.1-10.8,4.7l-0.5,0.5l0.3,0.6c2.2,4.9,2.9,10.5,3.5,16l0.1,0.8c0.3,2.3,0.5,4.9,0.7,7.6c0.3,3,0.5,6,0.9,9
			c1.2,9.9,2.8,23.6,15.2,23.6c0.7,0,1.4,0,2.1-0.1c1.3-0.2,5.8-0.8,7.6-2.3l0.7-0.6l-0.5-0.7c0-0.1-3.7-5.4-4.4-14.3
			c-1.2-17.2,5.6-32.6,16-35.8l0.1,0c0.2,0,0.4-0.1,0.5-0.1c0,0,0.1,0,0.1,0c0,0,0,0,0,0c0,0,0.6,0.6-0.3,4.4
			c-0.9,3.9,0.3,6.5,1.5,8c1.8,2.3,5,3.7,8.3,3.7c0.8,0,1.6-0.1,2.3-0.3l0.2,0c2.7-0.6,8.9-2.1,9.4-12.7l0,0l0,0
			C294,207.7,288.4,202.4,279.1,202.4L279.1,202.4z"/>
	</g>
	<g>
		<path class="st0" d="M353.2,118.3c4.7,0,8.9,2.9,9.9,10.2c0.4,4,0.8,14.1,1.8,23.3c1.5,14.6,5.6,23.8-5.6,25.8
			c-0.9,0.2-1.7,0.2-2.5,0.2c-9.1,0-11.4-10.1-11.2-18.5c0.1-6.2-0.6-12.6-0.9-17.7c-0.4-6.2-1.1-11.8-3.4-17.6
			c2.9-3.2,7.1-5.5,11.1-5.8C352.7,118.3,352.9,118.3,353.2,118.3 M353.2,117.3L353.2,117.3c-0.3,0-0.6,0-0.9,0
			c-4.1,0.3-8.6,2.6-11.8,6.1l-0.4,0.5l0.2,0.6c2.1,5.5,2.9,10.9,3.3,17.3c0.1,1.1,0.2,2.3,0.3,3.5c0.3,4.4,0.7,9.3,0.6,14.1
			c-0.1,4.3,0.4,12.1,4.7,16.5c2,2,4.5,3,7.5,3c0.9,0,1.8-0.1,2.7-0.2c10-1.8,8.9-9,7.4-19c-0.4-2.4-0.7-5.1-1-7.9
			c-0.5-5.3-0.9-11-1.2-15.5c-0.2-3.2-0.4-6-0.6-7.7C363.2,121.4,359.1,117.3,353.2,117.3L353.2,117.3z"/>
	</g>
	<g>
		<path class="st0" d="M172.2,136.2c6,0,9.6,1.7,9.6,1.7s0.3,0.7,1.2,3c1.5,3.6,2.5,10.2,2.6,11.5c0.1,1,0.3,2.1,0.4,3.2
			c0.6,5.1,1.1,11.7,1.8,17.7c1,8.5,2.9,22.2,11.7,23.6c-1.9,1.3-3.5,3-7.9,3.4c-0.3,0-0.7,0-1,0c-9.2,0-14.6-11.5-16.1-17.5
			c-2.9,12.4-14.2,22.3-24.1,23.5c-0.8,0.1-1.6,0.1-2.4,0.1c-10.3,0-18.6-8-20-19.8c-0.1-1.3-0.2-2.5-0.3-3.8
			c-0.1-5.6,0.8-11.2,2.7-16.4c5.8-15.8,19.2-26.5,35.6-29.6C168.4,136.3,170.4,136.2,172.2,136.2 M151.8,190c0.1,0,0.2,0,0.2,0
			c8.8-1,16-26.5,16.6-36.6c-1.1-2.2-2.8-3.8-5.1-3.8c-0.2,0-0.4,0-0.6,0c-8.3,1-16.4,23.5-15.2,33.9
			C148.2,186.5,149.6,190,151.8,190 M172.2,135.2c-2,0-4.1,0.2-6.2,0.6c-16.9,3.2-30.5,14.5-36.3,30.3c-2,5.4-2.9,11.1-2.8,16.8
			c0,1.3,0.1,2.6,0.3,3.9c1.4,12.2,10,20.7,21,20.7c0.8,0,1.7,0,2.5-0.1c9.9-1.2,20-10.3,23.9-21c2.5,6.9,8.1,15.1,16.1,15.1
			c0.4,0,0.7,0,1.1,0c4-0.4,5.9-1.8,7.6-3c0.3-0.2,0.5-0.4,0.8-0.6l2.1-1.4l-2.5-0.4c-8.3-1.3-10-15.7-10.8-22.7
			c-0.4-3.1-0.7-6.4-1-9.6c-0.3-2.9-0.5-5.7-0.8-8.1c-0.1-1.1-0.3-2.2-0.4-3.2c-0.1-0.8-1.1-7.8-2.7-11.7l-1.2-3l-0.1-0.4l-0.4-0.2
			C182.1,137,178.4,135.2,172.2,135.2L172.2,135.2z M151.8,189c-1.3,0-2.6-2.5-3-5.5c-0.6-4.8,1-12.9,3.9-20
			c3.1-7.6,7-12.4,10.4-12.8c0.1,0,0.3,0,0.4,0c2,0,3.4,1.8,4,3c-0.3,4.7-2.1,13.4-5.1,21.1c-3.3,8.7-7.2,13.9-10.6,14.2
			C151.9,189,151.9,189,151.8,189L151.8,189z"/>
	</g>
	<g>
		<path class="st0" d="M337.3,191.2c5.6,0,8.9,1.6,8.9,1.6s0.3,0.6,1.1,2.8c1.4,3.4,2.3,9.4,2.4,10.6c0.1,1,0.3,2,0.4,3
			c0.5,4.7,1,10.8,1.6,16.4c0.9,7.8,3.2,19.1,9.8,23c-1.7,1.2-2.9,1.6-7,1.9c-0.3,0-0.6,0-0.9,0c-8.4,0-12.9-10.7-14.2-16.2
			c-2.7,11.5-11.5,20-22.2,21.7c-0.9,0.1-1.8,0.2-2.7,0.2c-9.3,0-16.7-7.7-17.9-18.4c-0.1-1.2-0.2-2.4-0.2-3.5
			c-0.1-5.2,0.7-10.3,2.5-15.2c5.4-14.6,17.8-24.5,32.9-27.3C333.8,191.4,335.6,191.2,337.3,191.2 M318.4,240.9c0.1,0,0.1,0,0.2,0
			c8.1-0.9,14.8-24.4,15.4-33.8c-1-2-2.6-3.5-4.7-3.5c-0.2,0-0.3,0-0.5,0c-7.7,0.9-15.1,21.7-14,31.3
			C315.1,237.7,316.4,240.9,318.4,240.9 M337.3,190.2c-1.9,0-3.8,0.2-5.7,0.5c-15.7,2.9-28.3,13.4-33.6,28c-1.9,5-2.7,10.2-2.6,15.5
			c0,1.2,0.1,2.4,0.3,3.6c1.3,11.3,9.1,19.3,18.9,19.3c0.9,0,1.9-0.1,2.8-0.2c10.1-1.6,18.5-8.9,22.1-19.1c0.7,2.1,1.9,4.8,3.6,7.3
			c2.9,4.2,6.6,6.5,10.6,6.5c0.3,0,0.7,0,1,0c4-0.4,5.5-0.8,7.4-2.1l1.3-0.9l-1.4-0.8c-4.8-2.8-7.9-10.3-9.3-22.2
			c-0.3-2.9-0.6-5.9-0.9-8.8c-0.2-2.7-0.5-5.3-0.7-7.5c-0.1-1-0.2-2-0.4-3c-0.1-0.7-1-7.2-2.5-10.8l-1.1-2.8l-0.1-0.4l-0.3-0.2
			C346.5,191.9,343,190.2,337.3,190.2L337.3,190.2z M318.4,239.9c-1.1,0-2.3-2.3-2.6-5c-0.5-4.5,1-11.9,3.6-18.4
			c2.9-6.9,6.5-11.4,9.5-11.8c0.1,0,0.3,0,0.4,0c1.8,0,3,1.6,3.7,2.7c-0.6,9.3-7.3,31.7-14.5,32.5
			C318.5,239.9,318.4,239.9,318.4,239.9L318.4,239.9z"/>
	</g>
	<g>
		<path class="st0" d="M384.6,187.1c2.4,0,4.5,0.5,5.9,1.2c1.2,0.5,2.2,1.1,3,2c4.4,5.4,3.3,9.4,0.4,10.8c-1,0.5-2.3,0.8-3.8,0.8
			c-3.3,0-6.8-1.7-6.8-6.2c0,0,0,0,0,0c-0.1,0-0.2,0-0.4,0.1c-3.8,0.6-4,4.2-3.8,5.3c0.4,2.7,3.8,4.8,10.9,8.9
			c9.1,5.2,14.2,9.7,15.1,16.4c1.5,10.6-7.4,21.4-21.4,23.3c-1,0.1-1.9,0.2-2.9,0.2c-16.5,0-19.5-16.1-19.5-16.1
			c2,2.2,9,6.3,15.7,6.3c0.7,0,1.5,0,2.2-0.2c2.7-0.4,6.2-3.4,5.5-7.8c-1.3-9.1-21-11.8-22.7-24.7c-1.2-8.6,4.3-14.6,11.4-17.7
			c2.3-1.2,5-1.9,7.7-2.2c0.1,0,0.2,0,0.2,0C382.6,187.1,383.7,187.1,384.6,187.1 M384.6,186.1c-1,0-2.1,0.1-3.2,0.2l-0.2,0l-0.1,0
			c-2.9,0.3-5.7,1.1-8,2.3c-8.7,3.9-13.1,10.7-12,18.8c1,7.5,7.6,11.7,13.4,15.4c4.5,2.9,8.8,5.6,9.3,9.3c0.5,3.8-2.4,6.4-4.7,6.7
			c-0.7,0.1-1.3,0.1-2,0.1c-6.3,0-13.1-3.9-15-6l-2.3-2.6l0.6,3.4c0,0.2,3.3,16.9,20.4,16.9c1,0,2-0.1,3-0.2c6.9-1,13-4.1,17.2-8.7
			c4.1-4.6,5.9-10.2,5.1-15.7c-1-7.3-6.7-12-15.6-17.1c-6.6-3.8-10.1-5.9-10.4-8.1c0,0-0.4-3.1,2.3-4c0.6,4.4,4.4,6,7.7,6
			c1.6,0,3.1-0.3,4.2-0.9c1.5-0.8,2.6-2.2,2.9-3.8c0.4-1.7,0.1-4.6-3-8.5c-0.8-0.9-1.9-1.7-3.3-2.2
			C389.3,186.5,387.1,186.1,384.6,186.1L384.6,186.1z"/>
	</g>
	<g>
		<path class="st0" d="M307.7,78.7c2.9,0,6.2,1.6,9.8,3.8c-3.7,19.3,0.2,44.2,4.4,64.1c3.8,18.1,12,28.4,20.3,28.4
			c0.2,0,0.5,0,0.7,0c-1.5,1.9-4.7,4.8-9.5,5.9c-1,0.2-1.9,0.3-2.8,0.3c-7,0-12.7-5.9-16.2-11.4c-0.6,1.3-1.4,2.7-2.2,4
			c-6.1,8.8-15.5,13.2-24.9,13.2c-0.8,0-1.6,0-2.3-0.1c-34.8-2.7-26.9-63.6,5.4-63.6c0.7,0,1.3,0,2,0.1c3.6,0.2,6.6,0.9,9.3,2
			c-6.1-26.7-7.4-43.7,4.4-46.5C306.6,78.8,307.1,78.7,307.7,78.7 M291.4,173.9c0.6,0,1.1-0.1,1.7-0.2c6.6-1.3,13.8-11.1,13.8-26.5
			c-2.7-5.2-6.3-9.4-12.1-9.4c-5.3,0-11.3,7.4-13,19.2C280,168.3,285.8,173.9,291.4,173.9 M307.7,77.7c-0.7,0-1.3,0.1-1.9,0.2
			c-12.5,3-11.5,19.7-5.6,45.9c-2.5-0.8-5.1-1.3-7.9-1.4c-0.7-0.1-1.4-0.1-2.1-0.1c-8.3,0-15.6,3.8-21,11.1c-4.8,6.3-7.7,15-8,23.6
			c-0.3,7.8,1.5,15.1,5.2,20.5c4.2,6.2,10.5,9.8,18.4,10.4c0.8,0.1,1.6,0.1,2.4,0.1c10.4,0,19.8-5,25.8-13.7
			c0.5-0.8,1.1-1.7,1.5-2.6c2.8,4,8.5,10.5,16.1,10.5c1,0,2-0.1,3-0.3c5.7-1.3,9-4.8,10.1-6.2l1.4-1.8l-2.3,0.2c-0.2,0-0.4,0-0.6,0
			c-8.2,0-15.8-10.9-19.3-27.6c-3.7-17.8-8.2-43.7-4.4-63.7l0.1-0.7l-0.6-0.4C315.1,79.8,311.2,77.7,307.7,77.7L307.7,77.7z
			 M291.4,172.9c-2.3,0-4.5-1-6.1-2.9c-2.5-2.9-3.4-7.4-2.6-12.8c1.3-9,6.2-18.3,12-18.3c4.5,0,7.9,2.7,11.1,8.7
			c-0.1,11.2-4.9,23.6-13,25.2C292.4,172.8,291.9,172.9,291.4,172.9L291.4,172.9z"/>
	</g>
	<g>
		<path class="st0" d="M18,115.3c6.3,0,13.9,4.5,24.5,28.5c9.8,22,20.2,42.9,20.2,42.9c0,0,0,0,0,0c0.1,0,11.1-66.3,31.1-69
			c0.4,0,0.7-0.1,1.1-0.1c3.4,0,7.5,2.1,11.8,8.6c6.8,10.3,11.8,44.6,13.5,58.6s5.1,41.5,9.9,47c-1.7,2.3-7.3,4.5-11.9,4.5
			c-0.7,0-1.3,0-2-0.1c-9.2-1.5-13.2-10.7-15.2-25.8l0,0l-0.2-1.9c-1.3-13-3.4-36.1-6.6-58.2c-0.2-1.7-0.5-2.7-1.2-2.7
			c0,0-0.1,0-0.1,0c-1.2,0.2-1.9,2.8-4,11.7c-3.1,13.1-9.1,34.4-14.7,42c-2.7,3.6-6,5.6-9.5,5.8c-0.9,0.1-1.8,0.2-2.6,0.2
			c-5.5,0-10-2.5-13.3-7.4c-6.8-10.2-19.1-42.8-23.1-46.7c-0.3-0.2-1-0.8-1.8-0.8c-0.1,0-0.2,0-0.3,0c-0.7,0.1-0.9,1.1-0.3,4.7
			c2,11.8,4.3,25.4,6.1,38.5c3.6,26.9,4.2,52.7-10.5,54.7c-0.9,0.1-1.8,0.2-2.9,0.2c-4.5,0-9.8-1.1-11.8-3.1
			c5.4-12.1,0.7-57.3-1.2-71.9C1.9,166.1,0.8,156.8,1,148c0.5-20.7,4-31.1,14.8-32.6C16.6,115.3,17.3,115.3,18,115.3 M18,114.3
			c-0.7,0-1.5,0.1-2.3,0.2C3.4,116.2,0.5,129.1,0,148c-0.2,8.9,1,18.6,2.2,27.8c2,14.8,6.5,59.6,1.3,71.3l-0.3,0.6l0.5,0.5
			c2.4,2.3,8.2,3.3,12.5,3.3c1.1,0,2.1-0.1,3-0.2c7.2-1,11.6-7.3,13-18.8c1.1-8.9,0.6-20.6-1.6-36.9c-1.4-10.6-3.3-21.8-5-31.6
			c-0.4-2.4-0.8-4.7-1.2-6.9c-0.4-2.3-0.4-3.2-0.3-3.6c0.4,0,0.8,0.3,1,0.5c1.9,1.8,6.3,11.6,10.5,21c4.5,10.1,9.1,20.5,12.5,25.6
			c3.6,5.2,8.3,7.9,14.2,7.9c0.9,0,1.8-0.1,2.7-0.2c3.8-0.2,7.3-2.4,10.2-6.2c6.9-9.3,13.6-37,14.9-42.4c1.2-5.1,2.3-9.6,3-10.7
			c0.1,0.3,0.2,0.8,0.3,1.6c2.8,19.7,4.8,40,6.1,53.5c0.2,1.7,0.3,3.2,0.5,4.6l0.2,1.9l0.1,1l0.1,0c1.7,11.8,5,23.9,15.9,25.6
			c0.7,0.1,1.4,0.2,2.1,0.2c4.8,0,10.7-2.3,12.7-4.9l0.5-0.6l-0.5-0.6c-4.6-5.3-8.2-34.1-9.7-46.4c-1.4-11.1-6.4-48-13.7-59.1
			c-3.9-6-8.2-9.1-12.6-9.1c-0.4,0-0.8,0-1.2,0.1c-17.4,2.4-28,48.9-31.4,66.8c-3.1-6.3-11.1-22.9-18.9-40.2
			C34.5,123,26.8,114.3,18,114.3L18,114.3z"/>
	</g>
</g>
<path class="st1" d="M33.7,341.9"/>
<path class="st2" d="M234.1,226.4"/>
<path class="st2" d="M221,185.4"/>
<path class="st2" d="M218.9,229.4"/>
<path class="st3" d="M294.7,137.8c-5.3,0-11.3,7.4-13,19.2c-1.8,12.5,5.4,18,11.4,16.7c6.6-1.3,13.8-11.1,13.8-26.5
	C304.1,142.1,300.6,137.8,294.7,137.8z"/>
<path d="M116.9,236.6"/>
<g>
	<path class="st4" d="M237.9,264.8c-0.6-4.6-3.4-6.4-7.3-5.9c-7.4,1-36.6,7.4-37.3,9.2c-0.2,1.1-0.2,3.1,0,4.8
		c0.9,6.5,6,7.2,12.5,6.3c1.4-0.2,2.9-0.4,4.3-0.8l0.2,1.4c1.6,11.2-6.8,31.1-18,32.6c-16.2,2.3-28.4-12.5-32.5-41.2
		c-2.5-17.8-1-49.3,18.1-52c18.1-2.5,14.9,16.2,27.4,17.3c3.9,0.3,10.9,0.1,17.4-5.8c-1.6-5.1-7.2-27.4-45.9-21.9
		c-32,4.5-44.2,38.6-40.3,66c3.7,26.5,19.7,55.3,54.1,50.4c24.6-3.5,41.9-25.8,37.3-50.6l0-0.2c4.8-1.4,7.5-2.4,9.4-3.7
		C237.8,269.1,238.2,267.3,237.9,264.8z"/>
	<path class="st4" d="M253.1,159.9c-5.3,1.2-13.6-2.2-11.6-11c1.7-7.2-1-6-1.8-5.8c-12.2,3.8-18.8,21.4-17.8,38.9
		c0.5,9,4.8,16.1,4.8,16.1c-1.4,1.2-4.9,1.9-7.5,2.2c-14.1,1.6-15.9-12.7-17.2-24c-0.7-6-1.2-12.6-1.8-17.7
		c-0.7-6.2-1.7-11.7-4.2-17.4c2.7-3.3,7-5.4,11-5.8c9.6-0.7,10.9,8.5,11,9.2s0.4,4.6,0.4,4.6c8.2-11.6,20.2-15,25.7-15.6
		c12.4-1.4,18.2,4.9,18.3,13.6C262,158.2,255.7,159.3,253.1,159.9z"/>
	<path class="st4" d="M288.7,231.5c-5,1.2-12.8-2.1-10.9-10.3c1.6-6.7-1-5.6-1.7-5.4c-11.4,3.5-17.9,20.4-16.7,36.8
		c0.7,9.3,4.5,14.8,4.5,14.8c-1.3,1.1-4.6,1.8-7,2.1c-13.2,1.5-14.9-12-16.2-22.6c-0.7-5.7-1.1-11.8-1.6-16.6
		c-0.7-5.8-1.3-11.7-3.7-17c2.9-2.8,6.4-4,10.2-4.5c9.1-0.6,10.1,7.7,10.2,8.4s0.4,4.3,0.4,4.3c7.7-10.9,18.9-14.1,24.2-14.7
		c11.6-1.4,17.1,4.6,17.2,12.8C297,229.8,291.1,230.9,288.7,231.5z"/>
	<path class="st4" d="M363.7,180.8c-11.2,2-13.9-9.1-13.7-18.2c0.1-6.2-0.6-12.6-0.9-17.7c-0.4-6.2-1.1-11.8-3.4-17.6
		c2.9-3.2,7.1-5.5,11.2-5.8c5-0.3,9.7,2.5,10.7,10.2c0.4,4,0.8,14.1,1.8,23.3C370.7,169.5,374.9,178.8,363.7,180.8z"/>
	<path class="st4" d="M192.3,176.5c-0.7-6-1.2-12.6-1.8-17.7c-0.1-1.1-0.3-2.2-0.4-3.2c-0.2-1.3-1.2-7.8-2.6-11.5
		c-0.9-2.3-1.2-3-1.2-3s-6.2-3-15.7-1.2c-16.4,3.1-29.7,13.8-35.6,29.6c-1.9,5.2-2.9,10.8-2.7,16.4c0,1.3,0.1,2.6,0.3,3.8
		c1.5,12.7,10.9,21,22.4,19.6c9.9-1.2,21.1-11.1,24.1-23.5c1.5,6.2,7.3,18.3,17.1,17.5c4.4-0.4,6-2.1,7.9-3.4
		C195.2,198.7,193.3,184.9,192.3,176.5z M156.5,193.1c-2.3,0.3-3.8-3.3-4.2-6.4c-1.2-10.4,6.8-32.9,15.2-33.9
		c2.5-0.3,4.4,1.4,5.6,3.7C172.5,166.7,165.3,192.1,156.5,193.1z"/>
	<path class="st4" d="M356.1,228.7c-0.6-5.6-1.1-11.6-1.6-16.4c-0.1-1-0.2-2-0.4-3c-0.2-1.2-1.1-7.2-2.4-10.6
		c-0.8-2.1-1.1-2.8-1.1-2.8s-5.7-2.7-14.5-1.1c-15.1,2.8-27.5,12.7-32.9,27.3c-1.8,4.8-2.7,10-2.5,15.2c0,1.2,0.1,2.4,0.2,3.5
		c1.4,11.7,10.1,19.8,20.6,18.2c10.8-1.7,19.5-10.2,22.2-21.7c1.4,5.8,6.1,17,15.1,16.2c4-0.4,5.3-0.8,7-1.9
		C359.3,247.8,357,236.5,356.1,228.7z M323.1,244c-2.1,0.2-3.5-3.1-3.9-5.9c-1.1-9.6,6.3-30.4,14-31.3c2.3-0.3,4.1,1.3,5.2,3.5
		C337.9,219.6,331.2,243.1,323.1,244z"/>
	<path class="st4" d="M409.6,229.4c-0.9-6.6-6-11.1-15.1-16.4c-7.1-4.1-10.5-6.2-10.9-8.9c-0.2-1.1,0-4.7,3.8-5.3
		c0.1,0,0.2,0,0.4-0.1c0,0,0,0,0,0c0,6.5,7.3,7.1,10.6,5.4c2.9-1.5,4-5.4-0.4-10.8c-0.7-0.8-1.7-1.5-3-2c-2-1-5.2-1.5-9-1
		c-0.1,0-0.2,0-0.2,0c-2.7,0.3-5.5,1-7.7,2.2c-7.1,3.2-12.6,9.2-11.4,17.7c1.8,12.9,21.5,15.6,22.7,24.7c0.6,4.4-2.9,7.4-5.5,7.8
		c-7.3,1.1-15.7-3.7-17.9-6.1c0,0,3.3,17.9,22.3,15.9C402.2,250.8,411,240,409.6,229.4z"/>
	<path class="st4" d="M321.9,85.6c-4.3-2.7-8.2-4.4-11.5-3.6c-11.9,2.8-10.6,19.8-4.4,46.5c-2.7-1.1-5.7-1.9-9.3-2
		c-33.9-2.6-43,60.7-7.4,63.5c10.2,0.8,20.7-3.6,27.3-13.2c0.9-1.3,1.6-2.6,2.2-4c3.9,6.3,10.7,13,19,11.1c4.9-1.1,8-3.9,9.5-5.9
		c-8.5,0.6-17.1-9.8-21-28.4C322.1,129.8,318.2,105,321.9,85.6z M297.5,176.9c-6,1.2-13.2-4.2-11.4-16.7c1.7-11.8,7.7-19.2,13-19.2
		c5.9,0,9.4,4.2,12.1,9.4C311.3,165.8,304.1,175.5,297.5,176.9z"/>
	<path class="st4" d="M124.8,188.1c-1.7-14-6.7-48.4-13.5-58.6c-4.8-7.3-9.3-9-12.9-8.5c-20,2.7-31.1,69.2-31.1,69
		c0,0-10.4-21-20.2-42.9c-11.9-26.9-20-29.3-26.7-28.3C9.5,120.2,6,130.5,5.4,151.2c-0.2,8.7,0.9,18.1,2.2,27.6
		c2,14.5,6.6,59.7,1.2,71.9c2.5,2.4,9.9,3.5,14.6,2.9c14.7-2,14.1-27.7,10.5-54.7c-1.8-13.1-4.1-26.7-6.1-38.5
		c-0.6-3.6-0.4-4.6,0.3-4.7c0.9-0.1,1.8,0.5,2,0.7c4.1,3.9,16.4,36.5,23.1,46.7c3.8,5.6,9.2,8.1,16,7.2c3.5-0.2,6.8-2.2,9.5-5.8
		c5.7-7.7,11.7-29,14.7-42c2.1-8.9,2.8-11.6,4-11.7c0.7-0.1,1,0.9,1.3,2.7c3.2,22.1,5.3,45.2,6.6,58.2l0.2,1.9l0,0
		c2,15.1,6,24.3,15.2,25.8c4.9,0.8,11.9-1.7,13.9-4.3C129.9,229.6,126.5,202.1,124.8,188.1z"/>
</g>
<g>
	<path class="st5" d="M233.4,261.6c-0.6-4.6-3.4-6.4-7.3-5.9c-7.4,1-36.6,7.4-37.3,9.2c-0.2,1.1-0.2,3.1,0,4.8
		c0.9,6.5,6,7.2,12.5,6.3c1.4-0.2,2.9-0.4,4.3-0.8l0.2,1.4c1.6,11.2-6.8,31.1-18,32.6c-16.2,2.3-28.4-12.5-32.5-41.2
		c-2.5-17.8-1-49.3,18.1-52c18.1-2.5,14.9,16.2,27.4,17.3c3.9,0.3,10.9,0.1,17.4-5.8c-1.6-5.1-7.2-27.4-45.9-21.9
		c-32,4.5-44.2,38.6-40.3,66c3.7,26.5,19.7,55.3,54.1,50.4c24.6-3.5,41.9-25.8,37.3-50.6l0-0.2c4.8-1.4,7.5-2.4,9.4-3.7
		C233.4,265.9,233.8,264.1,233.4,261.6z"/>
	<path class="st5" d="M248.7,156.7c-5.3,1.2-13.6-2.2-11.6-11c1.7-7.2-1-6-1.8-5.8c-12.2,3.8-18.8,21.4-17.8,38.9
		c0.5,9,4.8,16.1,4.8,16.1c-1.4,1.2-4.9,1.9-7.5,2.2c-14.1,1.6-15.9-12.7-17.2-24c-0.7-6-1.2-12.6-1.8-17.7
		c-0.7-6.2-1.7-11.7-4.2-17.4c2.7-3.3,7-5.4,11-5.8c9.6-0.7,10.9,8.5,11,9.2c0.2,0.7,0.4,4.6,0.4,4.6c8.2-11.6,20.2-15,25.7-15.6
		c12.4-1.4,18.2,4.9,18.3,13.6C257.6,155,251.2,156.1,248.7,156.7z"/>
	<path class="st5" d="M284.3,228.3c-5,1.2-12.8-2.1-10.9-10.3c1.6-6.7-1-5.6-1.7-5.4c-11.4,3.5-17.9,20.4-16.7,36.8
		c0.7,9.3,4.5,14.8,4.5,14.8c-1.3,1.1-4.6,1.8-7,2.1c-13.2,1.5-14.9-12-16.2-22.6c-0.7-5.7-1.1-11.8-1.6-16.6
		c-0.7-5.8-1.3-11.7-3.7-17c2.9-2.8,6.4-4,10.2-4.5c9.1-0.6,10.1,7.7,10.2,8.4s0.4,4.3,0.4,4.3c7.7-10.9,18.9-14.1,24.2-14.7
		c11.6-1.4,17.1,4.6,17.2,12.8C292.6,226.6,286.7,227.7,284.3,228.3z"/>
	<path class="st5" d="M359.3,177.6c-11.2,2-13.9-9.1-13.7-18.2c0.1-6.2-0.6-12.6-0.9-17.7c-0.4-6.2-1.1-11.8-3.4-17.6
		c2.9-3.2,7.1-5.5,11.1-5.8c5-0.3,9.7,2.5,10.7,10.2c0.4,4,0.8,14.1,1.8,23.3C366.3,166.4,370.5,175.6,359.3,177.6z"/>
	<path class="st5" d="M187.9,173.3c-0.7-6-1.2-12.6-1.8-17.7c-0.1-1.1-0.3-2.2-0.4-3.2c-0.2-1.3-1.2-7.8-2.6-11.5
		c-0.9-2.3-1.2-3-1.2-3s-6.2-3-15.7-1.2c-16.4,3.1-29.7,13.8-35.6,29.6c-1.9,5.2-2.9,10.8-2.7,16.4c0,1.3,0.1,2.6,0.3,3.8
		c1.5,12.7,10.9,21,22.4,19.6c9.9-1.2,21.1-11.1,24.1-23.5c1.5,6.2,7.3,18.3,17.1,17.5c4.4-0.4,6-2.1,7.9-3.4
		C190.8,195.5,188.9,181.8,187.9,173.3z M152.1,189.9c-2.3,0.3-3.8-3.3-4.2-6.4c-1.2-10.4,6.8-32.9,15.2-33.9
		c2.5-0.3,4.4,1.4,5.6,3.7C168.1,163.5,160.9,188.9,152.1,189.9z"/>
	<path class="st5" d="M351.7,225.5c-0.6-5.6-1.1-11.6-1.6-16.4c-0.1-1-0.2-2-0.4-3c-0.2-1.2-1.1-7.2-2.4-10.6
		c-0.8-2.1-1.1-2.8-1.1-2.8s-5.7-2.7-14.5-1.1c-15.1,2.8-27.5,12.7-32.9,27.3c-1.8,4.8-2.7,10-2.5,15.2c0,1.2,0.1,2.4,0.2,3.5
		c1.4,11.7,10.1,19.8,20.6,18.2c10.8-1.7,19.5-10.2,22.2-21.7c1.4,5.8,6.1,17,15.1,16.2c4-0.4,5.3-0.8,7-1.9
		C354.9,244.6,352.6,233.3,351.7,225.5z M318.6,240.8c-2.1,0.2-3.5-3.1-3.9-5.9c-1.1-9.6,6.3-30.4,14-31.3c2.3-0.3,4.1,1.3,5.2,3.5
		C333.5,216.4,326.8,239.9,318.6,240.8z"/>
	<path class="st5" d="M405.2,226.2c-0.9-6.6-6-11.1-15.1-16.4c-7.1-4.1-10.5-6.2-10.9-8.9c-0.2-1.1,0-4.7,3.8-5.3
		c0.1,0,0.2,0,0.4-0.1c0,0,0,0,0,0c0,6.5,7.3,7.1,10.6,5.4c2.9-1.5,4-5.4-0.4-10.8c-0.7-0.8-1.7-1.5-3-2c-2-1-5.2-1.5-9-1
		c-0.1,0-0.2,0-0.2,0c-2.7,0.3-5.5,1-7.7,2.2c-7.1,3.2-12.6,9.2-11.4,17.7c1.8,12.9,21.5,15.6,22.7,24.7c0.6,4.4-2.9,7.4-5.5,7.8
		c-7.3,1.1-15.7-3.7-17.9-6.1c0,0,3.3,17.9,22.3,15.9C397.8,247.6,406.6,236.8,405.2,226.2z"/>
	<path class="st5" d="M317.5,82.5c-4.3-2.7-8.2-4.4-11.5-3.6c-11.9,2.8-10.6,19.8-4.4,46.5c-2.7-1.1-5.7-1.9-9.3-2
		c-33.9-2.6-43,60.7-7.4,63.5c10.2,0.8,20.7-3.6,27.3-13.2c0.9-1.3,1.6-2.6,2.2-4c3.9,6.3,10.7,13,19,11.1c4.9-1.1,8-3.9,9.5-5.9
		c-8.5,0.6-17.1-9.8-21-28.4C317.7,126.6,313.8,101.8,317.5,82.5z M293.1,173.7c-6,1.2-13.2-4.2-11.4-16.7
		c1.7-11.8,7.7-19.2,13-19.2c5.9,0,9.4,4.2,12.1,9.4C306.9,162.6,299.7,172.4,293.1,173.7z"/>
	<path class="st5" d="M120.3,184.9c-1.7-14-6.7-48.4-13.5-58.6c-4.8-7.3-9.3-9-12.9-8.5c-20,2.7-31.1,69.2-31.1,69
		c0,0-10.4-21-20.2-42.9c-11.9-26.9-20-29.3-26.7-28.3C5,117,1.6,127.4,1,148c-0.2,8.7,0.9,18.1,2.2,27.6c2,14.5,6.6,59.7,1.2,71.9
		c2.5,2.4,9.9,3.5,14.6,2.9c14.7-2,14.1-27.7,10.5-54.7c-1.8-13.1-4.1-26.7-6.1-38.5c-0.6-3.6-0.4-4.6,0.3-4.7
		c0.9-0.1,1.8,0.5,2,0.7c4.1,3.9,16.4,36.5,23.1,46.7c3.8,5.6,9.2,8.1,16,7.2c3.5-0.2,6.8-2.2,9.5-5.8c5.7-7.7,11.7-29,14.7-42
		c2.1-8.9,2.8-11.6,4-11.7c0.7-0.1,1,0.9,1.3,2.7c3.2,22.1,5.3,45.2,6.6,58.2l0.2,1.9l0,0c2,15.1,6,24.3,15.2,25.8
		c4.9,0.8,11.9-1.7,13.9-4.3C125.5,226.4,122.1,198.9,120.3,184.9z"/>
</g>
<g>
	<path class="st6" d="M414.5,250.2c0,2.5-1.9,4.4-4.5,4.4c-2.5,0-4.5-1.9-4.5-4.4c0-2.4,2-4.4,4.5-4.4
		C412.6,245.8,414.5,247.8,414.5,250.2z M406.7,250.2c0,1.9,1.4,3.5,3.4,3.5c1.9,0,3.3-1.5,3.3-3.5c0-1.9-1.4-3.5-3.4-3.5
		S406.7,248.3,406.7,250.2z M409.4,252.5h-1v-4.4c0.4-0.1,1-0.1,1.7-0.1c0.8,0,1.2,0.1,1.5,0.3c0.2,0.2,0.4,0.5,0.4,1
		c0,0.5-0.4,0.9-0.9,1v0.1c0.4,0.2,0.7,0.5,0.8,1.1c0.1,0.7,0.2,0.9,0.3,1.1h-1.1c-0.1-0.2-0.2-0.6-0.3-1.1
		c-0.1-0.5-0.3-0.7-0.9-0.7h-0.5V252.5z M409.4,250h0.5c0.6,0,1-0.2,1-0.6c0-0.4-0.3-0.7-0.9-0.7c-0.3,0-0.5,0-0.6,0.1V250z"/>
</g>
<g>
	<path class="st5" d="M414.5,250.2c0,2.5-1.9,4.4-4.5,4.4c-2.5,0-4.5-1.9-4.5-4.4c0-2.4,2-4.4,4.5-4.4
		C412.6,245.8,414.5,247.8,414.5,250.2z M406.7,250.2c0,1.9,1.4,3.5,3.4,3.5c1.9,0,3.3-1.5,3.3-3.5c0-1.9-1.4-3.5-3.4-3.5
		S406.7,248.3,406.7,250.2z M409.4,252.5h-1v-4.4c0.4-0.1,1-0.1,1.7-0.1c0.8,0,1.2,0.1,1.5,0.3c0.2,0.2,0.4,0.5,0.4,1
		c0,0.5-0.4,0.9-0.9,1v0.1c0.4,0.2,0.7,0.5,0.8,1.1c0.1,0.7,0.2,0.9,0.3,1.1h-1.1c-0.1-0.2-0.2-0.6-0.3-1.1
		c-0.1-0.5-0.3-0.7-0.9-0.7h-0.5V252.5z M409.4,250h0.5c0.6,0,1-0.2,1-0.6c0-0.4-0.3-0.7-0.9-0.7c-0.3,0-0.5,0-0.6,0.1V250z"/>
</g>
<g>
	<path class="st7" d="M363.4,81.2c-7,0.8-9.2,6.7-11.4,7c-2.2,0.2-5.6-5.1-12.6-4.3c-7.9,0.9-12.6,8.7-12.6,12.3
		c0.1,3.9,16.5,21.4,28.3,20.1c11.7-1.3,24-21.9,23.3-25.7C377.6,87,371.3,80.4,363.4,81.2z"/>
	<path class="st8" d="M378.3,90.6c-0.4-2-2.7-5.1-6.1-7.2c1.6,1.6,2.6,3.3,2.9,4.7c0.8,3.8-11.5,24.4-23.3,25.7
		c-5,0.5-10.7-2.2-15.8-5.9c5.7,4.8,12.9,9.1,19,8.5C366.8,115,379.1,94.4,378.3,90.6z"/>
	<g id="phsGkU_2_">
		<g>
			<path class="st9" d="M352.8,99.1 M352.2,117"/>
		</g>
	</g>
	<g id="phsGkU_1_">
		<g>
			<path class="st9" d="M352.8,99.1 M352.2,117"/>
		</g>
	</g>
	<path class="st7" d="M360.2,78.7c-7,0.8-9.2,6.7-11.4,7c-2.2,0.2-5.6-5.1-12.6-4.3c-7.9,0.9-12.6,8.7-12.6,12.3
		c0.1,3.9,16.5,21.4,28.3,20.1c11.7-1.3,24-21.9,23.3-25.7C374.4,84.5,368.1,77.9,360.2,78.7z"/>
	<path class="st5" d="M334.5,94.6c-0.4-2.2,12.5,0.4,16.2,0.3c2.7-0.1,15.6-6.7,16.1-4.5c0.5,2.4-7.7,13.8-15.7,14.7
		C342.1,106,335.1,97.5,334.5,94.6z"/>
</g>
</svg>
